<svg xmlns="http://www.w3.org/2000/svg" viewBox="0 0 85.34 55.28"><defs><style>.cls-1{fill:#a3c167;}.cls-2{fill:#f9f9f9;}</style></defs><title>alperne</title><g id="Layer_2" data-name="Layer 2"><g id="hav"><polygon class="cls-1" points="46.96 25.84 71.41 25.84 85.34 55.26 36.71 55.26 46.96 25.84"/><path class="cls-2" d="M45.23,30.32S56.76-2.14,58.52.11s14.41,28.7,15.16,30.21l-3.38,4-5-5.77L62.9,34.33l-4.38-5.77L54.13,33.7,51,28.56l-4.13,5.77Z"/><polygon class="cls-1" points="8.74 30.03 29.85 30.03 41.72 55.28 0 55.28 8.74 30.03"/><path class="cls-2" d="M7.31,33.88S17.21,6,18.71,8s12.37,24.63,13,25.92l-2.9,3.44-4.3-5-2,5-3.77-5L15,36.78l-2.69-4.41-3.55,5Z"/><polygon class="cls-1" points="33.65 36.65 49.2 36.65 57.96 55.28 27.17 55.28 33.65 36.65"/><path class="cls-2" d="M32.57,39.49S39.87,18.94,41,20.36s9.12,18.18,9.6,19.13L48.44,42l-3.18-3.65L43.75,42,41,38.38,38.2,41.63l-2-3.25L33.6,42Z"/></g></g></svg>