<svg xmlns="http://www.w3.org/2000/svg" viewBox="0 0 768 432"><defs><style>.cls-1{fill:#4ca5a2;}.cls-2{fill:#8dc4c2;}.cls-3{fill:#2c8c65;}.cls-4{fill:#303030;}.cls-5{fill:#ffdf00;}.cls-6{fill:#ff0d79;}.cls-7{fill:#009b2d;}.cls-8{fill:#66554b;}.cls-9{isolation:isolate;}.cls-10{fill:#3d474a;}</style></defs><title>australien_map</title><g id="Layer_2" data-name="Layer 2"><g id="BG"><rect class="cls-1" width="768" height="432"/></g><g id="Australien"><path class="cls-2" d="M494.12,32.71c-17.66,12.21-29.5,29.87-32.63,48.58-.74,4.23,4.11,19.32-1,20-7.18.92-15.27-17.79-13.49-23.55,2.14-7,4.84-14.17,4.54-21.4s-4.18-15-12.15-18.28C425.74,32.41,410,42.22,394.7,42c-9.38-.12-18-4-27.17-5.64-8-1.35-17.84-.06-22.26,5.15a2.73,2.73,0,0,0,.31,3.87.83.83,0,0,0,.24.18h0a1.65,1.65,0,0,1,.43,2.27,1.9,1.9,0,0,1-1,.68c-15.82,3.61-29.81,12.32-38.33,23.91-12-6.19-28-12.32-39.32-5.33-3.61,2.27-6.07,5.52-8.52,8.71C248.67,89.08,250.76,86.68,243.4,94c-.49.49-7.79,21.47-8,20.86-1.23-3.68-17-8.71-21.29-8.9-11.34-.36-21.4,6.14-28.15,13.62S174.65,135.81,167.41,143c-15.33,15.27-40.48,21.83-56.73,36.49-11.84,10.67-18.15,25.33-17.11,39.68,2,28.21,29.93,50.66,38.7,78,3.49,11,3.86,22.39,4.29,33.73.25,7.05.61,14.29,3.74,20.79a24.31,24.31,0,0,0,18.34,13.5c14.6,1.9,25.76-9.88,38.64-15.77,22.38-10.18,50.53-2.27,75.56-6.68,22.2-3.93,40-17.11,59.3-26.86,12.33-6.26,28.83-11,40.67-4.11,6.68,3.92,9.93,10.55,14.59,16.13s12.7,10.61,20.49,8.4c-7.24,7.05,1.65,20.05,12.69,18.58,3.19-.43,6.2-1.72,9.39-1.78,7.23-.12,12.32,6.08,13.86,11.9S445,377,448.3,382.36c5.34,8.65,18.28,11.78,29.87,13.49a369.38,369.38,0,0,0,66.36,3.62c17.3-.61,34.84-2.58,50.6-8.52,40-15.28,59.25-52.81,68.69-88.14,2.7-10.12,4.91-20.6,2.7-30.85-2.45-11.16-10.06-21.09-15.21-31.64-7.3-15-9.75-31.28-15.58-46.68-19-50.1-72.06-87.58-92.06-137.38C541.28,50.32,539.32,44.18,535,39c-9.82-11.78-26.68-14.47-40.6-6.07"/><path class="cls-3" d="M425.92,58.9c-2.45-6.5-12.82-10.06-20.18-6.87-3.37,1.47-5.89,4-9.38,5.15-9.88,3.38-19.32-5.09-29.75-7.29A4,4,0,0,0,361.89,53h0a6.67,6.67,0,0,1-5.46,5.22c-19.93,3.43-37.78,15.88-35.63,31.7a4.06,4.06,0,0,1-2.52,4.3c-6.19,2.33-14.78-.8-20.42-4.85-6.62-4.72-13.37-10.85-22.08-10.42-9.57.42-15.7,8.58-18.7,16.06s-5.09,16-12.76,20.73c-2.21,1.41-4.91,2.46-6.5,4.36a5.33,5.33,0,0,0-.68,1,4,4,0,0,1-6.5.74c-1.65-1.84-3.31-3.75-5.89-4-5.39-.68-7.48,5.52-8.34,9.93-4.11,20.43-28,33.55-49.61,44.28s-45.33,24.11-49,44.65c-2,11.23,2.7,22.45,7.3,33.18,4.91,11.41,9.94,23,18.89,32.63,6.69,7.24,15.52,13.25,20.55,21.34s4.84,19.63-4.36,24.66c-2.2,1.23-4.84,2-6.62,3.62-4.05,3.74-1.16,10.12,4,12.69s11.65,2.39,17.72,2.15c11.53-.43,24.72-1.53,31.59-9.2,2.33-2.64,3.74-5.77,6.19-8.28,7.42-7.42,21.16-6.62,32.81-7.54,19.51-1.6,37.11-9.94,54.16-17.85s35.08-15.89,54.65-16.62,41.15,8,46.24,23.55c1.65,5,2.64,11.53,8.71,12.94,8.65,2,12.14-8.34,18.89-13.62a4,4,0,0,1,5.58.62,3.56,3.56,0,0,1,.55.92c1.47,3.74-1.59,9.57-5.76,12.75-3.44,2.58-7.43,5.89-9.2,9.27-2,3.74,2.57,7.48,5.95,5,2.75-2,5.27-5,8.83-4.72a8.75,8.75,0,0,1,3.68,1.41c14.9,9.69,7.85,33.55,24.84,40.48,4,1.66,8.7,1.84,13.18,2.09l49.8,2.2c17.24.74,36.56.92,49-8.89,5.45-4.29,8.89-10.06,12.14-15.7l41.34-70.84c2.45-4.17,4.9-8.52,5.33-13.12.31-3.68-.73-7.42-1.84-11a356.27,356.27,0,0,0-22.69-56.18c-1.84-3.62-3.8-7.24-6.87-10.24-2.58-2.52-5.83-4.42-8.65-6.69a67,67,0,0,1-9.75-10.36l-20.3-25.09c-7.36-9.07-14.9-18.4-17.79-29.07-2.08-7.6-1.9-15.88-7-22.44-4.84-6.26-13.92-10.06-17.17-17-2.08-4.48-1.35-9.45-1.84-14.23-.74-7.42-4.78-14.54-11-19.93a4,4,0,0,0-5.64.49,3.67,3.67,0,0,0-.86,1.78,298.81,298.81,0,0,1-22.57,66.78,8.18,8.18,0,0,1-3.07,3.56c-5,3.44-7.72.92-9.93-.24-16.93-9.08-31.22-19.26-48.15-28.34a19.13,19.13,0,0,1-4.6-3.13c-9.26-10,18.89-21.09,11.66-31.64"/><rect class="cls-4" x="486.94" y="364.94" width="0.98" height="11.71"/><path class="cls-5" d="M487.43,359.79a4.63,4.63,0,0,0-1.28.12,7.37,7.37,0,0,0-2.95,1,3.46,3.46,0,0,0-.49.36h0a5,5,0,0,0-1.84,2.58,6.14,6.14,0,0,0-.12,1h2.45C483.08,362.8,484.8,361.14,487.43,359.79Z"/><path class="cls-5" d="M487.43,359.79a9.4,9.4,0,0,0-1.35,5.15h1.35Z"/><path class="cls-6" d="M483.14,364.94h2.94a9,9,0,0,1,1.35-5.15C484.8,361.14,483.08,362.8,483.14,364.94Z"/><path class="cls-5" d="M487.43,359.79a4.7,4.7,0,0,1,1.29.12,7.42,7.42,0,0,1,2.95,1,4.16,4.16,0,0,1,.49.36h0A5,5,0,0,1,494,363.9a6.14,6.14,0,0,1,.12,1h-2.45C491.79,362.8,490.07,361.14,487.43,359.79Z"/><path class="cls-5" d="M487.43,359.79a9.4,9.4,0,0,1,1.35,5.15h-1.35Z"/><path class="cls-6" d="M491.73,364.94h-3a9,9,0,0,0-1.35-5.15C490.07,361.14,491.79,362.8,491.73,364.94Z"/><rect class="cls-4" x="310.92" y="286.74" width="0.74" height="8.28"/><path class="cls-5" d="M311.29,283.13a6.05,6.05,0,0,0-1,.06,8,8,0,0,0-2.33.73,2.12,2.12,0,0,1-.43.25h0A3.86,3.86,0,0,0,306,286a3.11,3.11,0,0,0-.13.73h2C307.86,285.27,309.15,284.11,311.29,283.13Z"/><path class="cls-5" d="M311.29,283.13a5.85,5.85,0,0,0-1,3.61h1Z"/><path class="cls-6" d="M307.86,286.74h2.33a5.79,5.79,0,0,1,1-3.61C309.15,284.11,307.86,285.27,307.86,286.74Z"/><path class="cls-5" d="M311.29,283.13a6,6,0,0,1,1,.06,8.16,8.16,0,0,1,2.34.73,2,2,0,0,0,.42.25h0a3.94,3.94,0,0,1,1.48,1.84,3.09,3.09,0,0,1,.12.73h-2C314.73,285.27,313.44,284.11,311.29,283.13Z"/><path class="cls-5" d="M311.29,283.13a5.73,5.73,0,0,1,1,3.61h-1Z"/><path class="cls-6" d="M314.67,286.74h-2.34a5.73,5.73,0,0,0-1-3.61C313.44,284.11,314.73,285.27,314.67,286.74Z"/><rect class="cls-4" x="319.33" y="278.96" width="1.1" height="14.29"/><path class="cls-5" d="M319.88,272.7a12.14,12.14,0,0,0-1.47.12,8.81,8.81,0,0,0-3.44,1.29l-.61.43h0a6.1,6.1,0,0,0-2.15,3.19A4.78,4.78,0,0,0,312,279h2.82C314.85,276.38,316.75,274.36,319.88,272.7Z"/><path class="cls-5" d="M319.88,272.7a11.07,11.07,0,0,0-1.53,6.26h1.53Z"/><path class="cls-6" d="M314.91,279h3.44a11.07,11.07,0,0,1,1.53-6.26C316.75,274.36,314.85,276.38,314.91,279Z"/><path class="cls-5" d="M319.88,272.7a12.14,12.14,0,0,1,1.47.12,8.77,8.77,0,0,1,3.43,1.29c.19.12.43.31.62.43h0a6,6,0,0,1,2.14,3.19,4.43,4.43,0,0,1,.19,1.29h-2.82C324.91,276.38,322.94,274.36,319.88,272.7Z"/><path class="cls-5" d="M319.88,272.7a11.23,11.23,0,0,1,1.53,6.26h-1.53Z"/><path class="cls-6" d="M324.85,279h-3.44a11.23,11.23,0,0,0-1.53-6.26C322.94,274.36,324.91,276.38,324.85,279Z"/><rect class="cls-4" x="470.69" y="354.88" width="1.35" height="16.87"/><path class="cls-5" d="M471.37,347.52a16.09,16.09,0,0,0-1.84.13,10.58,10.58,0,0,0-4.24,1.53c-.24.18-.49.31-.73.49h0a6.82,6.82,0,0,0-2.64,3.74,6.16,6.16,0,0,0-.18,1.47h3.49C465.11,351.82,467.5,349.49,471.37,347.52Z"/><path class="cls-5" d="M471.37,347.52a13,13,0,0,0-1.91,7.36h1.91Z"/><path class="cls-7" d="M465.23,354.88h4.23a13,13,0,0,1,1.91-7.36C467.5,349.49,465.11,351.82,465.23,354.88Z"/><path class="cls-5" d="M471.37,347.52a16.42,16.42,0,0,1,1.84.13,10.59,10.59,0,0,1,4.23,1.53c.24.18.49.31.73.49h0a6.82,6.82,0,0,1,2.64,3.74,6.16,6.16,0,0,1,.18,1.47H477.5C477.62,351.82,475.17,349.49,471.37,347.52Z"/><path class="cls-5" d="M471.37,347.52a13.09,13.09,0,0,1,1.9,7.36h-1.9Z"/><path class="cls-7" d="M477.5,354.88h-4.23a13.09,13.09,0,0,0-1.9-7.36C475.17,349.49,477.62,351.82,477.5,354.88Z"/><rect class="cls-4" x="479.89" y="357.34" width="1.35" height="16.87"/><path class="cls-5" d="M480.56,350c-.61,0-1.22.06-1.84.12a10.74,10.74,0,0,0-4.23,1.53c-.24.19-.49.31-.73.49h0a6.82,6.82,0,0,0-2.64,3.74,6.3,6.3,0,0,0-.18,1.48h3.49C474.31,354.27,476.7,351.94,480.56,350Z"/><path class="cls-5" d="M480.56,350a13,13,0,0,0-1.9,7.36h1.9Z"/><path class="cls-7" d="M474.43,357.34h4.23a13,13,0,0,1,1.9-7.36C476.7,351.94,474.31,354.27,474.43,357.34Z"/><path class="cls-5" d="M480.56,350c.62,0,1.23.06,1.84.12a10.73,10.73,0,0,1,4.24,1.53c.24.19.49.31.73.49h0a6.82,6.82,0,0,1,2.64,3.74,6.3,6.3,0,0,1,.18,1.48H486.7C486.82,354.27,484.37,351.94,480.56,350Z"/><path class="cls-5" d="M480.56,350a13,13,0,0,1,1.91,7.36h-1.91Z"/><path class="cls-7" d="M486.7,357.34h-4.23a13,13,0,0,0-1.91-7.36C484.37,351.94,486.82,354.27,486.7,357.34Z"/><rect class="cls-4" x="299.33" y="286.07" width="1.17" height="15.15"/><path class="cls-5" d="M300,279.45a13.31,13.31,0,0,0-1.54.12,8.75,8.75,0,0,0-3.55,1.35c-.19.12-.43.31-.62.43h0a6.32,6.32,0,0,0-2.21,3.37,4.89,4.89,0,0,0-.18,1.35h2.94C294.67,283.31,296.7,281.23,300,279.45Z"/><path class="cls-5" d="M300,279.45a11.9,11.9,0,0,0-1.6,6.62H300Z"/><path class="cls-7" d="M294.79,286.07h3.56a11.9,11.9,0,0,1,1.6-6.62C296.7,281.23,294.67,283.31,294.79,286.07Z"/><path class="cls-5" d="M300,279.45a13.14,13.14,0,0,1,1.53.12,8.85,8.85,0,0,1,3.56,1.35l.61.43h0a6.32,6.32,0,0,1,2.21,3.37,4.89,4.89,0,0,1,.18,1.35H305.1C305.16,283.31,303.14,281.23,300,279.45Z"/><path class="cls-5" d="M300,279.45a12,12,0,0,1,1.59,6.62H300Z"/><path class="cls-7" d="M305.1,286.07h-3.56a12,12,0,0,0-1.59-6.62C303.14,281.23,305.16,283.31,305.1,286.07Z"/><rect class="cls-4" x="367.96" y="56.45" width="0.98" height="11.71"/><path class="cls-5" d="M368.45,51.3a4.7,4.7,0,0,0-1.29.12,7.36,7.36,0,0,0-2.94,1,3.47,3.47,0,0,0-.49.37h0a4.89,4.89,0,0,0-1.84,2.58,6,6,0,0,0-.12,1h2.45C364.1,54.3,365.81,52.65,368.45,51.3Z"/><path class="cls-5" d="M368.45,51.3a9.4,9.4,0,0,0-1.35,5.15h1.35Z"/><path class="cls-6" d="M364.16,56.45h2.94a9,9,0,0,1,1.35-5.15C365.81,52.65,364.1,54.3,364.16,56.45Z"/><path class="cls-5" d="M368.45,51.3a4.7,4.7,0,0,1,1.29.12,7.36,7.36,0,0,1,2.94,1,3,3,0,0,1,.49.37h0A4.84,4.84,0,0,1,375,55.41a5.19,5.19,0,0,1,.13,1h-2.46C372.81,54.3,371.09,52.65,368.45,51.3Z"/><path class="cls-5" d="M368.45,51.3a9.4,9.4,0,0,1,1.35,5.15h-1.35Z"/><path class="cls-6" d="M372.75,56.45H369.8a9,9,0,0,0-1.35-5.15C371.09,52.65,372.81,54.3,372.75,56.45Z"/><rect class="cls-4" x="350.6" y="67.98" width="1.1" height="14.29"/><path class="cls-5" d="M351.16,61.72a10.7,10.7,0,0,0-1.48.13,8.66,8.66,0,0,0-3.43,1.28l-.61.43h0a6,6,0,0,0-2.15,3.19,4.78,4.78,0,0,0-.18,1.29h2.82C346.13,65.34,348,63.38,351.16,61.72Z"/><path class="cls-5" d="M351.16,61.72A11.16,11.16,0,0,0,349.62,68h1.54Z"/><path class="cls-6" d="M346.19,68h3.43a11.16,11.16,0,0,1,1.54-6.26C348,63.38,346.13,65.34,346.19,68Z"/><path class="cls-5" d="M351.16,61.72a10.42,10.42,0,0,1,1.47.13,8.6,8.6,0,0,1,3.43,1.28c.19.13.43.31.62.43h0a6,6,0,0,1,2.14,3.19A4.43,4.43,0,0,1,359,68h-2.82C356.19,65.34,354.22,63.38,351.16,61.72Z"/><path class="cls-5" d="M351.16,61.72A11.23,11.23,0,0,1,352.69,68h-1.53Z"/><path class="cls-6" d="M356.12,68h-3.43a11.23,11.23,0,0,0-1.53-6.26C354.22,63.38,356.19,65.34,356.12,68Z"/><rect class="cls-4" x="367.04" y="70.31" width="1.35" height="16.8"/><path class="cls-5" d="M367.72,63c-.62,0-1.23.06-1.84.12a10.75,10.75,0,0,0-4.24,1.54c-.24.18-.49.3-.73.49h0a6.79,6.79,0,0,0-2.64,3.74,6.16,6.16,0,0,0-.18,1.47h3.49C361.46,67.24,363.85,64.91,367.72,63Z"/><path class="cls-5" d="M367.72,63a13,13,0,0,0-1.91,7.36h1.91Z"/><path class="cls-7" d="M361.58,70.31h4.23A13,13,0,0,1,367.72,63C363.85,64.91,361.46,67.24,361.58,70.31Z"/><path class="cls-5" d="M367.72,63c.61,0,1.22.06,1.84.12a10.76,10.76,0,0,1,4.23,1.54c.24.18.49.3.73.49h0a6.79,6.79,0,0,1,2.64,3.74,6.18,6.18,0,0,1,.19,1.47h-3.5C374,67.24,371.52,64.91,367.72,63Z"/><path class="cls-5" d="M367.72,63a13,13,0,0,1,1.9,7.36h-1.9Z"/><path class="cls-7" d="M373.85,70.31h-4.23a13,13,0,0,0-1.9-7.36C371.52,64.91,374,67.24,373.85,70.31Z"/><rect class="cls-4" x="379" y="59.51" width="0.98" height="11.71"/><path class="cls-5" d="M379.49,54.36a4.36,4.36,0,0,0-1.29.13,7.36,7.36,0,0,0-2.94,1,2.85,2.85,0,0,0-.49.37h0a4.9,4.9,0,0,0-1.84,2.57,6.26,6.26,0,0,0-.12,1h2.45C375.2,57.37,376.85,55.71,379.49,54.36Z"/><path class="cls-5" d="M379.49,54.36a9.42,9.42,0,0,0-1.35,5.15h1.35Z"/><path class="cls-7" d="M375.2,59.51h2.94a9.08,9.08,0,0,1,1.35-5.15C376.85,55.71,375.2,57.37,375.2,59.51Z"/><path class="cls-5" d="M379.49,54.36a4.36,4.36,0,0,1,1.29.13,7.36,7.36,0,0,1,2.94,1,2.51,2.51,0,0,1,.49.37h0a4.85,4.85,0,0,1,1.84,2.57,5.38,5.38,0,0,1,.13,1h-2.46C383.85,57.37,382.19,55.71,379.49,54.36Z"/><path class="cls-5" d="M379.49,54.36a9.42,9.42,0,0,1,1.35,5.15h-1.35Z"/><path class="cls-7" d="M383.78,59.51h-2.94a9.08,9.08,0,0,0-1.35-5.15C382.19,55.71,383.85,57.37,383.78,59.51Z"/><path class="cls-8" d="M105.26,379.34l-23,.18s7.61-12.38,0-16S103.79,362.35,105.26,379.34Z"/><path class="cls-8" d="M49.25,399.65l-11.35.06s3.74-6.14,0-7.91S48.51,391.3,49.25,399.65Z"/><path class="cls-8" d="M53.3,320.33l-30.36.31s10.06-21,0-27.05S51.39,291.69,53.3,320.33Z"/><path class="cls-8" d="M652.8,70.26l22.75.19s-7.54-12.39,0-16S654.21,53.28,652.8,70.26Z"/><path class="cls-8" d="M673.87,121.93l14.78.06s-4.9-6.68,0-8.59S674.79,112.85,673.87,121.93Z"/><path class="cls-8" d="M725.34,55.9l14.78.06s-4.91-6.68,0-8.58S726.26,46.82,725.34,55.9Z"/><g class="cls-9"><path class="cls-10" d="M572.31,369.57l-2.07-4.7v6.88h-2.88V359.6h3.17l2.44,5.67,2.25-5.67h3.32v12.15h-3v-7l-2.05,4.82Z"/><path class="cls-10" d="M582,371.75V359.6h7.94v2.61h-4.82v2.12h4.17v2.6h-4.17v2.19h4.82v2.63Z"/><path class="cls-10" d="M593,371.75V359.6h3.12v9.52h3.87v2.63Z"/><path class="cls-10" d="M610.18,371.75H602.6V359.6h7.49a1.65,1.65,0,0,1,1.18.42,1.48,1.48,0,0,1,.44,1.11v2.7a1.83,1.83,0,0,1-.42,1.17,2.22,2.22,0,0,1-1.24.72,2.53,2.53,0,0,1,1.28.7,1.66,1.66,0,0,1,.47,1.14v2.64a1.51,1.51,0,0,1-.44,1.14A1.69,1.69,0,0,1,610.18,371.75Zm-1.48-7.42v-2.12c0-.13-.06-.2-.18-.2h-2.8v2.52h2.8C608.64,364.53,608.7,364.47,608.7,364.33Zm0,4.94V367c0-.13-.06-.2-.18-.2h-2.8v2.69h2.8A.16.16,0,0,0,608.7,369.27Z"/><path class="cls-10" d="M616.28,359.6h6.25A1.37,1.37,0,0,1,624,361v9.31a1.37,1.37,0,0,1-1.42,1.42h-6.25a1.37,1.37,0,0,1-1.42-1.42V361a1.37,1.37,0,0,1,1.42-1.42Zm4.54,9.36v-6.53a.18.18,0,0,0-.2-.2h-2.47c-.1,0-.16.06-.16.2V369a.14.14,0,0,0,.16.16h2.47C620.75,369.12,620.82,369.07,620.82,369Z"/><path class="cls-10" d="M627.3,359.6h3.13V369a.14.14,0,0,0,.16.16h2.29c.13,0,.2-.05.2-.16V359.6h3.13v10.76a1.31,1.31,0,0,1-.4,1,1.3,1.3,0,0,1-1,.4h-6.16a1.4,1.4,0,0,1-1.38-1.39Z"/><path class="cls-10" d="M639.66,359.6h7.64a1.31,1.31,0,0,1,1,.4,1.28,1.28,0,0,1,.4,1v5.56a1.38,1.38,0,0,1-1.36,1.37h-.09l1.49,3.85h-3.06l-1.51-3.85H642.8v3.85h-3.14Zm5.89,5.69v-2.9c0-.12,0-.18-.16-.18H642.8v3.24h2.59a.17.17,0,0,0,.16-.16Z"/><path class="cls-10" d="M658.31,371.75l-3.54-6.68v6.68h-2.88V359.6h2.88l3.63,6.7v-6.7h2.88v12.15Z"/><path class="cls-10" d="M664.74,371.75V359.6h7.94v2.61h-4.83v2.12H672v2.6h-4.18v2.19h4.83v2.63Z"/></g><g class="cls-9"><path class="cls-10" d="M170.79,289.07h7.43a1.31,1.31,0,0,1,1,.4,1.29,1.29,0,0,1,.41,1v6.24a1.35,1.35,0,0,1-.41,1,1.32,1.32,0,0,1-1,.41h-4.3v3.17h-3.13Zm3.13,6.41h2.37a.15.15,0,0,0,.17-.16v-3.46c0-.12-.06-.18-.17-.18h-2.37Z"/><path class="cls-10" d="M182.52,301.22V289.07h7.94v2.61h-4.82v2.12h4.17v2.6h-4.17v2.19h4.82v2.63Z"/><path class="cls-10" d="M193.48,289.07h7.64a1.31,1.31,0,0,1,1,.4,1.28,1.28,0,0,1,.4,1V296a1.38,1.38,0,0,1-1.36,1.37H201l1.49,3.85h-3.06L198,297.37h-1.33v3.85h-3.14Zm5.89,5.69v-2.9c0-.12-.05-.18-.16-.18h-2.59v3.24h2.59a.17.17,0,0,0,.16-.16Z"/><path class="cls-10" d="M204.57,289.07h8.64v2.63h-2.75v9.52h-3.13V291.7h-2.76Z"/><path class="cls-10" d="M224.77,289.07v12.15h-3.13V296.4h-3v4.82h-3.14V289.07h3.14v4.64h3v-4.64Z"/></g><g class="cls-9"><path class="cls-10" d="M277.54,50.61h6.53a2.48,2.48,0,0,1,2.47,2.47v7.2a2.4,2.4,0,0,1-.73,1.75,2.37,2.37,0,0,1-1.74.73h-6.53Zm5.88,8.64V54.1a.89.89,0,0,0-.24-.64.88.88,0,0,0-.64-.24h-1.87v6.91h1.87a.88.88,0,0,0,.64-.24A.86.86,0,0,0,283.42,59.25Z"/><path class="cls-10" d="M298.79,52V62.76h-3.13v-3h-2.75v3h-3.13V52a1.35,1.35,0,0,1,1.42-1.42h6.17A1.35,1.35,0,0,1,298.79,52Zm-5.88,5.08h2.75V53.46c0-.24-.14-.36-.43-.36h-1.94a.36.36,0,0,0-.27.1.34.34,0,0,0-.11.26Z"/><path class="cls-10" d="M302.14,50.61h7.63a1.31,1.31,0,0,1,1,.4,1.3,1.3,0,0,1,.4,1v5.56a1.31,1.31,0,0,1-.4,1,1.32,1.32,0,0,1-1,.41h-.09l1.5,3.85h-3.06l-1.51-3.85h-1.34v3.85h-3.13ZM308,56.3V53.4c0-.12-.06-.18-.16-.18h-2.6v3.24h2.6a.16.16,0,0,0,.1-.05A.15.15,0,0,0,308,56.3Z"/><path class="cls-10" d="M323.8,50.61h2.8l-2.28,12.15h-2.76L319.69,56l-1.92,6.77h-2.7l-2.31-12.15h3.06l1.06,7.63,1.64-7.63h2.58L322.64,58Z"/><path class="cls-10" d="M332,50.61V62.76h-3.12V50.61Z"/><path class="cls-10" d="M341.87,62.76l-3.55-6.68v6.68h-2.88V50.61h2.88l3.64,6.7v-6.7h2.88V62.76Z"/></g><g class="cls-9"><path class="cls-10" d="M606.47,313.22h4.17v4.2a1.74,1.74,0,0,1-.55,1.32,1.89,1.89,0,0,1-1.34.53h-8.14a1.82,1.82,0,0,1-1.31-.53,1.76,1.76,0,0,1-.54-1.32V304.89a1.75,1.75,0,0,1,.54-1.28,1.79,1.79,0,0,1,1.31-.54h8.14a1.87,1.87,0,0,1,1.33.54,1.74,1.74,0,0,1,.56,1.28v4.18h-4.17v-2.26c0-.17-.08-.26-.22-.26h-3a.23.23,0,0,0-.26.26v8.72c0,.16.09.24.26.24h3c.14,0,.22-.08.22-.24Z"/><path class="cls-10" d="M626.53,305v14.3h-4.18v-4h-3.67v4h-4.17V305a1.82,1.82,0,0,1,1.89-1.9h8.23a1.82,1.82,0,0,1,1.9,1.9Zm-7.85,6.76h3.67v-4.87q0-.48-.57-.48h-2.59a.46.46,0,0,0-.36.15.43.43,0,0,0-.15.33Z"/><path class="cls-10" d="M639.56,319.27l-4.73-8.9v8.9H631v-16.2h3.84l4.85,8.93v-8.93h3.84v16.2Z"/><path class="cls-10" d="M658.23,319.27h-10.1v-16.2h10a2.23,2.23,0,0,1,1.58.56,2,2,0,0,1,.58,1.48v3.6a2.37,2.37,0,0,1-.56,1.56,3,3,0,0,1-1.64,1,3.36,3.36,0,0,1,1.7.94,2.13,2.13,0,0,1,.62,1.51v3.53a2,2,0,0,1-.58,1.51A2.22,2.22,0,0,1,658.23,319.27Zm-2-9.89v-2.83c0-.17-.08-.26-.24-.26h-3.75v3.36H656Q656.27,309.65,656.27,309.38Zm0,6.58v-3.07q0-.27-.24-.27h-3.75v3.58H656A.21.21,0,0,0,656.27,316Z"/><path class="cls-10" d="M664.62,319.27v-16.2H675.2v3.48h-6.43v2.83h5.57v3.46h-5.57v2.93h6.43v3.5Z"/><path class="cls-10" d="M679.23,303.07h10.18a1.77,1.77,0,0,1,1.28.53,1.73,1.73,0,0,1,.54,1.29v7.42a1.84,1.84,0,0,1-1.82,1.82h-.12l2,5.14H687.2l-2-5.14h-1.78v5.14h-4.18Zm7.85,7.58v-3.86q0-.24-.21-.24h-3.46v4.32h3.46a.21.21,0,0,0,.14-.07A.21.21,0,0,0,687.08,310.65Z"/><path class="cls-10" d="M695.53,303.07h10.18a1.78,1.78,0,0,1,1.28.53,1.73,1.73,0,0,1,.54,1.29v7.42a1.84,1.84,0,0,1-1.82,1.82h-.12l2,5.14H703.5l-2-5.14h-1.77v5.14h-4.18Zm7.85,7.58v-3.86c0-.16-.07-.24-.22-.24h-3.45v4.32h3.45a.21.21,0,0,0,.15-.07A.26.26,0,0,0,703.38,310.65Z"/><path class="cls-10" d="M723.71,305v14.3h-4.18v-4h-3.67v4h-4.18V305a1.82,1.82,0,0,1,1.9-1.9h8.23a1.82,1.82,0,0,1,1.9,1.9Zm-7.85,6.76h3.67v-4.87c0-.32-.19-.48-.58-.48h-2.59a.49.49,0,0,0-.36.15.45.45,0,0,0-.14.33Z"/></g><g class="cls-9"><path class="cls-10" d="M632.19,277.73V275.1h4.56c.13,0,.2-.05.2-.16v-1.76c0-.11-.07-.17-.2-.17h-3.13a1.4,1.4,0,0,1-1-.39,1.43,1.43,0,0,1-.4-1V267a1.39,1.39,0,0,1,.4-1,1.37,1.37,0,0,1,1-.4h6.28v2.61h-4.39c-.12,0-.18.07-.18.2v1.78c0,.11.06.16.18.16h3.13a1.35,1.35,0,0,1,1.42,1.42v4.56a1.35,1.35,0,0,1-1.42,1.42Z"/><path class="cls-10" d="M648.81,277.73h-3.13v-3.56h-1.62a1.3,1.3,0,0,1-1-.43,1.4,1.4,0,0,1-.4-1v-7.15h3.13v5.6a.14.14,0,0,0,.06.12.22.22,0,0,0,.14.06h2.5c.08,0,.13-.06.13-.18v-5.6h3.13v7.15a1.41,1.41,0,0,1-.41,1,1.3,1.3,0,0,1-1,.43h-1.6Z"/><path class="cls-10" d="M654.73,265.58h6.53a2.39,2.39,0,0,1,1.74.72,2.35,2.35,0,0,1,.73,1.75v7.2a2.49,2.49,0,0,1-2.47,2.48h-6.53Zm5.89,8.64v-5.15a.84.84,0,0,0-.25-.64.86.86,0,0,0-.64-.24h-1.87v6.91h1.87a.86.86,0,0,0,.64-.24A.84.84,0,0,0,660.62,274.22Z"/><path class="cls-10" d="M673.5,277.73,670,271.05v6.68h-2.88V265.58H670l3.63,6.7v-6.7h2.88v12.15Z"/><path class="cls-10" d="M679.93,277.73V265.58h7.94v2.61H683v2.12h4.18v2.6H683v2.19h4.83v2.63Z"/><path class="cls-10" d="M696.51,277.73h-3.13v-3.56h-1.62a1.3,1.3,0,0,1-1-.43,1.4,1.4,0,0,1-.4-1v-7.15h3.13v5.6a.14.14,0,0,0,.06.12.22.22,0,0,0,.14.06h2.5c.08,0,.13-.06.13-.18v-5.6h3.13v7.15a1.41,1.41,0,0,1-.41,1,1.3,1.3,0,0,1-1,.43h-1.6Z"/></g></g></g></svg>