<svg xmlns="http://www.w3.org/2000/svg" viewBox="0 0 37.15 80.64"><defs><style>.cls-1{fill:#e2b09e;}.cls-1,.cls-3,.cls-4,.cls-5,.cls-6,.cls-7,.cls-9{fill-rule:evenodd;}.cls-2,.cls-4{fill:#b92727;}.cls-3,.cls-8{fill:#fff;}.cls-5{fill:#c19181;}.cls-6{fill:#2c1f1d;}.cls-7{fill:#171f2d;}.cls-9{fill:#2b307c;}.cls-10{fill:#331413;}.cls-11{fill:#b89739;}.cls-12{fill:#9f7713;}.cls-13{fill:#293377;}</style></defs><title>baguette_1</title><g id="Layer_2" data-name="Layer 2"><g id="franskmand"><path class="cls-1" d="M27.28,35.78l5.26,9.27A2.47,2.47,0,0,0,35.9,46h0a2.47,2.47,0,0,0,.93-3.36l-5.25-9.26C30.05,30.66,25.84,33.23,27.28,35.78Z"/><path class="cls-1" d="M29.19,51.17l.31-.75L34,52.23l-.31.75C32.31,56.27,27.61,55,29.19,51.17Z"/><path class="cls-1" d="M29.5,50.42l2.86-7.16a2.46,2.46,0,0,1,3.22-1.33h0a2.48,2.48,0,0,1,1.33,3.23L34,52.23Z"/><path class="cls-1" d="M18.34,35.45l-5.26,9.26a2.47,2.47,0,0,1-3.36.93h0a2.48,2.48,0,0,1-.93-3.37L14,33C15.57,30.32,19.78,32.89,18.34,35.45Z"/><path class="cls-1" d="M3.46,39l.56.58,3.49-3.34L7,35.7C4.47,33.14.58,36.08,3.46,39Z"/><path class="cls-1" d="M4,39.61l5.3,5.6a2.47,2.47,0,0,0,3.49,0h0a2.47,2.47,0,0,0,0-3.49l-5.34-5.5Z"/><rect class="cls-2" x="16.13" y="31.52" width="13.26" height="20.9"/><path class="cls-3" d="M19.07,31.52h7.37V32a3.7,3.7,0,0,1-3.68,3.69h0A3.7,3.7,0,0,1,19.07,32Z"/><path class="cls-4" d="M26.93,35.1l2.61,4.6,4.33-2.59L31.32,32.6C29.79,29.91,25.48,32.54,26.93,35.1Z"/><path class="cls-4" d="M18.51,35.1l-2.69,4.75-4.35-2.6,2.65-4.65C15.64,29.91,20,32.54,18.51,35.1Z"/><path class="cls-1" d="M22.67,21.4h0a3,3,0,0,1,3,3v6.86a3,3,0,0,1-3,3h0a3,3,0,0,1-3-3V24.4A3,3,0,0,1,22.67,21.4Z"/><path class="cls-5" d="M25.67,29h0c0,2.57-6,2.57-6,0h0C19.68,26.45,25.67,26.45,25.67,29Z"/><path class="cls-1" d="M22.67,5.12c-16.86,0-12.8,24.48,0,24.48S39.54,5.12,22.67,5.12Z"/><path class="cls-6" d="M26.17,18.85c.45,0,.82-.67.82-1.49s-.37-1.49-.82-1.49-.81.67-.81,1.49S25.73,18.85,26.17,18.85Z"/><path class="cls-6" d="M19.17,18.85c.45,0,.82-.67.82-1.49s-.37-1.49-.82-1.49-.81.67-.81,1.49S18.73,18.85,19.17,18.85Z"/><path class="cls-5" d="M24.32,21.13a1.73,1.73,0,0,1-3.29,0A2.34,2.34,0,0,0,24.32,21.13Z"/><path class="cls-6" d="M20.25,13.38a2.28,2.28,0,0,0-2.74.56c-.33.37,0,.4.18.19a2.1,2.1,0,0,1,2.4-.33C20.5,14,20.69,13.69,20.25,13.38Z"/><path class="cls-6" d="M25.13,13.38a2.29,2.29,0,0,1,2.75.56c.33.37,0,.4-.18.19a2.11,2.11,0,0,0-2.41-.33C24.89,14,24.7,13.69,25.13,13.38Z"/><path class="cls-7" d="M28,75.06c1.18,1.76,2.78,2.5,3.18,3.76.68,2.2-1.9,2-3.2,1.53s-1.77-1.08-2.47-1.28c-1.87-.54-1.92-1.65-1.16-4.28S27,73.42,28,75.06Z"/><path class="cls-7" d="M31,78.41a2.37,2.37,0,0,1,.17.41c.64,2.05-1.51,2-2.84,1.63s-2.05-1.16-2.82-1.38c-1-.29-1.48-.74-1.59-1.51a15,15,0,0,0,4.38,2.07A3.85,3.85,0,0,1,31,78.41Z"/><path class="cls-8" d="M30.23,77.55a.16.16,0,0,0,.22,0,.16.16,0,0,0,0-.22,1.62,1.62,0,0,0-.54-.23h0A.16.16,0,0,0,30,77L30,77a.16.16,0,0,0,0-.22,2.5,2.5,0,0,0-.77-.32h.07a.16.16,0,0,0,.17-.15.14.14,0,0,0-.14-.16,1.55,1.55,0,0,0-.91.16h0a2.68,2.68,0,0,0-1.43.22.16.16,0,0,0,.15.28,1.81,1.81,0,0,1,.9-.2,3.06,3.06,0,0,0-.48.66.14.14,0,0,0,0,.19.15.15,0,0,0,.21.06,2.43,2.43,0,0,1,.83-.24,4.4,4.4,0,0,0-.46.65.16.16,0,0,0,.06.22.16.16,0,0,0,.21-.06,2.88,2.88,0,0,1,.55-.72l.14-.1a2.38,2.38,0,0,1,1.19.28Zm-.91-.75A1.94,1.94,0,0,0,29,77a3.51,3.51,0,0,0-.92.11,2.13,2.13,0,0,1,.29-.31l.16-.12A4.67,4.67,0,0,1,29.32,76.8Z"/><path class="cls-7" d="M17.79,75c-1.18,1.75-2.79,2.49-3.18,3.76-.68,2.2,1.89,2,3.2,1.53s1.77-1.08,2.46-1.28c1.88-.54,1.92-1.65,1.17-4.28S18.74,73.33,17.79,75Z"/><path class="cls-7" d="M14.78,78.32a3.56,3.56,0,0,0-.17.41c-.63,2,1.52,2,2.85,1.63S19.51,79.2,20.28,79c1-.29,1.48-.75,1.59-1.51a15.08,15.08,0,0,1-4.39,2.07A3.83,3.83,0,0,0,14.78,78.32Z"/><path class="cls-8" d="M15.52,77.46a2.44,2.44,0,0,1,1.19-.29l.14.11a2.71,2.71,0,0,1,.55.72.15.15,0,0,0,.21,0,.16.16,0,0,0,.06-.21,4.4,4.4,0,0,0-.46-.65,2.23,2.23,0,0,1,.83.24.16.16,0,0,0,.21-.06.16.16,0,0,0,0-.2,3.28,3.28,0,0,0-.48-.65,2,2,0,0,1,.9.19.15.15,0,0,0,.21-.06.16.16,0,0,0-.06-.21,2.58,2.58,0,0,0-1.43-.22h0a1.58,1.58,0,0,0-.9-.17.16.16,0,0,0-.14.17.14.14,0,0,0,.16.14h.08a2.5,2.5,0,0,0-.77.32.16.16,0,0,0,0,.22l0,0a.21.21,0,0,0,.11,0h0a1.78,1.78,0,0,0-.55.23.15.15,0,0,0,0,.21.16.16,0,0,0,.22,0Zm1.74-.92.16.11a2.89,2.89,0,0,1,.29.32,3.56,3.56,0,0,0-.92-.11,1.44,1.44,0,0,0-.36-.15A3.68,3.68,0,0,1,17.26,76.54Z"/><path class="cls-1" d="M29.06,58.33l-.88,17.16c-.72-.65-1.45-.27-2.22.61a1.38,1.38,0,0,1-2.11-.57l0-17C23.88,57.83,29.06,58.33,29.06,58.33Z"/><path class="cls-1" d="M16.5,58.33l.88,17.16c.72-.65,1.45-.27,2.22.61a1.38,1.38,0,0,0,2.11-.57l0-17C21.68,57.83,16.5,58.33,16.5,58.33Z"/><path class="cls-5" d="M26.9,23.54c-2,1.33-6.19,1.38-8.45,0A17.38,17.38,0,0,0,26.9,23.54Z"/><path class="cls-5" d="M24.64,24.88c-.73,1-3.15,1-3.93,0A5.77,5.77,0,0,0,24.64,24.88Z"/><path class="cls-9" d="M16.13,52.42H29.39l.08,8.78h-6s.07-4.88-.85-4.86c-.71,0-.69,4.86-.69,4.86H16.13Z"/><path class="cls-10" d="M22.73,22.39a2,2,0,0,1,2.07.34,1.07,1.07,0,0,1,.29.38c.07.15.1.31.16.46A.91.91,0,0,0,26.4,24a2.46,2.46,0,0,1-.82.69,2.31,2.31,0,0,1-1.47,0,1.82,1.82,0,0,1-.71-.28,1.73,1.73,0,0,1-.45-.61,1.56,1.56,0,0,1-.13-1.5"/><path class="cls-10" d="M22.62,22.39a1.72,1.72,0,0,0-1.92.34,1.15,1.15,0,0,0-.27.38c-.06.15-.09.31-.15.46a.81.81,0,0,1-1.06.45,2.37,2.37,0,0,0,.76.69,2,2,0,0,0,1.35,0,1.56,1.56,0,0,0,.66-.28,1.66,1.66,0,0,0,.42-.61,1.67,1.67,0,0,0,.12-1.5"/><path class="cls-10" d="M10.92,19.17a22,22,0,0,0,3.32-4.55A4.52,4.52,0,0,1,17,12.33c2-.58,1.58-2.41,1.95-2.26a9.21,9.21,0,0,1,1.08.56c1.86,1,4.09.47,6-.35a1.8,1.8,0,0,1,.87-.21c.53,0,.91.57,1.19,1.07a3,3,0,0,0,1,1.33c.48.27,1.23,0,1.2-.61a12.14,12.14,0,0,1,1,6.5,2.11,2.11,0,0,0,1.24-2,2.12,2.12,0,0,0,1,1.14,3.7,3.7,0,0,0,2.05-3.29,11.41,11.41,0,0,0-.75-4.11c-.83-2.6-1.94-5.48-4.28-6.5C30,3.33,29.21,3.3,29,3.89a2.46,2.46,0,0,0-.11.72,3.67,3.67,0,0,1-2.62,2.84c-3.13,1.11-6.77,0-9.67,1.66a32.65,32.65,0,0,0-3,2.42,4,4,0,0,1-3.51,1,6.4,6.4,0,0,1,.49,4.41,4.69,4.69,0,0,0-.26,1.43c0,.49.36,1,.81,1l.31-.91"/><path class="cls-11" d="M6.69,21.48a1,1,0,0,0-1.16.34A3,3,0,0,0,5,23c-.54,2-1,4-1.51,6.07-.63,2.74-1.2,5.5-2,8.2C.6,40.53-.64,44,.39,47.18c.13.41.37.85.78.91s.84-.41,1.07-.83a36.71,36.71,0,0,0,3-8.67C6.5,33.34,7.69,28,7.39,22.58A1.51,1.51,0,0,0,7,21.49c-.29-.26-.89-.16-.92.23"/><path class="cls-12" d="M4.39,25.62a1.92,1.92,0,0,0,1.4.74c-.19.38-.72.4-1.15.37a.72.72,0,0,1-.38-.1c-.24-.17-.18-.53-.11-.81a.29.29,0,0,1,.13-.2c.08,0,.17.1.1.14"/><path class="cls-12" d="M4,28a1.93,1.93,0,0,0,1.4.74c-.19.39-.72.41-1.15.38A.73.73,0,0,1,3.84,29c-.23-.17-.18-.52-.1-.8,0-.08,0-.18.13-.2s.17.09.1.13"/><path class="cls-12" d="M2.72,33.2a1.91,1.91,0,0,0,1.4.75c-.19.38-.72.4-1.15.37a.72.72,0,0,1-.38-.1c-.23-.17-.18-.53-.11-.81,0-.08.06-.17.14-.2s.17.1.09.14"/><path class="cls-12" d="M2.22,35.62a2,2,0,0,0,1.4.75c-.19.38-.72.4-1.15.37a.83.83,0,0,1-.38-.1c-.23-.18-.18-.53-.11-.81,0-.08.06-.17.14-.2s.16.09.09.14"/><path class="cls-12" d="M1.39,38a1.92,1.92,0,0,0,1.4.74c-.2.39-.72.41-1.15.38a.7.7,0,0,1-.38-.11c-.24-.17-.19-.52-.11-.8,0-.08.05-.17.13-.2s.17.09.1.13"/><path class="cls-12" d="M.88,40.21A2,2,0,0,0,2.29,41c-.2.38-.72.41-1.15.37a.7.7,0,0,1-.38-.1c-.24-.17-.19-.53-.11-.81,0-.08,0-.17.13-.19s.17.09.1.13"/><path class="cls-12" d="M3.3,30.54a1.93,1.93,0,0,0,1.4.74c-.19.38-.72.4-1.14.37a.73.73,0,0,1-.39-.1c-.23-.17-.18-.53-.1-.81,0-.08.05-.17.13-.2s.17.1.1.14"/><path class="cls-13" d="M16.38.07c-.49-.16-.94.37-1,.85a13.9,13.9,0,0,1,.08,1.44A2.83,2.83,0,0,1,14.27,3.9L9.8,7.42A7,7,0,0,0,7.58,9.8a2.24,2.24,0,0,0,.7,2.85,3.87,3.87,0,0,0,2.09.32,12.84,12.84,0,0,0,5.86-1.12c1-.58,1.86-1.43,2.86-2.07,2.43-1.56,5.56-1.67,8.5-1.9A8.12,8.12,0,0,0,31.19,7a2.57,2.57,0,0,0,1.28-3,3.57,3.57,0,0,0-1.54-1.46,15.11,15.11,0,0,0-14.47-.19A8.61,8.61,0,0,0,16.35,0"/></g></g></svg>