<svg xmlns="http://www.w3.org/2000/svg" viewBox="0 0 768 432"><defs><style>.cls-1{fill:#4ca5a2;}.cls-2{fill:#9fc4c2;}.cls-3{fill:#95b688;}.cls-4{fill:#578c67;}.cls-5{fill:#fee6b2;}.cls-6{fill:#504740;}.cls-7{fill:#1c8c41;}.cls-8{fill:#e2c63b;}.cls-9{fill:#4d7c59;}.cls-10{fill:#3d474a;}</style></defs><title>brasilien_2</title><g id="Layer_2" data-name="Layer 2"><g id="Vand"><rect class="cls-1" width="768" height="432"/></g><g id="Badevand"><path class="cls-2" d="M395,411.5c39.25-31.12,34.82-61.73,79.25-74.44,59.87-17.13,66-71.41,79-105.12s39.29-53.06,37-77.7c-4.67-50.25-116.83-64.06-147-88.08s-39.85-58-53-66L389.93,0h-286c-18.16,25.87-36.72,63.74-43,92.14-8,36,2.66,77.63,6.66,92s29.34,65.52,44.67,74.76,41.33,6.31,56,20.63,10.83,68.89,10.67,90.87c-.13,16.4-5.23,40.31-7.56,61.57h197.8C376.6,426,385.14,419.3,395,411.5Z"/></g><g id="Sydamerika"><path class="cls-3" d="M335.3,432c.61-3.24.22-5.13-1.51-9.06-2.67-6-7.4-12.14-4.53-15.11,5.31-5.5,15.11,5.89,24.15,1.51A49.78,49.78,0,0,0,358,406.8l0-.52s-.22-11.09-6-18.13c-15.49-18.75-39.63-9.94-9.05-33.23,13.72-10.46,28-22.66,1.5-48.34-6.18-6-17.91-9.13-21.13-16.61-2.1-4.87,5.6-22.91,0-36.26-3.55-8.46-17-11.61-22.64-18.12-4.88-5.62-2.61-17-10.85-23.09-7-5.16-24.13-4.81-32.93-11.65-7-5.48-1.51-18.39-9.06-19.64-19.5-3.21-31.15,13.65-46.8,12.08-14-1.4-28.27-14.69-33.21-21.14-10.93-14.3,2.87-30.36,20.08-36.14,23.55-7.9,27.53-5.44,15.63-38.24-3.07-8.44-2.25-17.14.52-20.78,9-11.85,39.62,22.2,58.88-6,4.51-6.62-4.46-15-3-18.12,1.32-2.89,13.85.22,22.64-4.53,7.74-4.19,12.58-10.84,19.63-6C307,45.59,300,56.1,303.59,63.39c10,20.48,7.37,6.55,39.25,4.53,9.55-.6,19,3.89,27.17,1.51,9.3-2.71,21.63-23.76,23.65-27.29a69.72,69.72,0,0,0-11.57-9c-8.85-5.48-27.24-4.26-40.75-9.06C329.88,20,323.19,10.06,315.67,4.48,313.8,3.09,312,1.57,310.3,0H142.63A50.87,50.87,0,0,0,133,13.54c-6.66,14,5.07,31.54,0,48.34-4.63,15.36-22.29,23.6-28.68,36.25-9.61,19-10.48,29.88-7.55,39.27s17.77,21.87,36.23,49.85C141.4,200,144.39,215.36,155.66,228c12.44,14,44,15.16,52.83,28.7a59,59,0,0,1,9.69,33.39c-.19,10.7-4.2,19.87-6.34,30.1-1.91,9.17-2.57,18.73-3.43,28-2.58,27.82-4,55.79-4.42,83.74H335.28Z"/></g><g id="Brasilien"><path class="cls-4" d="M397.22,334.83c3.21-30.86,51-37,66-42s20-25,26-35,6-29,6-29,1-17,19-31,22-19,24-24,2-11-16-25-35-22-44-25-30-7-35-9-34-16-42-23-9-29-15.42-37.43h0C381.08,61,375.09,68,370,69.43c-8.14,2.38-17.62-2.11-27.17-1.51-31.88,2-29.28,16-39.25-4.53-3.56-7.29,3.4-17.8-1.51-21.15-7.05-4.79-11.89,1.86-19.63,6-8.79,4.75-21.32,1.64-22.64,4.53-1.44,3.15,7.53,11.5,3,18.12C243.57,99.19,213,65.14,204,77c-2.77,3.64-3.59,12.34-.52,20.78,11.9,32.8,7.92,30.34-15.63,38.24-17.21,5.78-31,21.84-20.08,36.14,4.94,6.45,19.2,19.74,33.21,21.14,15.65,1.57,27.3-15.29,46.8-12.08,7.55,1.25,2,14.16,9.06,19.64,8.8,6.84,25.92,6.49,32.93,11.65,8.24,6.08,6,17.47,10.85,23.09,5.64,6.51,19.09,9.66,22.64,18.12,5.6,13.35-2.1,31.39,0,36.26,3.22,7.48,15,10.62,21.13,16.61,26.47,25.68,12.22,37.88-1.5,48.34-30.58,23.29-6.44,14.48,9.05,33.23a21.63,21.63,0,0,1,2.7,4.25S394.86,357.54,397.22,334.83Z"/></g><g id="Strand"><path class="cls-5" d="M358,406.8c21.09-12.88,40.91-42,52.82-54.91,10.05-10.88,2.15-21.43,12.07-28.7,43-31.45,45.06,12.55,86-61.93,6.24-11.33-1.18-22.93,8.82-36.79,18.88-26.16,43.61-44.15,42.25-61.39-.54-6.92-8.15-10.94-18.75-19.25-9.91-7.77-20.25-17.79-42.89-27.57-24.87-10.75-55.29-11.68-80-28.7-7.61-5.25-5.49-14.51-10.56-25.68a64.51,64.51,0,0,0-14.1-19.74c-.92,1.6-4,6.8-7.86,12.26h0c6.42,8.43,7.42,30.43,15.42,37.43s37,21,42,23,26,6,35,9,26,11,44,25,18,20,16,25-6,10-24,24-19,31-19,31,0,19-6,29-11,30-26,35-62.79,11.14-66,42c-2.36,22.71-42.63,57.57-42.63,57.57a37.56,37.56,0,0,1,3.34,13.88Z"/></g><g id="Land"><path class="cls-4" d="M401.05,92c3.85-3.42,8.16-6.9,12.59-10.17,7.11,9.26,20.7,15.45,39.11,20.94l-18.59,8.32C419.35,103.93,407.79,98.06,401.05,92Z"/></g><g id="Parasoller"><rect class="cls-6" x="365.03" y="370.43" width="1.62" height="19.91"/><path class="cls-7" d="M365.84,361.69a15.84,15.84,0,0,0-2.17.16,13.1,13.1,0,0,0-5,1.8q-.45.28-.87.6h0a8.43,8.43,0,0,0-3.1,4.42,6.79,6.79,0,0,0-.23,1.76h4.12C358.49,366.78,361.33,364,365.84,361.69Z"/><path class="cls-7" d="M365.84,361.69a15.35,15.35,0,0,0-2.24,8.74h2.24Z"/><path class="cls-8" d="M358.59,370.43h5a15.35,15.35,0,0,1,2.24-8.74C361.33,364,358.49,366.78,358.59,370.43Z"/><path class="cls-7" d="M365.84,361.69a15.87,15.87,0,0,1,2.18.16,13.16,13.16,0,0,1,5,1.8q.45.28.87.6h0a8.43,8.43,0,0,1,3.1,4.42,6.79,6.79,0,0,1,.23,1.76H373.1C373.2,366.78,370.36,364,365.84,361.69Z"/><path class="cls-7" d="M365.84,361.69a15.27,15.27,0,0,1,2.25,8.74h-2.25Z"/><path class="cls-8" d="M373.1,370.43h-5a15.27,15.27,0,0,0-2.25-8.74C370.36,364,373.2,366.78,373.1,370.43Z"/><rect class="cls-6" x="398.23" y="318.75" width="1.62" height="19.91"/><path class="cls-7" d="M399,310a14.22,14.22,0,0,0-2.17.16,12.82,12.82,0,0,0-5,1.8,7.34,7.34,0,0,0-.86.6h0a8.37,8.37,0,0,0-3.11,4.41,6.91,6.91,0,0,0-.23,1.76h4.13C391.68,315.1,394.52,312.32,399,310Z"/><path class="cls-7" d="M399,310a15.26,15.26,0,0,0-2.24,8.73H399Z"/><path class="cls-8" d="M391.79,318.75h5A15.26,15.26,0,0,1,399,310C394.52,312.32,391.68,315.1,391.79,318.75Z"/><path class="cls-7" d="M399,310a14.31,14.31,0,0,1,2.17.16,12.88,12.88,0,0,1,5,1.8,8.29,8.29,0,0,1,.86.6h0a8.3,8.3,0,0,1,3.1,4.41,6.91,6.91,0,0,1,.23,1.76h-4.12C406.39,315.1,403.56,312.32,399,310Z"/><path class="cls-7" d="M399,310a15.34,15.34,0,0,1,2.24,8.73H399Z"/><path class="cls-8" d="M406.29,318.75h-5A15.34,15.34,0,0,0,399,310C403.56,312.32,406.39,315.1,406.29,318.75Z"/><rect class="cls-6" x="384.25" y="346.05" width="1.39" height="16.99"/><path class="cls-7" d="M384.94,338.6a11.44,11.44,0,0,0-1.85.14,10.94,10.94,0,0,0-4.27,1.53,8,8,0,0,0-.74.51h0a7.17,7.17,0,0,0-2.65,3.77,5.83,5.83,0,0,0-.2,1.5h3.52C378.67,342.94,381.09,340.56,384.94,338.6Z"/><path class="cls-7" d="M384.94,338.6a13.12,13.12,0,0,0-1.91,7.45h1.91Z"/><path class="cls-8" d="M378.75,346.05H383a13.12,13.12,0,0,1,1.91-7.45C381.09,340.56,378.67,342.94,378.75,346.05Z"/><path class="cls-7" d="M384.94,338.6a11.56,11.56,0,0,1,1.86.14,10.94,10.94,0,0,1,4.27,1.53c.26.16.5.33.74.51h0a7.09,7.09,0,0,1,2.64,3.77,5.83,5.83,0,0,1,.2,1.5h-3.52C391.22,342.94,388.8,340.56,384.94,338.6Z"/><path class="cls-7" d="M384.94,338.6a13,13,0,0,1,1.92,7.45h-1.92Z"/><path class="cls-8" d="M391.13,346.05h-4.27a13,13,0,0,0-1.92-7.45C388.8,340.56,391.22,342.94,391.13,346.05Z"/><rect class="cls-6" x="520.36" y="187.91" width="1.39" height="16.99"/><path class="cls-7" d="M521.05,180.45a12.7,12.7,0,0,0-1.85.14,11.16,11.16,0,0,0-4.28,1.54,8.87,8.87,0,0,0-.74.51h0a7.16,7.16,0,0,0-2.64,3.77,5.71,5.71,0,0,0-.2,1.5h3.52C514.77,184.79,517.19,182.41,521.05,180.45Z"/><path class="cls-7" d="M521.05,180.45a13,13,0,0,0-1.91,7.46h1.91Z"/><path class="cls-8" d="M514.86,187.91h4.28a13,13,0,0,1,1.91-7.46C517.19,182.41,514.77,184.79,514.86,187.91Z"/><path class="cls-7" d="M521.05,180.45a12.7,12.7,0,0,1,1.85.14,11.16,11.16,0,0,1,4.28,1.54,8.87,8.87,0,0,1,.74.51h0a7.16,7.16,0,0,1,2.64,3.77,5.71,5.71,0,0,1,.2,1.5h-3.52C527.33,184.79,524.91,182.41,521.05,180.45Z"/><path class="cls-7" d="M521.05,180.45a13,13,0,0,1,1.91,7.46h-1.91Z"/><path class="cls-8" d="M527.24,187.91H523a13,13,0,0,0-1.91-7.46C524.91,182.41,527.33,184.79,527.24,187.91Z"/><rect class="cls-6" x="536.61" y="170.08" width="1.67" height="20.41"/><path class="cls-7" d="M537.44,161.12a15.22,15.22,0,0,0-2.23.17,13.49,13.49,0,0,0-5.13,1.84c-.31.19-.6.4-.89.62h0a8.6,8.6,0,0,0-3.18,4.53,7.16,7.16,0,0,0-.23,1.8H530C529.9,166.34,532.81,163.48,537.44,161.12Z"/><path class="cls-7" d="M537.44,161.12a15.79,15.79,0,0,0-2.3,9h2.3Z"/><path class="cls-8" d="M530,170.08h5.14a15.79,15.79,0,0,1,2.3-9C532.81,163.48,529.9,166.34,530,170.08Z"/><path class="cls-7" d="M537.44,161.12a15,15,0,0,1,2.23.17,13.37,13.37,0,0,1,5.13,1.84,9.4,9.4,0,0,1,.89.62h0a8.6,8.6,0,0,1,3.18,4.53,6.74,6.74,0,0,1,.24,1.8h-4.23C545,166.34,542.08,163.48,537.44,161.12Z"/><path class="cls-7" d="M537.44,161.12a15.71,15.71,0,0,1,2.3,9h-2.3Z"/><path class="cls-8" d="M544.88,170.08h-5.14a15.71,15.71,0,0,0-2.3-9C542.08,163.48,545,166.34,544.88,170.08Z"/></g><g id="Amazonas_-_Back-up_copy" data-name="Amazonas - Back-up copy"><path class="cls-9" d="M413.29,82.13l.35-.34c-2.3-5.23-2.33-12.1-5.88-19.91a64.51,64.51,0,0,0-14.1-19.74c-2,3.53-14.35,24.58-23.65,27.29-8.14,2.38-17.62-2.11-27.17-1.51-31.88,2-29.28,16-39.25-4.53-3.56-7.29,3.4-17.8-1.51-21.15-7.05-4.79-11.89,1.86-19.63,6-8.79,4.75-21.32,1.64-22.64,4.53-1.44,3.15,7.53,11.5,3,18.12C243.57,99.19,213,65.14,204,77c-2.77,3.64-3.59,12.34-.52,20.78,11.9,32.8,7.92,30.34-15.63,38.24-17.21,5.78-31,21.84-20.08,36.14,4.94,6.45,19.2,19.74,33.21,21.14,15.65,1.57,27.3-15.29,46.8-12.08,7.55,1.25,2,14.16,9.06,19.64,8.8,6.84,25.92,6.49,32.93,11.65,8.24,6.08,6,17.47,10.85,23.09,2.73,3.15,7.29,5.51,11.67,8.07h0C351.46,207.5,344.22,132.91,413.29,82.13Z"/></g><g id="Flod"><path class="cls-2" d="M413.64,81.79C327.2,111.9,257,115.74,215.77,75.42l17.77,5.82c36.48,26.29,105.93,22.06,178.15-6Z"/><path class="cls-2" d="M301,105c-30.61,9.39-62.47,3.23-93.93,23.46a8.07,8.07,0,0,0,1.81-2.16c27.44-19.17,68.23-14.25,86.67-21.3C295.55,105,298.79,105,301,105Z"/><path class="cls-2" d="M249.76,111.9c-4.62-5.42-27.62-6.15-44.85-10l.42,1.18c15.48,3.86,37.73,4.52,42.21,9.16"/></g><g id="Byer"><path class="cls-10" d="M425.45,328v-2.63H430c.13,0,.2-.05.2-.16V323.4c0-.11-.07-.17-.2-.17h-3.13a1.34,1.34,0,0,1-1.42-1.42v-4.59a1.35,1.35,0,0,1,1.42-1.42h6.28v2.61h-4.39c-.12,0-.18.07-.18.2v1.78c0,.11.06.16.18.16h3.13a1.35,1.35,0,0,1,1.42,1.42v4.56a1.35,1.35,0,0,1-1.42,1.42Z"/><path class="cls-10" d="M445.35,317.22V328h-3.13v-3h-2.75v3h-3.13V317.22a1.35,1.35,0,0,1,1.42-1.42h6.17a1.35,1.35,0,0,1,1.42,1.42Zm-5.85-5.36a2.67,2.67,0,0,1,1.46.48,2.43,2.43,0,0,0,1,.49.63.63,0,0,0,.54-.27,1.11,1.11,0,0,0,.2-.67h1.67a3,3,0,0,1-.58,2,2,2,0,0,1-1.58.69,2.66,2.66,0,0,1-1.47-.49,2.66,2.66,0,0,0-1-.48.6.6,0,0,0-.53.27,1.09,1.09,0,0,0-.19.66h-1.67a3,3,0,0,1,.58-2A2,2,0,0,1,439.5,311.86Zm0,10.44h2.75v-3.66c0-.24-.14-.36-.43-.36h-1.94a.37.37,0,0,0-.27.11.32.32,0,0,0-.11.25Z"/><path class="cls-10" d="M450,315.8h6.24a1.35,1.35,0,0,1,1.42,1.42v9.31a1.35,1.35,0,0,1-1.42,1.42H450a1.37,1.37,0,0,1-1-.4,1.39,1.39,0,0,1-.4-1v-9.31a1.39,1.39,0,0,1,.4-1A1.37,1.37,0,0,1,450,315.8Zm4.53,9.36v-6.53c0-.14-.06-.2-.2-.2h-2.46c-.11,0-.16.06-.16.2v6.53a.14.14,0,0,0,.16.16h2.46C454.49,325.32,454.55,325.27,454.55,325.16Z"/><path class="cls-10" d="M465.41,315.8h7.43a1.31,1.31,0,0,1,1,.4,1.29,1.29,0,0,1,.41,1v6.24a1.35,1.35,0,0,1-.41,1,1.32,1.32,0,0,1-1,.41h-4.3V328h-3.13Zm3.13,6.41h2.37a.15.15,0,0,0,.17-.16v-3.46c0-.12-.06-.18-.17-.18h-2.37Z"/><path class="cls-10" d="M486.05,317.22V328h-3.13v-3h-2.75v3H477V317.22a1.39,1.39,0,0,1,.4-1,1.37,1.37,0,0,1,1-.4h6.17a1.35,1.35,0,0,1,1.42,1.42Zm-5.88,5.08h2.75v-3.66c0-.24-.14-.36-.43-.36h-1.95a.4.4,0,0,0-.27.11.35.35,0,0,0-.1.25Z"/><path class="cls-10" d="M489.4,315.8h3.13v9.36a.14.14,0,0,0,.16.16H495c.13,0,.2-.05.2-.16V315.8h3.13v10.76a1.31,1.31,0,0,1-.4,1,1.28,1.28,0,0,1-1,.4h-6.15a1.4,1.4,0,0,1-1.39-1.39Z"/><path class="cls-10" d="M501.76,328V315.8h3.12v9.52h3.87V328Z"/><path class="cls-10" d="M512.37,315.8h6.24a1.37,1.37,0,0,1,1,.4,1.39,1.39,0,0,1,.4,1v9.31a1.39,1.39,0,0,1-.4,1,1.37,1.37,0,0,1-1,.4h-6.24a1.35,1.35,0,0,1-1.42-1.42v-9.31a1.35,1.35,0,0,1,1.42-1.42Zm4.53,9.36v-6.53c0-.14-.06-.2-.19-.2h-2.47c-.11,0-.16.06-.16.2v6.53a.14.14,0,0,0,.16.16h2.47C516.84,325.32,516.9,325.27,516.9,325.16Z"/><path class="cls-10" d="M484.5,288.12h7.63a1.38,1.38,0,0,1,1.37,1.37v5.56a1.4,1.4,0,0,1-1.37,1.37H492l1.49,3.85h-3.06L489,296.42h-1.33v3.85H484.5Zm5.88,5.69v-2.9c0-.12-.05-.18-.16-.18h-2.59V294h2.59a.18.18,0,0,0,.11-.05A.14.14,0,0,0,490.38,293.81Z"/><path class="cls-10" d="M499.83,288.12v12.15h-3.11V288.12Z"/><path class="cls-10" d="M504.6,288.12h6.25a1.35,1.35,0,0,1,1.42,1.42v9.31a1.34,1.34,0,0,1-1.42,1.42H504.6a1.35,1.35,0,0,1-1.42-1.42v-9.31a1.37,1.37,0,0,1,1.42-1.42Zm4.54,9.36V291a.18.18,0,0,0-.2-.2h-2.46c-.11,0-.17.07-.17.2v6.53c0,.11.06.16.17.16h2.46C509.07,297.64,509.14,297.59,509.14,297.48Z"/><path class="cls-10" d="M520,288.12h6.54a2.48,2.48,0,0,1,2.46,2.47v7.2a2.36,2.36,0,0,1-.73,1.75,2.34,2.34,0,0,1-1.73.73H520Zm5.89,8.64v-5.15a.83.83,0,0,0-.88-.88h-1.87v6.91H525a.89.89,0,0,0,.64-.24A.86.86,0,0,0,525.88,296.76Z"/><path class="cls-10" d="M532.34,300.27V288.12h7.94v2.61h-4.82v2.13h4.17v2.59h-4.17v2.19h4.82v2.63Z"/><path class="cls-10" d="M547.16,294.48h3.13v3a.14.14,0,0,0,.16.16h1.6c.13,0,.2-.05.2-.16v-9.36h3.13v10.76a1.38,1.38,0,0,1-.39,1,1.35,1.35,0,0,1-1,.39h-5.47a1.33,1.33,0,0,1-1-.4,1.31,1.31,0,0,1-.41-1Z"/><path class="cls-10" d="M567.75,289.54v10.73h-3.13v-3h-2.76v3h-3.13V289.54a1.37,1.37,0,0,1,1.42-1.42h6.18a1.37,1.37,0,0,1,1.42,1.42Zm-5.89,5.08h2.76V291c0-.23-.15-.35-.44-.35h-1.94a.36.36,0,0,0-.27.1.38.38,0,0,0-.11.25Z"/><path class="cls-10" d="M577.52,300.27,574,293.59v6.68h-2.89V288.12H574l3.63,6.7v-6.7h2.88v12.15Z"/><path class="cls-10" d="M584,300.27V288.12h7.94v2.61h-4.83v2.13h4.18v2.59h-4.18v2.19h4.83v2.63Z"/><path class="cls-10" d="M598,288.12v12.15h-3.11V288.12Z"/><path class="cls-10" d="M601.48,288.12h7.63a1.38,1.38,0,0,1,1.37,1.37v5.56a1.4,1.4,0,0,1-1.37,1.37H609l1.49,3.85h-3l-1.52-3.85h-1.33v3.85h-3.13Zm5.89,5.69v-2.9c0-.12-.06-.18-.17-.18h-2.59V294h2.59a.16.16,0,0,0,.11-.05A.15.15,0,0,0,607.37,293.81Z"/><path class="cls-10" d="M615,288.12h6.25a1.35,1.35,0,0,1,1.42,1.42v9.31a1.34,1.34,0,0,1-1.42,1.42H615a1.35,1.35,0,0,1-1.42-1.42v-9.31a1.37,1.37,0,0,1,1.42-1.42Zm4.54,9.36V291a.18.18,0,0,0-.2-.2h-2.46c-.11,0-.17.07-.17.2v6.53c0,.11.06.16.17.16h2.46C619.48,297.64,619.55,297.59,619.55,297.48Z"/><path class="cls-10" d="M381.29,233.16H371.18V217h10a2.2,2.2,0,0,1,1.57.56,2,2,0,0,1,.59,1.48v3.6a2.38,2.38,0,0,1-.57,1.56,2.94,2.94,0,0,1-1.64,1,3.32,3.32,0,0,1,1.7.94,2.14,2.14,0,0,1,.63,1.51v3.53a2,2,0,0,1-.59,1.51A2.2,2.2,0,0,1,381.29,233.16Zm-2-9.89v-2.83c0-.18-.08-.26-.24-.26h-3.75v3.36h3.75Q379.32,223.54,379.32,223.27Zm0,6.58v-3.07q0-.27-.24-.27h-3.75v3.58h3.75A.21.21,0,0,0,379.32,229.85Z"/><path class="cls-10" d="M387.67,217h10.18a1.78,1.78,0,0,1,1.28.53,1.73,1.73,0,0,1,.54,1.29v7.42a1.84,1.84,0,0,1-1.82,1.82h-.12l2,5.14h-4.08l-2-5.14h-1.77v5.14h-4.18Zm7.85,7.58v-3.86c0-.16-.07-.24-.22-.24h-3.45v4.32h3.45a.24.24,0,0,0,.22-.22Z"/><path class="cls-10" d="M415.85,218.86v14.3h-4.18v-4H408v4h-4.18v-14.3a1.82,1.82,0,0,1,1.9-1.9H414a1.82,1.82,0,0,1,1.9,1.9ZM408,225.62h3.67v-4.87c0-.32-.19-.48-.58-.48H408.5a.49.49,0,0,0-.36.15.45.45,0,0,0-.14.33Z"/><path class="cls-10" d="M420,233.16v-3.5h6.08c.17,0,.26-.08.26-.22v-2.35c0-.15-.09-.22-.26-.22h-4.18A1.82,1.82,0,0,1,420,225v-6.12a1.82,1.82,0,0,1,1.9-1.9h8.38v3.48h-5.86c-.16,0-.24.09-.24.26v2.38c0,.14.08.22.24.22h4.18a1.8,1.8,0,0,1,1.89,1.89v6.07a1.82,1.82,0,0,1-1.89,1.9Z"/><path class="cls-10" d="M438.79,217v16.2h-4.15V217Zm-.72-1.7h-2.64l1.75-4.13h3.48Z"/><path class="cls-10" d="M443.4,233.16V217h4.15v12.7h5.16v3.5Z"/><path class="cls-10" d="M460.41,217v16.2h-4.15V217Z"/><path class="cls-10" d="M476.9,218.86v14.3h-4.17v-4h-3.68v4h-4.17v-14.3a1.82,1.82,0,0,1,1.89-1.9H475a1.82,1.82,0,0,1,1.89,1.9Zm-7.85,6.76h3.68v-4.87c0-.32-.2-.48-.58-.48h-2.59a.46.46,0,0,0-.36.15.43.43,0,0,0-.15.33Z"/><path class="cls-10" d="M532,137.34V125.19h7.7v2.61h-4.59v2.76h4v2.59h-4v4.19Z"/><path class="cls-10" d="M543.71,125.19H550a1.39,1.39,0,0,1,1,.4,1.37,1.37,0,0,1,.4,1v9.3a1.35,1.35,0,0,1-1.42,1.42h-6.25a1.35,1.35,0,0,1-1.42-1.42v-9.3a1.37,1.37,0,0,1,.4-1A1.39,1.39,0,0,1,543.71,125.19Zm4.54,9.36V128a.18.18,0,0,0-.2-.2h-2.47c-.1,0-.16.07-.16.2v6.53a.15.15,0,0,0,.16.17h2.47C548.18,134.72,548.25,134.66,548.25,134.55Z"/><path class="cls-10" d="M554.73,125.19h7.63a1.35,1.35,0,0,1,1,.4,1.31,1.31,0,0,1,.41,1v5.56a1.32,1.32,0,0,1-.41,1,1.31,1.31,0,0,1-1,.4h-.09l1.49,3.85H560.7l-1.51-3.85h-1.33v3.85h-3.13Zm5.88,5.69V128c0-.12-.05-.18-.16-.18h-2.59V131h2.59a.17.17,0,0,0,.16-.16Z"/><path class="cls-10" d="M565.82,125.19h8.64v2.63H571.7v9.52h-3.13v-9.52h-2.75Z"/><path class="cls-10" d="M585.69,126.62v10.72h-3.13v-3H579.8v3h-3.13V126.62a1.37,1.37,0,0,1,.4-1,1.39,1.39,0,0,1,1-.4h6.18a1.39,1.39,0,0,1,1,.4A1.37,1.37,0,0,1,585.69,126.62Zm-5.89,5.07h2.76V128c0-.24-.15-.36-.44-.36h-1.94a.33.33,0,0,0-.27.11.34.34,0,0,0-.11.25Z"/><path class="cls-10" d="M589,137.34V125.19h3.11v9.53H596v2.62Z"/><path class="cls-10" d="M598.68,137.34V125.19h7.94v2.61H601.8v2.13H606v2.59H601.8v2.2h4.82v2.62Z"/><path class="cls-10" d="M608.87,134.84l4.54-7h-4.36v-2.63h8.1v2.51l-4.64,7h4.82v2.62h-8.46Z"/><path class="cls-10" d="M628.87,126.62v10.72h-3.13v-3H623v3h-3.13V126.62a1.37,1.37,0,0,1,.4-1,1.39,1.39,0,0,1,1-.4h6.18a1.39,1.39,0,0,1,1,.4A1.37,1.37,0,0,1,628.87,126.62ZM623,131.69h2.76V128c0-.24-.15-.36-.43-.36h-1.95a.33.33,0,0,0-.27.11.34.34,0,0,0-.11.25Z"/><path class="cls-10" d="M511.84,252.07v-2.63h4.55c.14,0,.2-.05.2-.16v-1.76c0-.11-.06-.16-.2-.16h-3.13a1.39,1.39,0,0,1-1-.4,1.37,1.37,0,0,1-.4-1v-4.59a1.37,1.37,0,0,1,1.42-1.42h6.28v2.61h-4.39c-.12,0-.18.07-.18.2v1.78c0,.11.06.16.18.16h3.13a1.37,1.37,0,0,1,1.43,1.43v4.55a1.43,1.43,0,0,1-.4,1,1.4,1.4,0,0,1-1,.39Z"/><path class="cls-10" d="M531.75,241.34v10.73h-3.13v-3h-2.76v3h-3.13V241.34a1.37,1.37,0,0,1,1.42-1.42h6.18a1.37,1.37,0,0,1,1.42,1.42Zm-5.89,5.08h2.76v-3.65c0-.24-.15-.36-.44-.36h-1.94a.36.36,0,0,0-.27.1.38.38,0,0,0-.11.26Z"/><path class="cls-10" d="M535.1,252.07V239.92h3.11v9.52h3.87v2.63Z"/><path class="cls-10" d="M549.73,239.92h3.1l-3.62,12.15h-3l-3.52-12.15H546l1.7,7.72Z"/><path class="cls-10" d="M564,241.34v10.73h-3.13v-3h-2.75v3H555V241.34a1.35,1.35,0,0,1,1.42-1.42h6.17a1.35,1.35,0,0,1,1.42,1.42Zm-5.88,5.08h2.75v-3.65c0-.24-.14-.36-.43-.36H558.5a.36.36,0,0,0-.27.1.34.34,0,0,0-.11.26Z"/><path class="cls-10" d="M567.35,239.92h6.54a2.48,2.48,0,0,1,2.46,2.47v7.2a2.36,2.36,0,0,1-.73,1.75,2.34,2.34,0,0,1-1.73.73h-6.54Zm5.89,8.64v-5.15a.83.83,0,0,0-.88-.88h-1.88v6.91h1.88a.89.89,0,0,0,.64-.24A.86.86,0,0,0,573.24,248.56Z"/><path class="cls-10" d="M581,239.92h6.25a1.35,1.35,0,0,1,1.42,1.42v9.31a1.34,1.34,0,0,1-1.42,1.42H581a1.35,1.35,0,0,1-1.42-1.42v-9.31a1.37,1.37,0,0,1,1.42-1.42Zm4.54,9.36v-6.53a.18.18,0,0,0-.2-.2h-2.46c-.11,0-.17.07-.17.2v6.53c0,.11.06.16.17.16h2.46C585.48,249.44,585.55,249.39,585.55,249.28Z"/><path class="cls-10" d="M592,239.92h7.63a1.37,1.37,0,0,1,1.37,1.37v5.56a1.38,1.38,0,0,1-1.37,1.37h-.09l1.5,3.85H598l-1.52-3.85h-1.33v3.85H592Zm5.89,5.69v-2.9c0-.12-.06-.18-.17-.18h-2.59v3.24h2.59a.16.16,0,0,0,.11-.05A.15.15,0,0,0,597.92,245.61Z"/></g></g></svg>