<svg xmlns="http://www.w3.org/2000/svg" viewBox="0 0 44.06 54.67"><defs><style>.cls-1{fill:#838385;}.cls-2{fill:#959796;}.cls-3{fill:#848484;}.cls-4{fill:#818286;}.cls-5{fill:#949599;}.cls-6{fill:#797a7c;}.cls-7{fill:#a0a0a3;}</style></defs><title>cristo_redentor</title><g id="Layer_2" data-name="Layer 2"><g id="Christ_the_Redeemer" data-name="Christ the Redeemer"><polyline class="cls-1" points="16.95 45.48 16.95 31.31 27.96 31.31 27.96 45.48 16.95 45.48"/><polyline class="cls-2" points="16.95 45.48 16.95 31.31 17.28 31.31 17.28 45.48 16.95 45.48"/><polyline class="cls-2" points="17.61 45.48 17.61 31.31 17.95 31.31 17.95 45.48 17.61 45.48"/><polyline class="cls-2" points="18.28 45.48 18.28 31.31 18.61 31.31 18.61 45.48 18.28 45.48"/><polyline class="cls-2" points="18.95 45.48 18.95 31.31 19.28 31.31 19.28 45.48 18.95 45.48"/><polyline class="cls-2" points="19.62 45.48 19.62 31.31 19.95 31.31 19.95 45.48 19.62 45.48"/><polyline class="cls-2" points="20.28 45.48 20.28 31.31 20.62 31.31 20.62 45.48 20.28 45.48"/><polyline class="cls-2" points="20.95 45.48 20.95 31.31 21.28 31.31 21.28 45.48 20.95 45.48"/><polyline class="cls-2" points="21.62 45.48 21.62 31.31 21.95 31.31 21.95 45.48 21.62 45.48"/><polyline class="cls-2" points="22.29 45.48 22.29 31.31 22.62 31.31 22.62 45.48 22.29 45.48"/><polyline class="cls-2" points="22.95 45.48 22.95 31.31 23.29 31.31 23.29 45.48 22.95 45.48"/><polyline class="cls-2" points="23.62 45.48 23.62 31.31 23.95 31.31 23.95 45.48 23.62 45.48"/><polyline class="cls-2" points="24.29 45.48 24.29 31.31 24.62 31.31 24.62 45.48 24.29 45.48"/><polyline class="cls-2" points="24.95 45.48 24.95 31.31 25.29 31.31 25.29 45.48 24.95 45.48"/><polyline class="cls-2" points="25.62 45.48 25.62 31.31 25.95 31.31 25.95 45.48 25.62 45.48"/><polyline class="cls-2" points="26.29 45.48 26.29 31.31 26.62 31.31 26.62 45.48 26.29 45.48"/><polyline class="cls-2" points="26.96 45.48 26.96 31.31 27.29 31.31 27.29 45.48 26.96 45.48"/><polyline class="cls-2" points="27.62 45.48 27.62 31.31 27.96 31.31 27.96 45.48 27.62 45.48"/><rect class="cls-2" x="12.69" y="47.66" width="18.69" height="7.01"/><rect class="cls-3" x="14.6" y="45.48" width="14.85" height="2.18"/><path class="cls-4" d="M36.15,14.63a13.53,13.53,0,0,0,2.44-4.34l.47,0-.91-1.62A10.21,10.21,0,0,0,36.15,14.63Z"/><path class="cls-5" d="M41.23,9.91l-2.64.38c-1.16-.1-1.2-.7-.44-1.67l2-.9.82.9L41.23,10"/><path class="cls-5" d="M43.6,7.73A5.21,5.21,0,0,0,42.21,8c.19-.53-.15-.66-.72-.61a12.76,12.76,0,0,0-3.34,1.28l.91,1.62c2.3-.25,4.06-.69,4.87-1.45C44.25,8.19,43.89,7.76,43.6,7.73Z"/><path class="cls-4" d="M29.08,15.18h0l1-.15,2.28-3.16A34.41,34.41,0,0,0,29.08,15.18Z"/><path class="cls-4" d="M31.34,14.87l.9-.1,3.24-3.87C34.1,12.11,32.72,13.42,31.34,14.87Z"/><path class="cls-4" d="M7.91,14.63a13.55,13.55,0,0,1-2.45-4.34l-.46,0,.91-1.62A10.21,10.21,0,0,1,7.91,14.63Z"/><path class="cls-5" d="M2.83,9.91l2.63.38c1.17-.1,1.21-.7.45-1.67l-2-.9-.82.9L2.83,10"/><path class="cls-5" d="M.46,7.73A5.27,5.27,0,0,1,1.85,8c-.19-.53.14-.66.72-.61A12.76,12.76,0,0,1,5.91,8.62L5,10.24C2.7,10,.94,9.55.12,8.79-.19,8.19.16,7.76.46,7.73Z"/><path class="cls-5" d="M38.08,8.26C32.7,10.09,29.23,8,24.3,7.59a25.62,25.62,0,0,0,0-5.17A3,3,0,0,0,22,0h0a3,3,0,0,0-2.29,2.42,25.62,25.62,0,0,0,0,5.17c-4.93.37-8.4,2.5-13.78.67l-.07.36a10.19,10.19,0,0,1,2,6,32.28,32.28,0,0,1,3.9.14L8.58,10.9c1.38,1.21,2.75,2.52,4.13,4L14,15l-2.27-3.16A34.19,34.19,0,0,1,15,15.18h0l.39.06L15,31.31H29.08L28.7,15.24l.38-.06h0a34.41,34.41,0,0,1,3.26-3.31L30.06,15l1.28-.16c1.38-1.45,2.76-2.76,4.14-4l-3.24,3.87a32.44,32.44,0,0,1,3.91-.14,10.19,10.19,0,0,1,2-6Z"/><path class="cls-4" d="M15,15.18h0L14,15l-2.27-3.16A34.19,34.19,0,0,1,15,15.18Z"/><path class="cls-4" d="M12.71,14.87l-.9-.1L8.58,10.9C10,12.11,11.33,13.42,12.71,14.87Z"/><path class="cls-4" d="M17.52,7.84c-1.71.4-3.44.72-5.17,1,3,4.29,6.76,6.52,12.34,4.34V9C21.66,10.71,19.27,10.33,17.52,7.84Z"/><path class="cls-6" d="M29.08,31.31l-.53-23a33.91,33.91,0,0,0-3.89-.65V31.31Z"/><path class="cls-7" d="M22,.7h0c-3,.68-1.82,6,0,6.19h0C23.86,6.7,25.07,1.38,22,.7Z"/></g></g></svg>