<svg xmlns="http://www.w3.org/2000/svg" viewBox="0 0 768 432"><defs><style>.cls-1{fill:#4ca5a2;}.cls-2{fill:#8fc6c4;}.cls-3{fill:#298e65;}.cls-4{fill:#2b2b2b;}.cls-5{fill:#f04822;}.cls-6{fill:#ffe32b;}.cls-7{fill:#271f22;}.cls-8{fill:#3d474a;}</style></defs><title>danmark_map</title><g id="Layer_2" data-name="Layer 2"><g id="hav"><rect class="cls-1" width="768" height="432"/></g><g id="vand"><path class="cls-2" d="M167.6,134c-1.75,4.91-21.38,98-14.6,113.15S156.65,305,156.65,305s7.82,16.17-1,30.25S196.28,348.8,195.76,353s-4.17,9.9-8.34,16.16,41.71,2.61,44.32,9.39,39.11,19.29,44.32,11.47,23.47-13.56,31.81-9.91,34.42,14.6,34.42,14.6,22.42,1,21.9-4.69,22.94,13.56,22.94,13.56,22.94,15.64,33.37,5.73c0,0,6.26-2.08,17.21,5.22s23-1.05,20.34-10.95,3.65-32.33,13-29.73,38.59-13,15.65-23.46-15.12-11.47-4.7-15.12,5.74-23.47,2.61-27.12-17.73-14.08,8.87-11.47-7.82-47.45-3.65-50.06,10.95-21.9,0-25.55-16.69-20.34-62.58,4.17c0,0-22.94,12-33.89,4.17s-19.82,21.9-23.47,26.6-18.77-8.87-15.12-18.26c0,0-10.43-8.86-2.61-10.42s30.25-28.16,30.77-33.9-5.22-29.2-5.22-29.2-54.75,8.86-35.45-46.93,3.13-53.71,7.82-74.57,12-24.51,11.47-26.59-21.38-3.65-37,9.38S299,30.2,299,30.2s-9.91,4.17-19.82,29.72-47.45,21.38-51.1,19.82S186.37,81.3,167.6,134Z"/><path class="cls-2" d="M359,83.91c4.25,7.79,20.34,13,23.47,6.25s6.78-11.47,9.38-12,1.05-15.12-9.38-12S355.84,78.17,359,83.91Z"/><path class="cls-2" d="M403.3,147c0-4.81,14.08-6.78,16.16-3.65s-5.74,14.08-8.34,13.56S403.3,152.22,403.3,147Z"/><path class="cls-2" d="M628,321.17s-5.21,4.69-3.13,10.43,4.17,10.42,8.87,14.07,26.07,15.65,28.68,14.08,21.9-18.25,14.6-23.46-10.43-4.17-16.69-10.43-5.21-6.26-11-7.82-14.6-5.22-15.64-3.65S628,321.17,628,321.17Z"/></g><g id="danmark"><path class="cls-3" d="M185.07,296.92v6.26s3.65,3.13,3.13,7.3,7.3,4.17,3.65-2.09,1-4.69,1-4.69l-4.17-3.65Z"/><path class="cls-3" d="M192.89,329.25V335s-1,6.25,1,8.34,5.22-2.61,5.22-2.61v-9.39Z"/><path class="cls-3" d="M197.06,319.86s.52,4.17,2.09,2.61S201.76,318.82,197.06,319.86Z"/><path class="cls-3" d="M184,327.16s-1.57,5.22,2.08,3.13S184,327.16,184,327.16Z"/><path class="cls-3" d="M165.25,327.68s-2.6,4.18,0,4.18S168.9,328.73,165.25,327.68Z"/><path class="cls-3" d="M276.32,350.11s5.74-5.74,9.39-2.09,6.78,3.65,6.78,3.65,6.78,5.74,9.38,10.95,6.26,13-7.3,10.95,4.7-3.13,4.7-3.13-2.61-4.69-8.87-3.12-5.21-4.7-5.21-4.7l5.21,2.09s-1-8.35-6.26-8.35S276.32,350.11,276.32,350.11Z"/><path class="cls-3" d="M280.49,296.4s4.7-3.65,4.7-5.74,5.21-2.08,7.82,2.61,13.56-4.17,13.56-4.17h4.17l8.34-4.7,4.17,3.13,1.05-4.69s8.86,3.13,12,8.86a5.57,5.57,0,0,0,0,6.78c2.61,3.65-3.13.53-3.13.53s1,3.65-3.65,5.21,2.61,1.56,2.61,1.56,8.34,1.57,8.86,2.61,2.61-1,0-4.69,2.61-3.65,2.61-3.65v-5.22l1-6.25s-.52-3.13,1.57-2.61,1,4.17,1,4.17l3.65,4.17s1,4.7,1.56,6.26-2.6,3.65-2.6,3.65,7.82,9.91,8.34,14.6a8.91,8.91,0,0,1,4.69,5.21c1.05,3.65-5.73,0-5.73,0s4.17,17.21-6.26,25l1,4.7H348.8l-1,4.69,3.13,4.17s-5.21,4.7-10.95-2.08c0,0-2.61-3.13-4.17-2.09s0-2.09,0-2.09l6.26-2.6-4.18-1.57-1.56,2.09-1.56-2.09-4.7-1-1.56-2.09-3.13,1.05-5.74-5.22L318,349.06s-4.17-7.3-11-1.56,1.56-6.78,1.56-6.78h2.09l-.52-5.21s-6.26,1-7.3-1.57.52,7.3.52,7.3h-2.61s1-13.56-6.26-14.08c0,0-2.6,1-.52-11.47,0,0-6.78-1-6.26-4.69s2.61,0,2.61,0-2.08-4.69,0-6.26S280.49,296.4,280.49,296.4Z"/><path class="cls-3" d="M316.47,359.49s-1.56,3.13,3.13,8.87A85.75,85.75,0,0,0,330,378.79s4.7-5.22,9.91-3.65-4.17-6.26-4.17-6.26l-2.09,4.17-2.08-4.17L330,370.44s-1.56,2.09-6.26-4.69a8.13,8.13,0,0,1-5.21-2.09A6.44,6.44,0,0,1,316.47,359.49Z"/><path class="cls-3" d="M350.37,372.53l-1.57,3.65-2.08,1,3.65,13,8.34-22.42,9.39-22.43s1.56-4.17-1.57-6.25c0,0-.52,7.3-5.73,7.82,0,0,2.61,5.73-3.13,11.47a84,84,0,0,0-8.34,9.39s1,2.08,4.17,1l-1.57,7.3Z"/><path class="cls-3" d="M419.2,368.88s4.17,3.65,5.21,6.78a9.38,9.38,0,0,0,3.65,4.69,10,10,0,0,0,1.57,5.22,30.84,30.84,0,0,0,2.61,3.12l-2.09,1.57s3.65,9.38.52,9.38-18.77-2.08-18.77-2.08-2.09,12-15.64,2.08c0,0-5.74-9.38-14.6-9.38,0,0-9.39-6.26-12-7.3s3.65-3.13,7.82-1.57,3.65-5.73,3.65-5.73-13,.52-5.73-9.91,31.81,12,31.81,12S413.46,381.92,419.2,368.88Z"/><path class="cls-3" d="M406.69,361.06s0,3.13,1,3.13,5.21-.53,3.13-3.13S406.69,361.06,406.69,361.06Z"/><path class="cls-3" d="M396.26,364.71s2.6-2.09,4.17-.52,0,4.69-2.09,2.6Z"/><path class="cls-3" d="M440.06,395s3.65,12,1.56,14.08-6.78-5.21-6.78-5.21l2.61-13.56-7.3-8.87v-3.65l-3.13-2.6v-2.61l-2.08-1v-3.13l-2.09-1s2.61-4.18,5.21-2.61,1.57-2.61,1.57-2.61,2.61-.52,3.65,3.65,6.26-1,6.26-1,1.56-.52,1.56,2.61,6.26,4.69,6.26,4.69,1-3.65,4.17,3.13,1,4.17-3.65,8.34c0,0-2.61.52-1.56,6.78S440.06,395,440.06,395Z"/><path class="cls-3" d="M381.66,335.51s.52,5.73,2.08,3.65S383.74,335,381.66,335.51Z"/><path class="cls-3" d="M454.66,364.71h-1.57s-3.65,6.78,4.7,6.26,5.73-5.22,5.73-5.22,5.74-5.74,17.21-2.09-6.26-9.38-6.26-9.38l-8.34,2.08s-2.61-5.21-4.17-3.12,1.56,4.17,1.56,4.17,2.09,4.17-5.21,3.65S454.66,364.71,454.66,364.71Z"/><path class="cls-3" d="M422.85,352.71s10.95,1.05,17.73,7.83,16.69-2.09,10.43-9.91,3.65-2.61,3.65-2.61,4.17,0,0-5.21c0,0-6.26,1.56-8.87-1.57s2.09-6.78,4.7-2.08c0,0,6.78-9.91,16.68-9.39s12-10.43,12-10.43l-10.95-8.86s-16.69,1.56-7.3-16.17l7.3-8.86s15.64-5.22,16.16-9.39,3.13,3.13-1.56,6.78c0,0-2.09,1,1.56,3.65s5.74-3.65,5.74-3.65-4.17-8.34-3.65-12-1.57-23.47-7.3-25c0,0,2.6-10.43,5.21-11.47s-13-14.08-22.42-13S435.89,238,431.72,239.56s3.65,3.65,7.82,0,5.73,6.26,5.73,6.26l2.61,5.21A19.35,19.35,0,0,0,450,262.5c3.12,6.26-1.57,6.26-1.57,6.26l2.61,2.61L448.4,274l-1.56,5.21-4.7-4.69s-2.6,3.13-4.17,3.13,1.57-6.78,1.57-6.78l3.13-1.05s5.21-7.82-1.05-14.6c0,0,1.05-10.43-2.08-10.95s-3.65,7.3-2.61,10.43-4.17,5.74-4.17,5.74l1,6.26-4.69,10.42-2.61-6.25-8.34,1.56V269.8s6.78-2.08,8.34-4.17,4.17-3.13,4.17-4.17-6.26-.52-15.12,3.65,1-3.65,1-3.65-6.25-6.78,0-3.65,6.26,1,6.26,1-4.69-8.34-2.09-11.47l3.13.52s1.05-5.73,4.7-4.69-1.57-5.21-4.7-2.61-16.16,1.05-16.16,1.05L393.65,238s-2.09,2.6,0,2.6,21.38,2.09,13.56,13.56a9.33,9.33,0,0,1-8.87,2.09c-5.21-1.57,1.05,2.6-1,6.78s-7.3,7.3-15.12,3.65l-4.7,2.6s-9.9-5.21-13-.52c0,0-3.13,2.09,10.43,4.69s-6.78,5.22-6.78,5.22,9.91.52,10.95,1.56,7.82,12.52-.52,14.08,5.21,4.7,5.21,4.7,11.47,10.42,0,13-.52,6.26-.52,6.26,6.78,4.69,6.26,7.82,4.17-2.61,4.17-2.61,2.08,4.17-2.09,6.26-5.73,1,0,3.65,6.26,1,6.26,1l1-3.13s6.26,0,7.83,2.61,10.42,1.57,10.42,1.57,7.3-7.3,7.3,1l5.74,5.21-7.3,1.05,10.43,9.9Z"/><polygon class="cls-3" points="495.85 277.63 495.85 282.84 497.94 282.84 495.85 277.63"/><path class="cls-3" d="M341.5,250.51s-3.12,4.17-2.08,6.26,4.69,8.34,4.69,8.34l2.61-3.65s-1.57-8.34,0-9.39-1-5.21-1-5.21a5.67,5.67,0,0,0-4.18-4.17s-1.56-9.39-3.65-2.09C337.85,240.6,343.59,244.25,341.5,250.51Z"/><polygon class="cls-3" points="377.48 246.86 377.48 249.99 381.66 249.99 377.48 246.86"/><path class="cls-3" d="M637.17,319.86c-1.65-1.65-3.65,8.35-3.65,8.35l1.56,3.65v7.82s15.12,8.86,18.25,10.95,9.39,2.08,9.39,2.08l7.82-13-16.69-9.39-3.65-4.17S641.86,324.56,637.17,319.86Z"/><polygon class="cls-3" points="407.21 149.35 411.38 151.96 415.55 146.74 407.21 149.35"/><path class="cls-3" d="M366,82.6l3.65,2.09,3.65,3.65,6.26-2.61s0-7.3,4.17-7.82,6.78-7.3,0-6.26S362.36,80.52,366,82.6Z"/><path class="cls-3" d="M369.29,182.8l.37-.08Z"/><path class="cls-3" d="M369.29,182.8c-1.2.21-4.93.38-5.36-5.29-.52-6.78-4.18-5.22-4.18-5.22s-26.59,8.87-30.24-1-6.26-3.13-6.26-3.13l-4.17,6.78c-1.56-7.82,2.09-9.39,7.3-14.6s-6.26-8.34-6.26-8.34-.52,6.25-3.65,1.56-1.56-1-5.21-1-.52-2.09.52-4.17,16.17,0,16.17,0c-7.83-21.38-5.22-23-5.22-23s5.74-6.78,0-7.3S306.05,104,306.05,104s20.85,16.69,22.42,9.91,7.82-20.34,7.82-20.34c8.86-6.25,6.78-8.34,6.78-8.34-3.13-10.43,4.69-26.59-4.17-33.89s-1-15.13-1-15.13,15.65-12,11.48-12.51-19.82,12-19.82,12-7.82,9.39-16.69,7.3-10.95,2.09-10.95,2.09L275.8,85.21s-12,11-18.77,10.43-12.52-.52-12.52-.52c-5.73-5.74-8.86-2.61-8.86-2.61C220,105,212.71,94.08,212.18,96.16s-11,11-12,13a68.55,68.55,0,0,1-8.86,11.47c-3.13,3.13-8.35,17.21-8.35,21.9s1.57,2.09,1.57,2.09c2.6-10.43,4.17-7.83,4.17-7.83s-.52,7.83,4.69,10.95S204.88,164,204.88,164s-16.16,8.86-19.29-4.69-3.65-11.48-3.65-11.48l-6.26,14.08v12.52c0,6.26-5.21,52.14-5.21,52.14s1,17.73,2.61,15.65.52-6.26,0-13a21.94,21.94,0,0,1,2.08-11.47s14.08,5.73,11,8.86-2.08,5.22-2.08,5.22,9.9,4.69,6.25,12-15.9,6-15.9,6c3.65,16.16-12,36.5-12,36.5s6.51-3.39,10.69,2.35S184,299,181.94,295.35s-5.74-13.55-2.09-13.55a21,21,0,0,0,7.83-2.09l-6.26,6.78,4.17,2.61s.52,6.25,3.65,6.25,6.78,4.18,6.78,4.18c12.51-3.65,12,18.77,10.95,34.93s-2.61,16.69-1,25.55c.75,4.29-1.54,6.26-4.1,7.15,12.92-1.33,43-3.29,44.25,6.93,1.56,13,10.43,1.57,10.43,1.57l6.26,3.13C260.68,372,269,369.4,269,369.4l5.22-5.21c4.69,3.65-2.09,4.69-2.09,4.69,3.13,0,4.69,5.74,4.69,5.74a4.93,4.93,0,0,0,5.74,0c3.13-2.09-4.17-8.35-4.17-8.35h3.13c-7.82-18.77-11.47-15.12-11.47-15.12-10.43,7.82-9.39,0-9.39,0L268,347s1-5.74-2.09-8.34S269,336,269,336s2.09-4.17,7.82-2.61,1.05-9.39,1.05-9.39-4.17,5.74-8.35,4.18-3.65-2.09,3.65-5.22-2.6-10.95-2.6-10.95l3.65-3.13.52-3.65s6.26-9.38-3.65-6.78-1-5.21-1-5.21-2.61-5.74,1-1.57,4.69-.52,4.69-.52c5.74,2.09,6.26-2.08,6.26-2.08,10.43-6.26,6.78-7.82,6.78-7.82l-4.7-.53c-1-7.82-7.82-7.3-7.82-7.3-16.68-2.6,1.57-4.69,1.57-4.69s12.51,8.34,15.12,4.69,8.86-3.65,8.86-3.65L305,258.33s-7.82,0-12.51-4.17,1.56-4.17,1.56-4.17c3.65,6.78,7.82.52,7.82.52l3.13,1c7.82-2.6,10.95,3.13,10.95,3.13l1.57-5.73c4.69-4.18,3.65-7.3,3.65-7.3-2.61-5.74,0-13,0-13-5.74-9.91-2.61-12-2.61-12l12.52-15.13,6.25,3.65c-1.56-1-2.6,6.26-2.6,6.26l-8.35-.52L329,213s-2.61,5.21,3.65,2.08,6.78,1.57,6.78,1.57l-1.57,2.6c0,5.22,2.61,3.13,2.61,3.13s0-8.34,3.13-12,5.74,1,5.74,1-3.65,5.74-2.09,3.65,5.21,5.74,5.21,5.74a16.7,16.7,0,0,1,7.3-17.21c9.91-6.78,4.7-16.69,4.7-18.25C364.45,184,368.1,183.08,369.29,182.8ZM295.1,106.59l-7.83,1-8.86,10.43s-3.13,3.13-3.13-2.61-10.43-5.73-18.25-.52-9.39,16.17-9.39,16.17l3.13,1s-4.17,4.69-1.56,7.3l4.69,4.69s-5.74,2.61-5.74,4.7.53,3.13,5.74.52,2.61,12.51,2.61,12.51,5.73,10.43-1,5.22c0,0-.52-7.82-3.65-9.91s-9.38,5.74-9.38,5.74-6.78,2.08-2.09-5.74,6.26-9.91,6.26-9.91l-4.69-10.43a9,9,0,0,1-4.7,1c-3.12,0-14.07,5.73-11,8.34s4.18,0,4.18,0,1,4.69-5.74,3.13c0,0-4.17,3.65-5.22,6.78,0,0-7.82-1-5.47,3.39l4.17,5.21-1.56,7.82H208.8v-4.69h-2.09v-2.09l-1-4.17,3.13-4.17-2.09-4.17-1.3-3.39-4.18,1.56-2.6-5.21,2.6-3.65,1.05-5.74,6.78-6.25,6.25-13s9.91-.52,9.91-4.69,6.26-4.17,6.26-4.17-1,8.34,6.26,0c0,0,.52,3.12,5.73,0s8.87,5.73,8.87,5.73,13.55-8.86,19.29-7.3,4.17,1,4.17,1l7.82-5.21v2.61s8.35-1,6.26-5.74-1.56-5.73,2.09-1a28.23,28.23,0,0,0,7.3,6.78Z"/><path class="cls-3" d="M201.83,367.16c-3.55.36-5.81.68-5.81.68A16,16,0,0,0,201.83,367.16Z"/><path class="cls-3" d="M204.1,142.83s5.22,0,5.74,4.69,10.43-1.56,12.51-4.69a49,49,0,0,1,5.22-6.26s-3.65-12,0-9.9,4.17-6.78,4.17-6.78-1.57-4.7-5.22-1.57-4.69,5.74-10.42,5.74S213,134,213,134a5.18,5.18,0,0,1-5.22,2.08S203.58,140.75,204.1,142.83Z"/><path class="cls-3" d="M231.74,130.84l4.17-3.13s5.74,4.17,4.69,5.73S231.74,132.92,231.74,130.84Z"/></g><g id="skibe"><path class="cls-4" d="M517.78,240s-.68,3.13,4.14,3.13l8.29-1s6-.9,4-3.48l-12.47,1Z"/><polygon class="cls-5" points="521.81 237.86 529.42 237.3 529.65 239.02 522.23 239.62 521.81 237.86"/><polygon class="cls-6" points="523.6 237.73 523.26 234.95 524.5 234.72 524.95 237.64 523.6 237.73"/><polygon class="cls-7" points="528.53 237.41 527.86 231.47 527.18 231.7 528.09 237.41 528.53 237.41"/><polygon class="cls-5" points="527.18 231.7 524.95 232.15 525.17 233.6 527.41 233.13 527.18 231.7"/><path class="cls-4" d="M119.78,245.3s-.67,3.14,4.14,3.14l8.29-1s6-.9,4-3.47l-12.47,1Z"/><polygon class="cls-5" points="123.81 243.17 131.43 242.61 131.65 244.33 124.24 244.94 123.81 243.17"/><polygon class="cls-6" points="125.6 243.04 125.27 240.26 126.5 240.03 126.95 242.95 125.6 243.04"/><polygon class="cls-7" points="130.53 242.72 129.86 236.79 129.19 237.01 130.09 242.72 130.53 242.72"/><polygon class="cls-5" points="129.19 237.01 126.95 237.46 127.17 238.91 129.41 238.44 129.19 237.01"/><path class="cls-4" d="M89.31,301.9S88.64,305,93.45,305l8.29-1s6.05-.9,4-3.47l-12.47,1Z"/><polygon class="cls-5" points="93.34 299.77 100.96 299.21 101.18 300.93 93.77 301.54 93.34 299.77"/><polygon class="cls-6" points="95.13 299.64 94.8 296.86 96.03 296.63 96.48 299.55 95.13 299.64"/><polygon class="cls-7" points="100.06 299.32 99.39 293.39 98.72 293.62 99.62 299.32 100.06 299.32"/><polygon class="cls-5" points="98.72 293.61 96.48 294.06 96.7 295.51 98.94 295.04 98.72 293.61"/><path class="cls-4" d="M143.16,101.8s-.67,3.14,4.14,3.14l8.29-1s6-.89,4-3.47l-12.47,1Z"/><polygon class="cls-5" points="147.19 99.67 154.81 99.11 155.03 100.83 147.62 101.44 147.19 99.67"/><polygon class="cls-6" points="148.99 99.54 148.65 96.76 149.88 96.54 150.33 99.45 148.99 99.54"/><polygon class="cls-7" points="153.91 99.23 153.24 93.29 152.57 93.52 153.47 99.23 153.91 99.23"/><polygon class="cls-5" points="152.57 93.51 150.33 93.96 150.55 95.42 152.79 94.94 152.57 93.51"/><path class="cls-4" d="M239.13,62.6s-.67,3.14,4.15,3.14l8.29-1s6-.9,4-3.47l-12.47,1Z"/><polygon class="cls-5" points="243.16 60.47 250.78 59.91 251.01 61.63 243.59 62.24 243.16 60.47"/><polygon class="cls-6" points="244.96 60.34 244.62 57.56 245.85 57.34 246.3 60.25 244.96 60.34"/><polygon class="cls-7" points="249.89 60.03 249.21 54.09 248.54 54.32 249.45 60.03 249.89 60.03"/><polygon class="cls-5" points="248.54 54.31 246.3 54.76 246.53 56.22 248.77 55.74 248.54 54.31"/><path class="cls-4" d="M183.23,63s-.67,3.14,4.15,3.14l8.28-1s6.05-.9,4-3.47l-12.47,1Z"/><polygon class="cls-5" points="187.26 60.9 194.88 60.34 195.1 62.06 187.69 62.67 187.26 60.9"/><polygon class="cls-6" points="189.06 60.77 188.72 57.99 189.95 57.77 190.4 60.68 189.06 60.77"/><polygon class="cls-7" points="193.98 60.45 193.31 54.52 192.64 54.75 193.54 60.45 193.98 60.45"/><polygon class="cls-5" points="192.64 54.74 190.4 55.19 190.62 56.65 192.87 56.17 192.64 54.74"/></g><g id="Layer_10_copy" data-name="Layer 10 copy"><path class="cls-8" d="M294.34,327.46h6.24a1.37,1.37,0,0,1,1.43,1.43v9.3a1.43,1.43,0,0,1-.4,1,1.4,1.4,0,0,1-1,.39h-6.24a1.34,1.34,0,0,1-1.42-1.42v-9.3a1.4,1.4,0,0,1,.39-1A1.43,1.43,0,0,1,294.34,327.46Zm4.53,9.36v-6.53c0-.13-.06-.2-.19-.2h-2.47c-.11,0-.16.07-.16.2v6.53c0,.11.05.17.16.17h2.47C298.81,337,298.87,336.93,298.87,336.82Z"/><path class="cls-8" d="M305.35,327.46h6.54a2.46,2.46,0,0,1,2.46,2.47v7.2a2.48,2.48,0,0,1-2.46,2.48h-6.54Zm5.89,8.64V331a.86.86,0,0,0-.24-.64.84.84,0,0,0-.64-.25h-1.87V337h1.87a.88.88,0,0,0,.64-.25A.86.86,0,0,0,311.24,336.1Z"/><path class="cls-8" d="M317.7,339.61V327.46h7.94v2.61h-4.82v2.13H325v2.59h-4.17V337h4.82v2.62Z"/><path class="cls-8" d="M335.09,339.61l-3.55-6.67v6.67h-2.88V327.46h2.88l3.64,6.7v-6.7h2.88v12.15Z"/><path class="cls-8" d="M341.26,339.61V337h4.56c.13,0,.2-.06.2-.17v-1.76c0-.11-.07-.16-.2-.16h-3.13a1.37,1.37,0,0,1-1-.4,1.39,1.39,0,0,1-.4-1v-4.59a1.37,1.37,0,0,1,1.43-1.43H349v2.61h-4.39c-.12,0-.18.07-.18.2v1.78c0,.11.06.17.18.17h3.13a1.35,1.35,0,0,1,1.42,1.42v4.55a1.35,1.35,0,0,1-1.42,1.42Z"/><path class="cls-8" d="M352.26,339.61V327.46h7.94v2.61h-4.82v2.13h4.17v2.59h-4.17V337h4.82v2.62Z"/><path class="cls-8" d="M513.47,268.73h-4.56l-3.17-6.19-1.32,2.13v4.06h-4.18v-16.2h4.18v6.74l4.2-6.74h4.65l-4.68,7Z"/><path class="cls-8" d="M516.42,271l1.1-2.35a2.58,2.58,0,0,1-1.31-.65,1.57,1.57,0,0,1-.54-1.2V254.42a1.82,1.82,0,0,1,1.9-1.89h6.58l1-2.26h1.7l-1,2.26h0a1.8,1.8,0,0,1,1.89,1.89v12.41a1.85,1.85,0,0,1-.52,1.37,1.88,1.88,0,0,1-1.37.53h-6.72l-1.06,2.3Zm2.78-5.37s0,.08,0,.09l3.38-10.32H519.8a.2.2,0,0,0-.15.09.25.25,0,0,0-.09.2Zm4.68,0,.36-9.94a.26.26,0,0,0,0-.14l-3.4,10.29h2.83C523.79,265.87,523.88,265.8,523.88,265.66Z"/><path class="cls-8" d="M542.36,268.73h-10.1v-16.2h10a2.18,2.18,0,0,1,1.57.56,1.94,1.94,0,0,1,.59,1.48v3.6a2.47,2.47,0,0,1-.56,1.56,3,3,0,0,1-1.65,1,3.38,3.38,0,0,1,1.71.93,2.21,2.21,0,0,1,.62,1.52v3.52a2,2,0,0,1-.59,1.52A2.22,2.22,0,0,1,542.36,268.73Zm-2-9.89V256q0-.27-.24-.27h-3.74v3.36h3.74C540.31,259.1,540.39,259,540.39,258.84Zm0,6.58v-3.08c0-.17-.08-.26-.24-.26h-3.74v3.58h3.74A.21.21,0,0,0,540.39,265.42Z"/><path class="cls-8" d="M548.75,268.73v-16.2h10.58V256H552.9v2.83h5.57v3.46H552.9v2.92h6.43v3.51Z"/><path class="cls-8" d="M571.93,268.73l-4.73-8.91v8.91h-3.84v-16.2h3.84l4.85,8.93v-8.93h3.84v16.2Z"/><path class="cls-8" d="M592.81,252.53v16.2h-4.18V262.3h-4v6.43H580.5v-16.2h4.17v6.19h4v-6.19Z"/><path class="cls-8" d="M609.3,254.42v14.31h-4.18v-4h-3.67v4h-4.18V254.42a1.82,1.82,0,0,1,1.9-1.89h8.23a1.82,1.82,0,0,1,1.9,1.89Zm-7.85,6.77h3.67v-4.87c0-.32-.19-.48-.58-.48H602a.52.52,0,0,0-.36.14.49.49,0,0,0-.14.34Z"/><path class="cls-8" d="M621.61,252.53h4.13l-4.83,16.2h-4l-4.7-16.2h4.46l2.26,10.29Z"/><path class="cls-8" d="M637.33,268.73l-4.73-8.91v8.91h-3.84v-16.2h3.84l4.85,8.93v-8.93h3.84v16.2Z"/><path class="cls-8" d="M265.23,210.52v10.73h-3.14v-3h-2.75v3h-3.13V210.52a1.35,1.35,0,0,1,1.42-1.42h6.17a1.37,1.37,0,0,1,1,.4A1.39,1.39,0,0,1,265.23,210.52Zm-5.89,5.08h2.75v-3.66c0-.24-.14-.36-.43-.36h-1.94a.37.37,0,0,0-.27.11.36.36,0,0,0-.11.25Z"/><path class="cls-8" d="M277.48,210.52v10.73h-3.13v-3H271.6v3h-3.13V210.52a1.35,1.35,0,0,1,1.42-1.42h6.17a1.35,1.35,0,0,1,1.42,1.42Zm-5.88,5.08h2.75v-3.66c0-.24-.14-.36-.43-.36H272a.37.37,0,0,0-.27.11.32.32,0,0,0-.11.25Z"/><path class="cls-8" d="M280.83,209.1h7.63a1.31,1.31,0,0,1,1,.4,1.28,1.28,0,0,1,.4,1V216a1.31,1.31,0,0,1-.4,1,1.32,1.32,0,0,1-1,.41h-.09l1.5,3.85h-3.06l-1.51-3.85H284v3.85h-3.13Zm5.89,5.69v-2.9c0-.12-.06-.18-.16-.18H284V215h2.6a.16.16,0,0,0,.1,0A.17.17,0,0,0,286.72,214.79Z"/><path class="cls-8" d="M302.29,209.1v12.15h-3.13v-4.82h-3v4.82h-3.14V209.1h3.14v4.64h3V209.1Z"/><path class="cls-8" d="M305.74,209.1h3.14v9.36a.14.14,0,0,0,.16.16h2.28c.14,0,.2-.05.2-.16V209.1h3.13v10.76a1.34,1.34,0,0,1-.39,1,1.31,1.31,0,0,1-1,.4h-6.16a1.34,1.34,0,0,1-1-.41,1.3,1.3,0,0,1-.42-1Z"/><path class="cls-8" d="M317.86,221.25v-2.63h4.55c.13,0,.2-.05.2-.16V216.7c0-.11-.07-.17-.2-.17h-3.13a1.34,1.34,0,0,1-1.42-1.42v-4.59a1.35,1.35,0,0,1,1.42-1.42h6.28v2.61h-4.39c-.12,0-.18.07-.18.2v1.78c0,.11.06.16.18.16h3.13a1.35,1.35,0,0,1,1.42,1.42v4.56a1.35,1.35,0,0,1-1.42,1.42Z"/><path class="cls-8" d="M252,102.94v10.73h-3.13v-3h-2.75v3H243V102.94a1.34,1.34,0,0,1,1.42-1.42h6.17a1.34,1.34,0,0,1,1.42,1.42ZM246.12,108h2.75v-3.65c0-.24-.14-.36-.43-.36H246.5a.37.37,0,0,0-.27.11.31.31,0,0,0-.11.25Z"/><path class="cls-8" d="M264.26,102.94v10.73h-3.13v-3h-2.75v3h-3.14V102.94a1.43,1.43,0,0,1,.4-1,1.4,1.4,0,0,1,1-.39h6.17a1.34,1.34,0,0,1,1.42,1.42ZM258.38,108h2.75v-3.65c0-.24-.14-.36-.43-.36h-1.95a.4.4,0,0,0-.27.11.33.33,0,0,0-.1.25Z"/><path class="cls-8" d="M267.61,113.67V101.52h3.11V111h3.87v2.63Z"/><path class="cls-8" d="M284.84,113.67h-7.58V101.52h7.49a1.61,1.61,0,0,1,1.17.42,1.45,1.45,0,0,1,.45,1.11v2.7a1.84,1.84,0,0,1-.43,1.17,2.28,2.28,0,0,1-1.23.72,2.46,2.46,0,0,1,1.28.7,1.62,1.62,0,0,1,.47,1.13v2.65a1.48,1.48,0,0,1-.44,1.13A1.65,1.65,0,0,1,284.84,113.67Zm-1.48-7.42v-2.12c0-.14-.06-.2-.18-.2h-2.81v2.52h2.81C283.3,106.45,283.36,106.38,283.36,106.25Zm0,4.93v-2.3c0-.13-.06-.2-.18-.2h-2.81v2.68h2.81A.16.16,0,0,0,283.36,111.18Z"/><path class="cls-8" d="M290.94,101.52h6.24a1.4,1.4,0,0,1,1,.39,1.43,1.43,0,0,1,.4,1v9.3a1.37,1.37,0,0,1-1.43,1.43h-6.24a1.43,1.43,0,0,1-1-.4,1.4,1.4,0,0,1-.39-1v-9.3a1.34,1.34,0,0,1,1.42-1.42Zm4.53,9.36v-6.54c0-.13-.06-.2-.19-.2h-2.47c-.11,0-.16.07-.16.2v6.54a.14.14,0,0,0,.16.16h2.47C295.41,111,295.47,111,295.47,110.88Z"/><path class="cls-8" d="M302,101.52h7.64a1.34,1.34,0,0,1,1,.39,1.31,1.31,0,0,1,.4,1v5.57a1.37,1.37,0,0,1-1.36,1.36h-.1l1.5,3.86h-3.06l-1.51-3.86h-1.33v3.86H302Zm5.89,5.68v-2.89c0-.12-.06-.18-.16-.18h-2.59v3.24h2.59a.14.14,0,0,0,.1-.06A.14.14,0,0,0,307.84,107.2Z"/><path class="cls-8" d="M318.44,108.79v-2.58H324v2.58h-1v3.49a1.31,1.31,0,0,1-.4,1,1.38,1.38,0,0,1-1,.4h-6.09a1.39,1.39,0,0,1-1-.4,1.31,1.31,0,0,1-.4-1v-9.4a1.28,1.28,0,0,1,.41-1,1.37,1.37,0,0,1,1-.4H323v2.61h-5.63c-.12,0-.18.06-.18.19v6.52a.16.16,0,0,0,.18.18h2.52c.13,0,.2-.06.2-.18v-2Z"/><path class="cls-8" d="M121.47,307.23V295.08h7.94v2.61h-4.82v2.12h4.17v2.59h-4.17v2.2h4.82v2.63Z"/><path class="cls-8" d="M132.18,307.23V304.6h4.56c.13,0,.2-.05.2-.16v-1.77c0-.1-.07-.16-.2-.16h-3.13a1.4,1.4,0,0,1-1-.39,1.39,1.39,0,0,1-.4-1V296.5a1.39,1.39,0,0,1,.4-1,1.4,1.4,0,0,1,1-.39h6.28v2.61H135.5c-.12,0-.18.06-.18.2v1.78c0,.11.06.16.18.16h3.13a1.37,1.37,0,0,1,1.42,1.42v4.56a1.37,1.37,0,0,1-1.42,1.42Z"/><path class="cls-8" d="M150.76,307.23h-7.58V295.08h7.49a1.65,1.65,0,0,1,1.18.42,1.48,1.48,0,0,1,.44,1.11v2.7a1.83,1.83,0,0,1-.42,1.17,2.22,2.22,0,0,1-1.24.72,2.53,2.53,0,0,1,1.28.7,1.66,1.66,0,0,1,.47,1.14v2.64a1.48,1.48,0,0,1-.44,1.13A1.65,1.65,0,0,1,150.76,307.23Zm-1.48-7.42v-2.12c0-.13-.06-.2-.18-.2h-2.8V300h2.8C149.22,300,149.28,300,149.28,299.81Zm0,4.94v-2.31c0-.13-.06-.2-.18-.2h-2.8v2.68h2.8C149.22,304.92,149.28,304.87,149.28,304.75Z"/><path class="cls-8" d="M155,301.43h3.14v3a.14.14,0,0,0,.16.16h1.6c.13,0,.2-.05.2-.16v-9.36h3.13v10.76a1.31,1.31,0,0,1-.4,1,1.28,1.28,0,0,1-1,.4h-5.47a1.34,1.34,0,0,1-1-.41,1.3,1.3,0,0,1-.42-1Z"/><path class="cls-8" d="M166.71,307.23V295.08h7.94v2.61h-4.83v2.12H174v2.59h-4.18v2.2h4.83v2.63Z"/><path class="cls-8" d="M177.67,295.08h7.63a1.37,1.37,0,0,1,1.37,1.37V302a1.4,1.4,0,0,1-1.37,1.37h-.09l1.49,3.85h-3l-1.52-3.85H180.8v3.85h-3.13Zm5.89,5.69v-2.9c0-.12-.06-.18-.17-.18H180.8v3.24h2.59a.16.16,0,0,0,.11-.05A.17.17,0,0,0,183.56,300.77Z"/><path class="cls-8" d="M194.16,302.35v-2.57h5.5v2.57h-1v3.49a1.32,1.32,0,0,1-.41,1,1.34,1.34,0,0,1-1,.4h-6.08a1.35,1.35,0,0,1-1-.4,1.32,1.32,0,0,1-.41-1v-9.39a1.31,1.31,0,0,1,.42-1,1.34,1.34,0,0,1,1-.4h7.52v2.61h-5.63c-.12,0-.18.06-.18.2v6.51a.16.16,0,0,0,.18.18h2.52c.13,0,.19-.06.19-.18v-2Z"/></g></g></svg>