<svg xmlns="http://www.w3.org/2000/svg" viewBox="0 0 768 432"><defs><style>.cls-1{fill:#4ca5a2;}.cls-2{fill:#8fc6c4;}.cls-3{fill:#298e65;}.cls-4{fill:#f8f09a;}.cls-10,.cls-11,.cls-13,.cls-4,.cls-5,.cls-7,.cls-8,.cls-9{fill-rule:evenodd;}.cls-5{fill:#facfbd;}.cls-6,.cls-8{fill:#b92727;}.cls-12,.cls-7{fill:#fff;}.cls-9{fill:#eabbab;}.cls-10{fill:#2c1f1d;}.cls-11{fill:#171f2d;}.cls-13{fill:#fd0;}.cls-14{fill:#e2580c;}.cls-15{fill:#ed5b00;}.cls-16{fill:#d35618;}.cls-17{fill:#860600;}.cls-18{fill:#931818;}.cls-19{fill:#700404;}.cls-20{fill:#52453d;}.cls-21{fill:#564538;}.cls-22{fill:#030102;}.cls-23{fill:#a76d4b;}.cls-24{fill:#22090c;}.cls-25{fill:#040202;}.cls-26{fill:#100a16;}.cls-27{fill:#020101;}.cls-28{fill:#010202;}.cls-29{fill:#33343d;}.cls-30{fill:#100408;}.cls-31{fill:#0a0609;}.cls-32{fill:#300d14;}.cls-33{fill:#e7dcda;}.cls-34{fill:#050404;}.cls-35{fill:#070f14;}.cls-36{fill:#e8dcd7;}.cls-37{fill:#f7f2f1;}.cls-38{fill:#fdfaf7;}.cls-39{fill:#010102;}.cls-40{fill:#f0f2ef;}.cls-41{fill:#94959a;}.cls-42{fill:#584d4b;}.cls-43{fill:#ac8e4b;}.cls-44{fill:#bcbd7d;}.cls-45{fill:#598442;}.cls-46{fill:#b6a28c;}.cls-47{fill:#2b2b2b;}.cls-48{fill:#f04822;}.cls-49{fill:#ffe32b;}.cls-50{fill:#271f22;}.cls-51{fill:#364549;}</style></defs><title>danmark_bg</title><g id="Layer_2" data-name="Layer 2"><g id="hav"><rect class="cls-1" width="768" height="432"/></g><g id="vand"><path class="cls-2" d="M167.6,134c-1.75,4.91-21.38,98-14.6,113.15S156.65,305,156.65,305s7.82,16.17-1,30.25S196.28,348.8,195.76,353s-4.17,9.9-8.34,16.16,41.71,2.61,44.32,9.39,39.11,19.29,44.32,11.47,23.47-13.56,31.81-9.91,34.42,14.6,34.42,14.6,22.42,1,21.9-4.69,22.94,13.56,22.94,13.56,22.94,15.64,33.37,5.73c0,0,6.26-2.08,17.21,5.22s23-1.05,20.34-10.95,3.65-32.33,13-29.73,38.59-13,15.65-23.46-15.12-11.47-4.7-15.12,5.74-23.47,2.61-27.12-17.73-14.08,8.87-11.47-7.82-47.45-3.65-50.06,10.95-21.9,0-25.55-16.69-20.34-62.58,4.17c0,0-22.94,12-33.89,4.17s-19.82,21.9-23.47,26.6-18.77-8.87-15.12-18.26c0,0-10.43-8.86-2.61-10.42s30.25-28.16,30.77-33.9-5.22-29.2-5.22-29.2-54.75,8.86-35.45-46.93,3.13-53.71,7.82-74.57,12-24.51,11.47-26.59-21.38-3.65-37,9.38S299,30.2,299,30.2s-9.91,4.17-19.82,29.72-47.45,21.38-51.1,19.82S186.37,81.3,167.6,134Z"/><path class="cls-2" d="M359,83.91c4.25,7.79,20.34,13,23.47,6.25s6.78-11.47,9.38-12,1.05-15.12-9.38-12S355.84,78.17,359,83.91Z"/><path class="cls-2" d="M403.3,147c0-4.81,14.08-6.78,16.16-3.65s-5.74,14.08-8.34,13.56S403.3,152.22,403.3,147Z"/><path class="cls-2" d="M628,321.17s-5.21,4.69-3.13,10.43,4.17,10.42,8.87,14.07,26.07,15.65,28.68,14.08,21.9-18.25,14.6-23.46-10.43-4.17-16.69-10.43-5.21-6.26-11-7.82-14.6-5.22-15.64-3.65S628,321.17,628,321.17Z"/></g><g id="danmark"><path class="cls-3" d="M185.07,296.92v6.26s3.65,3.13,3.13,7.3,7.3,4.17,3.65-2.09,1-4.69,1-4.69l-4.17-3.65Z"/><path class="cls-3" d="M192.89,329.25V335s-1,6.25,1,8.34,5.22-2.61,5.22-2.61v-9.39Z"/><path class="cls-3" d="M197.06,319.86s.52,4.17,2.09,2.61S201.76,318.82,197.06,319.86Z"/><path class="cls-3" d="M184,327.16s-1.57,5.22,2.08,3.13S184,327.16,184,327.16Z"/><path class="cls-3" d="M165.25,327.68s-2.6,4.18,0,4.18S168.9,328.73,165.25,327.68Z"/><path class="cls-3" d="M276.32,350.11s5.74-5.74,9.39-2.09,6.78,3.65,6.78,3.65,6.78,5.74,9.38,10.95,6.26,13-7.3,10.95,4.7-3.13,4.7-3.13-2.61-4.69-8.87-3.12-5.21-4.7-5.21-4.7l5.21,2.09s-1-8.35-6.26-8.35S276.32,350.11,276.32,350.11Z"/><path class="cls-3" d="M280.49,296.4s4.7-3.65,4.7-5.74,5.21-2.08,7.82,2.61,13.56-4.17,13.56-4.17h4.17l8.34-4.7,4.17,3.13,1.05-4.69s8.86,3.13,12,8.86a5.57,5.57,0,0,0,0,6.78c2.61,3.65-3.13.53-3.13.53s1,3.65-3.65,5.21,2.61,1.56,2.61,1.56,8.34,1.57,8.86,2.61,2.61-1,0-4.69,2.61-3.65,2.61-3.65v-5.22l1-6.25s-.52-3.13,1.57-2.61,1,4.17,1,4.17l3.65,4.17s1,4.7,1.56,6.26-2.6,3.65-2.6,3.65,7.82,9.91,8.34,14.6a8.91,8.91,0,0,1,4.69,5.21c1.05,3.65-5.73,0-5.73,0s4.17,17.21-6.26,25l1,4.7H348.8l-1,4.69,3.13,4.17s-5.21,4.7-10.95-2.08c0,0-2.61-3.13-4.17-2.09s0-2.09,0-2.09l6.26-2.6-4.18-1.57-1.56,2.09-1.56-2.09-4.7-1-1.56-2.09-3.13,1.05-5.74-5.22L318,349.06s-4.17-7.3-11-1.56,1.56-6.78,1.56-6.78h2.09l-.52-5.21s-6.26,1-7.3-1.57.52,7.3.52,7.3h-2.61s1-13.56-6.26-14.08c0,0-2.6,1-.52-11.47,0,0-6.78-1-6.26-4.69s2.61,0,2.61,0-2.08-4.69,0-6.26S280.49,296.4,280.49,296.4Z"/><path class="cls-3" d="M316.47,359.49s-1.56,3.13,3.13,8.87A85.75,85.75,0,0,0,330,378.79s4.7-5.22,9.91-3.65-4.17-6.26-4.17-6.26l-2.09,4.17-2.08-4.17L330,370.44s-1.56,2.09-6.26-4.69a8.13,8.13,0,0,1-5.21-2.09A6.44,6.44,0,0,1,316.47,359.49Z"/><path class="cls-3" d="M350.37,372.53l-1.57,3.65-2.08,1,3.65,13,8.34-22.42,9.39-22.43s1.56-4.17-1.57-6.25c0,0-.52,7.3-5.73,7.82,0,0,2.61,5.73-3.13,11.47a84,84,0,0,0-8.34,9.39s1,2.08,4.17,1l-1.57,7.3Z"/><path class="cls-3" d="M419.2,368.88s4.17,3.65,5.21,6.78a9.38,9.38,0,0,0,3.65,4.69,10,10,0,0,0,1.57,5.22,30.84,30.84,0,0,0,2.61,3.12l-2.09,1.57s3.65,9.38.52,9.38-18.77-2.08-18.77-2.08-2.09,12-15.64,2.08c0,0-5.74-9.38-14.6-9.38,0,0-9.39-6.26-12-7.3s3.65-3.13,7.82-1.57,3.65-5.73,3.65-5.73-13,.52-5.73-9.91,31.81,12,31.81,12S413.46,381.92,419.2,368.88Z"/><path class="cls-3" d="M406.69,361.06s0,3.13,1,3.13,5.21-.53,3.13-3.13S406.69,361.06,406.69,361.06Z"/><path class="cls-3" d="M396.26,364.71s2.6-2.09,4.17-.52,0,4.69-2.09,2.6Z"/><path class="cls-3" d="M440.06,395s3.65,12,1.56,14.08-6.78-5.21-6.78-5.21l2.61-13.56-7.3-8.87v-3.65l-3.13-2.6v-2.61l-2.08-1v-3.13l-2.09-1s2.61-4.18,5.21-2.61,1.57-2.61,1.57-2.61,2.61-.52,3.65,3.65,6.26-1,6.26-1,1.56-.52,1.56,2.61,6.26,4.69,6.26,4.69,1-3.65,4.17,3.13,1,4.17-3.65,8.34c0,0-2.61.52-1.56,6.78S440.06,395,440.06,395Z"/><path class="cls-3" d="M381.66,335.51s.52,5.73,2.08,3.65S383.74,335,381.66,335.51Z"/><path class="cls-3" d="M454.66,364.71h-1.57s-3.65,6.78,4.7,6.26,5.73-5.22,5.73-5.22,5.74-5.74,17.21-2.09-6.26-9.38-6.26-9.38l-8.34,2.08s-2.61-5.21-4.17-3.12,1.56,4.17,1.56,4.17,2.09,4.17-5.21,3.65S454.66,364.71,454.66,364.71Z"/><path class="cls-3" d="M422.85,352.71s10.95,1.05,17.73,7.83,16.69-2.09,10.43-9.91,3.65-2.61,3.65-2.61,4.17,0,0-5.21c0,0-6.26,1.56-8.87-1.57s2.09-6.78,4.7-2.08c0,0,6.78-9.91,16.68-9.39s12-10.43,12-10.43l-10.95-8.86s-16.69,1.56-7.3-16.17l7.3-8.86s15.64-5.22,16.16-9.39,3.13,3.13-1.56,6.78c0,0-2.09,1,1.56,3.65s5.74-3.65,5.74-3.65-4.17-8.34-3.65-12-1.57-23.47-7.3-25c0,0,2.6-10.43,5.21-11.47s-13-14.08-22.42-13S435.89,238,431.72,239.56s3.65,3.65,7.82,0,5.73,6.26,5.73,6.26l2.61,5.21A19.35,19.35,0,0,0,450,262.5c3.12,6.26-1.57,6.26-1.57,6.26l2.61,2.61L448.4,274l-1.56,5.21-4.7-4.69s-2.6,3.13-4.17,3.13,1.57-6.78,1.57-6.78l3.13-1.05s5.21-7.82-1.05-14.6c0,0,1.05-10.43-2.08-10.95s-3.65,7.3-2.61,10.43-4.17,5.74-4.17,5.74l1,6.26-4.69,10.42-2.61-6.25-8.34,1.56V269.8s6.78-2.08,8.34-4.17,4.17-3.13,4.17-4.17-6.26-.52-15.12,3.65,1-3.65,1-3.65-6.25-6.78,0-3.65,6.26,1,6.26,1-4.69-8.34-2.09-11.47l3.13.52s1.05-5.73,4.7-4.69-1.57-5.21-4.7-2.61-16.16,1.05-16.16,1.05L393.65,238s-2.09,2.6,0,2.6,21.38,2.09,13.56,13.56a9.33,9.33,0,0,1-8.87,2.09c-5.21-1.57,1.05,2.6-1,6.78s-7.3,7.3-15.12,3.65l-4.7,2.6s-9.9-5.21-13-.52c0,0-3.13,2.09,10.43,4.69s-6.78,5.22-6.78,5.22,9.91.52,10.95,1.56,7.82,12.52-.52,14.08,5.21,4.7,5.21,4.7,11.47,10.42,0,13-.52,6.26-.52,6.26,6.78,4.69,6.26,7.82,4.17-2.61,4.17-2.61,2.08,4.17-2.09,6.26-5.73,1,0,3.65,6.26,1,6.26,1l1-3.13s6.26,0,7.83,2.61,10.42,1.57,10.42,1.57,7.3-7.3,7.3,1l5.74,5.21-7.3,1.05,10.43,9.9Z"/><polygon class="cls-3" points="495.85 277.63 495.85 282.84 497.94 282.84 495.85 277.63"/><path class="cls-3" d="M341.5,250.51s-3.12,4.17-2.08,6.26,4.69,8.34,4.69,8.34l2.61-3.65s-1.57-8.34,0-9.39-1-5.21-1-5.21a5.67,5.67,0,0,0-4.18-4.17s-1.56-9.39-3.65-2.09C337.85,240.6,343.59,244.25,341.5,250.51Z"/><polygon class="cls-3" points="377.48 246.86 377.48 249.99 381.66 249.99 377.48 246.86"/><path class="cls-3" d="M637.17,319.86c-1.65-1.65-3.65,8.35-3.65,8.35l1.56,3.65v7.82s15.12,8.86,18.25,10.95,9.39,2.08,9.39,2.08l7.82-13-16.69-9.39-3.65-4.17S641.86,324.56,637.17,319.86Z"/><polygon class="cls-3" points="407.21 149.35 411.38 151.96 415.55 146.74 407.21 149.35"/><path class="cls-3" d="M366,82.6l3.65,2.09,3.65,3.65,6.26-2.61s0-7.3,4.17-7.82,6.78-7.3,0-6.26S362.36,80.52,366,82.6Z"/><path class="cls-3" d="M369.29,182.8l.37-.08Z"/><path class="cls-3" d="M369.29,182.8c-1.2.21-4.93.38-5.36-5.29-.52-6.78-4.18-5.22-4.18-5.22s-26.59,8.87-30.24-1-6.26-3.13-6.26-3.13l-4.17,6.78c-1.56-7.82,2.09-9.39,7.3-14.6s-6.26-8.34-6.26-8.34-.52,6.25-3.65,1.56-1.56-1-5.21-1-.52-2.09.52-4.17,16.17,0,16.17,0c-7.83-21.38-5.22-23-5.22-23s5.74-6.78,0-7.3S306.05,104,306.05,104s20.85,16.69,22.42,9.91,7.82-20.34,7.82-20.34c8.86-6.25,6.78-8.34,6.78-8.34-3.13-10.43,4.69-26.59-4.17-33.89s-1-15.13-1-15.13,15.65-12,11.48-12.51-19.82,12-19.82,12-7.82,9.39-16.69,7.3-10.95,2.09-10.95,2.09L275.8,85.21s-12,11-18.77,10.43-12.52-.52-12.52-.52c-5.73-5.74-8.86-2.61-8.86-2.61C220,105,212.71,94.08,212.18,96.16s-11,11-12,13a68.55,68.55,0,0,1-8.86,11.47c-3.13,3.13-8.35,17.21-8.35,21.9s1.57,2.09,1.57,2.09c2.6-10.43,4.17-7.83,4.17-7.83s-.52,7.83,4.69,10.95S204.88,164,204.88,164s-16.16,8.86-19.29-4.69-3.65-11.48-3.65-11.48l-6.26,14.08v12.52c0,6.26-5.21,52.14-5.21,52.14s1,17.73,2.61,15.65.52-6.26,0-13a21.94,21.94,0,0,1,2.08-11.47s14.08,5.73,11,8.86-2.08,5.22-2.08,5.22,9.9,4.69,6.25,12-15.9,6-15.9,6c3.65,16.16-12,36.5-12,36.5s6.51-3.39,10.69,2.35S184,299,181.94,295.35s-5.74-13.55-2.09-13.55a21,21,0,0,0,7.83-2.09l-6.26,6.78,4.17,2.61s.52,6.25,3.65,6.25,6.78,4.18,6.78,4.18c12.51-3.65,12,18.77,10.95,34.93s-2.61,16.69-1,25.55c.75,4.29-1.54,6.26-4.1,7.15,12.92-1.33,43-3.29,44.25,6.93,1.56,13,10.43,1.57,10.43,1.57l6.26,3.13C260.68,372,269,369.4,269,369.4l5.22-5.21c4.69,3.65-2.09,4.69-2.09,4.69,3.13,0,4.69,5.74,4.69,5.74a4.93,4.93,0,0,0,5.74,0c3.13-2.09-4.17-8.35-4.17-8.35h3.13c-7.82-18.77-11.47-15.12-11.47-15.12-10.43,7.82-9.39,0-9.39,0L268,347s1-5.74-2.09-8.34S269,336,269,336s2.09-4.17,7.82-2.61,1.05-9.39,1.05-9.39-4.17,5.74-8.35,4.18-3.65-2.09,3.65-5.22-2.6-10.95-2.6-10.95l3.65-3.13.52-3.65s6.26-9.38-3.65-6.78-1-5.21-1-5.21-2.61-5.74,1-1.57,4.69-.52,4.69-.52c5.74,2.09,6.26-2.08,6.26-2.08,10.43-6.26,6.78-7.82,6.78-7.82l-4.7-.53c-1-7.82-7.82-7.3-7.82-7.3-16.68-2.6,1.57-4.69,1.57-4.69s12.51,8.34,15.12,4.69,8.86-3.65,8.86-3.65L305,258.33s-7.82,0-12.51-4.17,1.56-4.17,1.56-4.17c3.65,6.78,7.82.52,7.82.52l3.13,1c7.82-2.6,10.95,3.13,10.95,3.13l1.57-5.73c4.69-4.18,3.65-7.3,3.65-7.3-2.61-5.74,0-13,0-13-5.74-9.91-2.61-12-2.61-12l12.52-15.13,6.25,3.65c-1.56-1-2.6,6.26-2.6,6.26l-8.35-.52L329,213s-2.61,5.21,3.65,2.08,6.78,1.57,6.78,1.57l-1.57,2.6c0,5.22,2.61,3.13,2.61,3.13s0-8.34,3.13-12,5.74,1,5.74,1-3.65,5.74-2.09,3.65,5.21,5.74,5.21,5.74a16.7,16.7,0,0,1,7.3-17.21c9.91-6.78,4.7-16.69,4.7-18.25C364.45,184,368.1,183.08,369.29,182.8ZM295.1,106.59l-7.83,1-8.86,10.43s-3.13,3.13-3.13-2.61-10.43-5.73-18.25-.52-9.39,16.17-9.39,16.17l3.13,1s-4.17,4.69-1.56,7.3l4.69,4.69s-5.74,2.61-5.74,4.7.53,3.13,5.74.52,2.61,12.51,2.61,12.51,5.73,10.43-1,5.22c0,0-.52-7.82-3.65-9.91s-9.38,5.74-9.38,5.74-6.78,2.08-2.09-5.74,6.26-9.91,6.26-9.91l-4.69-10.43a9,9,0,0,1-4.7,1c-3.12,0-14.07,5.73-11,8.34s4.18,0,4.18,0,1,4.69-5.74,3.13c0,0-4.17,3.65-5.22,6.78,0,0-7.82-1-5.47,3.39l4.17,5.21-1.56,7.82H208.8v-4.69h-2.09v-2.09l-1-4.17,3.13-4.17-2.09-4.17-1.3-3.39-4.18,1.56-2.6-5.21,2.6-3.65,1.05-5.74,6.78-6.25,6.25-13s9.91-.52,9.91-4.69,6.26-4.17,6.26-4.17-1,8.34,6.26,0c0,0,.52,3.12,5.73,0s8.87,5.73,8.87,5.73,13.55-8.86,19.29-7.3,4.17,1,4.17,1l7.82-5.21v2.61s8.35-1,6.26-5.74-1.56-5.73,2.09-1a28.23,28.23,0,0,0,7.3,6.78Z"/><path class="cls-3" d="M201.83,367.16c-3.55.36-5.81.68-5.81.68A16,16,0,0,0,201.83,367.16Z"/><path class="cls-3" d="M204.1,142.83s5.22,0,5.74,4.69,10.43-1.56,12.51-4.69a49,49,0,0,1,5.22-6.26s-3.65-12,0-9.9,4.17-6.78,4.17-6.78-1.57-4.7-5.22-1.57-4.69,5.74-10.42,5.74S213,134,213,134a5.18,5.18,0,0,1-5.22,2.08S203.58,140.75,204.1,142.83Z"/><path class="cls-3" d="M231.74,130.84l4.17-3.13s5.74,4.17,4.69,5.73S231.74,132.92,231.74,130.84Z"/></g><g id="Figur"><path class="cls-4" d="M340.29,240.37c-.33-15.7-13.47-15.21-14.74-15.13-1.27-.08-14.41-.57-14.74,15.13-.35,16.5,0,29.44,0,29.44h29.56S340.64,256.87,340.29,240.37Z"/><path class="cls-5" d="M331.49,265.69l6.93,12.21a3.27,3.27,0,0,0,4.44,1.23h0a3.28,3.28,0,0,0,1.22-4.44l-6.93-12.22C335.13,258.92,329.58,262.32,331.49,265.69Z"/><path class="cls-5" d="M334,286l.41-1,5.9,2.39-.4,1C338.11,292.7,331.92,291,334,286Z"/><path class="cls-5" d="M334.41,285l3.77-9.44a3.25,3.25,0,0,1,4.25-1.76h0a3.28,3.28,0,0,1,1.76,4.26l-3.88,9.33Z"/><path class="cls-5" d="M319.68,265.24l-6.93,12.22a3.26,3.26,0,0,1-4.43,1.22h0a3.26,3.26,0,0,1-1.23-4.43L314,262C316,258.48,321.59,261.88,319.68,265.24Z"/><path class="cls-5" d="M300.06,270l.74.77,4.61-4.41-.74-.76C301.4,262.2,296.27,266.08,300.06,270Z"/><path class="cls-5" d="M300.8,270.74l7,7.38a3.25,3.25,0,0,0,4.6.06h0a3.26,3.26,0,0,0,.07-4.6l-7-7.25Z"/><rect class="cls-6" x="316.78" y="260.06" width="17.48" height="27.56"/><path class="cls-7" d="M320.66,260.06h9.72v.61a4.87,4.87,0,0,1-4.86,4.86h0a4.87,4.87,0,0,1-4.86-4.86Z"/><path class="cls-8" d="M331,264.78l3.44,6.07,5.72-3.42-3.37-5.94C334.79,257.94,329.11,261.42,331,264.78Z"/><path class="cls-8" d="M319.92,264.78l-3.56,6.27-5.72-3.42,3.48-6.14C316.14,257.94,321.83,261.42,319.92,264.78Z"/><path class="cls-5" d="M325.41,246.72h0a4,4,0,0,1,3.94,3.95v9.05a4,4,0,0,1-3.94,3.94h0a4,4,0,0,1-4-3.94v-9.05A4,4,0,0,1,325.41,246.72Z"/><path class="cls-9" d="M329.35,256.77h0c0,3.39-7.89,3.39-7.89,0h0C321.46,253.38,329.35,253.38,329.35,256.77Z"/><path class="cls-5" d="M325.41,225.25c-22.25,0-16.89,32.29,0,32.29S347.65,225.25,325.41,225.25Z"/><path class="cls-10" d="M330,243.36c.59,0,1.07-.89,1.07-2s-.48-2-1.07-2-1.07.88-1.07,2S329.43,243.36,330,243.36Z"/><path class="cls-10" d="M320.79,243.36c.59,0,1.07-.89,1.07-2s-.48-2-1.07-2-1.07.88-1.07,2S320.2,243.36,320.79,243.36Z"/><path class="cls-9" d="M327.57,246.37a2.28,2.28,0,0,1-4.33,0A3.09,3.09,0,0,0,327.57,246.37Z"/><path class="cls-10" d="M322.21,236.14c-1-.73-2.75-.22-3.61.74-.44.49-.06.52.23.25a2.77,2.77,0,0,1,3.17-.44C322.54,237,322.78,236.55,322.21,236.14Z"/><path class="cls-10" d="M328.65,236.14c1-.73,2.75-.22,3.62.74.43.49.06.52-.24.25a2.77,2.77,0,0,0-3.17-.44C328.32,237,328.08,236.55,328.65,236.14Z"/><path class="cls-11" d="M332.38,317.49c1.55,2.31,3.67,3.29,4.19,5,.9,2.9-2.5,2.58-4.22,2-1.53-.5-2.33-1.43-3.25-1.7-2.47-.71-2.53-2.17-1.53-5.64S331.13,315.32,332.38,317.49Z"/><path class="cls-7" d="M336.34,321.91a2.78,2.78,0,0,1,.22.54c.84,2.7-2,2.57-3.75,2.15s-2.71-1.54-3.71-1.83c-1.33-.38-2-1-2.11-2a20.14,20.14,0,0,0,5.79,2.73A5,5,0,0,1,336.34,321.91Z"/><path class="cls-12" d="M335.37,320.77a.2.2,0,0,0,.29,0,.2.2,0,0,0-.05-.28,2.15,2.15,0,0,0-.71-.31h0a.18.18,0,0,0,.16-.05.12.12,0,0,0,.05-.05.21.21,0,0,0,0-.29,3.25,3.25,0,0,0-1-.42h.1a.21.21,0,0,0,.22-.19.2.2,0,0,0-.18-.22,2.13,2.13,0,0,0-1.2.21h0a3.43,3.43,0,0,0-1.89.3.21.21,0,1,0,.2.36,2.58,2.58,0,0,1,1.19-.26,4,4,0,0,0-.64.86.2.2,0,0,0-.05.26.2.2,0,0,0,.28.08,2.94,2.94,0,0,1,1.1-.31,4.56,4.56,0,0,0-.61.85.22.22,0,0,0,.07.29.22.22,0,0,0,.29-.08,3.52,3.52,0,0,1,.72-.94l.18-.15a3.28,3.28,0,0,1,1.57.38Zm-1.2-1a2.55,2.55,0,0,0-.48.2,4.81,4.81,0,0,0-1.2.14,2.43,2.43,0,0,1,.38-.41,1.13,1.13,0,0,1,.21-.15A5.38,5.38,0,0,1,334.17,319.78Z"/><path class="cls-11" d="M319,317.36c-1.55,2.32-3.67,3.29-4.19,5-.89,2.91,2.5,2.59,4.22,2,1.53-.49,2.33-1.42,3.25-1.69,2.47-.71,2.53-2.17,1.54-5.64S320.22,315.2,319,317.36Z"/><path class="cls-7" d="M315,321.79a2.7,2.7,0,0,0-.22.53c-.84,2.71,2,2.58,3.75,2.16s2.71-1.54,3.71-1.83c1.33-.38,2-1,2.11-2a20.14,20.14,0,0,1-5.79,2.74A5,5,0,0,0,315,321.79Z"/><path class="cls-12" d="M316,320.65a3.17,3.17,0,0,1,1.57-.38,1.3,1.3,0,0,1,.18.15,3.19,3.19,0,0,1,.72.94.21.21,0,0,0,.29.07.21.21,0,0,0,.07-.28,4.61,4.61,0,0,0-.6-.85,2.94,2.94,0,0,1,1.09.31.21.21,0,0,0,.23-.34,4,4,0,0,0-.64-.86,2.58,2.58,0,0,1,1.19.25.2.2,0,0,0,.28-.08.2.2,0,0,0-.08-.28,3.52,3.52,0,0,0-1.89-.29h0a2.12,2.12,0,0,0-1.2-.22.21.21,0,0,0-.18.23.2.2,0,0,0,.22.18h.1a3.25,3.25,0,0,0-1,.42.21.21,0,0,0,0,.29l0,0a.18.18,0,0,0,.16.05h0a2.4,2.4,0,0,0-.71.3.21.21,0,1,0,.24.34Zm2.29-1.21a.8.8,0,0,1,.21.15,2.1,2.1,0,0,1,.38.41,4.38,4.38,0,0,0-1.2-.14,2,2,0,0,0-.48-.2A5.38,5.38,0,0,1,318.26,319.44Z"/><path class="cls-5" d="M333.83,295.42l-1.16,22.63c-.95-.85-1.91-.36-2.93.81a1.82,1.82,0,0,1-2.78-.76l0-22.35C327,294.76,333.83,295.42,333.83,295.42Z"/><path class="cls-5" d="M317.26,295.42l1.17,22.63c.94-.85,1.9-.36,2.92.81a1.81,1.81,0,0,0,2.78-.76l0-22.35C324.09,294.76,317.26,295.42,317.26,295.42Z"/><path class="cls-9" d="M331,249.53c-2.6,1.77-8.17,1.83-11.15,0A22.75,22.75,0,0,0,331,249.53Z"/><path class="cls-9" d="M328,251.31c-1,1.31-4.16,1.29-5.18,0A7.56,7.56,0,0,0,328,251.31Z"/><path class="cls-7" d="M316.78,287.63h17.48l.11,11.58h-8s.1-6.44-1.12-6.41c-.93,0-.92,6.41-.92,6.41h-7.57Z"/><path class="cls-4" d="M325.41,225.25s-6.59,12.33-14.73,15.12C310.68,240.37,309.67,225.29,325.41,225.25Z"/><path class="cls-4" d="M325.52,225.25s6.58,12.33,14.73,15.12C340.25,240.37,341.25,225.29,325.52,225.25Z"/><circle class="cls-12" cx="297.43" cy="258.05" r="9.52"/><path class="cls-13" d="M289.89,263.86l1.29.17,2.24.31.41,2.22.06.33A9.53,9.53,0,0,1,289.89,263.86Z"/><path class="cls-13" d="M304.81,264.07l-2,.27-.32,1.76A9.8,9.8,0,0,0,304.81,264.07Z"/><path class="cls-13" d="M305.29,252.68l-1.47,1L302,252.39l-1.82-1.34.64-1.9A9.56,9.56,0,0,1,305.29,252.68Z"/><path class="cls-8" d="M289.89,263.89l1.29.18,2.24.3.41,2.22.06.33A9.53,9.53,0,0,1,289.89,263.89Z"/><path class="cls-8" d="M304.81,264.1l-2,.27-.32,1.76A9.8,9.8,0,0,0,304.81,264.1Z"/><path class="cls-8" d="M290.16,251.89l1.95-.26.33-1.76A9.37,9.37,0,0,0,290.16,251.89Z"/><path class="cls-8" d="M305.29,252.71l-1.47,1L302,252.42l-1.82-1.34.64-1.9A9.56,9.56,0,0,1,305.29,252.71Z"/><polygon class="cls-8" points="297.25 254.89 299.08 256.22 300.9 257.54 300.21 259.69 299.51 261.84 297.25 261.84 294.99 261.84 294.29 259.69 293.59 257.54 295.42 256.22 297.25 254.89"/></g><g id="lego"><rect class="cls-14" x="196.8" y="273.71" width="10.95" height="7.82"/><polygon class="cls-15" points="207.75 273.71 199.93 266.94 188.98 266.94 196.8 273.71 207.75 273.71"/><polygon class="cls-14" points="188.98 274.76 196.8 281.54 196.8 273.71 188.98 266.94 188.98 274.76"/><ellipse class="cls-14" cx="198.37" cy="272.26" rx="1.83" ry="0.52"/><path class="cls-16" d="M200.19,272.26v.4s0,.47-1.82.53-1.83-.53-1.83-.53v-.4s.12.55,1.83.52S200.19,272.26,200.19,272.26Z"/><ellipse class="cls-14" cx="203.51" cy="272.02" rx="1.83" ry="0.52"/><path class="cls-16" d="M205.33,272v.41s0,.47-1.82.52-1.83-.52-1.83-.52V272s.12.56,1.83.53S205.33,272,205.33,272Z"/><ellipse class="cls-14" cx="200.89" cy="269.76" rx="1.83" ry="0.52"/><path class="cls-16" d="M202.71,269.76v.4s0,.47-1.82.52-1.83-.52-1.83-.52v-.4s.13.55,1.83.52S202.71,269.76,202.71,269.76Z"/><ellipse class="cls-14" cx="195.71" cy="269.81" rx="1.83" ry="0.52"/><path class="cls-16" d="M197.53,269.81v.41s0,.46-1.82.52-1.83-.52-1.83-.52v-.41s.13.56,1.83.52S197.53,269.81,197.53,269.81Z"/><ellipse class="cls-14" cx="193.48" cy="267.57" rx="1.83" ry="0.52"/><path class="cls-16" d="M195.3,267.57V268s0,.46-1.82.52-1.83-.52-1.83-.52v-.41s.13.55,1.83.52S195.3,267.57,195.3,267.57Z"/><ellipse class="cls-14" cx="198.63" cy="267.57" rx="1.83" ry="0.52"/><path class="cls-16" d="M200.45,267.57V268s0,.46-1.82.52-1.83-.52-1.83-.52v-.41s.12.55,1.83.52S200.45,267.57,200.45,267.57Z"/><rect class="cls-17" x="205.22" y="277.68" width="10.95" height="7.82" transform="translate(242.02 -68.7) rotate(41.91)"/><polygon class="cls-18" points="217.38 282.34 216.09 272.07 207.94 264.76 209.23 275.03 217.38 282.34"/><polygon class="cls-17" points="202.71 270.58 204 280.85 209.23 275.03 207.94 264.76 202.71 270.58"/><ellipse class="cls-17" cx="211.37" cy="274.99" rx="0.52" ry="1.83" transform="translate(-134.46 248.58) rotate(-48.09)"/><path class="cls-19" d="M212.73,276.21l-.28.3s-.3.35-1.7-.83-1-1.61-1-1.61l.27-.3s-.28.49,1,1.61S212.73,276.21,212.73,276.21Z"/><ellipse class="cls-17" cx="215.35" cy="278.25" rx="0.52" ry="1.83" transform="translate(-135.56 252.62) rotate(-48.09)"/><path class="cls-19" d="M216.71,279.47l-.27.3s-.31.35-1.71-.83-1-1.61-1-1.61l.27-.3s-.28.49,1,1.6S216.71,279.47,216.71,279.47Z"/><ellipse class="cls-17" cx="214.92" cy="274.81" rx="0.52" ry="1.83" transform="translate(-133.15 251.16) rotate(-48.09)"/><path class="cls-19" d="M216.27,276l-.27.3s-.3.35-1.7-.83-1-1.61-1-1.61l.27-.3s-.28.49,1,1.61S216.27,276,216.27,276Z"/><ellipse class="cls-17" cx="211.02" cy="271.39" rx="0.52" ry="1.83" transform="translate(-131.9 247.13) rotate(-48.09)"/><path class="cls-19" d="M212.38,272.61l-.27.3s-.3.36-1.7-.83-1-1.61-1-1.61l.27-.3s-.28.5,1,1.61S212.38,272.61,212.38,272.61Z"/><ellipse class="cls-17" cx="210.86" cy="268.23" rx="0.52" ry="1.83" transform="translate(-129.6 245.96) rotate(-48.09)"/><path class="cls-19" d="M212.22,269.45l-.27.3s-.31.36-1.71-.83-1-1.6-1-1.6l.27-.31s-.27.5,1,1.61S212.22,269.45,212.22,269.45Z"/><ellipse class="cls-17" cx="214.69" cy="271.67" rx="0.52" ry="1.83" transform="translate(-130.89 249.95) rotate(-48.09)"/><path class="cls-19" d="M216.05,272.89l-.27.3s-.31.36-1.71-.83-1-1.6-1-1.6l.28-.31s-.28.5,1,1.61S216.05,272.89,216.05,272.89Z"/></g><g id="hjort"><polygon class="cls-20" points="419.84 254.79 420.44 253 420.35 255.76 419.84 254.79"/><polygon class="cls-20" points="421.27 253.78 420.35 255.76 420.42 253.74 421.27 253.78"/><polygon class="cls-20" points="421.68 253 421.27 253.78 420.42 253.74 421.68 253"/><polygon class="cls-20" points="420.49 250.89 420.68 252.7 420.44 253 420.44 252.34 419.99 251.21 420.49 250.89"/><polygon class="cls-20" points="421.72 251.94 421.68 253 420.68 252.7 421.72 251.94"/><polygon class="cls-20" points="420.49 250.89 421.72 251.94 420.68 252.7 420.49 250.89"/><polygon class="cls-20" points="420.42 253.74 421.68 253 420.68 252.7 420.44 253 420.42 253.74"/><polygon class="cls-20" points="421.83 249.45 421.72 251.94 420.49 250.89 421.83 249.45"/><polygon class="cls-20" points="422.05 246.56 421.83 249.45 421.33 249.99 422.05 246.56"/><polygon class="cls-20" points="420.38 243.03 420.85 242.61 421.46 243.03 420.38 243.03"/><polygon class="cls-20" points="421.83 244.29 420.38 243.03 421.46 243.03 421.83 244.29"/><polygon class="cls-20" points="422.05 246.56 421.99 245.26 420.97 245.84 422.05 246.56"/><polygon class="cls-20" points="421.83 244.29 421.99 245.26 420.97 245.84 420.81 244.6 421.83 244.29"/><polygon class="cls-20" points="420.38 243.03 420.81 244.6 421.83 244.29 420.38 243.03"/><polygon class="cls-20" points="420.97 245.84 420.91 247.28 421.55 246.23 420.97 245.84"/><polygon class="cls-20" points="421.33 249.99 420.91 247.28 421.56 248.92 421.33 249.99"/><polygon class="cls-20" points="420.57 249.45 420.91 247.28 421.33 249.99 420.57 249.45"/><polygon class="cls-20" points="420.49 250.89 420.57 249.45 421.33 249.99 420.49 250.89"/><polygon class="cls-20" points="414.5 247.37 415.22 246.79 415.38 248.94 414.5 247.37"/><polygon class="cls-20" points="416.04 247.67 415.22 246.79 415.31 247.87 416.04 247.67"/><polygon class="cls-20" points="420.57 249.45 419.44 249.27 420.49 250.89 420.57 249.45"/><polygon class="cls-20" points="418.19 250.17 419.44 249.27 419.44 250.85 418.19 250.17"/><polygon class="cls-20" points="420.49 250.89 419.44 249.27 419.44 250.85 419.99 251.21 420.49 250.89"/><polygon class="cls-20" points="415.31 247.87 416.97 248.91 415.38 248.94 415.31 247.87"/><polygon class="cls-20" points="417.71 248.59 416.04 247.67 415.31 247.87 416.97 248.91 417.71 248.59"/><polygon class="cls-20" points="418.19 250.17 417.71 248.59 419.44 249.27 418.19 250.17"/><polygon class="cls-20" points="416.97 248.91 418.19 250.17 417.71 248.59 416.97 248.91"/><polygon class="cls-20" points="415.38 248.94 418.19 250.17 416.97 248.91 415.38 248.94"/><polygon class="cls-21" points="419.48 254.41 420.09 253.55 420.14 253.9 419.84 254.79 419.48 254.41"/><polygon class="cls-20" points="419.48 253.55 419.48 254.41 420.09 253.55 419.48 253.55"/><polygon class="cls-20" points="419.48 253 419.71 252.73 420.09 253.55 419.48 253.55 419.48 253"/><polygon class="cls-20" points="420.91 247.28 421.55 246.23 422.05 246.56 421.56 248.92 420.91 247.28"/><polygon class="cls-20" points="416.74 256.17 415.72 254.09 415.99 255.81 416.74 256.17"/><polygon class="cls-20" points="415.31 254.27 415.46 253.98 415.72 254.09 415.31 254.27"/><polygon class="cls-20" points="415.6 255.58 415.31 254.27 415.72 254.09 415.99 255.81 415.6 255.58"/><polygon class="cls-20" points="412.81 246.51 413.72 245.53 414.3 247.28 412.81 246.51"/><polygon class="cls-20" points="414.44 246.01 414.3 247.28 413.72 245.53 414.44 246.01"/><polygon class="cls-20" points="412.81 246.51 412.51 248.41 414.3 247.28 412.81 246.51"/><polygon class="cls-20" points="414.04 249.21 414.3 247.28 412.51 248.41 414.04 249.21"/><polygon class="cls-20" points="412.44 249.99 414.04 249.21 412.51 248.41 412.44 249.99"/><polygon class="cls-20" points="412.36 253.39 413.24 252.43 414.04 253.85 412.36 253.39"/><polygon class="cls-20" points="413.2 249.62 413.97 251.42 414.04 249.21 413.2 249.62"/><polygon class="cls-20" points="412.44 249.99 412.44 251.79 413.57 250.48 413.2 249.62 412.44 249.99"/><polygon class="cls-20" points="413.97 251.42 412.44 251.79 413.57 250.48 413.97 251.42"/><polygon class="cls-20" points="413.97 251.42 413.97 253.73 413.24 252.43 412.44 251.79 413.97 251.42"/><polygon class="cls-20" points="408.9 250.55 408.98 251.62 408.17 250.71 408.57 250.27 408.9 250.55"/><polygon class="cls-20" points="408.17 252.12 408.17 250.71 408.98 251.62 408.17 252.12"/><polygon class="cls-20" points="408.69 253.73 408.17 252.12 409.69 253.73 408.69 253.73"/><polygon class="cls-20" points="408.98 251.62 409.29 252.29 408.57 252.55 408.17 252.12 408.98 251.62"/><polygon class="cls-20" points="410.99 253.39 409.29 252.29 408.57 252.55 409.69 253.73 410.99 253.39"/><polygon class="cls-20" points="412.36 254.88 410.99 253.39 409.69 253.73 412.36 254.88"/><polygon class="cls-20" points="408.69 253.73 410.1 254.55 409.69 253.73 408.69 253.73"/><polygon class="cls-20" points="412.36 253.39 412.36 254.88 410.99 253.39 412.07 253.68 412.36 253.39"/><polygon class="cls-20" points="414.04 253.85 414.3 255.77 412.36 254.88 412.36 253.39 414.04 253.85"/><polygon class="cls-20" points="410.1 254.55 412.36 254.88 409.69 253.73 410.1 254.55"/><polygon class="cls-20" points="413.28 256.03 410.1 254.55 412.36 254.88 413.28 256.03"/><polygon class="cls-20" points="415.6 255.58 414.3 255.77 414.04 253.85 415.6 255.58"/><polygon class="cls-20" points="413.28 256.03 414.3 255.77 412.36 254.88 413.28 256.03"/><polygon class="cls-20" points="416.74 256.17 417.55 257.25 417.27 258.36 416.74 256.17"/><polygon class="cls-20" points="414.3 255.77 415.6 255.58 415.99 255.81 415.72 256.65 414.3 255.77"/><polygon class="cls-20" points="417.27 258.36 415.72 256.65 415.99 255.81 416.74 256.17 417.27 258.36"/><polygon class="cls-20" points="415.51 257.31 413.28 256.03 414.3 255.77 415.72 256.65 415.51 257.31"/><polygon class="cls-20" points="417.27 258.36 416.23 259.12 416.61 257.63 417.27 258.36"/><polygon class="cls-20" points="415.99 257.8 416.23 259.12 415.72 258.63 415.99 257.8"/><polygon class="cls-20" points="415.51 257.31 415.99 257.8 416.23 259.12 416.61 257.63 415.72 256.65 415.51 257.31"/><polygon class="cls-22" points="417.75 257.26 418.25 255.58 418.41 257.31 417.75 257.26"/><polygon class="cls-22" points="419.06 254.41 418.25 255.58 418.34 256.54 419.48 254.7 419.06 254.41"/><polygon class="cls-23" points="419.42 258.86 420.49 257.8 419.78 258.05 418.86 258.38 419.42 258.86"/><polygon class="cls-23" points="420.35 255.76 419.78 258.05 420.49 257.8 420.68 256.97 420.35 255.76"/><polygon class="cls-20" points="419.48 254.7 419.48 254.41 419.84 254.79 420.35 255.76 420.18 256.44 419.48 254.7"/><polygon class="cls-22" points="418.86 255.69 419.91 255.76 419.48 254.7 418.86 255.69"/><polygon class="cls-22" points="418.41 257.31 420.18 256.44 419.91 255.76 418.86 255.69 418.34 256.54 418.41 257.31"/><polygon class="cls-24" points="419.78 258.05 418.41 257.31 420.18 256.44 419.78 258.05"/><polygon class="cls-20" points="417.75 257.26 418.86 258.38 417.22 258.39 417.55 257.25 417.75 257.26"/><polygon class="cls-23" points="419.78 258.05 418.86 258.38 417.75 257.26 418.41 257.31 419.78 258.05"/><polygon class="cls-23" points="421.36 258.61 421.36 257.7 420.49 257.8 421.36 258.61"/><polygon class="cls-25" points="420.35 255.76 421.27 254.41 420.68 256.97 420.35 255.76"/><polygon class="cls-23" points="421.36 257.7 421.68 257.26 420.68 256.97 420.49 257.8 421.36 257.7"/><polygon class="cls-26" points="421.27 254.41 422.27 253.08 422.13 255.47 421.27 254.41"/><polygon class="cls-27" points="420.68 256.97 422.13 255.47 421.27 254.41 420.68 256.97"/><polygon class="cls-22" points="422.09 256.9 422.13 255.47 420.68 256.97 421.68 257.26 422.09 256.9"/><polygon class="cls-23" points="417.22 258.39 416.97 259.37 416.23 259.12 417.27 258.36 417.22 258.39"/><polygon class="cls-20" points="415.72 258.63 415.82 259.27 416.23 259.12 415.72 258.63"/><polygon class="cls-20" points="416.17 260.29 415.82 259.27 415.01 259.88 415.72 259.93 416.17 260.29"/><polygon class="cls-20" points="415.42 260.6 415.72 259.93 415.01 259.88 414.73 260.29 414.82 260.7 415.42 260.6"/><polygon class="cls-20" points="416.33 260.94 415.42 260.6 415.72 259.93 416.17 260.29 416.33 260.94"/><polygon class="cls-23" points="416.97 259.37 416.17 260.29 415.82 259.27 416.23 259.12 416.97 259.37"/><polygon class="cls-23" points="414.82 260.7 414.56 261.5 414.45 261.3 413.65 261.64 414.73 260.29 414.82 260.7"/><polygon class="cls-23" points="414.18 262.31 414.56 261.5 414.45 261.3 413.65 261.64 413.85 262.19 414.18 262.31"/><polygon class="cls-23" points="412.38 263.46 412.7 263.21 412.7 262.68 412.38 263.04 412.38 263.46"/><polygon class="cls-23" points="413.65 261.64 412.7 262.68 413.85 262.19 413.65 261.64"/><polygon class="cls-28" points="412.38 263.46 412.46 264.01 412.86 264.26 413.42 263.9 412.9 263.86 412.9 263.46 412.7 263.21 412.38 263.46"/><polygon class="cls-23" points="412.7 262.68 412.7 263.21 412.9 263.46 413.85 262.19 412.7 262.68"/><polygon class="cls-23" points="414.18 262.31 413.85 262.19 412.9 263.46 414.18 262.31"/><polygon class="cls-23" points="413.42 263.9 413.6 262.82 412.9 263.46 412.9 263.86 413.42 263.9"/><polygon class="cls-22" points="414.82 260.7 414.97 260.96 415.42 260.6 414.82 260.7"/><polygon class="cls-29" points="415.88 260.77 415.59 261.1 415.05 260.9 415.42 260.6 415.88 260.77"/><polygon class="cls-30" points="416.11 260.86 415.78 261.27 415.59 261.1 415.88 260.77 416.11 260.86"/><polygon class="cls-31" points="414.97 260.96 415.16 261.27 415.78 261.27 415.59 261.1 415.05 260.9 414.97 260.96"/><polygon class="cls-23" points="414.56 261.5 414.82 260.7 415.16 261.27 414.56 261.5"/><polygon class="cls-23" points="417.22 258.39 418.77 259.31 418.51 259.66 416.97 259.37 417.22 258.39"/><polygon class="cls-23" points="419.42 258.86 418.77 259.31 417.22 258.39 418.86 258.38 419.42 258.86"/><polygon class="cls-23" points="416.33 260.94 416.75 260.7 418.51 259.66 416.97 259.37 416.17 260.29 416.33 260.94"/><polygon class="cls-23" points="418.91 260.44 416.75 260.7 418.51 259.66 418.91 260.44"/><polygon class="cls-23" points="417.92 262.62 418.56 261.8 418.41 261.3 419.15 260.7 418.91 260.44 416.75 260.7 417.92 262.62"/><polygon class="cls-23" points="415.78 261.27 416.11 260.86 416.33 260.94 416.75 260.7 417.03 261.16 415.78 261.27"/><polygon class="cls-23" points="415.16 261.27 415.59 261.76 415.78 261.27 415.16 261.27"/><polygon class="cls-23" points="414.56 261.5 415.16 261.27 415.59 261.76 414.56 261.5"/><polygon class="cls-23" points="414.18 262.31 415.59 261.76 414.56 261.5 414.18 262.31"/><polygon class="cls-23" points="413.42 263.9 414.64 263.07 413.6 262.82 413.42 263.9"/><polygon class="cls-23" points="414.18 262.31 414.64 263.07 413.6 262.82 414.18 262.31"/><polygon class="cls-23" points="419.42 258.86 419.73 259.43 419.57 260.24 419.15 260.7 418.91 260.44 418.51 259.66 418.77 259.31 419.42 258.86"/><polygon class="cls-23" points="421.36 258.61 419.42 258.86 420.49 257.8 421.36 258.61"/><polygon class="cls-23" points="421.27 259.37 421.36 258.61 419.42 258.86 419.73 259.43 421.27 259.37"/><polygon class="cls-23" points="423.12 261.97 421.27 259.37 420.93 260.44 423.12 261.97"/><polygon class="cls-23" points="419.73 259.43 420.93 260.44 421.27 259.37 419.73 259.43"/><polygon class="cls-23" points="419.15 260.7 420.93 260.44 419.73 259.43 419.57 260.24 419.15 260.7"/><polygon class="cls-23" points="418.99 263.21 419.15 260.7 418.41 261.3 418.56 261.8 418.99 263.21"/><polygon class="cls-23" points="415.59 261.76 415.78 261.27 417.03 261.16 417.92 262.62 415.59 261.76"/><polygon class="cls-23" points="414.64 263.07 415.59 261.76 414.18 262.31 414.64 263.07"/><polygon class="cls-23" points="417.92 262.62 414.64 263.07 415.59 261.76 417.92 262.62"/><polygon class="cls-23" points="418.56 261.8 418.99 263.21 417.92 262.62 418.56 261.8"/><polygon class="cls-23" points="414.64 263.07 414.64 263.9 413.42 263.9 414.64 263.07"/><polygon class="cls-23" points="412.86 264.26 414.64 263.9 413.42 263.9 412.86 264.26"/><polygon class="cls-32" points="414.45 264.56 413.42 264.15 414.12 264.01 414.45 264.56"/><polygon class="cls-23" points="414.64 263.9 414.97 264.49 414.45 264.56 414.12 264.01 414.64 263.9"/><polygon class="cls-23" points="417.92 262.62 414.64 263.9 414.64 263.07 417.92 262.62"/><polygon class="cls-33" points="417.51 263.9 417.92 262.62 414.64 263.9 414.97 264.49 417.51 263.9"/><polygon class="cls-23" points="418.99 263.21 417.51 263.9 417.92 262.62 418.99 263.21"/><polygon class="cls-23" points="418.51 264.98 418.99 263.21 417.51 263.9 418.51 264.98"/><polygon class="cls-23" points="420.93 260.44 418.99 263.21 419.15 260.7 420.93 260.44"/><polygon class="cls-23" points="423.09 261.93 422.48 262.3 420.93 260.44 423.09 261.93"/><polygon class="cls-23" points="418.99 263.21 419.78 266.72 418.51 264.98 418.99 263.21"/><polygon class="cls-23" points="420.93 260.44 421.27 263.56 422.34 261.9 420.93 260.44"/><polygon class="cls-23" points="418.99 263.21 420.93 260.44 421.27 263.56 418.99 263.21"/><polygon class="cls-23" points="421.44 265.78 421.27 263.56 418.99 263.21 419.51 265.51 421.44 265.78"/><polygon class="cls-23" points="419.51 265.51 419.78 266.72 420.67 268.33 421.44 265.78 419.51 265.51"/><polygon class="cls-23" points="423.91 262.69 425.04 264.01 422.89 263.96 423.91 262.69"/><polygon class="cls-23" points="425.22 265.29 425.04 264.01 422.89 263.96 425.22 265.29"/><polygon class="cls-23" points="424.54 267.14 425.22 265.29 422.89 263.96 424.54 267.14"/><polygon class="cls-23" points="421.44 265.78 424.54 267.14 422.89 263.96 421.44 265.78"/><polygon class="cls-23" points="422.89 268.29 421.44 265.78 420.67 268.33 422.89 268.29"/><polygon class="cls-23" points="424.54 267.14 422.89 268.29 421.44 265.78 424.54 267.14"/><polygon class="cls-23" points="422.99 271.31 422.89 268.29 420.67 268.33 422.99 271.31"/><polygon class="cls-23" points="425.93 272.14 427.11 268.62 426 270.11 425.93 272.14"/><polygon class="cls-23" points="424.54 267.14 425.04 270.79 425.93 272.14 426 270.11 424.54 267.14"/><polygon class="cls-23" points="426.43 267.72 425.39 268.87 426 270.11 426.82 269.01 426.43 267.72"/><polygon class="cls-23" points="425.22 265.29 426.43 267.72 425.39 268.87 424.54 267.14 425.22 265.29"/><polygon class="cls-23" points="427.11 264.49 425.22 265.29 425.04 264.01 427.11 264.49"/><polygon class="cls-23" points="426.82 269.01 427.88 265.99 426.43 267.72 426.82 269.01"/><polygon class="cls-23" points="425.22 265.29 427.11 264.49 427.88 265.99 426.43 267.72 425.22 265.29"/><polygon class="cls-23" points="430.57 264.27 427.88 265.99 427.11 264.49 430.57 264.27"/><polygon class="cls-23" points="422.89 268.29 424.54 267.14 425.04 270.79 422.89 268.29"/><polygon class="cls-23" points="422.99 271.31 424.25 272.57 425.93 272.14 425.04 270.79 422.89 268.29 422.99 271.31"/><polygon class="cls-23" points="422.34 261.9 421.27 263.56 421.44 265.78 422.89 263.96 422.34 261.9"/><polygon class="cls-23" points="423.07 261.9 424.08 263.14 422.89 263.97 422.34 261.92 423.07 261.9"/><polygon class="cls-23" points="425.93 272.14 426.1 275.19 424.25 272.57 425.93 272.14"/><polygon class="cls-23" points="418.86 258.38 419.78 258.05 420.49 257.8 419.42 258.86 418.86 258.38"/><polygon class="cls-20" points="412.44 251.79 412.36 253.39 413.24 252.43 412.44 251.79"/><polygon class="cls-23" points="430.57 264.27 433.02 264.27 429.85 266.18 427.88 265.99 430.57 264.27"/><polygon class="cls-23" points="426.82 269.01 427.11 268.62 429.85 266.18 427.88 265.99 426.82 269.01"/><polygon class="cls-23" points="425.93 272.14 427.11 268.62 427.41 272.36 425.93 272.14"/><polygon class="cls-23" points="429.85 266.18 427.41 272.36 427.11 268.62 429.85 266.18"/><polygon class="cls-23" points="426.1 275.19 427.41 272.36 425.93 272.14 426.1 275.19"/><polygon class="cls-34" points="415.62 285.83 415.94 286.49 416.63 286.49 416.13 286.9 414.55 286.49 415.62 285.83"/><polygon class="cls-34" points="435.03 290.97 435.53 291.91 436.59 291.91 435.81 292.51 433.39 291.91 435.03 290.97"/><polygon class="cls-34" points="439.16 292.29 439.66 293.23 440.72 293.23 439.94 293.82 437.52 293.23 439.16 292.29"/><polygon class="cls-34" points="459.7 293.49 460.2 294.43 461.25 294.2 460.47 295.03 458.06 294.43 459.7 293.49"/><polygon class="cls-33" points="416.51 284.8 415.62 285.83 415.94 286.49 416.51 284.8"/><polygon class="cls-33" points="416.63 286.49 416.51 284.8 415.94 286.49 416.63 286.49"/><polygon class="cls-35" points="417.58 285.97 416.63 286.49 416.94 285.56 417.58 285.97"/><polygon class="cls-33" points="417.44 284.01 416.94 285.56 416.63 286.49 416.51 284.8 417.44 284.01"/><polygon class="cls-33" points="418.84 284.56 417.58 285.97 416.94 285.56 418.84 284.56"/><polygon class="cls-33" points="417.44 284.01 418.84 284.56 416.94 285.56 417.44 284.01"/><polygon class="cls-33" points="420.25 280.98 417.89 284.18 417.44 284.01 420.25 280.98"/><polygon class="cls-33" points="418.84 284.56 419.13 282.5 417.89 284.18 418.84 284.56"/><polygon class="cls-33" points="420.37 282.58 418.84 284.56 419.13 282.5 420.37 282.58"/><polygon class="cls-33" points="422.3 280.57 420.37 282.58 419.13 282.5 420.25 280.98 422.3 280.57"/><polygon class="cls-33" points="422.4 278.26 422.3 280.57 420.25 280.98 420.87 279.62 422.4 278.26"/><polygon class="cls-33" points="424.25 277 422.4 278.26 422.34 279.53 424.25 277"/><polygon class="cls-36" points="426.1 275.19 424.25 277 426.94 276.1 426.1 275.19"/><polygon class="cls-33" points="422.3 280.57 423.83 279.95 423.25 278.33 422.34 279.53 422.3 280.57"/><polygon class="cls-33" points="424.25 277 424.67 278.26 423.65 279.45 423.25 278.33 424.25 277"/><polygon class="cls-33" points="426.94 276.1 424.67 278.26 424.25 277 426.94 276.1"/><polygon class="cls-33" points="429.35 277.76 427.41 276.8 426.94 276.1 427.11 278.78 428.06 278.09 429.35 277.76"/><polygon class="cls-33" points="424.67 278.26 426.94 276.1 427.11 278.78 424.67 278.26"/><polygon class="cls-33" points="423.83 279.95 427.11 278.78 424.67 278.26 423.65 279.45 423.83 279.95"/><polygon class="cls-33" points="436.77 292.51 436.33 290.97 435.52 291.08 435.8 292.1 436.77 292.51"/><polygon class="cls-23" points="435.01 291.74 434.69 289.98 435.52 291.08 435.8 292.1 435.01 291.74"/><polygon class="cls-33" points="436.33 290.97 435.52 288.25 435.52 291.08 436.33 290.97"/><polygon class="cls-33" points="434.69 287.94 435.52 291.08 435.52 288.25 434.69 287.94"/><polygon class="cls-23" points="434.23 288.45 434.69 287.94 435.52 291.08 434.69 289.98 434.23 288.45"/><polygon class="cls-33" points="434.46 285.92 434.69 287.94 435.52 288.25 435.11 286.47 434.46 285.92"/><polygon class="cls-33" points="434.88 282.58 435.11 286.47 434.46 285.92 434.88 282.58"/><polygon class="cls-23" points="434.23 288.45 433.74 286.35 434.46 285.92 434.69 287.94 434.23 288.45"/><polygon class="cls-23" points="432.94 284.39 433.24 285.66 433.74 286.35 434.46 285.92 432.94 284.39"/><polygon class="cls-23" points="434.88 282.58 432.94 284.39 434.46 285.92 434.88 282.58"/><polygon class="cls-33" points="434.02 277.86 433.7 278.33 434.02 280.08 434.46 279.62 434.08 278.67 434.02 277.86"/><polygon class="cls-33" points="434.88 282.58 434.46 279.62 434.02 280.08 434.22 283.2 434.88 282.58"/><polygon class="cls-23" points="432.94 284.39 434.22 283.2 434.02 280.08 432.94 284.39"/><polygon class="cls-23" points="429.35 277.76 430.65 278.78 432.27 277.63 429.35 277.76"/><polygon class="cls-23" points="433.7 278.33 432.27 277.63 430.65 278.78 431.55 280.47 433.7 278.33"/><polygon class="cls-23" points="434.02 280.08 433.7 278.33 431.55 280.47 434.02 280.08"/><polygon class="cls-23" points="432.27 282.24 434.02 280.08 431.55 280.47 432.27 282.24"/><polygon class="cls-23" points="432.94 284.39 432.27 282.24 434.02 280.08 432.94 284.39"/><polygon class="cls-23" points="434.02 277.86 432.27 277.63 433.7 278.33 434.02 277.86"/><polygon class="cls-23" points="428.96 268.42 429.85 273.94 427.41 272.36 428.96 268.42"/><polygon class="cls-23" points="426.1 275.19 427.41 272.36 429.85 273.94 426.1 275.19"/><polygon class="cls-23" points="426.94 276.1 429.85 273.94 426.1 275.19 426.94 276.1"/><polygon class="cls-23" points="429.35 277.76 429.85 273.94 426.94 276.1 427.41 276.8 429.35 277.76"/><polygon class="cls-23" points="432.27 277.63 429.85 273.94 429.35 277.76 432.27 277.63"/><polygon class="cls-23" points="429.85 266.18 431.85 267.5 435.54 264.99 433.02 264.27 429.85 266.18"/><polygon class="cls-23" points="428.96 268.42 429.29 270.43 431.85 267.5 429.85 266.18 428.96 268.42"/><polygon class="cls-23" points="429.85 273.94 431.85 267.5 429.29 270.43 429.85 273.94"/><polygon class="cls-23" points="433.9 266.11 436.37 267.28 435.54 264.99 433.9 266.11"/><polygon class="cls-23" points="431.85 267.5 436.37 267.28 433.9 266.11 431.85 267.5"/><polygon class="cls-23" points="431.47 268.72 432.82 270.72 430.57 271.63 431.47 268.72"/><polygon class="cls-23" points="431.85 267.5 436.37 267.28 432.82 270.72 431.47 268.72 431.85 267.5"/><polygon class="cls-23" points="429.85 273.94 432.82 270.72 430.57 271.63 429.85 273.94"/><polygon class="cls-23" points="434.02 277.86 429.85 273.94 432.27 277.63 434.02 277.86"/><polygon class="cls-23" points="438.74 292.83 439.11 292.3 439.82 291.38 438.84 293.46 438.74 292.83"/><polygon class="cls-23" points="440.41 293.66 438.84 293.46 439.82 291.38 440.41 293.66"/><polygon class="cls-23" points="441.85 291.6 440.41 293.66 439.82 291.38 441.85 291.6"/><polygon class="cls-23" points="441.67 289.51 441.85 291.6 439.82 291.38 441.67 289.51"/><polygon class="cls-23" points="442.52 288.25 441.67 289.51 441.85 291.6 442.52 288.25"/><polygon class="cls-23" points="443.85 289.33 441.85 291.6 442.52 288.25 443.85 289.33"/><polygon class="cls-23" points="446.52 286.68 443.85 289.33 442.52 288.25 446.52 286.68"/><polygon class="cls-23" points="443.38 286.35 442.52 288.25 445.33 287.15 443.38 286.35"/><polygon class="cls-23" points="446.14 285.02 445.33 287.15 446.52 286.68 446.14 285.02"/><polygon class="cls-23" points="443.38 286.35 446.14 285.02 445.33 287.15 443.38 286.35"/><polygon class="cls-23" points="445.33 282.68 446.14 285.02 444.64 285.74 445.33 282.68"/><polygon class="cls-23" points="442.43 283.2 443.38 285.24 443.38 286.35 444.64 285.74 442.43 283.2"/><polygon class="cls-23" points="445.33 282.68 442.43 283.2 444.64 285.74 445.33 282.68"/><polygon class="cls-23" points="440.28 277.98 442.43 283.2 443.38 283.03 440.28 277.98"/><polygon class="cls-23" points="444.86 281.16 445.33 282.68 443.38 283.03 444.86 281.16"/><polygon class="cls-23" points="445.53 279.05 444.86 281.16 443.19 280.1 445.53 279.05"/><polygon class="cls-23" points="443.38 283.03 444.86 281.16 443.19 280.1 442.1 280.96 443.38 283.03"/><polygon class="cls-23" points="440.28 277.98 443.19 280.1 442.1 280.96 440.28 277.98"/><polygon class="cls-23" points="445.53 279.05 443.19 280.1 440.28 277.98 445.53 279.05"/><polygon class="cls-23" points="429.85 273.94 431.94 271.68 432.14 276.1 429.85 273.94"/><polygon class="cls-23" points="432.82 270.72 434.02 277.86 432.14 276.1 431.94 271.68 432.82 270.72"/><polygon class="cls-23" points="436.37 267.28 439.49 265.34 435.54 264.99 436.37 267.28"/><polygon class="cls-23" points="432.82 270.72 434.38 272.16 435.14 268.48 432.82 270.72"/><polygon class="cls-23" points="436.37 267.28 436.37 270.17 434.79 270.17 435.14 268.48 436.37 267.28"/><polygon class="cls-23" points="442.44 265.88 436.37 267.28 439.49 265.34 442.44 265.88"/><polygon class="cls-23" points="444.75 266.18 442.44 265.88 442.54 268.61 444.75 266.18"/><polygon class="cls-23" points="436.37 267.28 442.54 268.61 442.44 265.88 436.37 267.28"/><polygon class="cls-23" points="436.37 270.17 439.41 267.94 436.37 267.28 436.37 270.17"/><polygon class="cls-23" points="434.38 272.16 433.54 275.02 432.82 270.72 434.38 272.16"/><polygon class="cls-23" points="436.37 270.17 436.48 273.77 434.38 272.16 434.79 270.17 436.37 270.17"/><polygon class="cls-23" points="439.41 267.94 439.06 271.68 436.37 270.17 439.41 267.94"/><polygon class="cls-23" points="436.48 273.77 438.95 275.5 439.06 271.68 436.37 270.17 436.48 273.77"/><polygon class="cls-23" points="433.54 275.02 434.38 272.16 436.48 273.77 436.09 277.21 433.54 275.02"/><polygon class="cls-23" points="434.02 277.86 436.17 277.76 436.09 277.21 433.54 275.02 434.02 277.86"/><polygon class="cls-23" points="436.48 273.77 436.09 277.21 438.3 277.21 438.95 275.5 436.48 273.77"/><polygon class="cls-23" points="436.17 277.76 440.28 277.98 438.3 277.21 436.09 277.21 436.17 277.76"/><polygon class="cls-23" points="442.54 268.61 439.06 271.68 439.41 267.94 442.54 268.61"/><polygon class="cls-23" points="441.85 273.4 442.54 268.61 439.06 271.68 441.85 273.4"/><polygon class="cls-23" points="438.95 275.5 441.85 273.4 439.06 271.68 438.95 275.5"/><polygon class="cls-23" points="440.28 277.98 438.95 275.5 438.3 277.21 440.28 277.98"/><polygon class="cls-23" points="441.85 273.4 440.28 277.98 438.95 275.5 441.85 273.4"/><polygon class="cls-23" points="442.79 278.49 441.85 273.4 440.28 277.98 442.79 278.49"/><polygon class="cls-23" points="450.08 270.72 449.58 273.59 446.62 269.95 450.08 270.72"/><polygon class="cls-23" points="449.91 268.2 450.08 270.72 452.59 270.84 449.91 268.2"/><polygon class="cls-23" points="447.11 266.4 449.91 268.2 450.08 270.72 447.11 266.4"/><polygon class="cls-23" points="444.75 266.18 447.11 266.4 446.62 269.95 444.75 266.18"/><polygon class="cls-23" points="450.08 270.72 447.11 266.4 446.62 269.95 450.08 270.72"/><polygon class="cls-23" points="442.54 268.61 446.62 269.95 444.75 266.18 442.54 268.61"/><polygon class="cls-23" points="441.85 273.4 443.69 272.07 446.62 269.95 442.54 268.61 441.85 273.4"/><polygon class="cls-23" points="448.97 272.84 443.48 272.16 446.62 269.95 448.97 272.84"/><polygon class="cls-23" points="441.85 273.4 445.4 273.94 443.69 272.07 441.85 273.4"/><polygon class="cls-23" points="442.79 278.49 445.4 273.94 441.85 273.4 442.79 278.49"/><polygon class="cls-23" points="445.53 279.05 448.04 277.21 442.79 278.49 445.53 279.05"/><polygon class="cls-23" points="445.4 273.94 448.04 277.21 442.79 278.49 445.4 273.94"/><polygon class="cls-23" points="448.97 272.84 445.4 273.94 443.69 272.07 448.97 272.84"/><polygon class="cls-23" points="448.04 277.21 448.97 272.84 445.4 273.94 448.04 277.21"/><polygon class="cls-33" points="450.6 275.41 448.04 277.21 448.97 272.84 449.58 273.59 450.6 275.41"/><polygon class="cls-37" points="450.08 270.72 451.08 271.77 451.08 274.29 450.6 275.41 449.58 273.59 450.08 270.72"/><polygon class="cls-38" points="452.59 270.84 453.51 273.94 451.08 271.77 450.08 270.72 452.59 270.84"/><polygon class="cls-39" points="450.6 275.41 452.33 277.6 452.08 275.33 451.6 275.36 450.6 275.41"/><polygon class="cls-39" points="451.08 274.29 452.08 275.33 450.6 275.41 451.08 274.29"/><polygon class="cls-40" points="451.88 272.48 452.08 275.33 451.08 274.29 451.08 271.77 451.88 272.48"/><polygon class="cls-33" points="448.04 277.21 452.33 277.6 450.6 275.41 448.04 277.21"/><polygon class="cls-33" points="450.18 279.9 452.33 277.6 448.04 277.21 450.18 279.9"/><polygon class="cls-39" points="453.51 273.94 452.28 277.88 451.88 272.48 453.51 273.94"/><polygon class="cls-33" points="454.87 280.2 453.51 273.94 452.39 277.54 454.87 280.2"/><polygon class="cls-33" points="450.18 279.9 452.33 277.6 452.77 282.09 450.18 279.9"/><polygon class="cls-33" points="454.87 280.2 452.77 282.09 452.24 277.36 454.87 280.2"/><polygon class="cls-33" points="456.23 284.14 452.77 282.09 453.51 281.42 456.23 284.14"/><polygon class="cls-33" points="456.6 285.98 456.23 284.14 452.77 282.09 456.6 285.98"/><polygon class="cls-33" points="454.87 280.2 456.39 282.68 456.23 284.14 453.51 281.42 454.87 280.2"/><polygon class="cls-33" points="458.57 284.14 456.39 282.68 455.34 280.96 458.42 283.2 458.57 284.14"/><polygon class="cls-33" points="456.23 284.14 456.39 282.68 458.57 284.14 456.23 284.14"/><polygon class="cls-33" points="456.73 284.64 456.73 284.14 457.58 284.14 457.69 284.64 456.73 284.64"/><polygon class="cls-33" points="456.6 285.98 457.69 284.64 456.73 284.64 456.73 284.14 456.23 284.14 456.6 285.98"/><polygon class="cls-33" points="458.57 284.14 458.99 286.85 457.27 285.16 457.69 284.64 457.58 284.14 458.57 284.14"/><polygon class="cls-33" points="456.6 285.98 457.4 287.31 458.99 286.85 457.27 285.16 456.6 285.98"/><polygon class="cls-33" points="458.29 289.28 457.4 287.31 458.99 286.85 458.29 289.28"/><polygon class="cls-33" points="460.39 291.03 458.99 286.85 458.29 289.28 460.39 291.03"/><polygon class="cls-33" points="459.81 293.87 460.39 291.03 458.29 289.28 459.81 293.87"/><polygon class="cls-33" points="461.59 293.87 460.39 291.03 459.81 293.87 461.59 293.87"/><polygon class="cls-33" points="460.79 294.69 461.59 293.87 459.81 293.87 460.02 294.65 460.79 294.69"/></g><g id="lille_havfrue" data-name="lille havfrue"><path class="cls-41" d="M493.72,280.33s3.42,1.2,4.93-1c0,0-.32-17.47-9.91-18.92a38.25,38.25,0,0,0-18.33,2.19s-1.33.42-.94,3.41,0,5.36,1.55,6.73,4.25,3.82,6.33,3.79a48.51,48.51,0,0,1,11,2.05C491.11,279.5,493.72,280.33,493.72,280.33Z"/><path class="cls-42" d="M487.74,259.4a27.65,27.65,0,0,0,.85-5.06c-.12-1.09.06-5-1.7-6.39s-2.82-2.31-2.82-2.31a1.29,1.29,0,0,0-.22-1.32s-.18,0,0-.79-2.11-2.43-3.62-.66c0,0-1,.23-.6,1l0,1.09a2.23,2.23,0,0,1,.07,1.36s-.11.17.31.26l0,.24.28.2s-.13.83.55.54l.68-.3a1.56,1.56,0,0,1,.89,1s-1.53-.06-1.49,1,.23,3,.23,3l-.09,2.23-.38,1.14-.56.13a3.81,3.81,0,0,1-1,.86c-.37.11-.4,1-.4,1s-2.89.35-2.82,1.94c0,0-.11.37,1.09,1.29a31.48,31.48,0,0,1,4,.53c.66.26,4.14,1.33,4.14,1.33l3.46,1.43-.77-.89s4.33,2.5,4.72,2.64,1.17-.7-.46-2.36-1.31-1.45-1.64-2.06c0,0,.19-.23-.68-.21,0,0-.61-.91-1-.95a1.22,1.22,0,0,0-1.1-.75Z"/></g><g id="hotdog"><path class="cls-43" d="M249.93,192.31s.72-1.45-2.37-1.64-7.75.94-7.75,1.64S249.93,192.31,249.93,192.31Z"/><path class="cls-12" d="M260.39,191.92s-4-1.83-7.47-.25,7.05.61,7.05.61Z"/><path class="cls-44" d="M240.24,190.49a1.45,1.45,0,0,1,1.39-.82,5.91,5.91,0,0,1,1.65.25l.79.57,1.11.07.08.19-1.92.57-2.24-.15S240.36,191.1,240.24,190.49Z"/><path class="cls-17" d="M230.18,191.88s35.18.73,39.23.25a1,1,0,0,0-1,.58c-.21.58-.84,2.84-7.2,2.79s-28.5.26-28.5.26S229.18,194.47,230.18,191.88Z"/><path class="cls-44" d="M236,193.63s-1.14-.41.33-1.3a32.16,32.16,0,0,1,3.88-1.84s-.1.54.68.72a3.83,3.83,0,0,1,1,.31l-1.08,1.59,0,0-3.29,0A2.13,2.13,0,0,0,236,193.63Z"/><polygon class="cls-44" points="240.81 193.13 241.04 193.03 241.92 191.52 240.81 193.13"/><path class="cls-45" d="M241.92,191.52a11.51,11.51,0,0,1-1.08,1.59c-.18.08.37,0,.37,0s.95-1.45,1-1.56S241.92,191.52,241.92,191.52Z"/><path class="cls-46" d="M245.17,200.61h11.06s5.79,0,5.85-4.13-.4-4.66-5.65-4.59-18.91,0-18.91,0-2.2-.25-2.4,2.81S234.72,200.61,245.17,200.61Z"/><path class="cls-45" d="M240.24,190.49s-.15.59,1.79.73a2.94,2.94,0,0,0,2.16-.37c.48-.06,1.07-.1,1.07-.1s-.86.32-1.2.49a5.51,5.51,0,0,1-1.89.33,16.25,16.25,0,0,1-1.71-.41S240.1,191.1,240.24,190.49Z"/><path class="cls-44" d="M243.71,189.57s3.94-.17,4.07.1a2,2,0,0,1,.11.75l1.43,1.25a2.46,2.46,0,0,1-1.68-.09c-.89-.38-2.27-1-2.27-1l-1.49-.16-.51-.39S243.46,189.66,243.71,189.57Z"/><path class="cls-45" d="M243.71,189.57s-.4.18-.17.41a2.83,2.83,0,0,0,1.51.4,20.65,20.65,0,0,1,2.85,1.18,2.55,2.55,0,0,0,1.23.12l.19.1s-.35.27-1.28.07-1.78-.83-2.1-.83a4.15,4.15,0,0,0-2.16-.43S242.57,190.21,243.71,189.57Z"/><path class="cls-44" d="M248.78,189s-1.37.47-.65,1.37a6.13,6.13,0,0,0,1.93,1.46s2.48.73,3.42.19l.93-.54-1.71-.94-.28-.6,0-.09a8.69,8.69,0,0,1-2.81-.41C248.88,189,248.78,189,248.78,189Z"/><path class="cls-45" d="M248.78,189s-2.28.85.76,2.43,4.69.1,4.69.1l.23.13s-1.66,1.86-5.14.13-.74-2.79-.74-2.79Z"/><path class="cls-44" d="M253.17,189.16a4.44,4.44,0,0,1,3.45,1.08s-.9-.06-.85.09v.42l.77.55.15.16-.41.11-1.88-.1-1.69-1.05-.24-.39S252.36,189.67,253.17,189.16Z"/><path class="cls-45" d="M253.17,189.16s-.61.35-.62.76c0,.19.11.38.46.57,1.12.59,1.17.77,1.73.83s2,.14,2,.14v.21l-2.24,0-1.78-1s-.43-.59-.19-.91A2.77,2.77,0,0,1,253.17,189.16Z"/><path class="cls-44" d="M259.42,191.24a5.73,5.73,0,0,1-2.14-.94s-1.58-.19-1.51,0a1.07,1.07,0,0,0,.87.86,4.92,4.92,0,0,0,1.34.05Z"/><path class="cls-44" d="M260.39,191.92s1.4.18,1.78,1.08-.25.82-.25.82a1.17,1.17,0,0,1-1-.71C260.59,192.41,260.39,191.92,260.39,191.92Z"/><path class="cls-45" d="M255.77,190.33s.14,1,1.38.89,2.77-.37,3.36.92,1.27,2,1.73,1.56a.26.26,0,0,1-.08.24,1.57,1.57,0,0,1-1.59-.71c-.34-.76-.26-1.82-2.2-1.76s-1.67,0-1.67,0S255.26,191.07,255.77,190.33Z"/></g><g id="skibe"><path class="cls-47" d="M517.78,240s-.68,3.13,4.14,3.13l8.29-1s6-.9,4-3.48l-12.47,1Z"/><polygon class="cls-48" points="521.81 237.86 529.42 237.3 529.65 239.02 522.23 239.62 521.81 237.86"/><polygon class="cls-49" points="523.6 237.73 523.26 234.95 524.5 234.72 524.95 237.64 523.6 237.73"/><polygon class="cls-50" points="528.53 237.41 527.86 231.47 527.18 231.7 528.09 237.41 528.53 237.41"/><polygon class="cls-48" points="527.18 231.7 524.95 232.15 525.17 233.6 527.41 233.13 527.18 231.7"/><path class="cls-47" d="M119.78,245.3s-.67,3.14,4.14,3.14l8.29-1s6-.9,4-3.47l-12.47,1Z"/><polygon class="cls-48" points="123.81 243.17 131.43 242.61 131.65 244.33 124.24 244.94 123.81 243.17"/><polygon class="cls-49" points="125.6 243.04 125.27 240.26 126.5 240.03 126.95 242.95 125.6 243.04"/><polygon class="cls-50" points="130.53 242.72 129.86 236.79 129.19 237.01 130.09 242.72 130.53 242.72"/><polygon class="cls-48" points="129.19 237.01 126.95 237.46 127.17 238.91 129.41 238.44 129.19 237.01"/><path class="cls-47" d="M89.31,301.9S88.64,305,93.45,305l8.29-1s6.05-.9,4-3.47l-12.47,1Z"/><polygon class="cls-48" points="93.34 299.77 100.96 299.21 101.18 300.93 93.77 301.54 93.34 299.77"/><polygon class="cls-49" points="95.13 299.64 94.8 296.86 96.03 296.63 96.48 299.55 95.13 299.64"/><polygon class="cls-50" points="100.06 299.32 99.39 293.39 98.72 293.62 99.62 299.32 100.06 299.32"/><polygon class="cls-48" points="98.72 293.61 96.48 294.06 96.7 295.51 98.94 295.04 98.72 293.61"/><path class="cls-47" d="M143.16,101.8s-.67,3.14,4.14,3.14l8.29-1s6-.89,4-3.47l-12.47,1Z"/><polygon class="cls-48" points="147.19 99.67 154.81 99.11 155.03 100.83 147.62 101.44 147.19 99.67"/><polygon class="cls-49" points="148.99 99.54 148.65 96.76 149.88 96.54 150.33 99.45 148.99 99.54"/><polygon class="cls-50" points="153.91 99.23 153.24 93.29 152.57 93.52 153.47 99.23 153.91 99.23"/><polygon class="cls-48" points="152.57 93.51 150.33 93.96 150.55 95.42 152.79 94.94 152.57 93.51"/><path class="cls-47" d="M239.13,62.6s-.67,3.14,4.15,3.14l8.29-1s6-.9,4-3.47l-12.47,1Z"/><polygon class="cls-48" points="243.16 60.47 250.78 59.91 251.01 61.63 243.59 62.24 243.16 60.47"/><polygon class="cls-49" points="244.96 60.34 244.62 57.56 245.85 57.34 246.3 60.25 244.96 60.34"/><polygon class="cls-50" points="249.89 60.03 249.21 54.09 248.54 54.32 249.45 60.03 249.89 60.03"/><polygon class="cls-48" points="248.54 54.31 246.3 54.76 246.53 56.22 248.77 55.74 248.54 54.31"/><path class="cls-47" d="M183.23,63s-.67,3.14,4.15,3.14l8.28-1s6.05-.9,4-3.47l-12.47,1Z"/><polygon class="cls-48" points="187.26 60.9 194.88 60.34 195.1 62.06 187.69 62.67 187.26 60.9"/><polygon class="cls-49" points="189.06 60.77 188.72 57.99 189.95 57.77 190.4 60.68 189.06 60.77"/><polygon class="cls-50" points="193.98 60.45 193.31 54.52 192.64 54.75 193.54 60.45 193.98 60.45"/><polygon class="cls-48" points="192.64 54.74 190.4 55.19 190.62 56.65 192.87 56.17 192.64 54.74"/><g id="Layer_10_copy" data-name="Layer 10 copy"><path class="cls-51" d="M294,329.2h6.24a1.37,1.37,0,0,1,1.43,1.31v9.42a1.44,1.44,0,0,1-.4,1,1.39,1.39,0,0,1-1,.39H294a1.34,1.34,0,0,1-1.42-1.25V330.6a1.39,1.39,0,0,1,.39-1A1.44,1.44,0,0,1,294,329.2Zm4.53,9.36V332c0-.13-.06-.2-.19-.2h-2.47c-.11,0-.16.07-.16.2v6.53c0,.11,0,.17.16.17h2.47a.16.16,0,0,0,.19-.17Z"/><path class="cls-51" d="M305,329.2h6.54a2.46,2.46,0,0,1,2.46,2.46h0v7.2a2.48,2.48,0,0,1-2.46,2.48H305Zm5.89,8.64v-5.1a.88.88,0,0,0-.24-.64.85.85,0,0,0-.64-.25h-1.87v6.89H310a.85.85,0,0,0,.64-.25.86.86,0,0,0,.24-.65Z"/><path class="cls-51" d="M317.37,341.35V329.2h7.94v2.61h-4.82v2.13h4.18v2.59H320.5v2.21h4.82v2.62Z"/><path class="cls-51" d="M334.76,341.35l-3.55-6.67v6.67h-2.88V329.2h2.88l3.64,6.7v-6.7h2.88v12.15Z"/><path class="cls-51" d="M340.93,341.35v-2.61h4.56c.13,0,.2-.06.2-.17v-1.76c0-.11-.07-.16-.2-.16h-3.13a1.38,1.38,0,0,1-1-.4,1.4,1.4,0,0,1-.4-1v-4.59a1.37,1.37,0,0,1,1.31-1.43h6.4v2.61h-4.39c-.12,0-.18.07-.18.2v1.78c0,.11.06.17.18.17h3.13a1.35,1.35,0,0,1,1.42,1.28V340a1.35,1.35,0,0,1-1.28,1.42h-.14Z"/><path class="cls-51" d="M351.93,341.35V329.2h7.94v2.61h-4.82v2.13h4.17v2.59h-4.17v2.21h4.82v2.62Z"/><path class="cls-51" d="M513.14,270.47h-4.56l-3.17-6.19-1.32,2.13v4.06h-4.18v-16.2h4.18V261l4.2-6.74h4.65l-4.68,7Z"/><path class="cls-51" d="M516.09,272.74l1.1-2.35a2.58,2.58,0,0,1-1.31-.65,1.57,1.57,0,0,1-.54-1.2V256.16a1.82,1.82,0,0,1,1.75-1.89h6.73l1-2.26h1.7l-1,2.26h0a1.8,1.8,0,0,1,1.89,1.71v12.59a1.88,1.88,0,0,1-.52,1.37,1.85,1.85,0,0,1-1.37.53H518.8l-1.06,2.3Zm2.78-5.37v.09l3.38-10.32h-2.78a.21.21,0,0,0-.15.09.25.25,0,0,0-.09.2Zm4.68,0,.36-9.94a.33.33,0,0,0,0-.14l-3.4,10.29h2.83c.12,0,.21,0,.21-.18Z"/><path class="cls-51" d="M542,270.47h-10.1v-16.2h10a2.16,2.16,0,0,1,1.57.56,2,2,0,0,1,.59,1.48v3.6a2.46,2.46,0,0,1-.56,1.56,2.93,2.93,0,0,1-1.65,1,3.43,3.43,0,0,1,1.71.93,2.21,2.21,0,0,1,.62,1.52v3.52a2,2,0,0,1-.59,1.52A2.23,2.23,0,0,1,542,270.47Zm-2-9.89v-2.84q0-.27-.24-.27h-3.74v3.36h3.74a.23.23,0,0,0,.27-.25Zm0,6.58v-3.08c0-.17-.08-.26-.24-.26h-3.74v3.58h3.74a.2.2,0,0,0,.26-.14.16.16,0,0,0,0-.1Z"/><path class="cls-51" d="M548.42,270.47v-16.2H559v3.47h-6.43v2.83h5.57V264h-5.57V267H559v3.51Z"/><path class="cls-51" d="M571.6,270.47l-4.73-8.91v8.91H563v-16.2h3.84l4.85,8.93v-8.93h3.84v16.2Z"/><path class="cls-51" d="M592.48,254.27v16.2H588.3V264h-4v6.43h-4.13v-16.2h4.17v6.19h4v-6.19Z"/><path class="cls-51" d="M609,256.16v14.31h-4.18v-4h-3.67v4h-4.18V256.16a1.82,1.82,0,0,1,1.75-1.89h8.38A1.83,1.83,0,0,1,609,256v.15Zm-7.85,6.77h3.67v-4.87c0-.32-.19-.48-.58-.48h-2.54a.54.54,0,0,0-.36.14.48.48,0,0,0-.14.34Z"/><path class="cls-51" d="M621.28,254.27h4.13l-4.83,16.2h-4l-4.7-16.2h4.46l2.26,10.29Z"/><path class="cls-51" d="M637,270.47l-4.73-8.91v8.91h-3.84v-16.2h3.84l4.85,8.93v-8.93H641v16.2Z"/><path class="cls-51" d="M264.9,212.26V223h-3.14v-3H259v3h-3.13V212.26a1.35,1.35,0,0,1,1.28-1.42h6.31a1.38,1.38,0,0,1,1,.4A1.41,1.41,0,0,1,264.9,212.26ZM259,217.34h2.75v-3.66c0-.24-.14-.36-.43-.36h-1.94a.39.39,0,0,0-.27.11.36.36,0,0,0-.11.25Z"/><path class="cls-51" d="M277.15,212.26V223H274v-3h-2.75v3h-3.13V212.26a1.35,1.35,0,0,1,1.28-1.42h6.31a1.35,1.35,0,0,1,1.42,1.28v.14Zm-5.88,5.08H274v-3.66c0-.24-.14-.36-.43-.36h-1.92a.39.39,0,0,0-.27.11.33.33,0,0,0-.11.25Z"/><path class="cls-51" d="M280.5,210.84h7.63a1.37,1.37,0,0,1,1.4,1.4v5.5a1.29,1.29,0,0,1-.4,1,1.34,1.34,0,0,1-1,.41H288l1.5,3.85h-3.06L285,219.15h-1.3V223h-3.13Zm5.89,5.69v-2.9c0-.12-.06-.18-.16-.18h-2.56v3.29h2.7a.18.18,0,0,0,0-.21Z"/><path class="cls-51" d="M302,210.84V223h-3.13v-4.82h-3V223h-3.14V210.84h3.14v4.64h3v-4.64Z"/><path class="cls-51" d="M305.41,210.84h3.14v9.36a.14.14,0,0,0,.12.16H311c.14,0,.2-.05.2-.16v-9.36h3.13V221.6a1.33,1.33,0,0,1-.39,1,1.29,1.29,0,0,1-1,.4h-6.16a1.34,1.34,0,0,1-1-.41,1.31,1.31,0,0,1-.42-1Z"/><path class="cls-51" d="M317.53,223v-2.63h4.55c.13,0,.2-.05.2-.16v-1.76c0-.11-.07-.17-.2-.17H319a1.34,1.34,0,0,1-1.42-1.25v-4.76a1.35,1.35,0,0,1,1.28-1.42h6.42v2.61h-4.39c-.12,0-.18.07-.18.2v1.78c0,.11.06.16.18.16H324a1.35,1.35,0,0,1,1.42,1.28v4.7a1.35,1.35,0,0,1-1.28,1.42h-6.58Z"/><path class="cls-51" d="M251.67,104.68v10.73h-3.13v-3h-2.75v3h-3.12V104.68a1.34,1.34,0,0,1,1.25-1.42h6.34a1.34,1.34,0,0,1,1.42,1.26v.16Zm-5.88,5.06h2.75v-3.65c0-.24-.14-.36-.43-.36h-1.94a.39.39,0,0,0-.27.11.33.33,0,0,0-.11.25Z"/><path class="cls-51" d="M263.93,104.68v10.73H260.8v-3h-2.75v3h-3.14V104.68a1.44,1.44,0,0,1,.4-1,1.39,1.39,0,0,1,1-.39h6.17a1.34,1.34,0,0,1,1.42,1.26v.16Zm-5.88,5.06h2.75v-3.65c0-.24-.14-.36-.43-.36h-1.95a.39.39,0,0,0-.27.11.35.35,0,0,0-.1.25Z"/><path class="cls-51" d="M267.28,115.41V103.26h3.11v9.48h3.87v2.63Z"/><path class="cls-51" d="M284.51,115.41h-7.58V103.26h7.49a1.63,1.63,0,0,1,1.17.42,1.45,1.45,0,0,1,.45,1.11v2.7a1.8,1.8,0,0,1-.43,1.17,2.22,2.22,0,0,1-1.23.72,2.46,2.46,0,0,1,1.28.7,1.61,1.61,0,0,1,.47,1.13v2.65a1.5,1.5,0,0,1-.44,1.13A1.65,1.65,0,0,1,284.51,115.41ZM283,108v-2.12c0-.14-.06-.2-.18-.2H280v2.52h2.81C283,108.19,283,108.12,283,108Zm0,4.93v-2.3c0-.13-.06-.2-.18-.2H280v2.68h2.81A.16.16,0,0,0,283,113Z"/><path class="cls-51" d="M290.61,103.26h6.24a1.39,1.39,0,0,1,1,.39,1.44,1.44,0,0,1,.4,1V114a1.37,1.37,0,0,1-1.31,1.43h-6.36a1.44,1.44,0,0,1-1-.4,1.39,1.39,0,0,1-.39-1v-9.3a1.34,1.34,0,0,1,1.25-1.42Zm4.53,9.36v-6.54c0-.13-.06-.2-.19-.2h-2.47c-.11,0-.16.07-.16.2v6.54a.14.14,0,0,0,.12.16H295C295.08,112.74,295.14,112.74,295.14,112.62Z"/><path class="cls-51" d="M301.67,103.26h7.64a1.37,1.37,0,0,1,1,.39,1.3,1.3,0,0,1,.4,1v5.57a1.37,1.37,0,0,1-1.36,1.36h-.1l1.5,3.86h-3.06l-1.51-3.86h-1.33v3.86h-3.18Zm5.89,5.68v-2.89c0-.12-.06-.18-.16-.18h-2.59v3.24h2.59a.13.13,0,0,0,.1-.06.14.14,0,0,0,0-.11Z"/><path class="cls-51" d="M318.11,110.53V108h5.56v2.58h-1V114a1.29,1.29,0,0,1-.4,1,1.4,1.4,0,0,1-1,.4h-6.09a1.4,1.4,0,0,1-1-.4,1.29,1.29,0,0,1-.4-1v-9.4a1.27,1.27,0,0,1,.41-1,1.38,1.38,0,0,1,1-.4h7.48v2.61H317c-.12,0-.18.06-.18.19v6.52a.16.16,0,0,0,.14.18h2.56c.13,0,.2-.06.2-.18v-2Z"/><path class="cls-51" d="M121.14,309V296.82h7.94v2.61h-4.82v2.12h4.17v2.59h-4.17v2.2h4.82V309Z"/><path class="cls-51" d="M131.85,309v-2.63h4.56c.13,0,.2,0,.2-.16v-1.77c0-.1-.07-.16-.2-.16h-3.13a1.35,1.35,0,0,1-1.4-1.39v-4.62a1.35,1.35,0,0,1,1.4-1.39h6.28v2.61h-4.39c-.12,0-.18.06-.18.2v1.78c0,.11.06.16.18.16h3.13a1.37,1.37,0,0,1,1.42,1.32v4.66A1.37,1.37,0,0,1,138.4,309h-.1Z"/><path class="cls-51" d="M150.43,309h-7.58V296.82h7.49a1.65,1.65,0,0,1,1.18.42,1.45,1.45,0,0,1,.44,1.11v2.7a1.84,1.84,0,0,1-.42,1.17,2.24,2.24,0,0,1-1.24.72,2.53,2.53,0,0,1,1.28.7,1.63,1.63,0,0,1,.47,1.14v2.64a1.5,1.5,0,0,1-.44,1.13A1.65,1.65,0,0,1,150.43,309ZM149,301.55v-2.12c0-.13-.06-.2-.18-.2H146v2.51h2.8C148.89,301.74,149,301.74,149,301.55Zm0,4.94v-2.31c0-.13-.06-.2-.18-.2H146v2.68h2.8C148.89,306.66,149,306.61,149,306.49Z"/><path class="cls-51" d="M154.67,303.17h3.14v3a.14.14,0,0,0,.12.16h1.64c.13,0,.2-.05.2-.16v-9.36h3.13v10.76a1.37,1.37,0,0,1-1.4,1.4H156a1.34,1.34,0,0,1-1-.41,1.31,1.31,0,0,1-.42-1Z"/><path class="cls-51" d="M166.38,309V296.82h7.94v2.61h-4.83v2.12h4.18v2.59h-4.18v2.2h4.83V309Z"/><path class="cls-51" d="M177.34,296.82H185a1.37,1.37,0,0,1,1.37,1.37v5.55a1.41,1.41,0,0,1-1.37,1.37h-.09l1.49,3.85h-3l-1.52-3.85h-1.38V309h-3.13Zm5.89,5.69v-2.9c0-.12-.06-.18-.17-.18h-2.59v3.24h2.59a.16.16,0,0,0,.11-.05A.24.24,0,0,0,183.23,302.51Z"/><path class="cls-51" d="M193.83,304.09v-2.57h5.5v2.57h-1v3.49a1.38,1.38,0,0,1-1.41,1.4h-6.08a1.38,1.38,0,0,1-1.41-1.4v-9.39a1.31,1.31,0,0,1,.42-1,1.34,1.34,0,0,1,1-.4h7.52v2.61h-5.63c-.12,0-.18.06-.18.2v6.51a.16.16,0,0,0,.14.18h2.56c.13,0,.19-.06.19-.18v-2Z"/></g></g></g></svg>