<svg xmlns="http://www.w3.org/2000/svg" viewBox="0 0 29.25 38.57"><defs><style>.cls-1{fill:#94959a;}.cls-2{fill:#584d4b;}</style></defs><title>den_lille_havfrue</title><g id="Layer_2" data-name="Layer 2"><g id="lille_havfrue" data-name="lille havfrue"><path class="cls-1" d="M24.32,38.25s3.42,1.19,4.93-1c0,0-.32-17.48-9.9-18.93A38.41,38.41,0,0,0,1,20.48s-1.33.43-.94,3.42,0,5.35,1.56,6.73S5.87,34.45,8,34.41a49.34,49.34,0,0,1,11,2.06C21.71,37.42,24.32,38.25,24.32,38.25Z"/><path class="cls-2" d="M18.35,17.31a28.57,28.57,0,0,0,.85-5c-.12-1.1.06-5-1.71-6.4s-2.81-2.31-2.81-2.31a1.28,1.28,0,0,0-.23-1.31s-.17,0,0-.8S12.34-1,10.83.79c0,0-1,.22-.6,1l0,1.09a2.18,2.18,0,0,1,.08,1.36s-.11.17.31.26l0,.24.27.2s-.13.83.56.54l.68-.3a1.56,1.56,0,0,1,.88,1s-1.53,0-1.49,1,.24,3,.24,3l-.09,2.23-.39,1.14-.55.13a4,4,0,0,1-1,.87c-.37.11-.41,1-.41,1S6.4,16,6.47,17.54c0,0-.11.37,1.09,1.29a32.15,32.15,0,0,1,4.05.54c.65.25,4.14,1.33,4.14,1.33l3.46,1.43-.78-.89s4.33,2.5,4.73,2.64,1.17-.7-.47-2.36-1.31-1.45-1.64-2.06c0,0,.19-.23-.67-.21,0,0-.61-.91-1-1a1.25,1.25,0,0,0-1.1-.75Z"/></g></g></svg>