<svg xmlns="http://www.w3.org/2000/svg" viewBox="0 0 67.2 106.98"><defs><style>.cls-1{fill:#52453d;}</style></defs><title>eiffeltower</title><g id="Layer_2" data-name="Layer 2"><g id="eiffeltårnet_bjerg" data-name="eiffeltårnet + bjerg"><path class="cls-1" d="M50.36,82.76V78.11H47.47L40.42,59h1.76V55.33H39L34.16,9.14l2.09-1-.16-4.65-2.57-.64L33,0H31.76l-.33,2.89-2.88.48-.16,4.81L30.31,9.3,25,55.33H21.49l.64,3.53H24.7L17.32,78.11l-3.21.48v3.85L0,107H16.84s15.4-31.44,31.76-.49l18.6.49ZM59.18,99.6l-7.38-.8L56.94,95Zm-3.69-6.1-7.38-.8,5.14-3.85ZM48.44,82a1.92,1.92,0,1,1-1.93,1.92A1.93,1.93,0,0,1,48.44,82ZM46,78.21l-4,.38,3-3.68Zm-6.5,0-.36-3.44,4,.41Zm5.21-4.33-4,.38,3-3.68Zm-6.17-.33-.37-3.43,4,.41Zm4.09-4-4,.38,3-3.68Zm-5.21-.81-.37-3.43,4,.41Zm2.81-6.64.43,3.12L37,65ZM38.81,82a1.92,1.92,0,1,1-1.92,1.92A1.93,1.93,0,0,1,38.81,82Zm-5.61-33,2.89,1.92L33.2,52.28ZM33,47.47V44.11L35.93,46Zm3.69,3.21v3.37l-2.89-1.28Zm-.32-1.28-2.89-1.29L36.41,46Zm-.32-5.29L33.2,42.82l2.89-2.08ZM33,42V38.65l2.89,1.93Zm2.56-3.37-2.08-1.12,2.08-1.76Zm-2.4-1.92v-3l1.92,1.12Zm2.08-2.89-1.44-1,1.28-1.77ZM33.2,31.6V29L35,30.15Zm1.12-6.42L33.2,26.3V23.74Zm-.8-2.57.8-1.12v2.25Zm1.12,6.1-1.12-1.28,1.12-1.29Zm-.16-8.66L33,21.49l.16-2.24ZM34,18.6l-.8-1.12L34,17Zm-.16-3.36-.8,1V14.27ZM33,9.78l.48,1.13-.48,1Zm.48,2.41V14l-.8-.8ZM34,82a1.92,1.92,0,1,1-1.92,1.92A1.93,1.93,0,0,1,34,82ZM31.92,29.83v2.41l-1.61-1.45Zm-.32-2.24-1.13-1.45,1.13-1ZM31,21.81l1.13-1.12v2.24ZM31.11,13l1-1.12V14Zm.81-5.13.16,2.4L31,9.14Zm-1.13,2.4.81,1-.81,1Zm0,3.69.81,1-.81.8Zm.81,2.57V18l-.81-1Zm-.81,1.76.81,1.13-.81.8Zm-.64,4.33,1.12,1.29L30.15,25Zm0,4.65,1.12,1.29-1.12,1.28Zm-.64,4.34L31.27,33l-2.08,1.6Zm2.09,2.72v2.73l-1.77-1.61Zm-2.41,1.77L31,37.85,29.19,39ZM31.64,39l-.09,3.37-2.84-2ZM24.7,82a1.92,1.92,0,1,1-1.93,1.92A1.92,1.92,0,0,1,24.7,82Zm-3.37-5.3,4.65-1L24.7,78.91ZM25.5,74.9l-3.37-2.25,4.65-1Zm4,7.06a1.92,1.92,0,1,1-1.92,1.92A1.92,1.92,0,0,1,29.51,82ZM27.19,70,23.71,68l4.59-1.21Zm1.52-19.38,2.93-1.38-.09,3.37Zm2.84-3-2.84-2,2.93-1.37Zm-3-6.29,2.88,1.92-2.88,1.45Zm-.48,5L31,48.28l-2.88,1.44Zm-.48,4.81,2.88,1.93-2.88,1.44Zm.86,10.17-.66,3.09-3.37-1.51Zm-3.81,2.28,3.22,2.45-4.7.67ZM23,68.42l3.22,2.45-4.7.67ZM21,72.91l3.22,2.45-4.7.67ZM11.71,89.49,17,93.82H9.62ZM8.34,95.91l5.29,4.33H6.25Zm-5,9,2.08-4.33,5.3,4.33Zm10.26.48L8.34,101h7.38Zm1.6-5.93L10,95.1h7.37Zm2.57-7.22-5.29-4.34h7.38Zm1.77-6.42a1.92,1.92,0,1,1,1.92-1.92A1.93,1.93,0,0,1,19.57,85.8Zm1.76,6.42.48-5.61,4.17,4Zm3.05-4.65,3.53-.32L26.78,90Zm3.53,2.89,1.44-3.21,2.57,3.21Zm5.29,0L31,86.93l4.33-.32Zm.8.64,2.57-3.85,1.6,3.85Zm3.21-4.49,4.49.64L39,90Zm2.24,4.49,3.21-3.21L43,92.22ZM42,83.88a1.93,1.93,0,1,1,1.92,1.92A1.93,1.93,0,0,1,42,83.88Zm10.45,4.23-5.19,3.77-2.17-4.69Zm-5.28,5.65,7.36.93-5.19,3.76Zm2.09,6.42,7.36.92-5.19,3.77Zm9.9.06,2.25,4.65-7.38-.8Z"/></g></g></svg>