<?xml version="1.0" encoding="utf-8"?>
<!-- Generator: Adobe Illustrator 22.1.0, SVG Export Plug-In . SVG Version: 6.00 Build 0)  -->
<svg version="1.1" id="Layer_1" xmlns="http://www.w3.org/2000/svg" xmlns:xlink="http://www.w3.org/1999/xlink" x="0px" y="0px"
	 viewBox="0 0 44.4 29.6" style="enable-background:new 0 0 44.4 29.6;" xml:space="preserve">
<style type="text/css">
	.st0{fill:url(#SVGID_1_);}
	.st1{fill:url(#SVGID_2_);}
	.st2{fill:url(#SVGID_3_);}
	.st3{fill:url(#SVGID_4_);}
	.st4{fill:url(#SVGID_5_);}
	.st5{fill:#E8E8E8;}
	.st6{fill:#0F0E0E;stroke:#1E1E1E;stroke-miterlimit:10;}
	.st7{fill:#D89B03;}
	.st8{fill:#EDBA77;}
	.st9{fill:#E2A350;}
	.st10{fill:#301B1B;}
	.st11{fill:#1E0B0B;}
</style>
<title>mad</title>
<radialGradient id="SVGID_1_" cx="22.22" cy="8.49" r="9.131" gradientTransform="matrix(1 0 0 -1 0 32)" gradientUnits="userSpaceOnUse">
	<stop  offset="0" style="stop-color:#998675"/>
	<stop  offset="0.99" style="stop-color:#736357"/>
</radialGradient>
<path class="st0" d="M33.6,23.5c0,3.4-5.1,6.1-11.4,6.1s-11.4-2.8-11.4-6.1s5.1-6.1,11.4-6.1S33.6,20.1,33.6,23.5z"/>
<radialGradient id="SVGID_2_" cx="-2.05" cy="13.68" r="27.42" gradientTransform="matrix(1 0 0 -1 0 32)" gradientUnits="userSpaceOnUse">
	<stop  offset="0" style="stop-color:#998675"/>
	<stop  offset="0.99" style="stop-color:#736357"/>
</radialGradient>
<path class="st1" d="M22.2,0.4C9.9,0.4,0,4.4,0,9.4s9.9,9,22.2,9s22.2-4,22.2-9S34.5,0.4,22.2,0.4z M22.3,16.8
	c-11,0-19.9-3.5-19.9-7.8s8.9-7.8,19.9-7.8s19.9,3.5,19.9,7.8S33.3,16.8,22.3,16.8z"/>
<radialGradient id="SVGID_3_" cx="14.21" cy="4.97" r="26.13" gradientTransform="matrix(1 0 0 -1 0 32)" gradientUnits="userSpaceOnUse">
	<stop  offset="4.000000e-02" style="stop-color:#998675"/>
	<stop  offset="1" style="stop-color:#C7B299"/>
</radialGradient>
<path class="st2" d="M22.2,1.1c-11,0-20,3.5-20,7.9s9,7.9,20,7.9s20-3.5,20-7.9S33.3,1.1,22.2,1.1z"/>
<radialGradient id="SVGID_4_" cx="-2.3" cy="13.76" r="27.42" gradientTransform="matrix(1 0 0 -1 0 32)" gradientUnits="userSpaceOnUse">
	<stop  offset="0" style="stop-color:#998675"/>
	<stop  offset="0.99" style="stop-color:#736357"/>
</radialGradient>
<path class="st3" d="M41.6,11.2c-2.1,3.4-10.2,5.5-19.5,5.5S4.9,14.5,2.8,11.1l-0.2-0.4v2.8c3.8,2.8,10.8,4.9,19.4,4.8
	c9.2-0.1,17.1-2.3,20.5-5.6v-2L41.6,11.2z"/>
<linearGradient id="SVGID_5_" gradientUnits="userSpaceOnUse" x1="42.7695" y1="9.0584" x2="2.4995" y2="22.2284" gradientTransform="matrix(1 0 0 -1 0 32)">
	<stop  offset="0" style="stop-color:#998675"/>
	<stop  offset="1" style="stop-color:#C7B299"/>
</linearGradient>
<path class="st4" d="M22.2,18.3c-10.9,0-20-3.2-21.9-7.5l0,0c3.2,9.8,11.8,16.7,21.9,16.7s18.6-7,21.9-16.7l0,0
	C42.2,15.1,33.1,18.3,22.2,18.3z"/>
<g id="Layer_2">
	<path class="st5" d="M26.4,17.7c0.8,0.3,1.7,0.4,2.5,0.4c0.7-0.1,1.5-0.2,2.2-0.5l6.3-2c0.3-0.1,0.5-0.2,0.7-0.3c0.6-0.4,1-1,1-1.8
		c0.6,0.1,1.3-0.2,1.6-0.8c0.3-0.6,0.4-1.2,0.4-1.8c0-0.9,1.2-1.9,1-2.9c-0.2-1-1.6-1.4-2-2.1c-0.3-0.7-1-1.1-1.7-1
		c-0.5,0.1-1.2,0.4-1.4,0c-0.1-0.2-0.1-0.4,0-0.6c0.1-1.3-0.9-2.3-2.2-2.4c0,0-0.1,0-0.1,0c-0.4,0.1-0.8,0.1-1.2,0.1
		c-0.3,0-0.6-0.1-0.8-0.3c-0.6-0.3-1.2-0.5-1.8-0.6c-1.5-0.3-3-0.5-4.4-0.5L19,0.1c-0.4-0.1-0.7,0-1,0.3c-0.1,0.1-0.2,0.3-0.3,0.4
		c-0.2,0.1-0.7-0.1-1.1,0s-0.7,0.6-1.1,0.6c-0.2,0-0.4-0.1-0.6-0.1c-0.4,0-0.7,0.1-1,0.2c-1,0.4-2,0.7-3,0.7c-0.8,0-1.6,0.1-2.4,0.2
		C7.6,2.6,7,3.2,6.8,4C6.2,3.7,5.5,3.7,5,4c-0.6,0.4-0.8,1-0.8,1.7c-0.9,0.2-1.5,1-1.6,1.8c-0.3,0.9-0.4,1.8-0.4,2.7
		c0.2,0.9,1,1.7,1.2,2.5c0,0.4,0.2,0.8,0.5,1.1c0.4,0.2,0.8,0.3,1.3,0.3h1.3c0.2,0,0.3,0,0.5,0.1c0.3,0.3,0,0.8,0,1.2
		c0,0.4,0.6,0.8,1.2,0.8c0.5,0,1.1,0,1.6,0.2c0.2,0.1,0.4,0.3,0.7,0.4c0.7,0.3,1.4-0.3,2.2-0.2c1.1,0.1,1.8,1.4,2.9,1.3
		c0.4-0.1,0.7-0.4,1.1-0.4c0.6-0.1,1.2,0.5,1.8,0.4c0.2,0,0.3-0.1,0.5-0.1c0.2,0,0.4,0,0.6,0c1.2,0.1,2.4,0.1,3.6,0
		c0.6-0.1,1.2-0.1,1.8-0.3C25.5,17.5,26,17.5,26.4,17.7z"/>
</g>
<ellipse class="st6" cx="11.7" cy="15" rx="1.6" ry="0.9"/>
<ellipse class="st6" cx="9.4" cy="12.7" rx="1.6" ry="0.9"/>
<ellipse transform="matrix(0.2645 -0.9644 0.9644 0.2645 -4.8782 24.7165)" class="st6" cx="13.8" cy="15.6" rx="0.9" ry="1.6"/>
<ellipse transform="matrix(0.2645 -0.9644 0.9644 0.2645 -3.732 26.2106)" class="st6" cx="15.3" cy="15.6" rx="0.9" ry="1.6"/>
<ellipse transform="matrix(0.2645 -0.9644 0.9644 0.2645 -2.6213 24.963)" class="st6" cx="15.1" cy="14.2" rx="0.9" ry="1.6"/>
<ellipse transform="matrix(0.3859 -0.9225 0.9225 0.3859 -4.6846 20.1714)" class="st6" cx="12.8" cy="13.6" rx="0.9" ry="1.6"/>
<ellipse transform="matrix(0.866 -0.5 0.5 0.866 -5.1936 7.0203)" class="st6" cx="10.5" cy="13.2" rx="0.9" ry="1.6"/>
<ellipse transform="matrix(0.2645 -0.9644 0.9644 0.2645 -7.1305 19.7307)" class="st6" cx="9.4" cy="14.5" rx="0.9" ry="1.6"/>
<ellipse transform="matrix(0.2645 -0.9644 0.9644 0.2645 -7.8058 17.4972)" class="st6" cx="7.6" cy="13.9" rx="0.9" ry="1.6"/>
<ellipse class="st6" cx="14.6" cy="12.6" rx="1.6" ry="0.9"/>
<ellipse class="st6" cx="12.3" cy="10.3" rx="1.6" ry="0.9"/>
<ellipse transform="matrix(0.2614 -0.9652 0.9652 0.2614 -0.5064 25.6734)" class="st6" cx="16.5" cy="13.2" rx="0.9" ry="1.6"/>
<ellipse transform="matrix(0.2645 -0.9644 0.9644 0.2645 0.6986 27.2357)" class="st6" cx="18.2" cy="13.2" rx="0.9" ry="1.6"/>
<ellipse transform="matrix(0.2645 -0.9644 0.9644 0.2645 1.8302 25.9762)" class="st6" cx="17.9" cy="11.8" rx="0.9" ry="1.6"/>
<ellipse transform="matrix(0.3859 -0.9225 0.9225 0.3859 -0.7059 21.3546)" class="st6" cx="15.7" cy="11.2" rx="0.9" ry="1.6"/>
<ellipse transform="matrix(0.866 -0.5 0.5 0.866 -3.6043 8.1447)" class="st6" cx="13.4" cy="10.8" rx="0.9" ry="1.6"/>
<ellipse transform="matrix(0.2645 -0.9644 0.9644 0.2645 -2.6887 20.7512)" class="st6" cx="12.3" cy="12.1" rx="0.9" ry="1.6"/>
<ellipse transform="matrix(0.2645 -0.9644 0.9644 0.2645 -3.3543 18.5104)" class="st6" cx="10.5" cy="11.5" rx="0.9" ry="1.6"/>
<ellipse class="st6" cx="8.7" cy="13" rx="1.6" ry="0.9"/>
<ellipse class="st6" cx="6.4" cy="10.7" rx="1.6" ry="0.9"/>
<ellipse transform="matrix(0.2645 -0.9644 0.9644 0.2645 -5.1596 20.3289)" class="st6" cx="10.7" cy="13.5" rx="0.9" ry="1.6"/>
<ellipse transform="matrix(0.2645 -0.9644 0.9644 0.2645 -4.0134 21.823)" class="st6" cx="12.3" cy="13.5" rx="0.9" ry="1.6"/>
<ellipse transform="matrix(0.2645 -0.9644 0.9644 0.2645 -2.8914 20.5709)" class="st6" cx="12" cy="12.2" rx="0.9" ry="1.6"/>
<ellipse transform="matrix(0.3859 -0.9225 0.9225 0.3859 -5.1377 15.7821)" class="st6" cx="9.3" cy="11.8" rx="0.9" ry="1.6"/>
<ellipse transform="matrix(0.866 -0.5 0.5 0.866 -4.748 5.0857)" class="st6" cx="7.1" cy="11.4" rx="0.9" ry="1.6"/>
<ellipse transform="matrix(0.2645 -0.9644 0.9644 0.2645 -7.7236 15.2165)" class="st6" cx="6.1" cy="12.7" rx="0.9" ry="1.6"/>
<ellipse transform="matrix(0.2645 -0.9644 0.9644 0.2645 -7.7758 13.3003)" class="st6" cx="4.8" cy="11.7" rx="0.9" ry="1.6"/>
<ellipse class="st6" cx="10.8" cy="10.9" rx="1.6" ry="0.9"/>
<ellipse class="st6" cx="8.4" cy="8.5" rx="1.6" ry="0.9"/>
<ellipse transform="matrix(0.2645 -0.9644 0.9644 0.2645 -1.5997 20.7046)" class="st6" cx="12.8" cy="11.4" rx="0.9" ry="1.6"/>
<ellipse transform="matrix(0.2645 -0.9644 0.9644 0.2645 -0.4574 22.2129)" class="st6" cx="14.3" cy="11.4" rx="0.9" ry="1.6"/>
<ellipse transform="matrix(0.2645 -0.9644 0.9644 0.2645 0.6669 20.9438)" class="st6" cx="14.1" cy="10" rx="0.9" ry="1.6"/>
<ellipse transform="matrix(0.3859 -0.9225 0.9225 0.3859 -1.462 16.7085)" class="st6" cx="11.8" cy="9.5" rx="0.9" ry="1.6"/>
<ellipse transform="matrix(0.867 -0.4983 0.4983 0.867 -3.2515 5.9666)" class="st6" cx="9.6" cy="9.1" rx="0.9" ry="1.6"/>
<ellipse transform="matrix(0.2645 -0.9644 0.9644 0.2645 -3.8447 15.7285)" class="st6" cx="8.4" cy="10.4" rx="0.9" ry="1.6"/>
<ellipse transform="matrix(0.2645 -0.9644 0.9644 0.2645 -4.5103 13.4876)" class="st6" cx="6.6" cy="9.7" rx="0.9" ry="1.6"/>
<ellipse transform="matrix(0.9917 -0.1286 0.1286 0.9917 -1.8848 2.5842)" class="st6" cx="19.1" cy="15.9" rx="1.6" ry="0.9"/>
<ellipse transform="matrix(0.9917 -0.1286 0.1286 0.9917 -1.6505 2.2274)" class="st6" cx="16.4" cy="13.9" rx="1.6" ry="0.9"/>
<ellipse transform="matrix(0.1383 -0.9904 0.9904 0.1383 2.1892 34.8782)" class="st6" cx="21.1" cy="16.2" rx="0.9" ry="1.6"/>
<ellipse transform="matrix(0.1383 -0.9904 0.9904 0.1383 3.7115 36.2421)" class="st6" cx="22.7" cy="16" rx="0.9" ry="1.6"/>
<ellipse transform="matrix(0.1383 -0.9904 0.9904 0.1383 4.649 34.6663)" class="st6" cx="22.2" cy="14.7" rx="0.9" ry="1.6"/>
<ellipse transform="matrix(0.264 -0.9645 0.9645 0.264 0.8168 29.8143)" class="st6" cx="19.9" cy="14.4" rx="0.9" ry="1.6"/>
<ellipse transform="matrix(0.7945 -0.6072 0.6072 0.7945 -5.0384 13.6233)" class="st6" cx="17.6" cy="14.3" rx="0.9" ry="1.6"/>
<ellipse transform="matrix(0.1383 -0.9904 0.9904 0.1383 -1.2275 30.0633)" class="st6" cx="16.7" cy="15.7" rx="0.9" ry="1.6"/>
<ellipse transform="matrix(0.1383 -0.9904 0.9904 0.1383 -2.4081 27.8288)" class="st6" cx="14.8" cy="15.3" rx="0.9" ry="1.6"/>
<path class="st7" d="M38.5,0c-2.7,0-4.9,2.2-4.9,4.9s2.2,4.9,4.9,4.9c2.7,0,4.9-2.2,4.9-4.9c0,0,0,0,0,0C43.3,2.2,41.2,0,38.5,0z
	 M38.5,9.3c-2.4,0-4.3-1.9-4.3-4.3s1.9-4.3,4.3-4.3s4.3,1.9,4.3,4.3c0,0,0,0,0,0C42.8,7.3,40.9,9.3,38.5,9.3z"/>
<circle class="st8" cx="38.5" cy="4.9" r="4.3"/>
<path class="st9" d="M38.4,4.6L38.5,1c0-0.1-0.1-0.1-0.1-0.1c-1.1,0-2.2,0.6-2.8,1.5c0,0.1,0,0.1,0,0.2l2.6,2.1c0,0.1,0.1,0.1,0.2,0
	C38.4,4.7,38.4,4.6,38.4,4.6z"/>
<path class="st9" d="M38.8,4.9L42,3.1c0-0.1,0-0.1,0-0.2c-0.6-1-1.6-1.7-2.8-1.9c-0.2,0-0.3,0.1-0.3,0.2c0,0,0,0,0,0
	c0,0.8-0.1,2.7-0.2,3.4C38.6,4.8,38.7,4.9,38.8,4.9C38.8,4.9,38.8,4.9,38.8,4.9z"/>
<path class="st9" d="M38.8,5.2l3,1.9c0.1,0,0.1,0,0.2,0c0.5-1,0.7-2.3,0.3-3.4c0-0.1-0.2-0.2-0.3-0.2c-0.7,0.3-2.4,1.2-3.1,1.5
	C38.8,4.9,38.8,5,38.8,5.2C38.8,5.1,38.8,5.2,38.8,5.2z"/>
<path class="st9" d="M38.3,5.3L35,6.8c-0.1,0-0.1,0.1,0,0.2c0,0,0,0,0,0c0.6,1,1.5,1.8,2.7,2.1C37.8,9.1,38,9,38,8.9c0,0,0,0,0-0.1
	c0.1-0.8,0.3-2.7,0.5-3.4c0-0.1,0-0.2-0.1-0.2C38.3,5.2,38.3,5.2,38.3,5.3z"/>
<path class="st9" d="M38.5,5.4l-0.1,3.6c0,0.1,0.1,0.1,0.1,0.1c1.2-0.1,2.3-0.6,3.1-1.4c0.1-0.1,0.1-0.3,0-0.4c0,0,0,0,0,0
	c-0.7-0.4-2.3-1.5-2.8-1.9C38.7,5.2,38.6,5.2,38.5,5.4C38.6,5.3,38.5,5.3,38.5,5.4z"/>
<path class="st9" d="M38.2,5.1l-3.3,1.3c-0.1,0-0.1,0-0.2-0.1c0,0,0,0,0,0C34.3,5.2,34.4,4,35,2.9c0.1-0.1,0.2-0.2,0.4-0.1
	c0,0,0,0,0.1,0c0.6,0.5,2.2,1.6,2.8,2C38.3,4.9,38.3,5,38.2,5.1C38.2,5.1,38.2,5.1,38.2,5.1z"/>
<path class="st7" d="M37.3,3.8c-2.7,0-4.9,2.2-4.9,4.9s2.2,4.9,4.9,4.9s4.9-2.2,4.9-4.9c0,0,0,0,0,0C42.2,6,40,3.8,37.3,3.8z
	 M37.3,13.1c-2.4,0-4.3-1.9-4.3-4.3s1.9-4.3,4.3-4.3s4.3,1.9,4.3,4.3c0,0,0,0,0,0C41.6,11.1,39.7,13.1,37.3,13.1
	C37.3,13.1,37.3,13.1,37.3,13.1z"/>
<circle class="st8" cx="37.3" cy="8.8" r="4.3"/>
<path class="st9" d="M37.2,8.4l0.1-3.6c0-0.1-0.1-0.1-0.1-0.1c-1.1,0-2.2,0.6-2.8,1.5c-0.1,0.1-0.1,0.1,0,0.2L37,8.5
	c0.1,0.1,0.1,0.1,0.2,0C37.2,8.5,37.2,8.5,37.2,8.4z"/>
<path class="st9" d="M37.7,8.7L40.8,7c0.1,0,0.1-0.1,0.1-0.2c-0.6-1-1.7-1.7-2.8-2c-0.2,0-0.3,0.1-0.3,0.2c0,0,0,0,0,0
	c0,0.8-0.1,2.7-0.2,3.4c0,0.1,0,0.2,0.1,0.2C37.6,8.7,37.6,8.7,37.7,8.7z"/>
<path class="st9" d="M37.7,9l3,1.9c0.1,0,0.2,0,0.2-0.1c0.5-1,0.7-2.3,0.3-3.4c-0.1-0.2-0.2-0.2-0.4-0.2c0,0,0,0,0,0
	c-0.7,0.3-2.4,1.2-3.1,1.5C37.6,8.8,37.5,8.9,37.7,9C37.6,9,37.6,9,37.7,9z"/>
<path class="st9" d="M37.1,9.1l-3.2,1.5c-0.1,0-0.1,0.1-0.1,0.2c0,0,0,0,0,0c0.6,1,1.5,1.8,2.7,2.1c0.1,0,0.3,0,0.3-0.2
	c0,0,0,0,0-0.1c0.1-0.8,0.3-2.7,0.5-3.4c0-0.1,0-0.2-0.1-0.2C37.1,9.1,37.1,9.1,37.1,9.1z"/>
<path class="st9" d="M37.4,9.2l-0.1,3.6c0,0.1,0.1,0.1,0.1,0.1c1.2-0.1,2.3-0.6,3.1-1.5c0.1-0.1,0.1-0.3,0-0.4c0,0,0,0,0,0
	c-0.7-0.4-2.3-1.5-2.8-1.9C37.5,9.1,37.4,9.1,37.4,9.2C37.4,9.1,37.4,9.2,37.4,9.2z"/>
<path class="st9" d="M37,8.9l-3.3,1.3c-0.1,0-0.2,0-0.2-0.1c-0.4-1.1-0.2-2.4,0.3-3.4c0.1-0.1,0.3-0.2,0.4-0.1c0,0,0,0,0,0
	c0.6,0.5,2.2,1.7,2.8,2C37.1,8.7,37.1,8.8,37,8.9C37.1,8.9,37,8.9,37,8.9z"/>
<path class="st7" d="M32.6,6.3c-2.7,0-4.9,2.2-4.9,4.9s2.2,4.9,4.9,4.9s4.9-2.2,4.9-4.9v0C37.5,8.5,35.3,6.3,32.6,6.3z M32.6,15.5
	c-2.4,0-4.3-1.9-4.3-4.3s1.9-4.3,4.3-4.3s4.3,1.9,4.3,4.3c0,0,0,0,0,0C36.9,13.6,35,15.5,32.6,15.5z"/>
<circle class="st8" cx="32.6" cy="11.2" r="4.3"/>
<path class="st9" d="M32.5,10.9l0.1-3.6c0-0.1-0.1-0.1-0.1-0.1c-1.1,0-2.2,0.6-2.8,1.5c0,0.1,0,0.1,0,0.2l2.6,2.2
	c0.1,0.1,0.1,0,0.2,0C32.5,11,32.5,10.9,32.5,10.9z"/>
<path class="st9" d="M32.9,11.1l3.1-1.7c0.1,0,0.1-0.1,0.1-0.2c0,0,0,0,0,0c-0.6-1-1.7-1.7-2.8-1.9c-0.2,0-0.3,0.1-0.3,0.2
	c0,0,0,0,0,0.1c0,0.8-0.1,2.7-0.2,3.4C32.7,11.1,32.8,11.1,32.9,11.1C32.9,11.2,32.9,11.2,32.9,11.1z"/>
<path class="st9" d="M32.9,11.5l3,1.9c0.1,0,0.1,0,0.2,0c0.5-1,0.7-2.3,0.3-3.4c-0.1-0.2-0.2-0.2-0.4-0.2c0,0,0,0,0,0
	c-0.7,0.4-2.4,1.2-3.1,1.5C32.9,11.3,32.9,11.4,32.9,11.5C32.9,11.5,32.9,11.5,32.9,11.5z"/>
<path class="st9" d="M32.4,11.5l-3.2,1.5c-0.1,0-0.1,0.1-0.1,0.2c0,0,0,0,0,0c0.6,1,1.5,1.8,2.7,2.1c0.2,0,0.3-0.1,0.4-0.2
	c0,0,0,0,0,0c0.1-0.8,0.3-2.7,0.5-3.4c0-0.1,0-0.2-0.1-0.2C32.4,11.5,32.4,11.5,32.4,11.5z"/>
<path class="st9" d="M32.7,11.7l-0.1,3.6c0,0.1,0.1,0.1,0.1,0.1c1.2-0.1,2.3-0.6,3.1-1.5c0.1-0.1,0.1-0.3,0-0.4c0,0,0,0,0,0
	c-0.7-0.4-2.3-1.5-2.8-1.9C32.8,11.5,32.7,11.5,32.7,11.7C32.7,11.6,32.6,11.6,32.7,11.7z"/>
<path class="st9" d="M32.3,11.4L29,12.7c-0.1,0-0.2,0-0.2-0.1c-0.4-1.1-0.2-2.4,0.3-3.4c0.1-0.1,0.3-0.2,0.4-0.1c0,0,0,0,0,0
	c0.6,0.5,2.2,1.6,2.8,2c0.1,0,0.1,0.1,0.1,0.2C32.4,11.4,32.3,11.4,32.3,11.4z"/>
<path class="st10" d="M8.9,3.3c3-0.9,6-1.4,9.1-1.5c4.4,0,6.5,0,7.2-0.2s6.8,0,5.5,1.4s-4.2,0.4-2.8,1.7s-1.3,3.4-3.4,2.5
	C23,6.3,21,6.5,19.6,7.7c-1.4,1.2-7-0.1-4.6-1.3s0.3-0.6-1.7-0.2S5.4,4.3,8.5,3.4S8.9,3.3,8.9,3.3z"/>
<path class="st11" d="M21.6,2.2c0,0,3.5,0.1,4-0.3s3.3,0.2,3.3,0.2C28,2,27.1,2,26.2,2.1C25.8,2.4,21.9,2.5,21.6,2.2z"/>
<path class="st11" d="M9.2,3.7c0,0-1.2,0.7,2.4,2.1c0,0-4.3-1.5-3.2-1.9L9.2,3.7z"/>
<path class="st11" d="M16.1,6.4c0,0-3.4,1.1,1.5,1.3C17.5,7.7,13.8,7.4,16.1,6.4z"/>
<path class="st11" d="M15.1,5.6c0,0,1-0.3,1.2,0c0,0-0.2-0.4-1.6,0S15.1,5.6,15.1,5.6z"/>
<path class="st11" d="M22.6,6.5c0.5,0,1,0.1,1.4,0.3c0.8,0.4,1.8,0.5,2.7,0.2c-0.7,0-1.4-0.1-2-0.3C24,6.5,23.3,6.4,22.6,6.5z"/>
<path class="st11" d="M27.5,4.4c0,0-0.4-0.5,0.8-0.7c0.5-0.1,1.1-0.1,1.6-0.3c0,0-2.1,0.3-2.3,0.3S27.1,3.8,27.5,4.4z"/>
</svg>
