<svg xmlns="http://www.w3.org/2000/svg" viewBox="0 0 56.59 99.62"><defs><style>.cls-1{fill:#f8f09a;}.cls-1,.cls-10,.cls-2,.cls-4,.cls-5,.cls-6,.cls-7,.cls-8{fill-rule:evenodd;}.cls-2{fill:#facfbd;}.cls-3,.cls-5{fill:#b92727;}.cls-4,.cls-9{fill:#fff;}.cls-6{fill:#eabbab;}.cls-7{fill:#2c1f1d;}.cls-8{fill:#171f2d;}.cls-10{fill:#fd0;}</style></defs><title>handball</title><g id="Layer_2" data-name="Layer 2"><g id="Figur"><path class="cls-1" d="M52.38,15.15C52.05-.55,38.91-.06,37.64,0,36.37-.06,23.23-.55,22.9,15.15c-.35,16.5,0,29.44,0,29.44H52.42S52.73,31.65,52.38,15.15Z"/><path class="cls-2" d="M43.58,40.47l6.93,12.21A3.27,3.27,0,0,0,55,53.91h0a3.28,3.28,0,0,0,1.22-4.44L49.24,37.25C47.22,33.7,41.67,37.1,43.58,40.47Z"/><path class="cls-2" d="M46.09,60.76l.41-1,5.9,2.39-.4,1C50.2,67.48,44,65.78,46.09,60.76Z"/><path class="cls-2" d="M46.5,59.77l3.77-9.44a3.25,3.25,0,0,1,4.25-1.76h0a3.28,3.28,0,0,1,1.76,4.26L52.4,62.16Z"/><path class="cls-2" d="M31.77,40,24.84,52.24a3.26,3.26,0,0,1-4.43,1.22h0A3.26,3.26,0,0,1,19.18,49l6.94-12.22C28.13,33.26,33.68,36.66,31.77,40Z"/><path class="cls-2" d="M12.15,44.75l.74.77,4.61-4.41-.74-.76C13.49,37,8.36,40.86,12.15,44.75Z"/><path class="cls-2" d="M12.89,45.52l7,7.38a3.25,3.25,0,0,0,4.6.06h0a3.26,3.26,0,0,0,.07-4.6l-7-7.25Z"/><rect class="cls-3" x="28.86" y="34.84" width="17.48" height="27.56"/><path class="cls-4" d="M32.75,34.84h9.72v.61a4.87,4.87,0,0,1-4.86,4.86h0a4.87,4.87,0,0,1-4.86-4.86Z"/><path class="cls-5" d="M43.11,39.56l3.44,6.07,5.72-3.42L48.9,36.27C46.88,32.72,41.2,36.2,43.11,39.56Z"/><path class="cls-5" d="M32,39.56l-3.56,6.27-5.72-3.42,3.48-6.14C28.23,32.72,33.92,36.2,32,39.56Z"/><path class="cls-2" d="M37.5,21.5h0a4,4,0,0,1,3.94,3.95V34.5a4,4,0,0,1-3.94,3.94h0a4,4,0,0,1-4-3.94v-9A4,4,0,0,1,37.5,21.5Z"/><path class="cls-6" d="M41.44,31.55h0c0,3.39-7.89,3.39-7.89,0h0C33.55,28.16,41.44,28.16,41.44,31.55Z"/><path class="cls-2" d="M37.5,0c-22.25,0-16.89,32.29,0,32.29S59.74,0,37.5,0Z"/><path class="cls-7" d="M42.11,18.14c.59,0,1.07-.89,1.07-2s-.48-2-1.07-2-1.07.88-1.07,2S41.52,18.14,42.11,18.14Z"/><path class="cls-7" d="M32.88,18.14c.59,0,1.07-.89,1.07-2s-.48-2-1.07-2-1.07.88-1.07,2S32.29,18.14,32.88,18.14Z"/><path class="cls-6" d="M39.66,21.15a2.28,2.28,0,0,1-4.33,0A3.09,3.09,0,0,0,39.66,21.15Z"/><path class="cls-7" d="M34.3,10.92c-1-.73-2.75-.22-3.61.74-.44.49-.06.52.23.25a2.77,2.77,0,0,1,3.17-.44C34.63,11.73,34.87,11.33,34.3,10.92Z"/><path class="cls-7" d="M40.74,10.92c1-.73,2.75-.22,3.62.74.43.49.06.52-.24.25A2.77,2.77,0,0,0,41,11.47C40.41,11.73,40.17,11.33,40.74,10.92Z"/><path class="cls-8" d="M44.47,92.27c1.55,2.31,3.67,3.29,4.19,5,.9,2.9-2.5,2.58-4.22,2-1.53-.5-2.33-1.43-3.25-1.7-2.47-.71-2.53-2.17-1.54-5.64S43.22,90.1,44.47,92.27Z"/><path class="cls-4" d="M48.43,96.69a2.78,2.78,0,0,1,.22.54c.84,2.7-2,2.57-3.75,2.15s-2.71-1.54-3.71-1.83c-1.33-.38-2-1-2.11-2a20.14,20.14,0,0,0,5.79,2.73A5,5,0,0,1,48.43,96.69Z"/><path class="cls-9" d="M47.46,95.55a.2.2,0,0,0,.29,0,.2.2,0,0,0,0-.28,2.15,2.15,0,0,0-.71-.31h0a.18.18,0,0,0,.16,0l.05,0a.21.21,0,0,0,0-.29,3.25,3.25,0,0,0-1-.42h.1a.21.21,0,0,0,.22-.19.2.2,0,0,0-.18-.22,2.13,2.13,0,0,0-1.2.21h0a3.43,3.43,0,0,0-1.89.3.2.2,0,0,0-.08.28.21.21,0,0,0,.28.08,2.58,2.58,0,0,1,1.19-.26,4,4,0,0,0-.64.86.2.2,0,0,0,0,.26.2.2,0,0,0,.28.08,2.94,2.94,0,0,1,1.09-.31,5,5,0,0,0-.6.85.22.22,0,0,0,.07.29.22.22,0,0,0,.29-.08,3.33,3.33,0,0,1,.72-.94l.18-.15a3.28,3.28,0,0,1,1.57.38Zm-1.2-1a2.55,2.55,0,0,0-.48.2,4.81,4.81,0,0,0-1.2.14,2.43,2.43,0,0,1,.38-.41,1.13,1.13,0,0,1,.21-.15A5.38,5.38,0,0,1,46.26,94.56Z"/><path class="cls-8" d="M31.05,92.14c-1.55,2.32-3.67,3.29-4.19,5-.9,2.91,2.5,2.59,4.22,2,1.53-.49,2.33-1.42,3.25-1.69,2.47-.71,2.53-2.17,1.54-5.64S32.3,90,31.05,92.14Z"/><path class="cls-4" d="M27.09,96.57a2.7,2.7,0,0,0-.22.53c-.84,2.71,2,2.58,3.75,2.16s2.71-1.54,3.71-1.83c1.33-.38,2-1,2.11-2a20.14,20.14,0,0,1-5.79,2.74A5,5,0,0,0,27.09,96.57Z"/><path class="cls-9" d="M28.06,95.43a3.17,3.17,0,0,1,1.57-.38,1.3,1.3,0,0,1,.18.15,3.19,3.19,0,0,1,.72.94.21.21,0,0,0,.29.07.21.21,0,0,0,.07-.28,4.61,4.61,0,0,0-.6-.85,2.94,2.94,0,0,1,1.09.31.21.21,0,0,0,.23-.34,4,4,0,0,0-.64-.86,2.58,2.58,0,0,1,1.19.25.2.2,0,0,0,.28-.08.2.2,0,0,0-.08-.28,3.52,3.52,0,0,0-1.89-.29h0a2.12,2.12,0,0,0-1.2-.22.21.21,0,0,0-.18.23.2.2,0,0,0,.22.18h.1a3.25,3.25,0,0,0-1,.42.21.21,0,0,0,0,.29.12.12,0,0,0,.05,0,.18.18,0,0,0,.16.05h0a2.4,2.4,0,0,0-.71.3.21.21,0,1,0,.24.34Zm2.29-1.21a.8.8,0,0,1,.21.15,2.1,2.1,0,0,1,.38.41,4.38,4.38,0,0,0-1.2-.14,2,2,0,0,0-.48-.2A5.38,5.38,0,0,1,30.35,94.22Z"/><path class="cls-2" d="M45.92,70.2,44.76,92.83c-.95-.85-1.91-.36-2.93.81a1.82,1.82,0,0,1-2.78-.76l0-22.35C39.09,69.54,45.92,70.2,45.92,70.2Z"/><path class="cls-2" d="M29.35,70.2l1.17,22.63c.94-.85,1.9-.36,2.92.81a1.81,1.81,0,0,0,2.78-.76l0-22.35C36.18,69.54,29.35,70.2,29.35,70.2Z"/><path class="cls-6" d="M43.07,24.31c-2.6,1.77-8.17,1.83-11.15,0A22.75,22.75,0,0,0,43.07,24.31Z"/><path class="cls-6" d="M40.09,26.09c-1,1.31-4.16,1.29-5.18,0A7.56,7.56,0,0,0,40.09,26.09Z"/><path class="cls-4" d="M28.86,62.41H46.35L46.46,74h-8s.1-6.44-1.12-6.41c-.93,0-.92,6.41-.92,6.41H28.86Z"/><path class="cls-1" d="M37.5,0S30.91,12.36,22.77,15.15C22.77,15.15,21.76.07,37.5,0Z"/><path class="cls-1" d="M37.61,0s6.58,12.33,14.73,15.12C52.34,15.15,53.34.07,37.61,0Z"/><circle class="cls-9" cx="9.52" cy="32.83" r="9.52"/><path class="cls-10" d="M2,38.64l1.29.17,2.24.31.41,2.22.06.33A9.53,9.53,0,0,1,2,38.64Z"/><path class="cls-10" d="M16.9,38.85l-2,.27-.32,1.76A9.8,9.8,0,0,0,16.9,38.85Z"/><path class="cls-10" d="M17.38,27.46l-1.47,1.05-1.82-1.34-1.82-1.34.64-1.9A9.56,9.56,0,0,1,17.38,27.46Z"/><path class="cls-5" d="M2,38.67l1.29.18,2.24.3.41,2.22L6,41.7A9.53,9.53,0,0,1,2,38.67Z"/><path class="cls-5" d="M16.9,38.88l-2,.27-.32,1.76A9.8,9.8,0,0,0,16.9,38.88Z"/><path class="cls-5" d="M2.25,26.67l2-.26.33-1.76A9.37,9.37,0,0,0,2.25,26.67Z"/><path class="cls-5" d="M17.38,27.49l-1.47,1.05L14.09,27.2l-1.82-1.34.64-1.9A9.56,9.56,0,0,1,17.38,27.49Z"/><polygon class="cls-5" points="9.34 29.67 11.16 31 12.99 32.32 12.29 34.47 11.6 36.62 9.34 36.62 7.08 36.62 6.38 34.47 5.68 32.32 7.51 31 9.34 29.67"/></g></g></svg>