<svg xmlns="http://www.w3.org/2000/svg" viewBox="0 0 53.43 52.42"><defs><style>.cls-1{fill:#52453d;}.cls-2{fill:#564538;}.cls-3{fill:#030102;}.cls-4{fill:#a76d4b;}.cls-5{fill:#22090c;}.cls-6{fill:#040202;}.cls-7{fill:#100a16;}.cls-8{fill:#020101;}.cls-9{fill:#010202;}.cls-10{fill:#33343d;}.cls-11{fill:#100408;}.cls-12{fill:#0a0609;}.cls-13{fill:#300d14;}.cls-14{fill:#e7dcda;}.cls-15{fill:#050404;}.cls-16{fill:#070f14;}.cls-17{fill:#e8dcd7;}.cls-18{fill:#f7f2f1;}.cls-19{fill:#fdfaf7;}.cls-20{fill:#010102;}.cls-21{fill:#f0f2ef;}</style></defs><title>hjort</title><g id="Layer_2" data-name="Layer 2"><g id="hjort"><polygon class="cls-1" points="11.68 12.18 12.27 10.39 12.18 13.15 11.68 12.18"/><polygon class="cls-1" points="13.1 11.17 12.18 13.15 12.25 11.13 13.1 11.17"/><polygon class="cls-1" points="13.51 10.39 13.1 11.17 12.25 11.13 13.51 10.39"/><polygon class="cls-1" points="12.32 8.28 12.52 10.09 12.27 10.39 12.27 9.73 11.82 8.6 12.32 8.28"/><polygon class="cls-1" points="13.55 9.33 13.51 10.39 12.52 10.09 13.55 9.33"/><polygon class="cls-1" points="12.32 8.28 13.55 9.33 12.52 10.09 12.32 8.28"/><polygon class="cls-1" points="12.25 11.13 13.51 10.39 12.52 10.09 12.27 10.39 12.25 11.13"/><polygon class="cls-1" points="13.66 6.83 13.55 9.33 12.32 8.28 13.66 6.83"/><polygon class="cls-1" points="13.88 3.95 13.66 6.83 13.16 7.37 13.88 3.95"/><polygon class="cls-1" points="12.21 0.41 12.68 0 13.3 0.41 12.21 0.41"/><polygon class="cls-1" points="13.66 1.68 12.21 0.41 13.3 0.41 13.66 1.68"/><polygon class="cls-1" points="13.88 3.95 13.82 2.65 12.8 3.23 13.88 3.95"/><polygon class="cls-1" points="13.66 1.68 13.82 2.65 12.8 3.23 12.64 1.99 13.66 1.68"/><polygon class="cls-1" points="12.21 0.41 12.64 1.99 13.66 1.68 12.21 0.41"/><polygon class="cls-1" points="12.8 3.23 12.74 4.67 13.38 3.62 12.8 3.23"/><polygon class="cls-1" points="13.16 7.37 12.74 4.67 13.39 6.31 13.16 7.37"/><polygon class="cls-1" points="12.4 6.83 12.74 4.67 13.16 7.37 12.4 6.83"/><polygon class="cls-1" points="12.32 8.28 12.4 6.83 13.16 7.37 12.32 8.28"/><polygon class="cls-1" points="6.33 4.76 7.05 4.18 7.21 6.33 6.33 4.76"/><polygon class="cls-1" points="7.87 5.06 7.05 4.18 7.14 5.25 7.87 5.06"/><polygon class="cls-1" points="12.4 6.83 11.28 6.66 12.32 8.28 12.4 6.83"/><polygon class="cls-1" points="10.02 7.56 11.28 6.66 11.28 8.24 10.02 7.56"/><polygon class="cls-1" points="12.32 8.28 11.28 6.66 11.28 8.24 11.82 8.6 12.32 8.28"/><polygon class="cls-1" points="7.14 5.25 8.8 6.29 7.21 6.33 7.14 5.25"/><polygon class="cls-1" points="9.54 5.98 7.87 5.06 7.14 5.25 8.8 6.29 9.54 5.98"/><polygon class="cls-1" points="10.02 7.56 9.54 5.98 11.28 6.66 10.02 7.56"/><polygon class="cls-1" points="8.8 6.29 10.02 7.56 9.54 5.98 8.8 6.29"/><polygon class="cls-1" points="7.21 6.33 10.02 7.56 8.8 6.29 7.21 6.33"/><polygon class="cls-2" points="11.31 11.8 11.92 10.94 11.97 11.29 11.68 12.18 11.31 11.8"/><polygon class="cls-1" points="11.31 10.94 11.31 11.8 11.92 10.94 11.31 10.94"/><polygon class="cls-1" points="11.31 10.39 11.54 10.12 11.92 10.94 11.31 10.94 11.31 10.39"/><polygon class="cls-1" points="12.74 4.67 13.38 3.62 13.88 3.95 13.39 6.31 12.74 4.67"/><polygon class="cls-1" points="8.57 13.55 7.55 11.48 7.82 13.2 8.57 13.55"/><polygon class="cls-1" points="7.14 11.66 7.29 11.37 7.55 11.48 7.14 11.66"/><polygon class="cls-1" points="7.43 12.97 7.14 11.66 7.55 11.48 7.82 13.2 7.43 12.97"/><polygon class="cls-1" points="4.64 3.9 5.55 2.92 6.13 4.67 4.64 3.9"/><polygon class="cls-1" points="6.28 3.4 6.13 4.67 5.55 2.92 6.28 3.4"/><polygon class="cls-1" points="4.64 3.9 4.35 5.79 6.13 4.67 4.64 3.9"/><polygon class="cls-1" points="5.87 6.6 6.13 4.67 4.35 5.79 5.87 6.6"/><polygon class="cls-1" points="4.27 7.37 5.87 6.6 4.35 5.79 4.27 7.37"/><polygon class="cls-1" points="4.19 10.78 5.07 9.82 5.87 11.24 4.19 10.78"/><polygon class="cls-1" points="5.03 7 5.8 8.81 5.87 6.6 5.03 7"/><polygon class="cls-1" points="4.27 7.37 4.27 9.18 5.4 7.86 5.03 7 4.27 7.37"/><polygon class="cls-1" points="5.8 8.81 4.27 9.18 5.4 7.86 5.8 8.81"/><polygon class="cls-1" points="5.8 8.81 5.8 11.12 5.07 9.82 4.27 9.18 5.8 8.81"/><polygon class="cls-1" points="0.73 7.94 0.81 9 0 8.09 0.41 7.66 0.73 7.94"/><polygon class="cls-1" points="0 9.51 0 8.09 0.81 9 0 9.51"/><polygon class="cls-1" points="0.52 11.12 0 9.51 1.52 11.12 0.52 11.12"/><polygon class="cls-1" points="0.81 9 1.12 9.68 0.41 9.94 0 9.51 0.81 9"/><polygon class="cls-1" points="2.82 10.78 1.12 9.68 0.41 9.94 1.52 11.12 2.82 10.78"/><polygon class="cls-1" points="4.19 12.27 2.82 10.78 1.52 11.12 4.19 12.27"/><polygon class="cls-1" points="0.52 11.12 1.93 11.94 1.52 11.12 0.52 11.12"/><polygon class="cls-1" points="4.19 10.78 4.19 12.27 2.82 10.78 3.91 11.07 4.19 10.78"/><polygon class="cls-1" points="5.87 11.24 6.13 13.16 4.19 12.27 4.19 10.78 5.87 11.24"/><polygon class="cls-1" points="1.93 11.94 4.19 12.27 1.52 11.12 1.93 11.94"/><polygon class="cls-1" points="5.11 13.42 1.93 11.94 4.19 12.27 5.11 13.42"/><polygon class="cls-1" points="7.43 12.97 6.13 13.16 5.87 11.24 7.43 12.97"/><polygon class="cls-1" points="5.11 13.42 6.13 13.16 4.19 12.27 5.11 13.42"/><polygon class="cls-1" points="8.57 13.55 9.38 14.64 9.1 15.74 8.57 13.55"/><polygon class="cls-1" points="6.13 13.16 7.43 12.97 7.82 13.2 7.55 14.04 6.13 13.16"/><polygon class="cls-1" points="9.1 15.74 7.55 14.04 7.82 13.2 8.57 13.55 9.1 15.74"/><polygon class="cls-1" points="7.35 14.69 5.11 13.42 6.13 13.16 7.55 14.04 7.35 14.69"/><polygon class="cls-1" points="9.1 15.74 8.06 16.51 8.44 15.02 9.1 15.74"/><polygon class="cls-1" points="7.82 15.19 8.06 16.51 7.55 16.01 7.82 15.19"/><polygon class="cls-1" points="7.35 14.69 7.82 15.19 8.06 16.51 8.44 15.02 7.55 14.04 7.35 14.69"/><polygon class="cls-3" points="9.58 14.65 10.08 12.97 10.24 14.69 9.58 14.65"/><polygon class="cls-3" points="10.89 11.8 10.08 12.97 10.17 13.93 11.31 12.09 10.89 11.8"/><polygon class="cls-4" points="11.25 16.25 12.32 15.19 11.62 15.44 10.7 15.76 11.25 16.25"/><polygon class="cls-4" points="12.18 13.15 11.62 15.44 12.32 15.19 12.52 14.36 12.18 13.15"/><polygon class="cls-1" points="11.31 12.09 11.31 11.8 11.68 12.18 12.18 13.15 12.01 13.83 11.31 12.09"/><polygon class="cls-3" points="10.7 13.08 11.74 13.15 11.31 12.09 10.7 13.08"/><polygon class="cls-3" points="10.24 14.69 12.01 13.83 11.74 13.15 10.7 13.08 10.17 13.93 10.24 14.69"/><polygon class="cls-5" points="11.62 15.44 10.24 14.69 12.01 13.83 11.62 15.44"/><polygon class="cls-1" points="9.58 14.65 10.7 15.76 9.05 15.78 9.38 14.64 9.58 14.65"/><polygon class="cls-4" points="11.62 15.44 10.7 15.76 9.58 14.65 10.24 14.69 11.62 15.44"/><polygon class="cls-4" points="13.19 16 13.19 15.09 12.32 15.19 13.19 16"/><polygon class="cls-6" points="12.18 13.15 13.1 11.8 12.52 14.36 12.18 13.15"/><polygon class="cls-4" points="13.19 15.09 13.51 14.65 12.52 14.36 12.32 15.19 13.19 15.09"/><polygon class="cls-7" points="13.1 11.8 14.1 10.47 13.96 12.86 13.1 11.8"/><polygon class="cls-8" points="12.52 14.36 13.96 12.86 13.1 11.8 12.52 14.36"/><polygon class="cls-3" points="13.92 14.29 13.96 12.86 12.52 14.36 13.51 14.65 13.92 14.29"/><polygon class="cls-4" points="9.05 15.78 8.8 16.75 8.06 16.51 9.1 15.74 9.05 15.78"/><polygon class="cls-1" points="7.55 16.01 7.65 16.66 8.06 16.51 7.55 16.01"/><polygon class="cls-1" points="8 17.67 7.65 16.66 6.84 17.27 7.55 17.31 8 17.67"/><polygon class="cls-1" points="7.25 17.99 7.55 17.31 6.84 17.27 6.56 17.67 6.65 18.09 7.25 17.99"/><polygon class="cls-1" points="8.16 18.33 7.25 17.99 7.55 17.31 8 17.67 8.16 18.33"/><polygon class="cls-4" points="8.8 16.75 8 17.67 7.65 16.66 8.06 16.51 8.8 16.75"/><polygon class="cls-4" points="6.65 18.09 6.39 18.89 6.28 18.68 5.48 19.03 6.56 17.67 6.65 18.09"/><polygon class="cls-4" points="6.01 19.69 6.39 18.89 6.28 18.68 5.48 19.03 5.68 19.58 6.01 19.69"/><polygon class="cls-4" points="4.21 20.85 4.53 20.6 4.53 20.06 4.21 20.42 4.21 20.85"/><polygon class="cls-4" points="5.48 19.03 4.53 20.06 5.68 19.58 5.48 19.03"/><polygon class="cls-9" points="4.21 20.85 4.29 21.4 4.69 21.65 5.25 21.29 4.73 21.25 4.73 20.85 4.53 20.6 4.21 20.85"/><polygon class="cls-4" points="4.53 20.06 4.53 20.6 4.73 20.85 5.68 19.58 4.53 20.06"/><polygon class="cls-4" points="6.01 19.69 5.68 19.58 4.73 20.85 6.01 19.69"/><polygon class="cls-4" points="5.25 21.29 5.43 20.21 4.73 20.85 4.73 21.25 5.25 21.29"/><polygon class="cls-3" points="6.65 18.09 6.8 18.35 7.25 17.99 6.65 18.09"/><polygon class="cls-10" points="7.71 18.16 7.42 18.49 6.88 18.29 7.25 17.99 7.71 18.16"/><polygon class="cls-11" points="7.94 18.25 7.61 18.66 7.42 18.49 7.71 18.16 7.94 18.25"/><polygon class="cls-12" points="6.8 18.35 6.99 18.66 7.61 18.66 7.42 18.49 6.88 18.29 6.8 18.35"/><polygon class="cls-4" points="6.39 18.89 6.65 18.09 6.99 18.66 6.39 18.89"/><polygon class="cls-4" points="9.05 15.78 10.6 16.7 10.34 17.05 8.8 16.75 9.05 15.78"/><polygon class="cls-4" points="11.25 16.25 10.6 16.7 9.05 15.78 10.7 15.76 11.25 16.25"/><polygon class="cls-4" points="8.16 18.33 8.58 18.09 10.34 17.05 8.8 16.75 8 17.67 8.16 18.33"/><polygon class="cls-4" points="10.74 17.82 8.58 18.09 10.34 17.05 10.74 17.82"/><polygon class="cls-4" points="9.75 20.01 10.39 19.19 10.24 18.68 10.98 18.09 10.74 17.82 8.58 18.09 9.75 20.01"/><polygon class="cls-4" points="7.61 18.66 7.94 18.25 8.16 18.33 8.58 18.09 8.86 18.55 7.61 18.66"/><polygon class="cls-4" points="6.99 18.66 7.42 19.15 7.61 18.66 6.99 18.66"/><polygon class="cls-4" points="6.39 18.89 6.99 18.66 7.42 19.15 6.39 18.89"/><polygon class="cls-4" points="6.01 19.69 7.42 19.15 6.39 18.89 6.01 19.69"/><polygon class="cls-4" points="5.25 21.29 6.47 20.46 5.43 20.21 5.25 21.29"/><polygon class="cls-4" points="6.01 19.69 6.47 20.46 5.43 20.21 6.01 19.69"/><polygon class="cls-4" points="11.25 16.25 11.56 16.82 11.4 17.63 10.98 18.09 10.74 17.82 10.34 17.05 10.6 16.7 11.25 16.25"/><polygon class="cls-4" points="13.19 16 11.25 16.25 12.32 15.19 13.19 16"/><polygon class="cls-4" points="13.1 16.75 13.19 16 11.25 16.25 11.56 16.82 13.1 16.75"/><polygon class="cls-4" points="14.96 19.36 13.1 16.75 12.76 17.83 14.96 19.36"/><polygon class="cls-4" points="11.56 16.82 12.76 17.83 13.1 16.75 11.56 16.82"/><polygon class="cls-4" points="10.98 18.09 12.76 17.83 11.56 16.82 11.4 17.63 10.98 18.09"/><polygon class="cls-4" points="10.82 20.6 10.98 18.09 10.24 18.68 10.39 19.19 10.82 20.6"/><polygon class="cls-4" points="7.42 19.15 7.61 18.66 8.86 18.55 9.75 20.01 7.42 19.15"/><polygon class="cls-4" points="6.47 20.46 7.42 19.15 6.01 19.69 6.47 20.46"/><polygon class="cls-4" points="9.75 20.01 6.47 20.46 7.42 19.15 9.75 20.01"/><polygon class="cls-4" points="10.39 19.19 10.82 20.6 9.75 20.01 10.39 19.19"/><polygon class="cls-4" points="6.47 20.46 6.47 21.29 5.25 21.29 6.47 20.46"/><polygon class="cls-4" points="4.69 21.65 6.47 21.29 5.25 21.29 4.69 21.65"/><polygon class="cls-13" points="6.28 21.95 5.25 21.54 5.96 21.39 6.28 21.95"/><polygon class="cls-4" points="6.47 21.29 6.8 21.88 6.28 21.95 5.96 21.39 6.47 21.29"/><polygon class="cls-4" points="9.75 20.01 6.47 21.29 6.47 20.46 9.75 20.01"/><polygon class="cls-14" points="9.34 21.29 9.75 20.01 6.47 21.29 6.8 21.88 9.34 21.29"/><polygon class="cls-4" points="10.82 20.6 9.34 21.29 9.75 20.01 10.82 20.6"/><polygon class="cls-4" points="10.34 22.36 10.82 20.6 9.34 21.29 10.34 22.36"/><polygon class="cls-4" points="12.76 17.83 10.82 20.6 10.98 18.09 12.76 17.83"/><polygon class="cls-4" points="14.92 19.32 14.32 19.68 12.76 17.83 14.92 19.32"/><polygon class="cls-4" points="10.82 20.6 11.62 24.11 10.34 22.36 10.82 20.6"/><polygon class="cls-4" points="12.76 17.83 13.1 20.94 14.17 19.29 12.76 17.83"/><polygon class="cls-4" points="10.82 20.6 12.76 17.83 13.1 20.94 10.82 20.6"/><polygon class="cls-4" points="13.27 23.17 13.1 20.94 10.82 20.6 11.34 22.9 13.27 23.17"/><polygon class="cls-4" points="11.34 22.9 11.62 24.11 12.5 25.72 13.27 23.17 11.34 22.9"/><polygon class="cls-4" points="15.74 20.07 16.87 21.39 14.72 21.34 15.74 20.07"/><polygon class="cls-4" points="17.05 22.68 16.87 21.39 14.72 21.34 17.05 22.68"/><polygon class="cls-4" points="16.38 24.52 17.05 22.68 14.72 21.34 16.38 24.52"/><polygon class="cls-4" points="13.27 23.17 16.38 24.52 14.72 21.34 13.27 23.17"/><polygon class="cls-4" points="14.72 25.67 13.27 23.17 12.5 25.72 14.72 25.67"/><polygon class="cls-4" points="16.38 24.52 14.72 25.67 13.27 23.17 16.38 24.52"/><polygon class="cls-4" points="14.82 28.69 14.72 25.67 12.5 25.72 14.82 28.69"/><polygon class="cls-4" points="17.76 29.52 18.94 26.01 17.83 27.5 17.76 29.52"/><polygon class="cls-4" points="16.38 24.52 16.87 28.18 17.76 29.52 17.83 27.5 16.38 24.52"/><polygon class="cls-4" points="18.26 25.11 17.22 26.26 17.83 27.5 18.65 26.4 18.26 25.11"/><polygon class="cls-4" points="17.05 22.68 18.26 25.11 17.22 26.26 16.38 24.52 17.05 22.68"/><polygon class="cls-4" points="18.94 21.88 17.05 22.68 16.87 21.39 18.94 21.88"/><polygon class="cls-4" points="18.65 26.4 19.71 23.38 18.26 25.11 18.65 26.4"/><polygon class="cls-4" points="17.05 22.68 18.94 21.88 19.71 23.38 18.26 25.11 17.05 22.68"/><polygon class="cls-4" points="22.4 21.66 19.71 23.38 18.94 21.88 22.4 21.66"/><polygon class="cls-4" points="14.72 25.67 16.38 24.52 16.87 28.18 14.72 25.67"/><polygon class="cls-4" points="14.82 28.69 16.08 29.95 17.76 29.52 16.87 28.18 14.72 25.67 14.82 28.69"/><polygon class="cls-4" points="14.17 19.29 13.1 20.94 13.27 23.17 14.72 21.34 14.17 19.29"/><polygon class="cls-4" points="14.9 19.29 15.91 20.53 14.72 21.36 14.17 19.31 14.9 19.29"/><polygon class="cls-4" points="17.76 29.52 17.94 32.58 16.08 29.95 17.76 29.52"/><polygon class="cls-4" points="10.7 15.76 11.62 15.44 12.32 15.19 11.25 16.25 10.7 15.76"/><polygon class="cls-1" points="4.27 9.18 4.19 10.78 5.07 9.82 4.27 9.18"/><polygon class="cls-4" points="22.4 21.66 24.85 21.66 21.68 23.57 19.71 23.38 22.4 21.66"/><polygon class="cls-4" points="18.65 26.4 18.94 26.01 21.68 23.57 19.71 23.38 18.65 26.4"/><polygon class="cls-4" points="17.76 29.52 18.94 26.01 19.24 29.75 17.76 29.52"/><polygon class="cls-4" points="21.68 23.57 19.24 29.75 18.94 26.01 21.68 23.57"/><polygon class="cls-4" points="17.94 32.58 19.24 29.75 17.76 29.52 17.94 32.58"/><polygon class="cls-15" points="7.45 43.22 7.78 43.87 8.46 43.87 7.96 44.29 6.38 43.87 7.45 43.22"/><polygon class="cls-15" points="26.86 48.36 27.36 49.3 28.42 49.3 27.64 49.9 25.23 49.3 26.86 48.36"/><polygon class="cls-15" points="30.99 49.67 31.49 50.62 32.55 50.62 31.77 51.21 29.36 50.62 30.99 49.67"/><polygon class="cls-15" points="51.53 50.88 52.03 51.82 53.08 51.59 52.31 52.42 49.89 51.82 51.53 50.88"/><polygon class="cls-14" points="8.35 42.19 7.45 43.22 7.78 43.87 8.35 42.19"/><polygon class="cls-14" points="8.46 43.87 8.35 42.19 7.78 43.87 8.46 43.87"/><polygon class="cls-16" points="9.41 43.36 8.46 43.87 8.78 42.95 9.41 43.36"/><polygon class="cls-14" points="9.27 41.4 8.78 42.95 8.46 43.87 8.35 42.19 9.27 41.4"/><polygon class="cls-14" points="10.67 41.95 9.41 43.36 8.78 42.95 10.67 41.95"/><polygon class="cls-14" points="9.27 41.4 10.67 41.95 8.78 42.95 9.27 41.4"/><polygon class="cls-14" points="12.08 38.37 9.72 41.57 9.27 41.4 12.08 38.37"/><polygon class="cls-14" points="10.67 41.95 10.96 39.89 9.72 41.57 10.67 41.95"/><polygon class="cls-14" points="12.2 39.97 10.67 41.95 10.96 39.89 12.2 39.97"/><polygon class="cls-14" points="14.13 37.95 12.2 39.97 10.96 39.89 12.08 38.37 14.13 37.95"/><polygon class="cls-14" points="14.23 35.65 14.13 37.95 12.08 38.37 12.7 37.01 14.23 35.65"/><polygon class="cls-14" points="16.08 34.39 14.23 35.65 14.17 36.92 16.08 34.39"/><polygon class="cls-17" points="17.94 32.58 16.08 34.39 18.77 33.49 17.94 32.58"/><polygon class="cls-14" points="14.13 37.95 15.66 37.33 15.08 35.72 14.17 36.92 14.13 37.95"/><polygon class="cls-14" points="16.08 34.39 16.5 35.65 15.48 36.84 15.08 35.72 16.08 34.39"/><polygon class="cls-14" points="18.77 33.49 16.5 35.65 16.08 34.39 18.77 33.49"/><polygon class="cls-14" points="21.18 35.15 19.24 34.19 18.77 33.49 18.94 36.16 19.89 35.48 21.18 35.15"/><polygon class="cls-14" points="16.5 35.65 18.77 33.49 18.94 36.16 16.5 35.65"/><polygon class="cls-14" points="15.66 37.33 18.94 36.16 16.5 35.65 15.48 36.84 15.66 37.33"/><polygon class="cls-14" points="28.6 49.9 28.16 48.36 27.35 48.47 27.63 49.49 28.6 49.9"/><polygon class="cls-4" points="26.84 49.13 26.52 47.36 27.35 48.47 27.63 49.49 26.84 49.13"/><polygon class="cls-14" points="28.16 48.36 27.35 45.63 27.35 48.47 28.16 48.36"/><polygon class="cls-14" points="26.52 45.33 27.35 48.47 27.35 45.63 26.52 45.33"/><polygon class="cls-4" points="26.06 45.84 26.52 45.33 27.35 48.47 26.52 47.36 26.06 45.84"/><polygon class="cls-14" points="26.29 43.3 26.52 45.33 27.35 45.63 26.94 43.86 26.29 43.3"/><polygon class="cls-14" points="26.71 39.97 26.94 43.86 26.29 43.3 26.71 39.97"/><polygon class="cls-4" points="26.06 45.84 25.58 43.74 26.29 43.3 26.52 45.33 26.06 45.84"/><polygon class="cls-4" points="24.77 41.78 25.07 43.05 25.58 43.74 26.29 43.3 24.77 41.78"/><polygon class="cls-4" points="26.71 39.97 24.77 41.78 26.29 43.3 26.71 39.97"/><polygon class="cls-14" points="25.85 35.25 25.53 35.72 25.85 37.47 26.29 37.01 25.91 36.06 25.85 35.25"/><polygon class="cls-14" points="26.71 39.97 26.29 37.01 25.85 37.47 26.05 40.58 26.71 39.97"/><polygon class="cls-4" points="24.77 41.78 26.05 40.58 25.85 37.47 24.77 41.78"/><polygon class="cls-4" points="21.18 35.15 22.48 36.16 24.1 35.02 21.18 35.15"/><polygon class="cls-4" points="25.53 35.72 24.1 35.02 22.48 36.16 23.38 37.86 25.53 35.72"/><polygon class="cls-4" points="25.85 37.47 25.53 35.72 23.38 37.86 25.85 37.47"/><polygon class="cls-4" points="24.1 39.62 25.85 37.47 23.38 37.86 24.1 39.62"/><polygon class="cls-4" points="24.77 41.78 24.1 39.62 25.85 37.47 24.77 41.78"/><polygon class="cls-4" points="25.85 35.25 24.1 35.02 25.53 35.72 25.85 35.25"/><polygon class="cls-4" points="20.79 25.81 21.68 31.33 19.24 29.75 20.79 25.81"/><polygon class="cls-4" points="17.94 32.58 19.24 29.75 21.68 31.33 17.94 32.58"/><polygon class="cls-4" points="18.77 33.49 21.68 31.33 17.94 32.58 18.77 33.49"/><polygon class="cls-4" points="21.18 35.15 21.68 31.33 18.77 33.49 19.24 34.19 21.18 35.15"/><polygon class="cls-4" points="24.1 35.02 21.68 31.33 21.18 35.15 24.1 35.02"/><polygon class="cls-4" points="21.68 23.57 23.68 24.89 27.38 22.38 24.85 21.66 21.68 23.57"/><polygon class="cls-4" points="20.79 25.81 21.12 27.81 23.68 24.89 21.68 23.57 20.79 25.81"/><polygon class="cls-4" points="21.68 31.33 23.68 24.89 21.12 27.81 21.68 31.33"/><polygon class="cls-4" points="25.73 23.49 28.21 24.67 27.38 22.38 25.73 23.49"/><polygon class="cls-4" points="23.68 24.89 28.21 24.67 25.73 23.49 23.68 24.89"/><polygon class="cls-4" points="23.3 26.11 24.65 28.11 22.4 29.02 23.3 26.11"/><polygon class="cls-4" points="23.68 24.89 28.21 24.67 24.65 28.11 23.3 26.11 23.68 24.89"/><polygon class="cls-4" points="21.68 31.33 24.65 28.11 22.4 29.02 21.68 31.33"/><polygon class="cls-4" points="25.85 35.25 21.68 31.33 24.1 35.02 25.85 35.25"/><polygon class="cls-4" points="30.58 50.22 30.94 49.69 31.66 48.77 30.67 50.84 30.58 50.22"/><polygon class="cls-4" points="32.24 51.05 30.67 50.84 31.66 48.77 32.24 51.05"/><polygon class="cls-4" points="33.68 48.98 32.24 51.05 31.66 48.77 33.68 48.98"/><polygon class="cls-4" points="33.5 46.9 33.68 48.98 31.66 48.77 33.5 46.9"/><polygon class="cls-4" points="34.35 45.63 33.5 46.9 33.68 48.98 34.35 45.63"/><polygon class="cls-4" points="35.68 46.72 33.68 48.98 34.35 45.63 35.68 46.72"/><polygon class="cls-4" points="38.35 44.07 35.68 46.72 34.35 45.63 38.35 44.07"/><polygon class="cls-4" points="35.21 43.74 34.35 45.63 37.16 44.53 35.21 43.74"/><polygon class="cls-4" points="37.97 42.41 37.16 44.53 38.35 44.07 37.97 42.41"/><polygon class="cls-4" points="35.21 43.74 37.97 42.41 37.16 44.53 35.21 43.74"/><polygon class="cls-4" points="37.16 40.07 37.97 42.41 36.48 43.13 37.16 40.07"/><polygon class="cls-4" points="34.26 40.58 35.21 42.63 35.21 43.74 36.48 43.13 34.26 40.58"/><polygon class="cls-4" points="37.16 40.07 34.26 40.58 36.48 43.13 37.16 40.07"/><polygon class="cls-4" points="32.11 35.37 34.26 40.58 35.21 40.42 32.11 35.37"/><polygon class="cls-4" points="36.69 38.55 37.16 40.07 35.21 40.42 36.69 38.55"/><polygon class="cls-4" points="37.36 36.44 36.69 38.55 35.03 37.49 37.36 36.44"/><polygon class="cls-4" points="35.21 40.42 36.69 38.55 35.03 37.49 33.94 38.35 35.21 40.42"/><polygon class="cls-4" points="32.11 35.37 35.03 37.49 33.94 38.35 32.11 35.37"/><polygon class="cls-4" points="37.36 36.44 35.03 37.49 32.11 35.37 37.36 36.44"/><polygon class="cls-4" points="21.68 31.33 23.77 29.07 23.98 33.49 21.68 31.33"/><polygon class="cls-4" points="24.65 28.11 25.85 35.25 23.98 33.49 23.77 29.07 24.65 28.11"/><polygon class="cls-4" points="28.21 24.67 31.32 22.73 27.38 22.38 28.21 24.67"/><polygon class="cls-4" points="24.65 28.11 26.21 29.55 26.97 25.87 24.65 28.11"/><polygon class="cls-4" points="28.21 24.67 28.21 27.56 26.62 27.56 26.97 25.87 28.21 24.67"/><polygon class="cls-4" points="34.28 23.27 28.21 24.67 31.32 22.73 34.28 23.27"/><polygon class="cls-4" points="36.58 23.57 34.28 23.27 34.37 26 36.58 23.57"/><polygon class="cls-4" points="28.21 24.67 34.37 26 34.28 23.27 28.21 24.67"/><polygon class="cls-4" points="28.21 27.56 31.24 25.32 28.21 24.67 28.21 27.56"/><polygon class="cls-4" points="26.21 29.55 25.38 32.41 24.65 28.11 26.21 29.55"/><polygon class="cls-4" points="28.21 27.56 28.31 31.16 26.21 29.55 26.62 27.56 28.21 27.56"/><polygon class="cls-4" points="31.24 25.32 30.89 29.07 28.21 27.56 31.24 25.32"/><polygon class="cls-4" points="28.31 31.16 30.78 32.89 30.89 29.07 28.21 27.56 28.31 31.16"/><polygon class="cls-4" points="25.38 32.41 26.21 29.55 28.31 31.16 27.92 34.6 25.38 32.41"/><polygon class="cls-4" points="25.85 35.25 28 35.15 27.92 34.6 25.38 32.41 25.85 35.25"/><polygon class="cls-4" points="28.31 31.16 27.92 34.6 30.13 34.6 30.78 32.89 28.31 31.16"/><polygon class="cls-4" points="28 35.15 32.11 35.37 30.13 34.6 27.92 34.6 28 35.15"/><polygon class="cls-4" points="34.37 26 30.89 29.07 31.24 25.32 34.37 26"/><polygon class="cls-4" points="33.68 30.79 34.37 26 30.89 29.07 33.68 30.79"/><polygon class="cls-4" points="30.78 32.89 33.68 30.79 30.89 29.07 30.78 32.89"/><polygon class="cls-4" points="32.11 35.37 30.78 32.89 30.13 34.6 32.11 35.37"/><polygon class="cls-4" points="33.68 30.79 32.11 35.37 30.78 32.89 33.68 30.79"/><polygon class="cls-4" points="34.62 35.88 33.68 30.79 32.11 35.37 34.62 35.88"/><polygon class="cls-4" points="41.91 28.11 41.41 30.98 38.45 27.34 41.91 28.11"/><polygon class="cls-4" points="41.74 25.59 41.91 28.11 44.42 28.23 41.74 25.59"/><polygon class="cls-4" points="38.94 23.79 41.74 25.59 41.91 28.11 38.94 23.79"/><polygon class="cls-4" points="36.58 23.57 38.94 23.79 38.45 27.34 36.58 23.57"/><polygon class="cls-4" points="41.91 28.11 38.94 23.79 38.45 27.34 41.91 28.11"/><polygon class="cls-4" points="34.37 26 38.45 27.34 36.58 23.57 34.37 26"/><polygon class="cls-4" points="33.68 30.79 35.52 29.46 38.45 27.34 34.37 26 33.68 30.79"/><polygon class="cls-4" points="40.8 30.23 35.32 29.55 38.45 27.34 40.8 30.23"/><polygon class="cls-4" points="33.68 30.79 37.23 31.33 35.52 29.46 33.68 30.79"/><polygon class="cls-4" points="34.62 35.88 37.23 31.33 33.68 30.79 34.62 35.88"/><polygon class="cls-4" points="37.36 36.44 39.87 34.6 34.62 35.88 37.36 36.44"/><polygon class="cls-4" points="37.23 31.33 39.87 34.6 34.62 35.88 37.23 31.33"/><polygon class="cls-4" points="40.8 30.23 37.23 31.33 35.52 29.46 40.8 30.23"/><polygon class="cls-4" points="39.87 34.6 40.8 30.23 37.23 31.33 39.87 34.6"/><polygon class="cls-14" points="42.43 32.8 39.87 34.6 40.8 30.23 41.41 30.98 42.43 32.8"/><polygon class="cls-18" points="41.91 28.11 42.91 29.16 42.91 31.68 42.43 32.8 41.41 30.98 41.91 28.11"/><polygon class="cls-19" points="44.42 28.23 45.35 31.33 42.91 29.16 41.91 28.11 44.42 28.23"/><polygon class="cls-20" points="42.43 32.8 44.16 34.98 43.92 32.72 43.44 32.74 42.43 32.8"/><polygon class="cls-20" points="42.91 31.68 43.92 32.72 42.43 32.8 42.91 31.68"/><polygon class="cls-21" points="43.71 29.87 43.92 32.72 42.91 31.68 42.91 29.16 43.71 29.87"/><polygon class="cls-14" points="39.87 34.6 44.16 34.98 42.43 32.8 39.87 34.6"/><polygon class="cls-14" points="42.01 37.29 44.16 34.98 39.87 34.6 42.01 37.29"/><polygon class="cls-20" points="45.35 31.33 44.11 35.27 43.71 29.87 45.35 31.33"/><polygon class="cls-14" points="46.7 37.59 45.35 31.33 44.22 34.93 46.7 37.59"/><polygon class="cls-14" points="42.01 37.29 44.16 34.98 44.6 39.48 42.01 37.29"/><polygon class="cls-14" points="46.7 37.59 44.6 39.48 44.07 34.75 46.7 37.59"/><polygon class="cls-14" points="48.06 41.53 44.6 39.48 45.35 38.81 48.06 41.53"/><polygon class="cls-14" points="48.43 43.36 48.06 41.53 44.6 39.48 48.43 43.36"/><polygon class="cls-14" points="46.7 37.59 48.23 40.07 48.06 41.53 45.35 38.81 46.7 37.59"/><polygon class="cls-14" points="50.4 41.53 48.23 40.07 47.17 38.35 50.25 40.58 50.4 41.53"/><polygon class="cls-14" points="48.06 41.53 48.23 40.07 50.4 41.53 48.06 41.53"/><polygon class="cls-14" points="48.56 42.03 48.56 41.53 49.41 41.53 49.52 42.03 48.56 42.03"/><polygon class="cls-14" points="48.43 43.36 49.52 42.03 48.56 42.03 48.56 41.53 48.06 41.53 48.43 43.36"/><polygon class="cls-14" points="50.4 41.53 50.83 44.24 49.1 42.55 49.52 42.03 49.41 41.53 50.4 41.53"/><polygon class="cls-14" points="48.43 43.36 49.23 44.7 50.83 44.24 49.1 42.55 48.43 43.36"/><polygon class="cls-14" points="50.12 46.67 49.23 44.7 50.83 44.24 50.12 46.67"/><polygon class="cls-14" points="52.22 48.42 50.83 44.24 50.12 46.67 52.22 48.42"/><polygon class="cls-14" points="51.64 51.26 52.22 48.42 50.12 46.67 51.64 51.26"/><polygon class="cls-14" points="53.43 51.26 52.22 48.42 51.64 51.26 53.43 51.26"/><polygon class="cls-14" points="52.62 52.08 53.43 51.26 51.64 51.26 51.85 52.04 52.62 52.08"/></g></g></svg>