<svg xmlns="http://www.w3.org/2000/svg" viewBox="0 0 39.4 11.62"><defs><style>.cls-1{fill:#ac8e4b;}.cls-2{fill:#fff;}.cls-3{fill:#bcbd7d;}.cls-4{fill:#860600;}.cls-5{fill:#598442;}.cls-6{fill:#b6a28c;}</style></defs><title>hotdog</title><g id="Layer_2" data-name="Layer 2"><g id="hotdog"><path class="cls-1" d="M19.92,3.32s.72-1.46-2.37-1.65S9.8,2.61,9.8,3.32,19.92,3.32,19.92,3.32Z"/><path class="cls-2" d="M30.39,2.93s-4-1.83-7.48-.25S30,3.29,30,3.29Z"/><path class="cls-3" d="M10.23,1.5A1.45,1.45,0,0,1,11.62.68a6.22,6.22,0,0,1,1.66.24l.79.58,1.11.06.08.2-1.93.57-2.24-.15S10.35,2.1,10.23,1.5Z"/><path class="cls-4" d="M.18,2.89s35.17.72,39.22.25a1,1,0,0,0-.95.58c-.21.58-.84,2.84-7.2,2.78s-28.5.27-28.5.27S-.82,5.47.18,2.89Z"/><path class="cls-3" d="M6,4.63s-1.15-.41.32-1.29A32.16,32.16,0,0,1,10.23,1.5s-.09.54.68.71a4,4,0,0,1,1,.32L10.83,4.11l0,0H7.51A2.12,2.12,0,0,0,6,4.63Z"/><polygon class="cls-3" points="10.8 4.13 11.03 4.04 11.92 2.52 10.8 4.13"/><path class="cls-5" d="M11.92,2.53a11,11,0,0,1-1.09,1.58c-.18.09.37,0,.37,0s1-1.46,1-1.56S11.92,2.53,11.92,2.53Z"/><path class="cls-6" d="M15.17,11.62h11s5.79,0,5.86-4.13-.4-4.66-5.66-4.59-18.91,0-18.91,0-2.2-.25-2.4,2.81S4.71,11.62,15.17,11.62Z"/><path class="cls-5" d="M10.23,1.5s-.15.59,1.79.72a3,3,0,0,0,2.16-.36c.48-.06,1.08-.1,1.08-.1s-.87.31-1.21.49a5.5,5.5,0,0,1-1.88.33,16,16,0,0,1-1.72-.41S10.1,2.1,10.23,1.5Z"/><path class="cls-3" d="M13.7.58s3.95-.17,4.07.1a2,2,0,0,1,.11.74l1.44,1.26a2.5,2.5,0,0,1-1.68-.1c-.9-.38-2.28-1-2.28-1l-1.49-.17L13.36,1S13.45.67,13.7.58Z"/><path class="cls-5" d="M13.7.58s-.4.18-.17.41a2.84,2.84,0,0,0,1.52.4,21,21,0,0,1,2.84,1.18,2.61,2.61,0,0,0,1.23.12l.2.1S19,3.06,18,2.86,16.26,2,15.93,2a4.15,4.15,0,0,0-2.16-.43S12.56,1.22,13.7.58Z"/><path class="cls-3" d="M18.78,0s-1.38.46-.66,1.36a6.13,6.13,0,0,0,1.93,1.46s2.49.74,3.42.2l.94-.54-1.72-.94-.28-.6,0-.1a8.9,8.9,0,0,1-2.81-.4Z"/><path class="cls-5" d="M18.78,0s-2.29.84.76,2.43,4.69.1,4.69.1l.22.12s-1.65,1.86-5.13.14S18.57,0,18.57,0Z"/><path class="cls-3" d="M23.16.17a4.45,4.45,0,0,1,3.45,1.07s-.89-.06-.85.1l0,.41.77.56.15.16-.42.11-1.87-.1L22.72,1.42,22.47,1S22.35.68,23.16.17Z"/><path class="cls-5" d="M23.16.17s-.61.35-.62.76c0,.18.11.38.46.57,1.13.59,1.18.76,1.73.83s2,.14,2,.14v.21l-2.25,0-1.78-1s-.43-.58-.19-.9A2.77,2.77,0,0,1,23.16.17Z"/><path class="cls-3" d="M29.41,2.24a5.55,5.55,0,0,1-2.14-.94s-1.58-.18-1.51,0a1.05,1.05,0,0,0,.87.85A4.49,4.49,0,0,0,28,2.24Z"/><path class="cls-3" d="M30.39,2.93s1.4.18,1.78,1.08-.26.82-.26.82a1.19,1.19,0,0,1-1-.71C30.59,3.41,30.39,2.93,30.39,2.93Z"/><path class="cls-5" d="M25.76,1.34a1.18,1.18,0,0,0,1.38.89c1.24-.07,2.77-.38,3.36.91s1.27,2,1.73,1.56a.28.28,0,0,1-.08.25,1.58,1.58,0,0,1-1.59-.72c-.33-.75-.26-1.81-2.19-1.75s-1.67,0-1.67,0S25.25,2.07,25.76,1.34Z"/></g></g></svg>