<svg xmlns="http://www.w3.org/2000/svg" viewBox="0 0 1366 768"><defs><style>.cls-1{fill:#52453e;}.cls-2{fill:#b7a58e;}.cls-3{fill:#685646;}.cls-4{fill:#b3eeff;}.cls-5{fill:#67aa56;}.cls-6{fill:#d05b00;}.cls-7{fill:#e1bd2f;}.cls-8{fill:#599669;}.cls-9{fill:#a1caaa;}.cls-10{fill:#876734;}.cls-11{fill:#ae904b;}.cls-12{fill:#b1a260;}.cls-13,.cls-37,.cls-38,.cls-40{fill:none;stroke-miterlimit:10;}.cls-13{stroke:#e1bd2f;}.cls-13,.cls-40{stroke-width:3px;}.cls-14{fill:#44311a;}.cls-15{fill:#513c20;}.cls-16{fill:#93773e;}.cls-17{fill:#6b512b;}.cls-18{fill:#730f00;}.cls-19{fill:#3c4649;}.cls-20{fill:#8d4d1e;}.cls-21{fill:#5d9b17;}.cls-22{fill:#78a600;}.cls-23{fill:#846558;}.cls-23,.cls-24,.cls-25,.cls-26,.cls-27,.cls-28,.cls-31,.cls-38,.cls-39{fill-rule:evenodd;}.cls-24,.cls-30{fill:#e2b09e;}.cls-25{fill:#008a80;}.cls-26,.cls-32{fill:#cc9888;}.cls-27,.cls-41{fill:#fff;}.cls-28{fill:#323b48;}.cls-29{fill:#161e2c;}.cls-31{fill:#2c1f1c;}.cls-33{fill:#5f2d1a;}.cls-34{fill:#3f2a1e;}.cls-35{fill:#868686;}.cls-36{fill:#9c9b9b;}.cls-37,.cls-38{stroke:#2c1f1c;stroke-width:2px;}.cls-39{fill:#f2ebea;}.cls-40{stroke:#3d474a;stroke-linecap:round;}.cls-42{fill:#3d474a;}</style></defs><title>hytten_6</title><g id="Layer_2" data-name="Layer 2"><g id="baggrund"><rect class="cls-1" width="1366" height="768"/></g><g id="gulv"><rect class="cls-2" y="653" width="1366" height="115"/></g><g id="verdenskort"><rect class="cls-3" x="423.67" y="65.56" width="894" height="45"/><rect class="cls-4" x="448.67" y="110.56" width="841" height="441"/><path class="cls-5" d="M721.48,440c-4-4.19-10.11-2.22-2.31-7.43,3.5-2.34,7.14-5.06.39-10.81-1.58-1.34-4.57-2-5.4-3.71-.53-1.09,1.43-5.12,0-8.11-.9-1.89-4.33-2.59-5.77-4.05-1.24-1.26-.67-3.8-2.77-5.16-1.79-1.16-6.15-1.08-8.4-2.61-1.79-1.22-.38-4.11-2.31-4.39-5-.72-7.95,3-11.94,2.7-3.57-.31-7.21-3.28-8.47-4.73-2.79-3.19.74-6.78,5.12-8.07,6-1.77,7-1.22,4-8.56-.78-1.88-.57-3.83.13-4.64,2.3-2.65,10.11,5,15-1.35,1.15-1.48-1.14-3.35-.77-4.06s3.54.05,5.78-1c2-.94,3.21-2.42,5-1.35,1.26.75-.52,3.1.39,4.73,2.54,4.58,1.88,1.46,10,1,2.44-.13,4.85.87,6.93.34,2.37-.61,5.52-5.31,6-6.1a17.36,17.36,0,0,0-3-2c-2.25-1.22-6.95-.95-10.39-2-2.92-.91-4.63-3.15-6.55-4.39-2.59-1.69-4.37-4.2-8.47-5.07-11.85-2.51-28.49,0-28.49,0s-6.95,2.15-9.63,7.09c-1.7,3.14,1.29,7,0,10.81-1.18,3.43-5.69,5.28-7.32,8.11a15.73,15.73,0,0,0-1.92,8.78s4.53,4.89,9.24,11.14c2.14,2.84,2.9,6.29,5.78,9.12,3.17,3.13,11.22,3.39,13.47,6.42,4.2,5.64,1.16,13.17,1.16,13.17s-4.65,37,0,55.05c.94,3.65,4.35,8.67,8.85,10.13,2.88.94,7.71-1,7.71-1s-5.33-3.29-5.78-7.09c-.51-4.28,3.85-9.12,3.85-9.12s-3.65-.06-2.7-2.7c.44-1.22,2.06-1.87,3.09-3.38s.32-4,1.15-5.41a6.35,6.35,0,0,1,3.47-2.36,5.48,5.48,0,0,1,1.92-3.38c1.79-1.25,4.52-.79,6.55-1.69a7.88,7.88,0,0,0,3.08-3,4.58,4.58,0,0,0-.39-2c-.68-1.35-1.88-2.72-1.15-3.38,1.35-1.23,3.85,1.32,6.16.34.4-.17.8-.37,1.2-.58L723,444A6.87,6.87,0,0,0,721.48,440Z"/><path class="cls-6" d="M734.27,429.71c.85-7.15,13.47-8.57,17.43-9.73s5.28-5.78,6.87-8.1,1.58-6.71,1.58-6.71.27-3.94,5-7.18,5.81-4.4,6.34-5.56.53-2.54-4.23-5.78a44.15,44.15,0,0,0-11.62-5.79c-2.38-.7-7.92-1.62-9.24-2.09s-9-3.7-11.1-5.32-1.49-8.87-3.19-10.82l-1.54,2.16a7.29,7.29,0,0,1-3.67,2.82c-2.15.55-4.49.16-7,.3-8.41.47-7.73,3.7-10.36-1.05-.94-1.68.9-4.12-.4-4.89-1.86-1.11-3.14.43-5.18,1.4-2.33,1.1-5.64.38-6,1.05s1.2,3,0,4.51c-5.09,6.54-12.39-1.66-14.77,1.08-.73.85-1,2.86-.14,4.81,3.15,7.6,2.1,7-4.12,8.86-4.55,1.34-8.19,5.05-5.31,8.36,1.31,1.5,5.07,4.57,8.78,4.9,4.13.36,7.21-3.54,12.36-2.8,2,.29.53,3.28,2.39,4.55,2.32,1.58,6.84,1.5,8.7,2.7,2.17,1.4,1.57,4,2.86,5.34,1.49,1.51,4.11,2.54,5,4.5,1.48,3.09-1,7.18-.43,8.31.85,1.73,5.32,2.24,6.95,3.63,7,5.94.26,7.5-3.37,9.92-8.07,5.39,1.28,4.62,5.37,9,.28.3.17,1.06.36,1.41C722.66,443.46,733.65,435,734.27,429.71Z"/><path class="cls-5" d="M671.15,351s-2.9-3.1-9.24.08S657.38,340,657.38,340s1.81-4.76-7.25-4-4.53-.79-3.62-4,8.15-9.52-1.81-7.14c0,0-2.72-1.59-5.44,4.76s-12.68-1.59-12.68-1.59-11.77-12.7,10-21.43,25.36,9.52,25.36,9.52,2.71,4.77,3.62-3.17c0,0,0-3.18-3.62-7.94s13.58-10.32,13.58-10.32-3.62-4.76-1.81-6.35,4.53-8.74,12.68-8.74c0,0-1.81-3.17,0-4L699,270.12l-3.62,4s-.91,3.17,4.53.79l1.81-1.59,5.43-.79,3.62-4s1.82-2.38-2.71-1.59-4.53,2.38-4.53,2.38-8.15-4-5.44-4.76,2.72-4,0-4-11.77,7.15-11.77,7.15-2.72,0-.91-1.59,9.06-7.15,9.06-7.15l16.3-.79,3.63-3.18,3.62.8-6.34,9.52s12.68-.79,13.59,1.59,3.62-3.17-.91-7.14l-2.72.79L719,258.21l2.71-3.18s2.72-3.17-2.71-6.35a121,121,0,0,0-10.87-5.55s-1.81-9.53-8.15-13.5c0,0-3.63,8.73-8.16,5.56s-2.71-7.15-2.71-7.15l-4.53-.79s-.91-4-14.49-4c0,0,1.81,8.73-1.81,11.91,0,0,11.77,7.14-2.72,11.11,0,0,8.15,12.7-3.62,7.94s-8.16-10.32-8.16-10.32-11.77-5.56-17.2-4l-.91-5.56-4.53.8s0-11.12,15.4-16.68l4.53-7.94-10.87-11.11L628.39,209l-18.11-3.18-25.36.8,2.72-2.39-1.81-2.38-19-3.17-.91,1.58h-6.34s-21.74,5.56-35.32-.79-47.1-7.15-49.82,1.59H469v3.17l8.15,5.56,5.44.79v1.59l-9.06.8v-2.39l-10,3.18,5.43.79v3.18l12.68-.79-.91,4-9.05,1.58L469,227.25s-1.81,4,9.06,4.76v3.18h11.77s-.9,4.76-25.36,13.49,24.46-7.14,24.46-7.14a25.75,25.75,0,0,0,9.05-7.15h-2.71s4.52-5.56,10-6.35,25.36,1.59,36.23,15.09,26.26,22.22,26.26,22.22l-.9,22.23s.9,5.56,11.77,11.12c0,0,2.72.79,6.34,10.32s12.68,13.5,12.68,13.5-11.77-12.71-11.77-15.88,3.62-2.38,3.62-2.38,4.53,2.38,14.49,15.08,2.72,8.73,2.72,8.73l20.83,9.53s1.81-3.18,4.53-2.38,6.34,4.76,6.34,4.76l9,1.59,4.53,6.35,4.53,4s2.72,2.38,7.25.79,2.26-1.67,6.11-.83Z"/><path class="cls-5" d="M963.05,345.14s.91,8.74-10,17.47-21.74,13.49-13.58,35.72c0,0,2.26,3.58-13.14,10.72,0,0,3.63,4.77,1.81,9.53s-5.43,3.17-5.43,3.17,0,11.12-13.59,16.68-6.34-2.39-18.11,3.17c0,0-3.62-13.49-9.06-16.67L880.18,413l-5.43-7.94s-3.63-2.38,4.53-11.91c0,0,5.43-4-5.44-16.67l-6.34-6.35s6.34-11.91-3.62-11.11l-4.53.79s1.81-7.94-10.87-3.18L842.14,359a13.7,13.7,0,0,0-12.68.79l-12.68-7.94v-2.38l-8.15-6.35L811.35,332l-.91-4.76-1.81-2.38s-4.53-.8,16.3-17.47c0,0,1.81-2.38.91-4.76s4.53-6.35,10-7.94,8.15,0,8.15,0,3.63,2.38,6.34-3.18c0,0-1.81-2.38,20.83,0,0,0,6.34,0-.9,6.35l18.11,7.94s5.44,2.39,5.44-3.17,9.05,0,9.05,0,6.34,3.17,10.87,2.38,9.06-1.59,7.25,4,9.06,13.5,9.06,13.5a7.32,7.32,0,0,1,1.81,7.93C930,335.22,946.3,344,946.3,344s-2.72,3.18,1.81,4S963.05,345.14,963.05,345.14Z"/><path class="cls-5" d="M947.66,402.3l.9,7.94-2.71,3.18s0,11.11,8.15,5.56,9-24.62,6.34-26.2C960.34,392.78,958.07,400.32,947.66,402.3Z"/><path class="cls-6" d="M1109.33,438.43s5.43-.8,0-11.91-2.72-14.29,7.24-16.67,18.12-11.91,18.12-11.91,2.71-4.77,8.15.79c0,0,0-7.14,7.24-6.35s10,.79,10,.79-7.25,4.77-2.72,6.35,11.77,8.74,12.68.8,1.81-10.32,1.81-10.32l2.72,7.14h3.62l.91,5.56h1.81v4l15.39,13.5s3.63,4.76-.9,14.29c0,0-9.06,5.55-6.34,12.7h-5.44l-2.71,4-4.53-4-.91,2.38s-7.24,1.59-9-5.56-6.34-4-6.34-4l1.81-3.17-4.53,4s-3.62-8.73-12.68-7.94a37.88,37.88,0,0,0-15.4,4.76l-10,1.59-2.72,3.18S1109.33,444,1109.33,438.43Z"/><path class="cls-6" d="M1176.35,454.3s6.34,1.59,9.05.8-3.62,6.35-3.62,6.35S1178.16,460.66,1176.35,454.3Z"/><path class="cls-5" d="M920.46,305l5.46-1.12,3.17-6,.91-7.14h-3.63s-2.71,4-6.34.79c0,0-1.81-1.58-2.71,0s-4.53,1.59-4.53,0-2.72-1.58-2.72-1.58l-1.81-4.77v-2.38h5.43v-1.59h5.44a12.05,12.05,0,0,1,13.58,0c7.25,4.77,13.59-3.17,6.34-5.55l20.83,5.55s2.72,1.59-.9,4.77,5.43,7.14,11.77,4.76-3.62-8.73-3.62-8.73h4.53l-9.06-8.74,6.34-3.17-.9-3.18s0-2.38-9.06,1.59l-.91-4s-7.24,1.59-2.71-6.35,19.92-.79,19.92-.79,18.11,3.17,12.68-3.18l-3.62-.79-2.72-2.39,3.62-4.76-.9-31,14.49-7.94-2.72-6.35,8.15,3.17s.91-2.38-3.62-4,5.43-12.7,5.43-12.7,4.53-3.17,8.16.8-2.72,5.55-2.72,5.55l1.81.8v8.73h1.81s-1.81,8.73-9.06,7.14l7.25.8,5.43-4.76v-3.18s.91-1.59,3.63,0,1.81,3.18,1.81,3.18v-4.77H1016l-.91-8.73,2.72-2.38h1.81v3.17h4.53l3.62-4,8.15,4v3.18s2.72,4,3.63,0-1.82-5.56-1.82-5.56l-6.34-2.38v-4.76h15.4v-4.77s-2.72-3.17,23.55-3.17c0,0,4.53.79,13.59-7.94,0,0,1.81-3.18,10,4.76,0,0,1.81,1.59,10,0s7.25,7.94-14.49,14.29,18.11-2.38,21.74-2.38,5.43,0,17.21,2.38v-3.17h4.52V186h7.25s2.72-.79,2.72,4.77h-2.72s4.53,7.14,7.25,4,1.81-3.18,1.81-3.18h4.53l.9,1.59h10.87v-2.38h-2.72v-2.38h16.31l15.39,7.14h16.3s2.72-.79.91,4,29.89-.79,29.89-.79,12.68-.8,27.17,8.73v4h2.72V209s6.34-.8,9,4h-5.43v4h-8.15v-4h-8.15l-2.72,4h-3.62v1.58s4.53,1.59,3.62,5.56a22.45,22.45,0,0,0-19.93,7.15s-5.43-6.35-16.3,0,.91,6.35.91,6.35l-15.4,19.05s-9.06-11.11,0-18.26,16.3-12.7,16.3-12.7,4.53-3.18-3.62,0-4.53,1.59-4.53,1.59l-.9-2.38-7.25.79-7.25,7.94h-26.26l-16.3,12.7s-3.63,4,11.77,1.59-14.49,30.17-14.49,30.17l-4.53-2.38-10,9.52,4.53,5.56s3.62,3.18-6.34,6.35v-8.73H1132s0-9.53-11.78-4,6.34,5.56,6.34,5.56l-7.24,5.55s16.3,11.12-3.62,23.82c0,0-28.08,6.35-27.18,9.53s14.5,7.94,8.16,16.67-10,7.14-10,7.14-9-15.08-11.77-11.11.9,11.11,4.53,13.5,3.62,7.14,3.62,7.14l2.72,3.18s-6.34,1.58-9.06-6.35l-.91-4-4.52-4s.9-15.09-2.72-17.47a17.48,17.48,0,0,1-5.44,3.18c-2.71.79-.9-7.15-.9-7.15s-6.34-4-6.34-7.94l-25.36,15.09s1.81,11.9-6.34,15.87l-10-19.05v-7.94L999.73,317H978.9l-.9-4.77-5.44,2.39-9-7.15s-6.34-2.38-4.53,2.38,2.72,10.32,11.77,9.53l4.53-3.18,2.72,4s2.71,4.77,6.34,3.18-16.3,15.88-36.23,19.85c0,0-2.72-3.18-2.72-9.53S927.28,309,927.28,309l-1.81,2.38-4.2-5.22Z"/><path class="cls-5" d="M833.54,292.74h1.81l.45-1.19h7.25s4.53-4,4.53-7.94,7.24-4.76,7.24-4.76-.9-4.76,5.44-3.17l1.81.79,5.43-3.18a3.8,3.8,0,0,1,4.53,3.18s-.91,1.59,9.06,5.56-3.63,7.94-5.44,5.55l6.34,4a11.05,11.05,0,0,1,4.53-5.55s-.9-4,1.81-2.39.91.8.91.8l.9-.8-14.49-9.52s-3.62-3.18,4.53-3.18,12.68,10.32,11.78,11.91,7.24,8.73,7.24,8.73l3.62-4s-5.43-4-.9-5.55,6.34.79,6.34.79h5.43v-1.59s-6.34-4,0-8.73,9.06-7.94,10.87.79l3.62-1.58-.9-3.18,10-3.18s-7.24,5.56-2.72,7.94l4.53,2.39,1.5.4,19.33,5.15s-11.77-11.11-.9-12.7l-.91-4s-8.91,2.1-.83-8.48c0,0,4.46-4.22,18,1.34,0,0,18.11,3.17,12.68-3.18l-3.62-.79-2.72-2.39,3.62-4.76-.9-31,14.49-7.94-2.72-6.35-10-2.38s-7.25-2.39-4.53,0l4.53,4s1.81,3.17-6.34.79-24.45,2.38-23.55,5.56-16.3-.8-17.21,4-5.43,7.14-10,5.55-1.81-5.55-1.81-5.55l-6.34-3.18s-2.72-2.38,2.72-.79,19,4.76,16.3-2.38-25.36-7.15-25.36-7.15l3.62-2.38s-8.15-4.77-30.79,4a157,157,0,0,1-27.17,23.82s-1.82.79-.91,4,0,13.5,10,6.36c0,0,2.72-3.18,3.63-.8a42,42,0,0,0,3.62,6.35v3.18h3.62l.91-1.59,5.43-.79v-6.35l4.53-4L886.52,228s-4.53-2.38,9.06-9.53l.9-3.17s-.9-4,8.16-.8-8.16,7.94-8.16,7.94v6.35s1.82,5.56,10.87.8,16.31,3.17-4.53,3.17c0,0-4.52-.79,0,4s-4.52,1.59-4.52,1.59-3.63-2.38-2.72,7.15S872,247.89,872,247.89l-2.72-3.18,1.81-1.58.91-1.59-1.81-.8.9-1.58-2.71.79H866.6l-.91,4h1.81l-.9,5.56s-15.4,11.9-29.89,13.49v2.38s11.77-1.58,7.24,10.33h-16.3v15.08h5.43Z"/><path class="cls-5" d="M835.35,260.19s3.62-4,14.49-3.17l-.45-2s3.62-3.17-.91-4l-8.15-8.73s4.53-4.76.91-4.76h-3.63l4.53-4s-10.87,2.38-10,5.56,8.15,9.52,8.15,9.52-4.53,3.18-2.72,4.77l1.81,1.58Z"/><path class="cls-5" d="M825.84,251.06s-2.72,4,2.72,3.18,4.52-3.18,4.52-3.18l.91-5.55s-4.53-2.38-5.43,0a4,4,0,0,1-3.63,2.38Z"/><path class="cls-5" d="M804.55,220.5l10.87-4s4.53-4-1.81-4.76S800,214.15,800,214.15l-3.63-4-4.53,3.17,2.72,1.59s4.53,3.18,1.81,4.76S804.55,220.5,804.55,220.5Z"/><path class="cls-5" d="M748.4,231.61l3.62-6.35-1.81-3.17h2.72s-.45-7.55,9.51-9.13,10.87-7.15,10.87-7.15,16.3-1.59,21.73-6.35-12.68,0-12.68,0l.91-7.94,9.06,3.18s5.43,1.58,6.34.79-10-7.14-10-7.14l6.34,2.38,1.82-2.38L792.33,186h9l-2.71-3.17,4.53-.8-5.44-4,9.06,1.59s-6.34-7.14-10.87-7.14S821.31,151,821.31,151s-9.06-1.59-12.68,0a6.16,6.16,0,0,1-6.34-.79l-8.15,5.56s8.15-7.15,5.43-7.15S787.8,151,787.8,151l2.72-2.38s-11.78-.79-15.4,1.59-5.43-2.38,2.72-3.18,20.83-.79,20.83-.79-19.93-9.53-38-4-16.3,7.94-16.3,7.94-7.25-5.56-12.68-4,3.62,4,3.62,4-10-3.18-16.3-2.38-10.87,1.58-10,4.76-5.43,0-5.43,0-10.87,4-10,4.76,6.34.8,6.34.8,1.81,4.76-6.34,4.76-11.78,3.18-11.78,3.18,10.87,3.17,14.49,3.17-11.77,1.59-11.77,1.59,4.53,5.56,11.77,4.76,19.93-4,24.46,13.5,4.53.79,4.53.79,6.34,4.77,6.34,9.53-6.34,5.56-6.34,5.56v7.14l13.58,17.47,3.62-1.59S744.33,232,748.4,231.61Z"/><path class="cls-5" d="M1029.62,355.07l.91-5.56s3.62,1.59,3.62,4S1029.62,355.07,1029.62,355.07Z"/><path class="cls-5" d="M1064.49,356.26s3.17,2,5.89,1.19c0,0,4.53,7.94,8.15,7.94s5.44,4.76,5.44,4.76,5.43,4,5.43,8.73-13.59-9.52-13.59-9.52L1065,358.24Z"/><path class="cls-5" d="M1098.46,374.12v-3.18a6.69,6.69,0,0,1-1.81-6.35c.9-4,3.62.8,3.62.8V363h4.53l10-9.53v2.38h3.62V359l-3.62,1.58s1.81,4,3.62,4.77-9.05,4-6.34,8.73-3.62,1.59-3.62,1.59Z"/><path class="cls-5" d="M1167.74,386.43l6.34.79s.91-5.56,7.25-1.59,9.06,3.18,9.06,3.18l-7.25-6.35.91-1.59s-18.12-11.91-26.27-7.15c0,0-1.81,2.38-3.62-.79s-3.62-3.18-3.62-3.18l-5.44.8,3.62,2.38,1.36,3.57s16.31.8,12.68,6.35l-.9,2.38h6.34Z"/><path class="cls-5" d="M1142.38,299.89l2.72-2.38,3.62,2.38-.9,4s-3.17,2-3.17.4v-3.18Z"/><path class="cls-5" d="M1146.46,296.32l5.43-2.38,5.44.79,1.81-4h4.53s4.53-7.15,2.72-9.53H1170s2.72,3.18,0,7.94-1.81,5.56-1.81,5.56-9.06,0-10.87,3.17-1.81-1.58-1.81-1.58l-4.53,4.76-.91-2.38,2.72-2.38-5.43.79Z"/><path class="cls-5" d="M1170.61,254.15l1.21.09v14.29s2.72-1.59,2.72,0-.91-2.38-.91-2.38v-4.77s1.81-1.58,2.72,0-1.81-7.14-1.81-7.14v-4.76h-2.93Z"/><path class="cls-5" d="M1169.1,279.64c0-1.58,2.72-1.58,2.72-1.58l3.62.79v-1.59h3.63v-3.17h-3.63l-1.81-.8-.9-2.38h-1.82l-.9,4s-3.62,1.59-3.62,4S1169.1,279.64,1169.1,279.64Z"/><path class="cls-5" d="M1231.14,468.2s-7.24-.8-3.62-3.18,12.68-9.52,12.68-11.11,4.53,2.38,4.53,2.38l-10,12.7S1232.05,470.58,1231.14,468.2Z"/><path class="cls-5" d="M1247.45,456.29s4.52-2.38,4.52-5.56,2.72,0,2.72,0v-4s-6.34,3.18-6.34,0-1.81-1.59-1.81-1.59-3.62-5.55-5.43-5.55,3.62,5.55,3.62,5.55,3.62,4.77-.91,5.56,1.81,1.59,1.81,1.59Z"/><path class="cls-5" d="M978.45,195.89s-11.77-6.35,5.43-14.29,18.12-4.77,19-5.56,5.44-5.56-3.62-4.76c0,0,.91,3.17-10,3.17s-23.55,16.67-23.55,16.67S961.24,194.3,978.45,195.89Z"/><path class="cls-5" d="M1073.55,167.31l7.25-6.35s5.43.79,7.24,4S1073.55,167.31,1073.55,167.31Z"/><path class="cls-5" d="M1075.36,163.34s1.81-5.56-2.72-5.56-2.71-4-2.71-4l-4.53-2.38s-7.25.79-9.06,5.56,6.34,1.58,6.34,1.58l-.9,2.39S1058.15,164.13,1075.36,163.34Z"/><path class="cls-5" d="M1254.69,195.09s3.62-4,5.44-3.17,4.52,2.38,2.71,3.17S1254.69,195.09,1254.69,195.09Z"/><path class="cls-5" d="M1175,185.57l-2.72-1.59h-2.71v-1.59h-2.72V184h1.81l-.91.79S1167.74,188,1175,185.57Z"/><path class="cls-5" d="M1181.33,177.63v.79s4.53,4,9.06,1.59S1181.33,177.63,1181.33,177.63Z"/><path class="cls-5" d="M1175,180l3.62-2.38-9-2.38-1.82,1.58-3.62-2.38s-7.24,2.38-3.62,4.77,8.15.79,8.15.79S1172.27,178.42,1175,180Z"/><path class="cls-5" d="M1123.36,323.71s-1.81-6.35,1.82-7.15,0,7.15-.91,7.15Z"/><path class="cls-5" d="M1185,379.28s8.15.79,9.06-2.38,3.62-.8,2.72,0-1.82,4-4.53,4-4.53-.8-5.44-.8A3.34,3.34,0,0,1,1185,379.28Z"/><polygon class="cls-5" points="492.09 327.68 492.09 330.06 493.9 330.06 493.9 329.26 494.8 329.26 494.8 327.68 492.09 327.68"/><polygon class="cls-5" points="492.09 326.09 492.09 325.29 488.46 325.29 488.46 326.09 490.27 326.09 490.27 326.88 492.09 326.88 492.09 326.09"/><rect class="cls-5" x="483.03" y="322.91" width="1.81" height="0.79"/><polygon class="cls-5" points="485.75 323.71 485.75 325.29 486.65 324.5 487.56 324.5 487.56 323.71 485.75 323.71"/><path class="cls-5" d="M572.69,193.51a13.3,13.3,0,0,1,10.87-7.94c8.15-.8-19-4-19-4L562.73,184l-1.81,6.35s6.34.79,5.43,3.18,1.82.79,1.82.79A5,5,0,0,1,572.69,193.51Z"/><path class="cls-5" d="M654.21,322.91a17.76,17.76,0,0,1,15.39,0l8.16,4-6.34.8s.9-4-11.78-4l1.36-1.19Z"/><polygon class="cls-5" points="693.61 331.25 694.51 332.04 697.23 332.04 697.23 330.45 693.61 331.25"/><polygon class="cls-5" points="685.45 332.84 685.45 331.25 691.79 331.25 686.36 327.28 680.93 327.28 681.83 330.45 677.3 329.66 678.21 331.25 682.74 331.25 682.74 332.84 685.45 332.84"/><polygon class="cls-5" points="669.15 330.45 669.15 332.04 673.68 332.04 672.77 330.45 669.15 330.45"/><path class="cls-5" d="M1089,381.66s19.92,5.56,29,4.77-13.13-2-13.13-2l2.71-3.18h-10.86S1089.4,379.68,1089,381.66Z"/><path class="cls-5" d="M1120.19,379.68v-4.77h-2.71v-1.58l.9-.8s0-7.14,6.34-7.14,7.25,1.58,9.06,0,.91.79.91.79-14.5,1.59-12.68,3.18,4.52,0,4.52,0l2.72.79-3.62,2.38,2.72,7.15s-1.82,2.38-3.63,0a8.64,8.64,0,0,1-1.81-4.77l-.9,4.77Z"/><polygon class="cls-5" points="1128.35 389.2 1134.68 383.65 1137.4 385.23 1131.06 389.2 1128.35 389.2"/><polygon class="cls-5" points="1146.46 383.65 1146.46 385.23 1149.18 384.44 1148.27 382.85 1146.46 383.65"/><polygon class="cls-5" points="1152.8 379.68 1152.8 381.26 1154.61 381.26 1154.61 378.88 1152.8 379.68"/><path class="cls-5" d="M1133.78,355.86v-1.59h1.81v-4.76h-2.72v2.38s-7.24-.79-8.15,2.38,1.81,1.59,1.81,1.59l.91-2.38h2.72l.9,3.17h3.63Z"/><polygon class="cls-5" points="1123.36 342.76 1123.36 338 1120.65 338 1120.65 335.62 1122.46 335.62 1122.01 330.45 1126.53 333.63 1124.72 336.81 1124.72 338.39 1125.63 339.98 1124.72 340.78 1124.72 342.36 1123.36 342.76"/><polygon class="cls-5" points="1125.63 344.75 1125.63 347.13 1127.44 347.13 1127.44 348.71 1125.63 348.71 1125.63 349.51 1130.16 349.51 1133.78 347.13 1133.78 343.16 1127.44 338.39 1126.53 340.78 1130.16 342.36 1131.06 345.54 1130.16 347.13 1127.44 344.75 1125.63 344.75"/><polygon class="cls-5" points="1275.52 219.71 1275.52 221.29 1279.15 221.29 1279.15 222.09 1283.67 222.09 1283.67 220.5 1280.05 220.5 1280.05 219.71 1275.52 219.71"/><polygon class="cls-5" points="1220.28 409.45 1228.43 414.21 1222.09 408.65 1220.28 409.45"/><polygon class="cls-5" points="1226.62 397.54 1226.62 399.92 1230.24 399.13 1228.43 397.54 1226.62 397.54"/><polygon class="cls-5" points="1228.43 400.72 1228.43 402.3 1230.24 401.51 1228.43 400.72"/><polygon class="cls-5" points="1230.24 403.1 1230.24 404.69 1232.05 404.69 1232.05 403.1 1231.14 403.1 1230.24 403.1"/><rect class="cls-5" x="1251.07" y="403.1" width="3.62" height="2.38"/><polygon class="cls-5" points="1254.69 400.72 1254.69 402.3 1258.31 402.3 1258.31 399.92 1254.69 400.72"/><polygon class="cls-5" points="1199.44 378.49 1200.35 381.66 1203.07 382.46 1201.26 378.49 1199.44 378.49"/><polygon class="cls-5" points="1210.31 386.43 1211.22 388.01 1213.93 388.01 1215.75 384.84 1213.03 384.84 1213.03 386.43 1210.31 386.43"/><polygon class="cls-5" points="1215.75 388.81 1215.75 390.39 1218.46 390.39 1217.56 388.01 1215.75 388.81"/><rect class="cls-5" x="1139.67" y="373.72" width="6.34" height="1.59"/><polygon class="cls-5" points="1138.76 364.2 1138.76 368.96 1136.04 368.96 1136.04 369.75 1137.86 369.75 1137.86 372.13 1140.57 372.13 1140.57 367.37 1139.67 364.2 1138.76 364.2"/><polygon class="cls-5" points="1134.23 374.52 1134.23 375.31 1137.86 375.31 1137.86 372.93 1136.95 373.72 1134.23 374.52"/><polygon class="cls-5" points="1119.74 387.22 1119.74 388.01 1120.65 388.01 1120.65 388.81 1125.17 388.81 1122.46 387.22 1119.74 387.22"/><polygon class="cls-5" points="1115.21 351.49 1121.55 344.35 1120.65 346.73 1115.21 351.49"/><polygon class="cls-5" points="710.36 480.11 707.64 483.28 714.89 483.28 715.79 480.9 710.36 480.11"/><polygon class="cls-5" points="760.17 488.84 764.7 490.43 766.51 489.63 763.8 487.25 760.17 488.84"/><polygon class="cls-5" points="853.46 284.01 853.46 286.39 855.27 285.6 853.46 284.01"/><polygon class="cls-5" points="866.14 281.63 867.05 287.19 870.67 284.81 869.77 280.84 866.14 281.63"/><polygon class="cls-5" points="867.05 277.66 867.05 280.04 869.77 279.25 869.77 276.87 867.05 277.66"/><polygon class="cls-5" points="870.67 244.32 870.67 245.9 871.58 245.11 871.58 244.32 870.67 244.32"/><polygon class="cls-5" points="872.48 243.52 872.48 245.11 874.29 245.11 875.2 245.11 876.11 243.52 876.11 242.73 875.2 241.93 874.29 242.73 872.48 243.52"/><rect class="cls-5" x="872.48" y="245.9" width="2.72" height="0.79"/><polygon class="cls-5" points="888.79 237.97 888.79 240.35 890.6 239.55 889.69 237.97 888.79 237.97"/><polygon class="cls-5" points="830.82 223.67 830.82 225.26 833.54 225.26 833.54 223.67 829.91 223.67 830.82 223.67"/><polygon class="cls-5" points="843.5 228.44 843.5 231.61 845.31 230.03 843.5 228.44"/><path class="cls-5" d="M886.07,172.86l5.43-7.14s1.81-2.38,4.53,1.59l-.9,1.58,5.43,1.59,3.62-1.59-18.11-11.11-2.72.79.91,4-5.44-4.76-7.24,1.59,5.43,7.14,4.53,1.59-.91,1.59Z"/><polygon class="cls-5" points="889.69 157.78 900.56 161.75 905.09 161.75 909.62 157.78 900.56 156.99 889.69 157.78"/><path class="cls-5" d="M810,550.76s10.87-3.17,11.77-4.76-6.34-3.17-6.34-3.17l7.25-.8,3.17-2,1.81,2.38h1.81v-2.38l5.44,1.58,10.86.8,23.55-3.18,4.53,1.59,1.81-1.59,14.49.8,4.53,1.58,1.81-2.38,4.53,2.38,20.83-2.38V532.9h3.63l10,4.76,1.81-4.76,33.51-10.32,4.53,4,29.89,3.18,1.81,4.76s-8.15,5.56-2.72,5.56-4.53,11.11-4.53,11.11Z"/><path class="cls-5" d="M999.28,550.76l4.63-5,3.52.21,7.25-8.73h4.53l7.24-5.56,29-5.56h22.64l.9-3.17,16.31,3.17s1.81,1.59,4.53-1.58,10.86.79,10.86.79l-4.52,3.17,10-.79,3.62,1.59,14.49-4,3.63,1.59h4.52v-3.18L1176.8,527l7.25,4.76,27.17,3.18,3.62,4.76h15.4l5.43,4-7.24,7.94Z"/><path class="cls-5" d="M710.36,550.76l-4.53-5.55.91-2.38h1.81l-1.81-2.39-1.36-5.16L700,532.9s-2.72-4,4.52-8.73a113.34,113.34,0,0,1,17.21-8.73l-26.26,11.11v9.53h-4.53l3.62,9.52s1.81,4-9.06,4.77S710.36,550.76,710.36,550.76Z"/><path class="cls-5" d="M682.74,534.49l3.62,5.56-11.77,4,2.71,1.58,8.15-.79-4.52,2.38s10.86,2.38,10.86-2.38-3.62-10.32-3.62-10.32Z"/><polygon class="cls-5" points="653.3 550.76 615.26 549.18 613.45 546.79 610.73 547.59 611.64 549.97 615.26 550.76 653.3 550.76"/><polygon class="cls-5" points="646.06 547.59 646.06 550.46 640.4 550.23 640.62 549.18 643.34 549.18 643.34 547.59 646.06 547.59"/><path class="cls-5" d="M627,543.62l3.62,3.17-8.15.8S620.7,546,613.45,546s2.72-1.59,2.72-1.59h7.24Z"/><polygon class="cls-5" points="675.04 536.47 675.04 538.06 678.66 538.86 678.66 536.47 675.04 536.47"/><polygon class="cls-5" points="674.13 550.76 674.13 547.59 678.66 547.59 678.66 549.97 674.13 550.76"/><polygon class="cls-5" points="667.79 550.76 664.17 548.38 661.45 550.76 667.79 550.76"/><polygon class="cls-5" points="651.49 212.56 650.58 218.12 648.77 218.91 648.77 220.5 652.4 220.5 652.4 222.09 657.83 218.12 664.17 220.5 664.17 218.12 651.49 212.56"/><polygon class="cls-5" points="657.83 222.09 655.11 223.67 657.83 225.26 660.55 222.88 657.83 222.09"/><polygon class="cls-5" points="664.17 223.67 665.08 226.06 667.79 224.47 664.17 223.67"/><path class="cls-5" d="M682.28,207l-5.43,4.77,2.72.79v1.59h-9.06l-1.81,3.17,2.72,1.59,9.05-2.38,5.89,6.75h1.81l10,2.38L690,220.1l.91-.79,8.15,4,.91-4L691.79,213l1.82-2.39,8.15,4.77,5.43-5.56-15.4-6.35,4.53-2.38-9.05-6.35-12.68-6.35h-5.44l-6.34,2.38L661,184.38l-6.34.79-1.81,3.18,1.81,4.76-1.81,1.59-3.62-6.35,4.52-4h-7.24s-6.34,4-4.53,9.52h5.43v.8l-4.52.79s1.81,2.38,10.86,2.38a137.82,137.82,0,0,0,15.4-.79Z"/><polygon class="cls-5" points="670.96 205.02 671.87 208.19 676.4 208.19 676.4 205.02 670.96 205.02"/><polygon class="cls-5" points="673.35 188.34 670.06 184.38 663.72 184.38 664.62 186.76 667.23 189.07 669.15 188.34 673.35 188.34"/><polygon class="cls-5" points="659.19 203.43 660.09 205.81 661.91 207.4 655.57 212.16 651.04 210.57 648.32 207.8 653.75 201.84 651.94 199.46 655.57 198.67 662.81 202.64 659.19 203.43"/><polygon class="cls-5" points="638.9 200.49 632.47 191.12 636.09 187.95 638.81 187.95 641.53 183.98 629.75 182.39 628.85 188.74 630.66 190.33 627.04 194.3 627.94 198.27 632.47 200.65 634.28 204.22 638.9 200.49"/><polygon class="cls-5" points="612.09 186.76 622.05 193.9 627.49 190.73 624.77 187.55 625.68 185.96 625.68 183.58 616.62 182.79 616.62 186.76 619.34 186.76 619.34 188.34 612.09 186.76"/><polygon class="cls-5" points="623.87 198.67 617.53 201.84 622.96 202.64 622.97 208.04 628.39 208.99 628.39 203.43 630.21 203.43 623.87 198.67"/><polygon class="cls-5" points="627.49 178.03 628.39 180.41 635.64 181.2 632.02 176.44 627.49 178.03"/><polygon class="cls-5" points="615.72 201.84 612.09 200.25 613.9 199.46 616.62 199.46 609.38 195.49 607.56 189.14 609.38 185.17 601.22 185.17 603.03 192.31 601.22 192.31 595.79 186.76 581.3 187.55 575.86 192.31 583.11 193.11 583.11 193.9 576.77 193.9 577.67 196.28 592.17 196.28 592.17 197.08 578.58 198.67 582.2 200.25 588.54 201.05 589.45 204.22 599.41 204.22 604.85 200.25 608.47 202.64 615.72 201.84"/><polygon class="cls-5" points="608.02 177.63 608.02 180.01 612.54 180.01 610.73 177.63 608.02 177.63"/><polygon class="cls-5" points="588.09 168.1 591.71 170.48 597.15 167.31 588.09 168.1"/><polygon class="cls-5" points="585.37 166.51 586.28 168.1 589 167.31 586.28 166.51 585.37 166.51"/><polygon class="cls-5" points="589.9 164.93 598.96 165.72 595.34 163.34 593.52 164.13 589.9 164.93"/><polygon class="cls-5" points="577.22 177.63 579.94 175.25 578.13 175.25 575.41 177.63 577.22 177.63"/><polygon class="cls-5" points="578.13 172.86 572.69 176.83 567.26 175.25 567.26 172.86 569.98 173.66 575.41 169.69 580.85 169.69 580.85 168.9 583.56 168.9 583.56 169.69 585.37 169.69 585.37 170.48 582.66 170.48 582.66 172.07 583.56 172.07 582.66 172.86 579.94 174.45 579.03 174.45 578.13 172.86"/><polygon class="cls-5" points="578.13 178.42 583.56 173.66 587.18 173.66 593.52 177.63 600.77 177.63 597.15 176.83 597.15 175.25 595.34 174.45 595.34 173.66 597.15 173.66 598.96 172.07 600.77 172.07 600.77 173.66 603.49 176.83 603.49 175.25 607.11 175.25 607.11 180.01 598.05 180.01 592.62 182.39 588.09 182.39 586.28 181.6 593.98 179.61 578.13 178.42"/><polygon class="cls-5" points="604.85 168.5 607.56 170.88 609.38 170.88 607.56 169.29 605.75 168.5 604.85 168.5"/><rect class="cls-5" x="613.45" y="167.31" width="2.72" height="1.59"/><polygon class="cls-5" points="619.79 168.9 623.41 168.1 614.36 161.75 613.45 162.54 611.64 160.96 605.3 161.75 606.21 162.54 611.64 162.54 611.64 164.93 608.02 164.93 608.02 165.72 613.45 165.72 619.79 168.9"/><polygon class="cls-5" points="618.88 156.99 618.88 158.57 622.51 159.37 622.51 157.78 619.79 157.78 618.88 156.99"/><polygon class="cls-5" points="622.51 163.34 623.41 165.72 627.94 168.9 627.94 169.69 635.19 169.69 635.19 167.31 629.75 167.31 629.75 166.51 632.47 166.51 625.23 163.34 622.51 163.34"/><polygon class="cls-5" points="624.32 172.86 624.32 180.01 617.98 179.22 617.98 177.63 612.54 177.63 608.02 172.86 611.64 172.86 612.54 174.45 615.26 175.25 616.17 172.07 619.79 172.86 619.79 174.45 621.6 174.45 621.6 172.86 624.32 172.86"/><polygon class="cls-5" points="626.13 171.28 630.66 175.25 635.19 175.25 637.9 176.04 636.09 177.63 637.9 180.8 665.98 180.8 664.17 176.83 659.64 175.25 647.87 176.04 640.17 175.64 652.85 173.26 663.72 174.06 663.72 175.64 671.87 170.88 661.91 170.88 661.91 169.29 670.96 169.29 669.15 166.91 676.4 166.91 677.3 162.94 670.06 163.73 670.06 159.76 680.93 160.56 700.85 151.83 695.42 151.03 691.79 152.62 691.79 151.83 696.32 150.24 707.19 147.86 699.95 143.89 691.79 147.06 690.89 145.47 693.61 144.68 683.64 143.09 675.49 144.68 669.15 143.89 661 145.47 665.53 149.44 653.75 146.27 649.23 149.44 642.89 147.86 637.45 149.44 646.51 155 656.47 155.79 669.15 151.83 665.53 155.79 660.09 155.79 662.81 159.76 661 160.56 655.57 156.59 651.04 156.59 651.04 158.97 658.28 162.94 651.94 162.94 647.41 166.12 653.75 166.12 652.85 168.5 651.94 169.29 651.04 167.7 646.51 167.7 648.32 170.88 640.17 172.47 634.74 172.47 632.02 170.88 626.13 171.28"/><polygon class="cls-5" points="638.81 168.9 639.72 170.48 642.43 170.48 642.43 169.69 638.81 168.9"/><polygon class="cls-5" points="649.68 161.75 642.43 166.51 637 165.72 632.47 162.54 637 162.54 637 160.96 632.47 160.96 630.66 161.75 628.85 161.75 626.13 157.78 632.47 151.43 637.9 152.22 645.15 156.99 646.06 156.19 647.87 156.19 648.77 160.16 653.3 160.96 653.3 161.75 649.68 162.54 649.68 161.75"/><polygon class="cls-5" points="990.23 153.81 991.13 155.4 994.75 155.4 997.47 153.02 994.75 152.22 992.94 153.81 990.23 153.81"/><polygon class="cls-5" points="989.32 154.6 987.51 156.19 982.98 156.19 982.98 154.6 985.7 153.02 989.32 154.6"/><polygon class="cls-5" points="982.07 149.84 978.45 151.43 982.07 154.6 980.26 155.4 978.45 154.6 972.11 155.4 971.21 153.02 974.83 153.02 976.64 151.43 981.17 149.05 982.07 149.84"/><polygon class="cls-5" points="974.83 157.78 978.45 156.19 981.17 156.19 980.26 157.78 974.83 157.78"/><polygon class="cls-5" points="968.49 156.19 966.68 156.99 969.39 156.99 969.39 156.19 968.49 156.19"/><polygon class="cls-5" points="964.87 155.4 960.34 156.19 962.15 157.78 958.52 156.99 957.62 157.78 953.09 156.99 955.81 155.4 951.28 156.19 949.47 156.19 949.47 154.6 954 153.81 958.52 153.81 958.52 154.6 964.87 154.6 964.87 155.4"/><polygon class="cls-6" points="866.67 249.56 872.03 247.89 869.31 244.71 871.12 243.13 872.03 241.54 870.22 240.74 871.12 239.16 868.41 239.95 866.6 239.95 865.69 243.92 867.5 243.92 866.6 249.48 866.67 249.56"/><path class="cls-6" d="M844,275.63l10.87,3.18s-.86-5.9,7.25-2.39L864,275.3l-3.17-8,4-5.82L857,255.64s-11.53,6.43-20.28,7.29v2.38S848.08,263.51,844,275.63Z"/><path class="cls-6" d="M1136.5,288.38v8.73s9.61-2.33,6.34-6.35l-4.53-5.56,10-9.52-1.81-18.05s-9.47-1.7-12.68-1.7-3.31-5.89-9-6.45-10.72-7.1-11,1.61-3.87,11.13-3.87,11.13l7,1.94-13.55,9.68s-17.91,10.16-25.17,9.92-19.6-14.28-19.6-14.28l-2.42-15-11.85,9.68-4.36,2.53-10.45,3,8,22s3.63,8,29.52,8.47c0,0,13.79,6.05,16.21,11.37s5.11,17.29,5.11,17.29-6.6-1.29,27.18-9.53c0,0,19.68-10.84,3.62-23.82l7.24-5.55s-20.23-.31-3.62-6.65c0,0,9.49-3.39,9.06,5.06Z"/><path class="cls-7" d="M886.15,551.56c0,.17,0,.33,0,.5a20.5,20.5,0,0,1-41,0c0-.17,0-.33,0-.5H833.69c0,.17,0,.33,0,.5a32,32,0,0,0,64,0c0-.17,0-.33,0-.5Z"/></g><g id="plakater"><polygon class="cls-8" points="223 86 186.2 86 181 117 177.24 86 91 86 91 98.58 101.5 108.5 91 116.74 91 117 95 123 91 125.53 91 169.5 99 179 91 188.92 91 259 102 243 112.65 259 113 259 118 251 128.34 259 223 259 223 235.16 210 220 223 212.41 223 143.3 214 132 220.22 126.31 210 113 223 99.43 223 86"/><polygon class="cls-9" points="242 256 278.8 256 284 225 287.76 256 374 256 374 243.43 363.5 233.5 374 225.26 374 225 370 219 374 216.47 374 172.5 366 163 374 153.08 374 83 363 99 352.35 83 352 83 347 91 336.66 83 242 83 242 106.84 255 122 242 129.59 242 198.7 251 210 244.78 215.69 255 229 242 242.57 242 256"/></g><g id="kompas"><circle class="cls-10" cx="155.15" cy="185.85" r="46.15"/><circle class="cls-11" cx="155.48" cy="185.52" r="39.56"/><circle class="cls-12" cx="155.48" cy="186.18" r="34.28"/><circle class="cls-12" cx="155.48" cy="186.18" r="21.76"/><circle class="cls-10" cx="155.48" cy="185.52" r="18.46"/><circle class="cls-11" cx="155.48" cy="186.18" r="15.82"/><circle class="cls-2" cx="155.48" cy="186.18" r="12.53"/><polygon class="cls-7" points="151.85 133.77 151.85 140.09 159.19 140.09 159.1 133.77 151.85 133.77"/><circle class="cls-13" cx="155.48" cy="125.53" r="12.53"/></g><g id="kompas1"><polygon class="cls-14" points="167.96 173.55 157.15 184.35 156.88 180.75 167.96 173.55"/><polygon class="cls-15" points="157.15 184.35 161.03 184.91 167.96 173.55 157.15 184.35"/><polygon class="cls-14" points="143.31 173.83 154.11 184.63 150.51 184.91 143.31 173.83"/><polygon class="cls-15" points="154.11 184.63 154.67 180.75 143.31 173.83 154.11 184.63"/><polygon class="cls-15" points="153.73 187.67 149.85 187.12 142.93 198.48 153.73 187.67"/><polygon class="cls-16" points="155.48 159.81 155.48 185.52 150.86 181.56 155.48 159.81"/><polygon class="cls-17" points="155.48 185.52 160.75 181.56 155.48 159.81 155.48 185.52"/><polygon class="cls-16" points="129.77 186.51 155.48 186.51 151.52 191.13 129.77 186.51"/><polygon class="cls-17" points="155.48 186.51 151.52 181.24 129.77 186.51 155.48 186.51"/><polygon class="cls-14" points="168.23 198.86 157.43 188.05 161.03 187.78 168.23 198.86"/><polygon class="cls-15" points="157.43 188.05 156.88 191.93 168.23 198.86 157.43 188.05"/><polygon class="cls-14" points="142.93 198.48 153.73 187.67 154.01 191.27 142.93 198.48"/><polygon class="cls-16" points="181.19 186.51 155.48 186.26 159.48 181.68 181.19 186.51"/><polygon class="cls-17" points="155.48 186.26 159.39 191.57 181.19 186.51 155.48 186.26"/><polygon class="cls-16" points="155.82 212.41 155.14 186.71 159.86 190.54 155.82 212.41"/><polygon class="cls-17" points="155.14 186.71 149.97 190.8 155.82 212.41 155.14 186.71"/></g><g id="kompas2"><path class="cls-18" d="M152.84,184.2l-12.52,32.31,17.8-29.67s-2,2-4,1.32S152.84,184.2,152.84,184.2Z"/><path class="cls-19" d="M158.1,187l11.24-32.78-16.61,30.35s1.89-2,3.9-1.47S158.1,187,158.1,187Z"/><circle class="cls-7" cx="155.48" cy="185.52" r="2.97"/></g><g id="palmer"><path class="cls-20" d="M339.44,219c.31-1.2,7.28-29.87-19.71-79.26l-4.94,2.7c24.79,46.2,14.81,75.13,15.78,76.56Z"/><path class="cls-21" d="M313.14,141.36c17.28-9.45,31.36-7.48,41.48,8.91C343.61,139.5,329.61,137,313.14,141.36Z"/><path class="cls-22" d="M313.14,141.36c16.47-4.35,30.47-1.86,41.48,8.91A92.27,92.27,0,0,0,313.14,141.36Z"/><path class="cls-21" d="M319.28,139.94l-.21.07a5.48,5.48,0,0,0-1.19.34,4.48,4.48,0,0,0-1.11.5c-10.56,1.44-17.86,8.46-22.34,20.32C296.23,144.39,304,136.58,319.28,139.94Z"/><path class="cls-22" d="M294.43,161.17c5.13-13.6,13.92-20.93,27.13-20.67A60,60,0,0,0,294.43,161.17Z"/><path class="cls-21" d="M272,153.86c11.87-17.17,26.56-22.83,44.89-14C300.6,136.34,285.72,141.51,272,153.86Z"/><path class="cls-22" d="M272,153.86c13.73-12.35,28.61-17.52,44.89-14A113,113,0,0,0,272,153.86Z"/><path class="cls-21" d="M314.13,141.26l-.11,0a2.8,2.8,0,0,0-.28.06h0c12.35-16,27.2-20.94,45.27-11.86-15.78-3.7-30.43.64-44.16,11.61A5.25,5.25,0,0,0,314.13,141.26Z"/><path class="cls-22" d="M315.8,141h-.11a5.87,5.87,0,0,0-.85.06c13.73-11,28.38-15.31,44.16-11.61a117.21,117.21,0,0,0-42.63,11.57Z"/><path class="cls-21" d="M317.79,137.81a7.31,7.31,0,0,0-.22,1.24c-13.32-10.33-29.66-13.52-48.57-10.6C288.76,120.59,305.26,122.91,317.79,137.81Z"/><path class="cls-22" d="M316.69,139.79A137.3,137.3,0,0,0,269,128.45c18.91-2.92,35.26.15,48.59,10.48,0,0,0,.22,0,.26A6.19,6.19,0,0,0,316.69,139.79Z"/><path class="cls-21" d="M317.38,138.78a5,5,0,0,0-.85-.65c-5.63-13.7-1.75-21.69,14-22.55C319.7,119,315.71,127,317.38,138.78Z"/><path class="cls-22" d="M317.89,139.35a4.53,4.53,0,0,0-.51-.57c-1.67-11.79,2.32-19.8,13.19-23.2a39.9,39.9,0,0,0-12.66,23.78Z"/><path class="cls-20" d="M278.86,220c-.17-.66-4-16.6,10.95-44l2.75,1.51c-13.77,25.66-8.22,41.74-8.77,42.53Z"/><path class="cls-21" d="M293.48,176.87c-9.6-5.25-17.42-4.16-23.05,4.95C276.55,175.83,284.33,174.45,293.48,176.87Z"/><path class="cls-22" d="M293.48,176.87c-9.15-2.42-16.93-1-23.05,4.95A51.15,51.15,0,0,1,293.48,176.87Z"/><path class="cls-21" d="M290.07,176.08l.11,0a3.18,3.18,0,0,1,.66.18,2.71,2.71,0,0,1,.62.28c5.87.8,9.92,4.7,12.41,11.29C302.87,178.55,298.55,174.21,290.07,176.08Z"/><path class="cls-22" d="M303.87,187.87c-2.85-7.55-7.73-11.63-15.07-11.48A33.26,33.26,0,0,1,303.87,187.87Z"/><path class="cls-21" d="M316.34,183.81c-6.59-9.54-14.76-12.68-24.94-7.77C300.44,174.08,308.71,177,316.34,183.81Z"/><path class="cls-22" d="M316.34,183.81c-7.63-6.86-15.9-9.73-24.94-7.77A62.81,62.81,0,0,1,316.34,183.81Z"/><path class="cls-21" d="M292.93,176.81l.06,0,.16,0h0C286.29,168,278,165.23,268,170.27c8.76-2.06,16.91.36,24.53,6.45C292.67,176.74,292.8,176.78,292.93,176.81Z"/><path class="cls-22" d="M292,176.69h.06a3.59,3.59,0,0,1,.47,0c-7.62-6.09-15.77-8.51-24.53-6.45a65.09,65.09,0,0,1,23.68,6.43Z"/><path class="cls-21" d="M290.89,174.9a3.13,3.13,0,0,1,.12.68c7.41-5.74,16.48-7.51,27-5.89C307,165.33,297.86,166.62,290.89,174.9Z"/><path class="cls-22" d="M291.5,176a76.38,76.38,0,0,1,26.5-6.31c-10.51-1.62-19.59.09-27,5.83,0,0,0,.12,0,.14A2.77,2.77,0,0,1,291.5,176Z"/><path class="cls-21" d="M291.12,175.43a3,3,0,0,1,.48-.36c3.12-7.61,1-12-7.81-12.52C289.83,164.44,292.05,168.88,291.12,175.43Z"/><path class="cls-22" d="M290.84,175.75a2.79,2.79,0,0,1,.28-.32c.93-6.55-1.29-11-7.33-12.88a22.18,22.18,0,0,1,7,13.21Z"/></g><g id="rie"><path class="cls-23" d="M228.43,200.9s-93.77-23-85.93,231.83c0,0-.93,26.57,87.9,23.35Z"/><path class="cls-23" d="M237.3,200.9s93.77-23,85.94,231.83c0,0,.92,26.57-87.91,23.35Z"/><path class="cls-24" d="M265.33,406.53l34.14,60.15a16.06,16.06,0,0,0,21.83,6h0a16.06,16.06,0,0,0,6-21.84l-34.14-60.15C283.28,373.24,255.93,390,265.33,406.53Z"/><path class="cls-24" d="M319.2,446.46a16,16,0,0,0-20.94,8.65L279.7,501.6l-2,4.84c-10.25,24.71,20.25,33.12,29.08,11.75l2-4.83,19.06-46A16.06,16.06,0,0,0,319.2,446.46Z"/><path class="cls-24" d="M203.67,408.82,169.53,469a16.06,16.06,0,0,1-21.84,6h0a16.07,16.07,0,0,1-6-21.84L175.8,393C185.72,375.54,213.07,392.25,203.67,408.82Z"/><path class="cls-24" d="M191.3,508.73l-2-4.83-18.56-46.49a16,16,0,0,0-29.6,12.28l19.07,46,2,4.84C171.05,541.86,201.55,533.44,191.3,508.73Z"/><path class="cls-25" d="M262.51,402.07l16.95,29.87,28.13-16.82L291,385.89C281.08,368.41,253.1,385.5,262.51,402.07Z"/><path class="cls-25" d="M208.38,402.07l-17.52,30.87-28.19-16.86,17.15-30.23C189.74,368.37,217.78,385.5,208.38,402.07Z"/><path class="cls-23" d="M249.67,210.83c5.69,27.74,42.17,62.07,59.52,64C312.2,234.18,275.57,202.7,249.67,210.83Z"/><path class="cls-26" d="M246.06,311.4c-4.09,10.44-17.24,10.26-21.34,0A15.19,15.19,0,0,0,246.06,311.4Z"/><path class="cls-27" d="M289.21,683.44c-3.69-6.77-12.68-11.7-19.5-21.86-6.16-10.66-18.77-18.84-23.69-1.75-2.4,8.32-3.52,14.28-2.65,18.62a6.92,6.92,0,0,1,1.74,3.14,6.15,6.15,0,0,1,1.82,1.73,6.27,6.27,0,0,1,1.76,1.51,6.23,6.23,0,0,1,2.86,1.69,8.14,8.14,0,0,1,.87,0,6.57,6.57,0,0,1,4.84,1.91c.22,0,.43,0,.66,0a6.57,6.57,0,0,1,4.78,1.84,6.11,6.11,0,0,1,2.16,1.14,6.28,6.28,0,0,1,4.4,2.45,7.4,7.4,0,0,1,1.07-.07,6.55,6.55,0,0,1,5,2.08c.25,0,.49,0,.75,0a8.06,8.06,0,0,1,1.23.1,6.4,6.4,0,0,1,5.74-3.2,6.72,6.72,0,0,1,2.89-.78.24.24,0,0,0,0-.08C285.13,688.67,286.23,685,289.21,683.44Z"/><path class="cls-28" d="M289.16,683.36a13.42,13.42,0,0,1,1.16,2.65c4.13,13.32-9.83,12.67-18.46,10.59-9-2.17-13.34-7.55-18.3-9-6.52-1.88-9.57-4.83-10.3-9.79,6.93,5.39,17.33,9.8,28.43,13.45A24.54,24.54,0,0,1,289.16,683.36Z"/><path class="cls-29" d="M284.45,677.75a1,1,0,0,0,1.2-1.64,11,11,0,0,0-3.54-1.49h0a1,1,0,0,0,.77-.26,1,1,0,0,0,.28-.26,1,1,0,0,0-.22-1.42,16.39,16.39,0,0,0-5-2.07l.49,0a1,1,0,0,0,.18-2,10.44,10.44,0,0,0-5.89,1.08h-.15c-3.34-.27-6.78,0-9.3,1.44a1,1,0,1,0,1,1.78,12.7,12.7,0,0,1,5.84-1.27A19.85,19.85,0,0,0,267,675.9a1,1,0,0,0,1.14,1.67,14.46,14.46,0,0,1,5.39-1.55,22.86,22.86,0,0,0-3,4.21,1,1,0,1,0,1.75,1,17.68,17.68,0,0,1,3.55-4.64,8.15,8.15,0,0,1,.93-.71c3.34.11,6.37.87,7.71,1.85Zm-5.89-4.87a9.92,9.92,0,0,0-2.38,1,22.6,22.6,0,0,0-5.93.7,12.38,12.38,0,0,1,1.88-2,9.82,9.82,0,0,1,1-.75A29.11,29.11,0,0,1,278.56,672.88Z"/><path class="cls-27" d="M227.36,659.22c-4.92-17.08-17.53-8.9-23.69,1.76-6.9,10.28-16,15.21-19.64,22.11a6.14,6.14,0,0,1,.42.47,7.34,7.34,0,0,1,3.91,6.33c0,.08,0,.17,0,.25a6.08,6.08,0,0,1,.47.39,6.34,6.34,0,0,1,4.77,3,8.47,8.47,0,0,1,1-.07,7.07,7.07,0,0,1,3,.64,7.43,7.43,0,0,1,2.06-.28,7.06,7.06,0,0,1,3.23.74,7.71,7.71,0,0,1,2-.79,6.43,6.43,0,0,1,3.7-1.64,6.44,6.44,0,0,1,5-2.32,22.07,22.07,0,0,1,5.64-3.71,6.44,6.44,0,0,1,4.11-1.79A6.38,6.38,0,0,1,226.3,683a6.5,6.5,0,0,1,2-2.5,6.42,6.42,0,0,1,.83-.9,6.9,6.9,0,0,1,.76-1.54C230.88,673.74,229.81,667.74,227.36,659.22Z"/><path class="cls-28" d="M184.21,682.76a17,17,0,0,0-1.16,2.64c-4.12,13.33,9.84,12.68,18.46,10.6,9-2.17,13.35-7.55,18.31-9,6.52-1.89,9.52-4.83,10.24-9.79-6.92,5.38-17.27,9.8-28.38,13.45A24.52,24.52,0,0,0,184.21,682.76Z"/><path class="cls-29" d="M188.93,677.14c1.33-1,4.36-1.73,7.7-1.84a9.56,9.56,0,0,1,.94.7,17.67,17.67,0,0,1,3.54,4.65,1,1,0,0,0,1.76-1,22.16,22.16,0,0,0-3-4.21,14.57,14.57,0,0,1,5.4,1.55,1,1,0,0,0,1.38-.4,1,1,0,0,0-.24-1.27,20.21,20.21,0,0,0-3.15-4.27,12.84,12.84,0,0,1,5.85,1.28,1,1,0,1,0,1-1.78c-2.52-1.39-6-1.71-9.29-1.45l-.15,0a10.35,10.35,0,0,0-5.89-1.08,1,1,0,1,0,.18,2l.49,0a16.36,16.36,0,0,0-5,2.07,1,1,0,0,0-.21,1.42,1.11,1.11,0,0,0,.27.26,1.07,1.07,0,0,0,.78.26h0a10.79,10.79,0,0,0-3.53,1.49,1,1,0,1,0,1.2,1.63Zm11.27-6a8.89,8.89,0,0,1,1,.75,12,12,0,0,1,1.89,2,22.19,22.19,0,0,0-5.93-.7,9.92,9.92,0,0,0-2.38-1A29,29,0,0,1,200.2,671.18Z"/><path class="cls-24" d="M277.59,553.14l-5.73,111.43c-4.64-4.21-9.38-1.78-14.41,4-3.56,4.09-12.93,1.09-13.68-3.74l.18-110C244,549.9,277.59,553.14,277.59,553.14Z"/><path class="cls-24" d="M195.29,552.94,201,664.37c4.65-4.21,9.38-1.78,14.41,4,3.56,4.09,12.93,1.09,13.68-3.74l-.18-110C228.92,549.7,195.29,552.94,195.29,552.94Z"/><path class="cls-25" d="M279.52,571.6l-.55-57V378.84H192.89V571.6H230.2s-.08-31.45,4.53-31.56c6-.15,5.48,31.56,5.48,31.56Z"/><path class="cls-27" d="M212,378.84h47.85v3a24,24,0,0,1-23.93,23.93h0A24,24,0,0,1,212,381.84Z"/><path class="cls-24" d="M235.39,313.15h0a19.5,19.5,0,0,1,19.44,19.44v44.54a19.5,19.5,0,0,1-19.44,19.44h0A19.5,19.5,0,0,1,216,377.13V332.59A19.5,19.5,0,0,1,235.39,313.15Z"/><path class="cls-30" d="M235.39,207.42c-100.49,0-86.57,133.79-19.39,155.89,0-.22-.05-.44-.05-.67,0-16.7,38.88-16.7,38.88,0,0,.23,0,.45-.05.67C322,341.21,335.88,207.42,235.39,207.42Z"/><path class="cls-31" d="M258.12,296.58c2.9,0,5.27-4.34,5.27-9.66s-2.37-9.67-5.27-9.67-5.28,4.34-5.28,9.67S255.21,296.58,258.12,296.58Z"/><path class="cls-31" d="M212.67,296.58c2.9,0,5.27-4.34,5.27-9.66s-2.37-9.67-5.27-9.67-5.28,4.34-5.28,9.67S209.76,296.58,212.67,296.58Z"/><path class="cls-31" d="M219.66,261.07c-5.06-3.59-13.54-1.09-17.8,3.64-2.14,2.38-.29,2.56,1.15,1.21,4.68-4.35,10.63-4.49,15.62-2.14C221.28,265,222.48,263.07,219.66,261.07Z"/><path class="cls-31" d="M251.37,261.07c5.07-3.59,13.55-1.09,17.81,3.64,2.13,2.38.29,2.56-1.16,1.21-4.67-4.35-10.63-4.49-15.62-2.14C249.76,265,248.55,263.07,251.37,261.07Z"/><path class="cls-32" d="M216,363.31c1,15.78,37.74,15.78,38.78,0a62.19,62.19,0,0,1-38.78,0Z"/><path class="cls-26" d="M262.83,327c-12.78,8.69-40.22,9-54.88,0A112.27,112.27,0,0,0,262.83,327Z"/><path class="cls-26" d="M248.14,335.73c-4.75,6.46-20.46,6.36-25.5,0C230,338.73,240.79,338.74,248.14,335.73Z"/><path class="cls-23" d="M274.28,214.36c-9.57,31.33-87.9,69.66-116.62,55.22C155.46,195.51,248.18,183.37,274.28,214.36Z"/><path class="cls-33" d="M154.78,257.41s73.22-58.12,156.88,0c0,0-15.45-60.91-77.42-58.92S165.46,230.2,154.78,257.41Z"/><path class="cls-34" d="M163.67,235.58s67.34-23.6,138.27,0c0,0-16.39-32.58-59.16-37.14,0,0-8.46,7.54-15.59.41C227.19,198.85,179.05,198.2,163.67,235.58Z"/><ellipse class="cls-35" cx="204.66" cy="213.11" rx="23.55" ry="12.31" transform="translate(-32.35 36.68) rotate(-9.5)"/><ellipse class="cls-36" cx="204.46" cy="209.81" rx="23.55" ry="11.14" transform="translate(-31.81 36.6) rotate(-9.5)"/><ellipse class="cls-35" cx="262.48" cy="213.34" rx="12.31" ry="23.55" transform="matrix(0.16, -0.99, 0.99, 0.16, 8.76, 437.03)"/><ellipse class="cls-36" cx="262.68" cy="209.98" rx="11.08" ry="23.55" transform="translate(12.24 434.43) rotate(-80.5)"/><path class="cls-33" d="M158.58,254.69s-10.88,22.95-5.37,62.24-8.63,47.92-8.63,47.92-6.06.92-3.67-3.12,9.22-18,8.56-24.79-.11-14.5-2.5-34.88,4-41.93,7.81-44.65Z"/><path class="cls-33" d="M306.61,252.39s10.87,22.95,5.37,62.24,8.62,47.92,8.62,47.92,6.06.91,3.68-3.13-9.22-18-8.56-24.78.11-14.51,2.5-34.89-4-41.93-7.81-44.64Z"/><circle class="cls-37" cx="212.67" cy="286.92" r="15.17"/><circle class="cls-37" cx="258.12" cy="286.92" r="15.17"/><path class="cls-38" d="M227.84,286.92s8.29-8.39,15.1,0"/><path class="cls-39" d="M231.43,330.32v3.93a.68.68,0,0,0,.68.68h2.43a.74.74,0,0,0,.73-.74v-3.81Z"/><path class="cls-39" d="M236.43,330.32v3.87a.74.74,0,0,0,.74.74h2.4a.7.7,0,0,0,.7-.7v-3.85Z"/><path class="cls-26" d="M245,311.06c-3.67,9.37-15.47,9.2-19.14,0A13.62,13.62,0,0,0,245,311.06Z"/></g><g id="Layer_16" data-name="Layer 16"><line class="cls-40" x1="642.06" y1="447.97" x2="729.92" y2="392.44"/><line class="cls-40" x1="1081.85" y1="471.55" x2="1147.81" y2="422.99"/><line class="cls-40" x1="770.25" y1="253.48" x2="852.08" y2="268.27"/><line class="cls-40" x1="896.78" y1="165.32" x2="868.86" y2="243.65"/><line class="cls-40" x1="1099.75" y1="216.36" x2="1099.75" y2="299.52"/><rect class="cls-41" x="948.88" y="471.55" width="132.97" height="22.5" rx="2" ry="2"/><rect class="cls-41" x="535.37" y="442.08" width="116" height="22.5" rx="1.87" ry="1.87"/><rect class="cls-41" x="657.25" y="242.23" width="113" height="22.5" rx="1.85" ry="1.85"/><rect class="cls-41" x="841.24" y="143.27" width="110.91" height="22.5" rx="1.83" ry="1.83"/><rect class="cls-41" x="1071.17" y="193.86" width="57" height="22.5" rx="1.31" ry="1.31"/></g><g id="Layer_14_copy" data-name="Layer 14 copy"><path class="cls-42" d="M549.59,460.42h-8.84V446.25h8.73a1.89,1.89,0,0,1,1.38.49,1.72,1.72,0,0,1,.51,1.29v3.15a2.11,2.11,0,0,1-.49,1.37,2.64,2.64,0,0,1-1.44.84,2.82,2.82,0,0,1,1.49.82,1.86,1.86,0,0,1,.55,1.32v3.09a1.7,1.7,0,0,1-.52,1.32A1.92,1.92,0,0,1,549.59,460.42Zm-1.72-8.65v-2.48c0-.15-.07-.23-.21-.23h-3.28V452h3.28C547.8,452,547.87,451.92,547.87,451.77Zm0,5.75v-2.68q0-.24-.21-.24h-3.28v3.13h3.28A.19.19,0,0,0,547.87,457.52Z"/><path class="cls-42" d="M555.17,446.25h8.91a1.53,1.53,0,0,1,1.12.46,1.5,1.5,0,0,1,.47,1.13v6.49a1.49,1.49,0,0,1-.47,1.12,1.51,1.51,0,0,1-1.12.48H564l1.75,4.49h-3.57l-1.77-4.49h-1.55v4.49h-3.66Zm6.87,6.63V449.5c0-.14-.06-.21-.19-.21h-3v3.78h3a.21.21,0,0,0,.19-.19Z"/><path class="cls-42" d="M579.83,447.91v12.51h-3.66v-3.53H573v3.53h-3.65V447.91a1.58,1.58,0,0,1,1.66-1.66h7.2a1.62,1.62,0,0,1,1.2.46A1.66,1.66,0,0,1,579.83,447.91ZM573,453.83h3.21v-4.27c0-.28-.16-.42-.5-.42H573.4a.44.44,0,0,0-.31.13.37.37,0,0,0-.13.29Z"/><path class="cls-42" d="M583.44,460.42v-3.06h5.31c.16,0,.23-.07.23-.19v-2.06c0-.13-.07-.19-.23-.19H585.1a1.58,1.58,0,0,1-1.66-1.66v-5.35a1.58,1.58,0,0,1,1.66-1.66h7.33v3H587.3c-.14,0-.21.08-.21.23v2.08c0,.13.07.19.21.19H591a1.58,1.58,0,0,1,1.19.46,1.63,1.63,0,0,1,.47,1.2v5.31a1.63,1.63,0,0,1-.47,1.2,1.58,1.58,0,0,1-1.19.46Z"/><path class="cls-42" d="M599.9,446.25v14.17h-3.63V446.25Z"/><path class="cls-42" d="M603.94,460.42V446.25h3.63v11.11h4.51v3.06Z"/><path class="cls-42" d="M618.82,446.25v14.17h-3.63V446.25Z"/><path class="cls-42" d="M622.86,460.42V446.25h9.26v3h-5.63v2.48h4.87v3h-4.87v2.57h5.63v3.06Z"/><path class="cls-42" d="M643.14,460.42,639,452.63v7.79h-3.36V446.25H639l4.25,7.81v-7.81h3.36v14.17Z"/><path class="cls-42" d="M963.91,477.63v12.52h-3.66v-3.53H957v3.53h-3.65V477.63a1.58,1.58,0,0,1,.46-1.19A1.6,1.6,0,0,1,955,476h7.21a1.59,1.59,0,0,1,1.66,1.66ZM957,483.56h3.21v-4.27c0-.28-.17-.42-.5-.42h-2.27a.4.4,0,0,0-.31.13.37.37,0,0,0-.13.29Z"/><path class="cls-42" d="M967.81,476h3.66v10.92a.17.17,0,0,0,.19.19h2.66c.16,0,.23-.06.23-.19V476h3.66v12.56a1.62,1.62,0,0,1-.46,1.16,1.59,1.59,0,0,1-1.14.46h-7.18a1.58,1.58,0,0,1-1.13-.47,1.54,1.54,0,0,1-.49-1.15Z"/><path class="cls-42" d="M982,490.15v-3.07h5.31c.15,0,.23-.06.23-.19v-2.05c0-.13-.08-.19-.23-.19H983.6a1.64,1.64,0,0,1-1.19-.46A1.62,1.62,0,0,1,982,483v-5.36a1.58,1.58,0,0,1,.46-1.19,1.6,1.6,0,0,1,1.19-.47h7.33v3h-5.12c-.14,0-.21.08-.21.23v2.08c0,.12.07.19.21.19h3.65a1.58,1.58,0,0,1,1.66,1.66v5.31a1.62,1.62,0,0,1-.46,1.2,1.66,1.66,0,0,1-1.2.46Z"/><path class="cls-42" d="M993.45,476h10.08V479h-3.21v11.11h-3.65V479h-3.22Z"/><path class="cls-42" d="M1006.24,476h8.91a1.56,1.56,0,0,1,1.12.47,1.52,1.52,0,0,1,.47,1.13v6.49a1.54,1.54,0,0,1-.47,1.12,1.52,1.52,0,0,1-1.12.47H1015l1.74,4.5h-3.57l-1.76-4.5h-1.55v4.5h-3.66Zm6.87,6.64v-3.38c0-.14-.06-.21-.19-.21h-3v3.78h3a.21.21,0,0,0,.19-.19Z"/><path class="cls-42" d="M1030.9,477.63v12.52h-3.66v-3.53H1024v3.53h-3.66V477.63A1.61,1.61,0,0,1,1022,476h7.21a1.61,1.61,0,0,1,1.66,1.66Zm-6.87,5.93h3.21v-4.27c0-.28-.17-.42-.5-.42h-2.27a.39.39,0,0,0-.31.13.37.37,0,0,0-.13.29Z"/><path class="cls-42" d="M1034.8,490.15V476h3.64v11.11H1043v3.07Z"/><path class="cls-42" d="M1049.69,476v14.18h-3.63V476Z"/><path class="cls-42" d="M1053.72,490.15V476H1063v3h-5.62v2.48h4.87v3h-4.87v2.56H1063v3.07Z"/><path class="cls-42" d="M1074,490.15l-4.14-7.79v7.79h-3.36V476h3.36l4.24,7.82V476h3.36v14.18Z"/><path class="cls-42" d="M1087.77,212.2h-4l-2.77-5.42-1.16,1.87v3.55h-3.65V198h3.65v5.91l3.68-5.91h4.07l-4.09,6.16Z"/><path class="cls-42" d="M1093.88,198V212.2h-3.63V198Z"/><path class="cls-42" d="M1105.41,212.2l-4.14-7.79v7.79h-3.36V198h3.36l4.25,7.82V198h3.35V212.2Z"/><path class="cls-42" d="M1123.3,199.68V212.2h-3.65v-3.53h-3.22v3.53h-3.65V199.68a1.58,1.58,0,0,1,.46-1.19,1.63,1.63,0,0,1,1.2-.47h7.2a1.63,1.63,0,0,1,1.2.47A1.58,1.58,0,0,1,1123.3,199.68Zm-6.87,5.93h3.22v-4.27q0-.42-.51-.42h-2.26a.45.45,0,0,0-.45.42Z"/><path class="cls-42" d="M846.52,147.43h7.62a2.89,2.89,0,0,1,2.88,2.88v8.4a2.8,2.8,0,0,1-.85,2,2.77,2.77,0,0,1-2,.85h-7.62Zm6.86,10.08v-6a1,1,0,0,0-.28-.74,1,1,0,0,0-.74-.29h-2.19v8.07h2.19a1,1,0,0,0,.74-.29A1,1,0,0,0,853.38,157.51Z"/><path class="cls-42" d="M871.32,149.09V161.6h-3.65v-3.52h-3.22v3.52H860.8V149.09a1.58,1.58,0,0,1,1.66-1.66h7.2a1.58,1.58,0,0,1,1.66,1.66ZM864.45,155h3.22v-4.26q0-.42-.51-.42h-2.27a.43.43,0,0,0-.31.12.41.41,0,0,0-.13.3Z"/><path class="cls-42" d="M882.72,161.6l-4.13-7.79v7.79h-3.37V147.43h3.37l4.24,7.81v-7.81h3.36V161.6Z"/><path class="cls-42" d="M896,159.06l-2.41-5.48v8h-3.36V147.43h3.69l2.86,6.61,2.63-6.61h3.86V161.6h-3.44v-8.17l-2.4,5.63Z"/><path class="cls-42" d="M917.69,149.09V161.6H914v-3.52h-3.21v3.52h-3.65V149.09a1.62,1.62,0,0,1,.46-1.2,1.6,1.6,0,0,1,1.19-.46H916a1.58,1.58,0,0,1,1.19.46A1.63,1.63,0,0,1,917.69,149.09ZM910.82,155H914v-4.26c0-.28-.17-.42-.5-.42h-2.27a.41.41,0,0,0-.31.12.41.41,0,0,0-.13.3Z"/><path class="cls-42" d="M921.59,147.43h8.91a1.59,1.59,0,0,1,1.59,1.59v6.49a1.6,1.6,0,0,1-1.59,1.6h-.11l1.74,4.49h-3.57l-1.76-4.49h-1.55v4.49h-3.66Zm6.87,6.63v-3.38c0-.14-.06-.21-.19-.21h-3v3.78h3a.22.22,0,0,0,.13-.06A.18.18,0,0,0,928.46,154.06Z"/><path class="cls-42" d="M947.42,161.6h-4l-2.77-5.41-1.16,1.87v3.54h-3.65V147.43h3.65v5.9l3.68-5.9h4.07l-4.09,6.15Z"/><path class="cls-42" d="M662.66,260.08V245.9h9v3h-5.35v3.21h4.62v3h-4.62v4.89Z"/><path class="cls-42" d="M674.84,245.9h8.9a1.54,1.54,0,0,1,1.12.47,1.49,1.49,0,0,1,.48,1.13V254a1.62,1.62,0,0,1-1.6,1.59h-.1l1.74,4.5h-3.57l-1.77-4.5h-1.55v4.5h-3.65Zm6.86,6.64v-3.38c0-.14-.06-.21-.19-.21h-3v3.78h3a.18.18,0,0,0,.13-.06A.22.22,0,0,0,681.7,252.54Z"/><path class="cls-42" d="M699.49,247.56v12.52h-3.65v-3.53h-3.22v3.53H689V247.56a1.58,1.58,0,0,1,.46-1.19,1.63,1.63,0,0,1,1.2-.47h7.2a1.63,1.63,0,0,1,1.2.47A1.58,1.58,0,0,1,699.49,247.56Zm-6.87,5.92h3.22v-4.26q0-.42-.51-.42h-2.27a.4.4,0,0,0-.31.13.41.41,0,0,0-.13.29Z"/><path class="cls-42" d="M710.89,260.08l-4.13-7.79v7.79H703.4V245.9h3.36l4.24,7.82V245.9h3.36v14.18Z"/><path class="cls-42" d="M730,260.08h-4l-2.77-5.42L722,256.53v3.55h-3.65V245.9H722v5.9l3.68-5.9h4.07l-4.09,6.16Z"/><path class="cls-42" d="M732.44,245.9h8.9a1.56,1.56,0,0,1,1.13.47,1.52,1.52,0,0,1,.47,1.13V254a1.54,1.54,0,0,1-.47,1.12,1.53,1.53,0,0,1-1.13.47h-.1l1.74,4.5h-3.57l-1.76-4.5h-1.56v4.5h-3.65Zm6.87,6.64v-3.38c0-.14-.07-.21-.19-.21h-3v3.78h3a.17.17,0,0,0,.12-.06A.19.19,0,0,0,739.31,252.54Z"/><path class="cls-42" d="M750.33,245.9v14.18H746.7V245.9Z"/><path class="cls-42" d="M759.34,254.39v-3h6.42v3h-1.17v4.07a1.58,1.58,0,0,1-.47,1.16,1.63,1.63,0,0,1-1.15.46h-7.1a1.62,1.62,0,0,1-1.16-.46,1.55,1.55,0,0,1-.47-1.16v-11a1.51,1.51,0,0,1,.48-1.12,1.58,1.58,0,0,1,1.15-.48h8.78v3h-6.57c-.14,0-.21.08-.21.23v7.6a.19.19,0,0,0,.21.21H761c.15,0,.23-.07.23-.21v-2.39Z"/></g></g></svg>