<svg xmlns="http://www.w3.org/2000/svg" viewBox="0 0 94.7 44.53"><defs><style>.cls-1{fill:#544344;}.cls-2{fill:#483435;}.cls-3{fill:#9fc4c2;}.cls-4,.cls-7{fill:#739b2d;}.cls-4{stroke:#698924;}.cls-4,.cls-5{stroke-miterlimit:10;}.cls-5,.cls-9{fill:#86a525;}.cls-5{stroke:#739b2d;}.cls-6{fill:#493a35;}.cls-8{fill:#698924;}.cls-10{fill:#3f2d2f;}</style></defs><title>iguazu</title><g id="Layer_2" data-name="Layer 2"><g id="Iguaçu_Falls" data-name="Iguaçu Falls"><path class="cls-1" d="M74.82,5.69a7.64,7.64,0,0,0-4.69-2.76,3,3,0,0,0-.6-.05H27.21a3,3,0,0,0-.6.05,7.69,7.69,0,0,0-4.7,2.76A4.4,4.4,0,0,0,21,8.4V25.59H75.73V8.4A4.34,4.34,0,0,0,74.82,5.69Z"/><path class="cls-1" d="M74.82,2.81A7.64,7.64,0,0,0,70.13.05a3,3,0,0,0-.6,0H27.21a3,3,0,0,0-.6.05,7.69,7.69,0,0,0-4.7,2.76A4.4,4.4,0,0,0,21,5.52V22.71H75.73V5.52A4.34,4.34,0,0,0,74.82,2.81Z"/><path class="cls-2" d="M79.79,20.82a9.11,9.11,0,0,0-5.57-3.28,4.37,4.37,0,0,0-.72-.06H23.24a4.37,4.37,0,0,0-.72.06A9.11,9.11,0,0,0,17,20.82,5.17,5.17,0,0,0,15.87,24V44.46h65V24A5.17,5.17,0,0,0,79.79,20.82Z"/><polygon class="cls-3" points="18.89 17.48 19.18 44.46 22.15 44.46 22.54 17.48 18.89 17.48"/><polygon class="cls-3" points="33.42 17.48 33.6 44.46 35.5 44.46 35.74 17.48 33.42 17.48"/><polygon class="cls-3" points="36.88 17.48 37.06 44.46 38.96 44.46 39.2 17.48 36.88 17.48"/><polygon class="cls-3" points="49.55 0 49.73 17.48 51.63 17.48 51.87 0 49.55 0"/><polygon class="cls-3" points="63.61 0 63.8 17.48 65.69 17.48 65.94 0 63.61 0"/><polygon class="cls-3" points="67.31 0 67.44 17.48 68.79 17.48 68.96 0 67.31 0"/><polygon class="cls-3" points="52.8 0 53.25 17.48 57.9 17.48 58.5 0 52.8 0"/><polygon class="cls-3" points="59.23 0 59.49 17.48 62.18 17.48 62.53 0 59.23 0"/><polygon class="cls-3" points="53.34 17.48 53.53 44.46 55.42 44.46 55.67 17.48 53.34 17.48"/><polygon class="cls-3" points="69.81 17.48 69.99 44.46 71.89 44.46 72.13 17.48 69.81 17.48"/><polygon class="cls-3" points="57.94 17.48 58.59 44.46 65.34 44.46 66.21 17.48 57.94 17.48"/><polygon class="cls-3" points="43.01 17.48 43.66 44.46 50.41 44.46 51.28 17.48 43.01 17.48"/><polygon class="cls-3" points="27.63 0 27.63 17.48 45.89 17.48 45.96 0 27.63 0"/><polygon class="cls-3" points="27.4 17.48 26.62 44.46 30.06 44.46 31.51 17.48 27.4 17.48"/><path class="cls-4" d="M80.34,16a3.47,3.47,0,0,0,1.33-6A3.48,3.48,0,0,0,79,4.32a3.47,3.47,0,0,0-6.28,2.37,3.42,3.42,0,0,0,.64,1.69,3.46,3.46,0,0,0,1.15,4.25A3.48,3.48,0,1,0,80.34,16Z"/><path class="cls-4" d="M25,10.89c0-.1-.05-.2-.07-.3a4.07,4.07,0,0,0,.46-1.87,4,4,0,0,0-.52-2,3.74,3.74,0,0,0,.19-1.21,4,4,0,0,0-5.57-3.67,4,4,0,0,0-2.23-.69,4,4,0,0,0-3.44,6,3.93,3.93,0,0,0-.62,3.31,3.86,3.86,0,0,0-.39,1.7A4,4,0,0,0,15.56,16a4,4,0,0,0,5.68,1.91,4,4,0,1,0,3.79-7Z"/><path class="cls-5" d="M22.29,13.64c0-.1-.05-.2-.07-.3a4.07,4.07,0,0,0,.46-1.87,4,4,0,0,0-.52-2,3.74,3.74,0,0,0,.19-1.21,4,4,0,0,0-5.57-3.67,4,4,0,0,0-2.23-.69,4,4,0,0,0-3.44,6,3.93,3.93,0,0,0-.62,3.31A3.86,3.86,0,0,0,10.1,15a4,4,0,0,0,2.72,3.78,4,4,0,0,0,5.68,1.91,4,4,0,1,0,3.79-7Z"/><rect class="cls-6" x="79.93" y="27.96" width="1.89" height="16.5"/><polygon class="cls-6" points="75.68 33.32 79.93 37.43 79.93 36.16 75.68 32.7 75.68 33.32"/><polygon class="cls-6" points="86.08 31.95 81.82 36.06 81.82 34.79 86.08 31.33 86.08 31.95"/><path class="cls-5" d="M94.17,27.22a1.33,1.33,0,0,0,0-.19l-.1-.17a1.16,1.16,0,0,0-.26-.28l-.16-.1,0-.06a.21.21,0,0,0,0-.06,1.13,1.13,0,0,0,.21-.12.59.59,0,0,0,.23-.31.31.31,0,0,0,0-.19.43.43,0,0,0-.11-.21.52.52,0,0,0-.11-.1.56.56,0,0,0-.15-.1l-.18-.09a.65.65,0,0,0,0-.19.6.6,0,0,0,0-.19.21.21,0,0,0,0-.06,1,1,0,0,0,.13-.4,1.16,1.16,0,0,0-.19-.76l-.12-.16-.13-.13-.14-.11-.15-.08a.7.7,0,0,0-.53-.07,3.18,3.18,0,0,0,.32-.63,1,1,0,0,0,0-.49,1.16,1.16,0,0,0-.27-.56,1.69,1.69,0,0,0-.26-.22l-.26-.12a.84.84,0,0,0-.27,0,1.09,1.09,0,0,0-.25,0,1.79,1.79,0,0,0-.47.21,3.44,3.44,0,0,0-.36.28l0,0a1.71,1.71,0,0,0,0-.5,1.47,1.47,0,0,0-.13-.42,1,1,0,0,0-.27-.31,1.09,1.09,0,0,0-.35-.19,1.08,1.08,0,0,0-.77.05,1,1,0,0,0-.49.42h-.08a.92.92,0,0,0-.08-.27.65.65,0,0,0-.25-.29A.58.58,0,0,0,88,20a.75.75,0,0,0-.23.07,1.46,1.46,0,0,0-.25.21l-.12.17a1.6,1.6,0,0,0-.29,0,1,1,0,0,0-.5-.34,1.16,1.16,0,0,0-.8.06,1.45,1.45,0,0,0-.34.2A1.2,1.2,0,0,0,85,20.1a1.39,1.39,0,0,0-.76,0,1.55,1.55,0,0,0-.74.43,1.08,1.08,0,0,0-.2.29,1.11,1.11,0,0,0-.07.16.64.64,0,0,0,0,.07,1.1,1.1,0,0,0-.27.44.65.65,0,0,0-.05.27v.13l0,.13a.6.6,0,0,0,.06.19l-.06.06,0,0-.11.08a.43.43,0,0,0-.1.09l-.09.1-.06.1a.9.9,0,0,0-.25.23.83.83,0,0,0-.12.16l-.09.15a1.39,1.39,0,0,0-.1.31.88.88,0,0,0,0,.28.77.77,0,0,0,.07.26.66.66,0,0,0,.09.19.86.86,0,0,0,.11.28,1.05,1.05,0,0,0,.25.3l.08.06a1.85,1.85,0,0,0-.41.07,1.31,1.31,0,0,0-.4.23,1.23,1.23,0,0,0-.41.75,1.48,1.48,0,0,0,0,.21,1.23,1.23,0,0,0,0,.2,1.15,1.15,0,0,0,.14.38,1.21,1.21,0,0,0,.6.52,1.11,1.11,0,0,0-.33.16.6.6,0,0,0-.25.32s0,.07,0,.1,0,.07,0,.11a.68.68,0,0,0,.11.23,1.16,1.16,0,0,0,.25.24,2.06,2.06,0,0,0,.42.2,1.16,1.16,0,0,0-.46.81,1.33,1.33,0,0,0,.22.84l.12.17.15.15a1.34,1.34,0,0,0,.31.22,1.32,1.32,0,0,0,.3.1.67.67,0,0,0,.25,0c0,.06-.07.14-.13.26a1.78,1.78,0,0,0-.14.41,1.07,1.07,0,0,0,0,.53s0,.09,0,.14l.08.15a.76.76,0,0,0,.11.14l.14.15a1.6,1.6,0,0,0,.31.22,1.21,1.21,0,0,0,.3.11,1.12,1.12,0,0,0,.55,0,1.64,1.64,0,0,0,.46-.27,3.41,3.41,0,0,0,.39-.37h0a1.46,1.46,0,0,0,.06.53.85.85,0,0,0,.09.22.91.91,0,0,0,.13.19,1.13,1.13,0,0,0,.34.28,1.17,1.17,0,0,0,.41.14,1.22,1.22,0,0,0,.8-.14,1.3,1.3,0,0,0,.31-.26,1.2,1.2,0,0,0,.21-.34,1.11,1.11,0,0,0,.16.33.67.67,0,0,0,.14.15.81.81,0,0,0,.18.1.37.37,0,0,0,.21,0,.5.5,0,0,0,.24-.1,1.5,1.5,0,0,0,.43-.68l.18.19a1.13,1.13,0,0,0,.2.13,1,1,0,0,0,.43.13,1.39,1.39,0,0,0,.84-.23,1.45,1.45,0,0,0,.53-.58.73.73,0,0,0,.07-.56l.27.13a1.8,1.8,0,0,0,.41.13,1,1,0,0,0,.25,0,1.37,1.37,0,0,0,.28-.05.86.86,0,0,0,.29-.14l.15-.11.14-.15a1.58,1.58,0,0,0,.22-.33,1.24,1.24,0,0,0,.1-.31.77.77,0,0,0,0-.15.76.76,0,0,0,0-.15,1.1,1.1,0,0,0-.06-.26l-.09-.18a2,2,0,0,0,.15-.29,1,1,0,0,0,0-.55v0l.14-.11a1.1,1.1,0,0,0,.26-.36,1.29,1.29,0,0,0,.1-.42.82.82,0,0,0,0-.27.12.12,0,0,0,.05,0,1.09,1.09,0,0,0,.13-.17,1.54,1.54,0,0,0,.08-.19,1.94,1.94,0,0,0,0-.2A.94.94,0,0,0,94.17,27.22Z"/><path class="cls-5" d="M79.13,28.49a1.37,1.37,0,0,0,.07-.87,1.54,1.54,0,0,0-.36-.71.76.76,0,0,0-.5-.26,3.38,3.38,0,0,0,.48-.55,1.6,1.6,0,0,0,.1-.23.87.87,0,0,0,0-.28.89.89,0,0,0,0-.32,1.48,1.48,0,0,0-.14-.36,2,2,0,0,0-.22-.32,2.32,2.32,0,0,0-.25-.21,1.14,1.14,0,0,0-.55-.15,1.48,1.48,0,0,0-.46.08h0a.94.94,0,0,0-.12-.18.71.71,0,0,0-.15-.15.83.83,0,0,0-.18-.13h0s0,0,0,0a1.87,1.87,0,0,0-.07-.22,1.34,1.34,0,0,0-.25-.37.75.75,0,0,0-.17-.14l-.06,0a1.42,1.42,0,0,0,0-.22.82.82,0,0,0,0-.27,1,1,0,0,0-.08-.28,2.11,2.11,0,0,0-.18-.27,1.86,1.86,0,0,0-.3-.24,1.18,1.18,0,0,0-.67-.21,1.12,1.12,0,0,0-.27,0,.87.87,0,0,0-.24.1,1.21,1.21,0,0,0-.25.17,1.64,1.64,0,0,0-.37-.26,1.53,1.53,0,0,0-.41-.14,1.32,1.32,0,0,0-.44-.18,1.26,1.26,0,0,0-.43,0l-.21,0a.68.68,0,0,0-.2.07,1.18,1.18,0,0,0-.19.11c0,.05-.11.1-.16.16a1.37,1.37,0,0,0-.13.2,1.93,1.93,0,0,0-.35-.29,1.3,1.3,0,0,0-1.28,0,1.41,1.41,0,0,0-.44.33.92.92,0,0,0-.37,0,.63.63,0,0,0-.19,0l-.19.07a1,1,0,0,0-.33.23,1.36,1.36,0,0,0-.23.34,1.23,1.23,0,0,0-.09.44,1.15,1.15,0,0,0,0,.32l-.14.08L68,23.2a1.54,1.54,0,0,0-.5-.16H67.2a.9.9,0,0,0-.27.07,1,1,0,0,0-.26.16l-.13.12-.11.15a1.16,1.16,0,0,0-.23.6,1.12,1.12,0,0,0,.09.5,2.16,2.16,0,0,0,.32.5.91.91,0,0,0-.16.11h0a.84.84,0,0,0-.27.13,1.27,1.27,0,0,0-.27.25,1.24,1.24,0,0,0-.21.33,1.42,1.42,0,0,0-.12.4.37.37,0,0,0,0,.11,1.43,1.43,0,0,0-.43.58,1.46,1.46,0,0,0,0,1.05,1.41,1.41,0,0,0,.13.24,1.71,1.71,0,0,0,.18.2.87.87,0,0,0,.24.15.79.79,0,0,0,.26.08h0a2,2,0,0,0-.4.37,1.4,1.4,0,0,0-.15.24l-.06.14,0,.14a1.13,1.13,0,0,0,0,.32,1.05,1.05,0,0,0,.08.34.71.71,0,0,0,.08.18.82.82,0,0,0,.11.17.75.75,0,0,0,.14.17,1.33,1.33,0,0,0,.17.16,1.45,1.45,0,0,0,.36.23l.18.07.16,0a1,1,0,0,0,.29,0v0a2.6,2.6,0,0,0-.1.25,2.38,2.38,0,0,0,0,.26,1.23,1.23,0,0,0,0,.27.57.57,0,0,0,0,.14.77.77,0,0,0,0,.15,1.48,1.48,0,0,0,.15.35,1.65,1.65,0,0,0,.23.32,1.21,1.21,0,0,0,.26.2,1,1,0,0,0,.54.14,1.09,1.09,0,0,0,.26,0,1.12,1.12,0,0,0,.26-.08,3.54,3.54,0,0,0,.48-.23,1.46,1.46,0,0,0-.1.53,1.4,1.4,0,0,0,.1.46,1.21,1.21,0,0,0,.25.37l.17.14.19.11a.86.86,0,0,0,.21.07l.21,0h.31l.1,0a1.12,1.12,0,0,0,.66-.44,1.46,1.46,0,0,0,.08.37.61.61,0,0,0,.25.32.65.65,0,0,0,.21.06.59.59,0,0,0,.25,0,1.32,1.32,0,0,0,.6-.54,1.58,1.58,0,0,0,.29.41l.19.13.2.1a1.3,1.3,0,0,0,.44.06,1.66,1.66,0,0,0,.81-.26,1.41,1.41,0,0,0,.29-.25.81.81,0,0,0,.17-.27.55.55,0,0,0,.05-.24,2.94,2.94,0,0,0,.58.43,1.13,1.13,0,0,0,.51.12,1.15,1.15,0,0,0,.31,0,1.74,1.74,0,0,0,.34-.16,1.21,1.21,0,0,0,.49-.49,1,1,0,0,0,.1-.27,1.24,1.24,0,0,0,0-.27,1.58,1.58,0,0,0-.12-.52,3.45,3.45,0,0,0-.24-.47h0a1.69,1.69,0,0,0,.53.09,1.4,1.4,0,0,0,.46-.1,1.21,1.21,0,0,0,.61-.59,1.54,1.54,0,0,0,.08-.19.78.78,0,0,0,0-.21.94.94,0,0,0,0-.41,1.18,1.18,0,0,0-.14-.37,1.14,1.14,0,0,0-.27-.31.89.89,0,0,0,.38,0,.63.63,0,0,0,.33-.22A.37.37,0,0,0,79,30a.6.6,0,0,0,0-.26,1.11,1.11,0,0,0-.16-.3,2.72,2.72,0,0,0-.34-.34,1.18,1.18,0,0,0,.44-.25A1,1,0,0,0,79.13,28.49Z"/><path class="cls-4" d="M89.13,24.44a1.59,1.59,0,0,0-.1-.39,1.23,1.23,0,0,0-.4-.51,1.43,1.43,0,0,0-.22-.15l-.09-.13a1.25,1.25,0,0,0-.23-.23l0,0,0,0a1,1,0,0,0,.16-.35,1.74,1.74,0,0,0,0-1,.56.56,0,0,0,0-.12l-.06-.13a1.09,1.09,0,0,0-.14-.23,1.49,1.49,0,0,0-.38-.37,1.2,1.2,0,0,0-.84-.19,1.5,1.5,0,0,0-.18-.24,2.46,2.46,0,0,0,0-.26,1.18,1.18,0,0,0,0-.4.71.71,0,0,0-.15-.26.59.59,0,0,0-.22-.14,1,1,0,0,0-.85.24,1.26,1.26,0,0,0,0-.47,1.57,1.57,0,0,0,0-.23,1.43,1.43,0,0,0-.08-.22l-.12-.21L85,18.23a1.8,1.8,0,0,0-.39-.29,1.09,1.09,0,0,0-.23-.09,1,1,0,0,0-.25-.06,1.22,1.22,0,0,0-.5,0l-.14,0a1.47,1.47,0,0,0-.84.19,1.66,1.66,0,0,0-.18-.94h0a2.44,2.44,0,0,0-.1-.24.9.9,0,0,0-.37-.31,1.25,1.25,0,0,0-.89-.05c0-.08-.08-.16-.13-.24a1.59,1.59,0,0,0-.76-.59,1.57,1.57,0,0,0-.86,0,1.64,1.64,0,0,0-1-.2,1.25,1.25,0,0,0-.46.15,1.09,1.09,0,0,0-.32-.23,1.36,1.36,0,0,0-.89-.08,2,2,0,0,0-.52.21,2,2,0,0,0-.48.39,1.93,1.93,0,0,0-.39.63l-.32,0a1.45,1.45,0,0,0-.83.49,1.35,1.35,0,0,0-.34.89,1.58,1.58,0,0,0,.09.52,2.49,2.49,0,0,0,.3.55h0a3,3,0,0,0-.61-.09A1.68,1.68,0,0,0,73,19a1.11,1.11,0,0,0-.29.14,1.16,1.16,0,0,0-.26.24,1.57,1.57,0,0,0-.33.77,1.48,1.48,0,0,0,.08.81,1,1,0,0,0,.24.38,1.16,1.16,0,0,0,0,.18,1.06,1.06,0,0,0,0,.25,2.13,2.13,0,0,0,0,.25,1.64,1.64,0,0,0,.22.49l.13.15a1.64,1.64,0,0,0,0,.32,2.27,2.27,0,0,0-.25.06,1.08,1.08,0,0,0-.3.11,1.11,1.11,0,0,0-.27.17,1.3,1.3,0,0,0-.39.58,1.27,1.27,0,0,0-.06.41,1.63,1.63,0,0,0,.23.91,1.22,1.22,0,0,0,.24.3,1.31,1.31,0,0,0,.55.3,4.59,4.59,0,0,0,.84,0,.55.55,0,0,0-.14.25.85.85,0,0,0,0,.36,2.14,2.14,0,0,0,.07.43,1.72,1.72,0,0,0,.21.43,1.43,1.43,0,0,0,.14.2,1,1,0,0,0,.18.17,1.2,1.2,0,0,0,.42.25,1.32,1.32,0,0,0,1.07-.08,1.6,1.6,0,0,0,0,.3,1.91,1.91,0,0,0,0,.24,1.52,1.52,0,0,0,.09.38.55.55,0,0,0,.38.34A.78.78,0,0,0,76,29a1.74,1.74,0,0,0,.36-.25,1.4,1.4,0,0,0,.13.9,1.27,1.27,0,0,0,.26.36,1.46,1.46,0,0,0,.38.27l.21.08.23,0h.24l.25-.05a1.17,1.17,0,0,0,.24-.09,1.42,1.42,0,0,0,.23-.14,1.81,1.81,0,0,0,.43-.44h0a4.22,4.22,0,0,0,.07.61,1.81,1.81,0,0,0,.2.58,1.44,1.44,0,0,0,.18.25l.11.1a.55.55,0,0,0,.14.09,1,1,0,0,0,.32.14,1.79,1.79,0,0,0,.42.05l.21,0,.2,0a.49.49,0,0,0,.17-.06l.15-.08a1.29,1.29,0,0,0,.42-.42,4.45,4.45,0,0,0,.31-.77.87.87,0,0,0,.5.39,1.43,1.43,0,0,0,.43.09h.23l.24,0a1.88,1.88,0,0,0,.47-.17A1.64,1.64,0,0,0,84,30.3a1.53,1.53,0,0,0,.18-.18,1.28,1.28,0,0,0,.28-1,2,2,0,0,0,.52.18,1.13,1.13,0,0,0,.4,0,.53.53,0,0,0,.15-.05.52.52,0,0,0,.13-.06.7.7,0,0,0,.16-.19.69.69,0,0,0,0-.47,1.24,1.24,0,0,0-.14-.37h.07a1.15,1.15,0,0,0,.37.06.93.93,0,0,0,.23,0l.12,0,.11,0a1.42,1.42,0,0,0,.41-.24.73.73,0,0,0,.18-.17l.15-.2a1.37,1.37,0,0,0,.17-1,1.56,1.56,0,0,0-.15-.39h.22a1.84,1.84,0,0,0,.62-.06A1.11,1.11,0,0,0,88.5,26a1.38,1.38,0,0,0,.26-.23,2.22,2.22,0,0,0,.22-.34,2.06,2.06,0,0,0,.13-.46A1.65,1.65,0,0,0,89.13,24.44Z"/><rect class="cls-6" x="15.41" y="27.96" width="1.89" height="16.5"/><polygon class="cls-6" points="11.16 33.32 15.41 37.43 15.41 36.16 11.16 32.7 11.16 33.32"/><polygon class="cls-6" points="21.56 31.95 17.3 36.06 17.3 34.79 21.56 31.33 21.56 31.95"/><path class="cls-5" d="M29.66,27.22,29.6,27l-.1-.17a1,1,0,0,0-.26-.28l-.16-.1,0-.06a.21.21,0,0,0,0-.06l.21-.12a.55.55,0,0,0,.23-.31.31.31,0,0,0,0-.19.43.43,0,0,0-.11-.21.36.36,0,0,0-.11-.1.56.56,0,0,0-.15-.1l-.18-.09a.65.65,0,0,0,0-.19,1.28,1.28,0,0,0,0-.19l0-.06a1.07,1.07,0,0,0,.14-.4,1.22,1.22,0,0,0-.2-.76l-.12-.16-.13-.13-.14-.11-.15-.08a.69.69,0,0,0-.53-.07,3.18,3.18,0,0,0,.32-.63,1,1,0,0,0,0-.49,1.07,1.07,0,0,0-.27-.56,1.69,1.69,0,0,0-.26-.22l-.26-.12a.84.84,0,0,0-.27,0,1.09,1.09,0,0,0-.25,0,1.79,1.79,0,0,0-.47.21,3.44,3.44,0,0,0-.36.28l-.05,0a1.71,1.71,0,0,0,0-.5,1,1,0,0,0-.13-.42.91.91,0,0,0-.27-.31,1,1,0,0,0-.35-.19,1,1,0,0,0-.76.05,1.07,1.07,0,0,0-.5.42H24a.92.92,0,0,0-.08-.27.65.65,0,0,0-.25-.29.58.58,0,0,0-.19,0,.75.75,0,0,0-.23.07,1.13,1.13,0,0,0-.24.21,1.09,1.09,0,0,0-.13.17,1.47,1.47,0,0,0-.29,0,1,1,0,0,0-.5-.34,1.13,1.13,0,0,0-.79.06,1.33,1.33,0,0,0-.35.2,1.12,1.12,0,0,0-.43-.26,1.39,1.39,0,0,0-.76,0,1.55,1.55,0,0,0-.74.43,1.37,1.37,0,0,0-.2.29,1.11,1.11,0,0,0-.07.16.25.25,0,0,1,0,.07,1.22,1.22,0,0,0-.27.44.65.65,0,0,0-.05.27v.13l0,.13a1.06,1.06,0,0,0,.06.19l-.06.06-.05,0-.11.08-.1.09-.09.1-.06.1a1.07,1.07,0,0,0-.25.23.83.83,0,0,0-.12.16l-.09.15a1.39,1.39,0,0,0-.1.31,2.62,2.62,0,0,0,0,.28.77.77,0,0,0,.07.26.66.66,0,0,0,.09.19.86.86,0,0,0,.11.28,1.05,1.05,0,0,0,.25.3l.09.06a1.84,1.84,0,0,0-.42.07,1.31,1.31,0,0,0-.4.23,1.23,1.23,0,0,0-.41.75,1.48,1.48,0,0,0,0,.21,1.23,1.23,0,0,0,0,.2,1.16,1.16,0,0,0,.15.38,1.14,1.14,0,0,0,.6.52,1,1,0,0,0-.34.16.66.66,0,0,0-.25.32.34.34,0,0,0,0,.1.41.41,0,0,0,0,.11.68.68,0,0,0,.11.23,1.16,1.16,0,0,0,.25.24,2.06,2.06,0,0,0,.42.2,1.16,1.16,0,0,0-.46.81,1.4,1.4,0,0,0,.22.84l.12.17.15.15a2,2,0,0,0,.31.22,1.32,1.32,0,0,0,.3.1.65.65,0,0,0,.25,0c0,.06-.07.14-.12.26a1.4,1.4,0,0,0-.15.41,1.2,1.2,0,0,0,0,.53,1.47,1.47,0,0,0,.06.14,1,1,0,0,0,.07.15,1.71,1.71,0,0,0,.11.14l.14.15a2,2,0,0,0,.31.22,1.21,1.21,0,0,0,.3.11,1.12,1.12,0,0,0,.55,0,1.64,1.64,0,0,0,.46-.27,3.41,3.41,0,0,0,.39-.37h0a1.46,1.46,0,0,0,.06.53l.09.22a.91.91,0,0,0,.13.19,1.13,1.13,0,0,0,.34.28,1.25,1.25,0,0,0,.41.14,1.22,1.22,0,0,0,.8-.14,1.13,1.13,0,0,0,.31-.26,1.2,1.2,0,0,0,.21-.34,1.11,1.11,0,0,0,.16.33.67.67,0,0,0,.14.15.81.81,0,0,0,.18.1.41.41,0,0,0,.22,0,.5.5,0,0,0,.23-.1,1.5,1.5,0,0,0,.43-.68l.18.19a1.13,1.13,0,0,0,.2.13,1,1,0,0,0,.43.13,1.37,1.37,0,0,0,.84-.23,1.45,1.45,0,0,0,.53-.58.74.74,0,0,0,.08-.56c.06,0,.14.07.26.13a1.8,1.8,0,0,0,.41.13,1.1,1.1,0,0,0,.26,0,1.41,1.41,0,0,0,.27-.05.86.86,0,0,0,.29-.14l.15-.11.14-.15a1.26,1.26,0,0,0,.22-.33,1.24,1.24,0,0,0,.1-.31.77.77,0,0,0,0-.15.76.76,0,0,0,0-.15,1.1,1.1,0,0,0-.06-.26l-.09-.18a1.34,1.34,0,0,0,.15-.29,1,1,0,0,0,0-.55v0l.14-.11a1.1,1.1,0,0,0,.26-.36,1.29,1.29,0,0,0,.1-.42,1.22,1.22,0,0,0,0-.27l0,0a1.09,1.09,0,0,0,.13-.17,1.54,1.54,0,0,0,.08-.19.84.84,0,0,0,.05-.2A1.13,1.13,0,0,0,29.66,27.22Z"/><path class="cls-5" d="M14.62,28.49a1.52,1.52,0,0,0,.07-.87,1.66,1.66,0,0,0-.37-.71.76.76,0,0,0-.5-.26,3.38,3.38,0,0,0,.48-.55,1.6,1.6,0,0,0,.1-.23.87.87,0,0,0,0-.28.89.89,0,0,0,0-.32,1.43,1.43,0,0,0-.13-.36,2,2,0,0,0-.23-.32,2.32,2.32,0,0,0-.25-.21,1.1,1.1,0,0,0-.54-.15,1.44,1.44,0,0,0-.46.08h0a1.74,1.74,0,0,0-.11-.18,1.14,1.14,0,0,0-.16-.15.83.83,0,0,0-.18-.13h0a.08.08,0,0,0,0,0,.94.94,0,0,0-.07-.22A1.34,1.34,0,0,0,12,23.2a.75.75,0,0,0-.17-.14l-.06,0a.79.79,0,0,0,.05-.22,1.22,1.22,0,0,0,0-.27,1,1,0,0,0-.09-.28,1.41,1.41,0,0,0-.18-.27,1.5,1.5,0,0,0-.3-.24,1.18,1.18,0,0,0-.66-.21,1.14,1.14,0,0,0-.28,0,.87.87,0,0,0-.24.1,1.21,1.21,0,0,0-.25.17,1.44,1.44,0,0,0-.37-.26,1.53,1.53,0,0,0-.41-.14,1.32,1.32,0,0,0-.44-.18,1.24,1.24,0,0,0-.43,0l-.21,0a.8.8,0,0,0-.2.07l-.18.11a1.29,1.29,0,0,0-.17.16,1.37,1.37,0,0,0-.13.2,1.64,1.64,0,0,0-.35-.29,1.3,1.3,0,0,0-1.28,0,1.41,1.41,0,0,0-.44.33.88.88,0,0,0-.36,0,.69.69,0,0,0-.2,0l-.18.07a.86.86,0,0,0-.33.23,1.16,1.16,0,0,0-.24.34,1.23,1.23,0,0,0-.09.44,1.15,1.15,0,0,0,0,.32l-.14.08-.26-.15a1.54,1.54,0,0,0-.5-.16H2.68a.9.9,0,0,0-.27.07,1,1,0,0,0-.26.16L2,23.39l-.12.15a1.16,1.16,0,0,0-.23.6,1.12,1.12,0,0,0,.09.5,2.16,2.16,0,0,0,.32.5.58.58,0,0,0-.15.11h0a1,1,0,0,0-.27.13,1.27,1.27,0,0,0-.27.25,1.24,1.24,0,0,0-.21.33,1.42,1.42,0,0,0-.12.4s0,.07,0,.11a1.32,1.32,0,0,0-.42.58,1.41,1.41,0,0,0,0,1.05c0,.08.08.16.13.24a1.19,1.19,0,0,0,.19.2.83.83,0,0,0,.23.15.79.79,0,0,0,.26.08h0a2,2,0,0,0-.4.37,2.52,2.52,0,0,0-.15.24l-.06.14,0,.14a1.13,1.13,0,0,0,0,.32,1.05,1.05,0,0,0,.08.34,1.42,1.42,0,0,0,.08.18,1.63,1.63,0,0,0,.11.17.75.75,0,0,0,.14.17l.17.16a1.66,1.66,0,0,0,.36.23l.18.07.16,0a1,1,0,0,0,.29,0v0a2.6,2.6,0,0,0-.1.25,1.17,1.17,0,0,0,0,.26.82.82,0,0,0,0,.27.57.57,0,0,0,0,.14s0,.1,0,.15a1.48,1.48,0,0,0,.15.35,1.65,1.65,0,0,0,.23.32,1.21,1.21,0,0,0,.26.2,1,1,0,0,0,.54.14,1.09,1.09,0,0,0,.26,0,1.12,1.12,0,0,0,.26-.08,3.54,3.54,0,0,0,.48-.23,1.69,1.69,0,0,0-.09.53,1.18,1.18,0,0,0,.09.46,1.21,1.21,0,0,0,.25.37l.17.14.19.11a.86.86,0,0,0,.21.07l.21,0h.31l.1,0a1.17,1.17,0,0,0,.67-.44,1.09,1.09,0,0,0,.07.37.61.61,0,0,0,.25.32.65.65,0,0,0,.21.06.66.66,0,0,0,.26,0,1.36,1.36,0,0,0,.59-.54A1.58,1.58,0,0,0,8.2,35l.19.13.2.1a1.34,1.34,0,0,0,.44.06A1.66,1.66,0,0,0,9.84,35a1.19,1.19,0,0,0,.29-.25.81.81,0,0,0,.17-.27.43.43,0,0,0,0-.24,3.29,3.29,0,0,0,.58.43,1.13,1.13,0,0,0,.51.12,1.15,1.15,0,0,0,.31,0,2.14,2.14,0,0,0,.35-.16,1.24,1.24,0,0,0,.48-.49,1,1,0,0,0,.11-.27,1.23,1.23,0,0,0,0-.27,1.36,1.36,0,0,0-.12-.52,3.45,3.45,0,0,0-.24-.47h0a1.69,1.69,0,0,0,.53.09,1.4,1.4,0,0,0,.46-.1A1.27,1.27,0,0,0,14,32a1.46,1.46,0,0,0,.07-.19,1.6,1.6,0,0,0,.05-.21,1.12,1.12,0,0,0,0-.41,1.18,1.18,0,0,0-.14-.37,1.14,1.14,0,0,0-.27-.31.87.87,0,0,0,.38,0,.63.63,0,0,0,.33-.22.5.5,0,0,0,.08-.2.61.61,0,0,0,0-.26,1.11,1.11,0,0,0-.16-.3,1.81,1.81,0,0,0-.34-.34,1.17,1.17,0,0,0,.71-.61Z"/><path class="cls-4" d="M24.61,24.44a1.59,1.59,0,0,0-.1-.39,1.23,1.23,0,0,0-.4-.51,1.43,1.43,0,0,0-.22-.15l-.09-.13a1.25,1.25,0,0,0-.23-.23l0,0a.08.08,0,0,0,0,0,1,1,0,0,0,.16-.35,1.83,1.83,0,0,0,0-1l-.05-.12a.75.75,0,0,0-.06-.13,1.36,1.36,0,0,0-.52-.6,1.17,1.17,0,0,0-.83-.19,1.55,1.55,0,0,0-.19-.24,2.46,2.46,0,0,0,0-.26,1,1,0,0,0,0-.4.71.71,0,0,0-.15-.26.64.64,0,0,0-.21-.14,1,1,0,0,0-.86.24,1.26,1.26,0,0,0,0-.47.85.85,0,0,0,0-.23,1.43,1.43,0,0,0-.08-.22l-.12-.21-.15-.18a1.58,1.58,0,0,0-.39-.29.92.92,0,0,0-.23-.09,1.05,1.05,0,0,0-.24-.06,1.26,1.26,0,0,0-.51,0l-.14,0a1.47,1.47,0,0,0-.84.19,1.66,1.66,0,0,0-.18-.94h0a2.44,2.44,0,0,0-.1-.24.9.9,0,0,0-.37-.31,1.25,1.25,0,0,0-.89-.05c0-.08-.08-.16-.13-.24a1.59,1.59,0,0,0-.76-.59,1.57,1.57,0,0,0-.86,0,1.62,1.62,0,0,0-1-.2,1.25,1.25,0,0,0-.46.15,1.09,1.09,0,0,0-.32-.23,1.36,1.36,0,0,0-.89-.08,2,2,0,0,0-.52.21,2.16,2.16,0,0,0-.48.39,1.73,1.73,0,0,0-.38.63,1.84,1.84,0,0,0-.33,0,1.48,1.48,0,0,0-.83.49,1.35,1.35,0,0,0-.34.89,1.37,1.37,0,0,0,.1.52,2.09,2.09,0,0,0,.29.55h0a3,3,0,0,0-.61-.09,1.68,1.68,0,0,0-.63.08,1.28,1.28,0,0,0-.29.14,1.16,1.16,0,0,0-.26.24,1.57,1.57,0,0,0-.33.77,1.48,1.48,0,0,0,.08.81,1.18,1.18,0,0,0,.24.38,1.16,1.16,0,0,0,0,.18,1.06,1.06,0,0,0,0,.25,2.13,2.13,0,0,0,0,.25,1.46,1.46,0,0,0,.23.49.79.79,0,0,0,.12.15,1.64,1.64,0,0,0,0,.32,2.27,2.27,0,0,0-.25.06,1.21,1.21,0,0,0-.3.11,1.34,1.34,0,0,0-.27.17,1.3,1.3,0,0,0-.39.58,1.61,1.61,0,0,0-.06.41,1.63,1.63,0,0,0,.23.91,1.22,1.22,0,0,0,.24.3,1.37,1.37,0,0,0,.55.3,4.59,4.59,0,0,0,.84,0,.55.55,0,0,0-.14.25,1,1,0,0,0-.05.36,1.63,1.63,0,0,0,.08.43,1.4,1.4,0,0,0,.2.43,1.43,1.43,0,0,0,.14.2l.18.17a1.2,1.2,0,0,0,.42.25,1.31,1.31,0,0,0,1.07-.08,1.6,1.6,0,0,0,0,.3,1.91,1.91,0,0,0,0,.24,1.52,1.52,0,0,0,.09.38.57.57,0,0,0,.38.34.78.78,0,0,0,.45-.07,1.74,1.74,0,0,0,.36-.25,1.4,1.4,0,0,0,.13.9,1.5,1.5,0,0,0,.26.36,1.46,1.46,0,0,0,.38.27l.21.08.23,0h.24l.25-.05a1.17,1.17,0,0,0,.24-.09,1.09,1.09,0,0,0,.23-.14,1.64,1.64,0,0,0,.43-.44h0a4.22,4.22,0,0,0,.07.61,1.81,1.81,0,0,0,.2.58,1.44,1.44,0,0,0,.18.25,1.27,1.27,0,0,0,.12.1.38.38,0,0,0,.13.09,1.1,1.1,0,0,0,.33.14,1.7,1.7,0,0,0,.41.05l.21,0,.2,0a.49.49,0,0,0,.17-.06.71.71,0,0,0,.15-.08,1.29,1.29,0,0,0,.42-.42,4.45,4.45,0,0,0,.31-.77.86.86,0,0,0,.51.39,1.3,1.3,0,0,0,.42.09h.23l.24,0a1.88,1.88,0,0,0,.47-.17,1.64,1.64,0,0,0,.22-.14,1.53,1.53,0,0,0,.18-.18,1.32,1.32,0,0,0,.29-1,1.85,1.85,0,0,0,.51.18,1.13,1.13,0,0,0,.4,0l.16-.05.12-.06a.7.7,0,0,0,.16-.19.75.75,0,0,0,.05-.47,1.25,1.25,0,0,0-.15-.37h.07a1.19,1.19,0,0,0,.37.06.9.9,0,0,0,.23,0l.12,0,.11,0a1.3,1.3,0,0,0,.41-.24.73.73,0,0,0,.18-.17l.15-.2a1.32,1.32,0,0,0,.17-1,1.25,1.25,0,0,0-.15-.39h.22a1.84,1.84,0,0,0,.62-.06A1.11,1.11,0,0,0,24,26a1.43,1.43,0,0,0,.27-.23,2.19,2.19,0,0,0,.21-.34,2.77,2.77,0,0,0,.14-.46A2,2,0,0,0,24.61,24.44Z"/><path class="cls-7" d="M51.13,17.46a1.93,1.93,0,0,0,.23-.89,1.88,1.88,0,0,0-1.13-1.72,1.87,1.87,0,0,0-3.17-1,1.83,1.83,0,0,0-1.32-.55,1.87,1.87,0,0,0-1.86,1.69,1.86,1.86,0,0,0-1,1.63,1.82,1.82,0,0,0,.23.89h8Z"/><path class="cls-8" d="M51.22,17.6H43.07l0-.07a2,2,0,0,1,.71-2.68,2,2,0,0,1,2-1.74,2,2,0,0,1,1.32.5,2,2,0,0,1,1.32-.5,2,2,0,0,1,2,1.64,2,2,0,0,1,.9,2.78Zm-8-.28H51a1.79,1.79,0,0,0,.17-.75,1.74,1.74,0,0,0-1-1.59l-.07,0v-.08a1.74,1.74,0,0,0-1.71-1.47,1.7,1.7,0,0,0-1.21.5l-.11.11L47,13.9A1.73,1.73,0,0,0,44,15V15l-.06,0a1.71,1.71,0,0,0-.87,1.5A1.65,1.65,0,0,0,43.25,17.32Z"/><path class="cls-7" d="M73.9,44.53a1.61,1.61,0,0,0,.21-.82,1.74,1.74,0,0,0-1-1.59,1.72,1.72,0,0,0-1.7-1.47,1.74,1.74,0,0,0-1.22.51,1.72,1.72,0,0,0-2.93,1.05,1.74,1.74,0,0,0-.67,2.32H73.9Z"/><path class="cls-8" d="M74.05,44.53H66.4a1.65,1.65,0,0,1-.19-.82,1.88,1.88,0,0,1,.88-1.58,1.86,1.86,0,0,1,1.84-1.61,1.84,1.84,0,0,1,1.23.46,1.79,1.79,0,0,1,1.21-.46A1.87,1.87,0,0,1,73.19,42a1.86,1.86,0,0,1,1,1.68,1.55,1.55,0,0,1-.19.82Zm-7.41-.13h7.18a1.66,1.66,0,0,0,.16-.69,1.59,1.59,0,0,0-1-1.46l-.07,0v-.08a1.59,1.59,0,0,0-1.57-1.35,1.57,1.57,0,0,0-1.12.46l-.1.1-.09-.1a1.6,1.6,0,0,0-2.71,1v.07l-.06,0a1.63,1.63,0,0,0-.8,1.39A1.52,1.52,0,0,0,66.64,44.4Z"/><path class="cls-7" d="M58.14,44.46a2.56,2.56,0,0,0-1.23-3.57,2.57,2.57,0,0,0-2.54-2.19,2.52,2.52,0,0,0-1.79.75A2.57,2.57,0,0,0,48.21,41a2.57,2.57,0,0,0-1,3.45H58.14Z"/><path class="cls-8" d="M58.36,44.46H47a2.34,2.34,0,0,1-.29-1.22A2.77,2.77,0,0,1,48,40.89a2.73,2.73,0,0,1,2.73-2.38,2.8,2.8,0,0,1,1.82.67,2.75,2.75,0,0,1,4.5,1.57,2.75,2.75,0,0,1,1.57,2.49,2.34,2.34,0,0,1-.29,1.22Zm-11-.2H58a2.41,2.41,0,0,0,.23-1,2.36,2.36,0,0,0-1.42-2.17l-.1,0,0-.11a2.36,2.36,0,0,0-4-1.32l-.14.14-.13-.14a2.4,2.4,0,0,0-1.68-.69A2.36,2.36,0,0,0,48.41,41v.1l-.09,0a2.36,2.36,0,0,0-1.19,2.06A2.41,2.41,0,0,0,47.35,44.26Z"/><path class="cls-7" d="M28.48,44.46a1.82,1.82,0,0,0,.23-.89,1.87,1.87,0,0,0-1.13-1.72,1.86,1.86,0,0,0-3.16-1.05,1.87,1.87,0,0,0-3.19,1.14,1.88,1.88,0,0,0-.95,1.63,1.93,1.93,0,0,0,.23.89h8Z"/><path class="cls-8" d="M28.65,44.46h-8.3a1.74,1.74,0,0,1-.21-.89,2,2,0,0,1,1-1.72,2,2,0,0,1,3.32-1.25,2,2,0,0,1,1.31-.49,2,2,0,0,1,2,1.64,2,2,0,0,1,1.14,1.82,1.84,1.84,0,0,1-.2.89Zm-8-.15h7.8A1.72,1.72,0,0,0,27.52,42l-.07,0v-.08a1.72,1.72,0,0,0-2.92-1l-.1.11-.1-.11a1.75,1.75,0,0,0-1.23-.5A1.73,1.73,0,0,0,21.37,42V42l-.07,0a1.73,1.73,0,0,0-.7,2.25Z"/><path class="cls-9" d="M71.52,16.85a1.84,1.84,0,0,0-1.13-1.71,1.87,1.87,0,0,0-1.85-1.6,1.84,1.84,0,0,0-1.31.55A1.87,1.87,0,0,0,64,15.23a1.88,1.88,0,0,0-1,1.62,1.74,1.74,0,0,0,.11.61h8.22A2,2,0,0,0,71.52,16.85Z"/><path class="cls-7" d="M71.52,17.6H63.09l0-.09a2.17,2.17,0,0,1-.11-.66,2,2,0,0,1,1-1.71,2,2,0,0,1,3.32-1.25,2,2,0,0,1,1.31-.49,2,2,0,0,1,2,1.64,2,2,0,0,1,1.14,1.81,1.91,1.91,0,0,1-.11.66Zm-8.22-.28h8a1.91,1.91,0,0,0,.07-.47,1.72,1.72,0,0,0-1-1.58l-.07,0v-.08a1.72,1.72,0,0,0-2.92-1l-.1.1-.1-.1a1.75,1.75,0,0,0-1.23-.5,1.73,1.73,0,0,0-1.72,1.55v.08l-.07,0a1.74,1.74,0,0,0-.87,1.5A1.89,1.89,0,0,0,63.3,17.32Z"/><path class="cls-10" d="M26.22,17.34l-.31.28H73.69a1.31,1.31,0,0,1,.09-.28Z"/></g></g></svg>