<svg xmlns="http://www.w3.org/2000/svg" viewBox="0 0 326.7 312.64"><defs><style>.cls-1{fill:#deeef8;}.cls-2,.cls-4{fill:#7c655a;}.cls-15,.cls-16,.cls-2,.cls-3,.cls-8{fill-rule:evenodd;}.cls-3,.cls-9{fill:#bf9788;}.cls-5{fill:#d4af9e;}.cls-6{fill:#4e8a81;}.cls-7{fill:#fff;}.cls-8{fill:#2d2423;}.cls-10{fill:#553121;}.cls-11{fill:#3c2e24;}.cls-12{fill:#858686;}.cls-13{fill:#9b9b9b;}.cls-14,.cls-15{fill:none;stroke:#2d2423;stroke-miterlimit:10;stroke-width:2px;}.cls-16{fill:#f0ebeb;}</style></defs><title>ikon</title><g id="Layer_2" data-name="Layer 2"><g id="Layer_1-2" data-name="Layer 1"><path class="cls-1" d="M163.59,117.08l.73,95.2a16.35,16.35,0,0,1,5.12-.83c.29,0,.58,0,.87,0l.73-94.41S278.8,75.55,273.92,283.15c49.69-28,52.78-58.7,52.78-119.8a163.35,163.35,0,0,0-326.7,0c0,64.34,5.88,99.14,60,125.76C53.91,77,163.59,117.08,163.59,117.08Z"/><path class="cls-2" d="M186.73,29.61c6.72,32.8,49.84,73.38,70.35,75.64C260.65,57.22,217.34,20,186.73,29.61Z"/><path class="cls-3" d="M182.46,148.5c-4.84,12.34-20.39,12.13-25.23,0A18,18,0,0,0,182.46,148.5Z"/><path class="cls-4" d="M83.91,272.28l0,0,20.28-35.74c4.27-7.52,11.38-9.6,18.16-8.28H147c-.06-.67-.11-1.34-.11-2V173.55a23.07,23.07,0,0,1,15.79-21.8l-1-133.88S51.46-9.14,60,289.11q5.63,2.77,11.42,5.26Z"/><path class="cls-4" d="M119.6,288l-2.4,4.22-.77-.47-8.35,14.72q5.7,1.35,11.52,2.42Z"/><path class="cls-4" d="M172.1,17.87l-1,132.77a23,23,0,0,1,21.75,22.91v52.66c0,.68-.05,1.35-.11,2h24.91c6.71-1.24,13.72.88,18,8.33l19.61,34.56-.48.29,9.58,16.87c3.26-1.63,6.47-3.35,9.63-5.13C280.78-8.78,172.1,17.87,172.1,17.87Z"/><path class="cls-4" d="M221.94,291l-.58-1v14.69c2.51-.68,5-1.39,7.47-2.15l-6.63-11.69Z"/><path class="cls-5" d="M222.2,290.84l6.63,11.69a227.55,227.55,0,0,0,35.46-14.25l-9.58-16.87Z"/><path class="cls-5" d="M83.91,272.28,71.37,294.37a229.27,229.27,0,0,0,36.71,12.06l8.35-14.72Z"/><polygon class="cls-6" points="221.36 289.99 221.94 291 222.2 290.84 221.36 289.37 221.36 289.99"/><path class="cls-6" d="M221.36,233.64c6.31-.81,12.78,1.52,16.82,8.62l16.53,29.15.48-.29-19.61-34.56c-4.23-7.45-11.24-9.57-18-8.33h3.73Z"/><path class="cls-6" d="M221.36,233.64v55.73l.84,1.47,32.51-19.43-16.53-29.15C234.14,235.16,227.67,232.83,221.36,233.64Z"/><polygon class="cls-6" points="116.43 291.71 117.2 292.18 119.6 287.95 119.6 286.12 116.43 291.71"/><path class="cls-6" d="M119.6,237.09v-8.86h2.71c-6.78-1.32-13.89.76-18.16,8.28L83.87,272.25l0,0L99.4,245C104.17,236.59,112.33,234.87,119.6,237.09Z"/><path class="cls-6" d="M119.6,286.12v-49c-7.27-2.22-15.43-.5-20.2,7.89l-15.49,27.3,32.52,19.43Z"/><path class="cls-6" d="M163.48,259.14l.41,53.46q3,0,5.94-.14l.41-52.41A27.9,27.9,0,0,1,163.48,259.14Z"/><path class="cls-6" d="M142.2,231.78v-3.55H122.31c11.84,2.3,22.67,15,15.6,27.47L119.6,288v20.89a230.86,230.86,0,0,0,41.68,3.79c.87,0,1.74,0,2.61,0l-.41-53.46A28.37,28.37,0,0,1,142.2,231.78Z"/><path class="cls-6" d="M221.36,290,201.9,255.7c-7.11-12.53,3.85-25.28,15.73-27.47H198.77v3.55a28.36,28.36,0,0,1-28.29,28.28h-.24l-.41,52.41a229.59,229.59,0,0,0,51.53-7.78Z"/><path class="cls-6" d="M201.9,255.7,221.36,290v-.62L205.24,261c-7.3-12.85,4.11-25.78,16.12-27.32v-5.41h-3.73C205.75,230.42,194.79,243.17,201.9,255.7Z"/><path class="cls-6" d="M205.24,261l16.12,28.41V233.64C209.35,235.18,197.94,248.11,205.24,261Z"/><path class="cls-6" d="M119.6,237.09c10.63,3.26,19.34,14.95,12.74,26.58L119.6,286.12V288l18.31-32.26c7.07-12.46-3.76-25.17-15.6-27.47H119.6Z"/><path class="cls-6" d="M119.6,237.09v49l12.74-22.45C138.94,252,130.23,240.35,119.6,237.09Z"/><path class="cls-7" d="M169.84,249.19a22.56,22.56,0,0,1-6.45-.95l.09,10.9a27.9,27.9,0,0,0,6.76.91l.08-10.89Z"/><path class="cls-7" d="M163.48,259.14l-.09-10.9a23.07,23.07,0,0,1-16.42-20H142.2v3.55A28.37,28.37,0,0,0,163.48,259.14Z"/><path class="cls-7" d="M170.32,249.16l-.08,10.89h.24a28.36,28.36,0,0,0,28.29-28.28v-3.55h-6.05A23,23,0,0,1,170.32,249.16Z"/><path class="cls-5" d="M170.48,228.23l.6-77.59c-.41,0-.82-.07-1.24-.07a22.86,22.86,0,0,0-7.19,1.18l.59,76.48Z"/><path class="cls-5" d="M162.65,151.75a23.07,23.07,0,0,0-15.79,21.8v52.66c0,.68,0,1.35.11,2h16.27Z"/><path class="cls-5" d="M192.72,228.23c.06-.67.11-1.34.11-2V173.55a23,23,0,0,0-21.75-22.91l-.6,77.59Z"/><path class="cls-5" d="M170.32,249.16l.16-20.93h-7.24l.15,20a22.56,22.56,0,0,0,6.45.95Z"/><path class="cls-5" d="M163.39,248.24l-.15-20H147A23.07,23.07,0,0,0,163.39,248.24Z"/><path class="cls-5" d="M170.32,249.16a23,23,0,0,0,22.4-20.93H170.48Z"/><path class="cls-5" d="M169.84,25.58c-118.79,0-102.33,158.16-22.92,184.29,0-.27-.06-.52-.06-.8,0-19.74,46-19.74,46,0,0,.28-.05.53-.06.8C272.18,183.74,288.64,25.58,169.84,25.58Z"/><path class="cls-8" d="M196.71,131c3.43,0,6.24-5.14,6.24-11.43s-2.81-11.43-6.24-11.43-6.24,5.13-6.24,11.43S193.27,131,196.71,131Z"/><path class="cls-8" d="M143,131c3.44,0,6.24-5.14,6.24-11.43s-2.8-11.43-6.24-11.43-6.24,5.13-6.24,11.43S139.55,131,143,131Z"/><path class="cls-8" d="M151.25,89c-6-4.25-16-1.3-21.05,4.3-2.52,2.81-.34,3,1.37,1.43,5.52-5.15,12.56-5.31,18.46-2.54C153.16,93.67,154.58,91.37,151.25,89Z"/><path class="cls-8" d="M188.74,89c6-4.25,16-1.3,21,4.3,2.53,2.81.35,3-1.36,1.43-5.52-5.15-12.57-5.31-18.46-2.54C186.83,93.67,185.41,91.37,188.74,89Z"/><path class="cls-9" d="M146.92,209.87c1.23,18.65,44.62,18.65,45.85,0a73.63,73.63,0,0,1-45.85,0Z"/><path class="cls-3" d="M202.29,167c-15.11,10.27-47.55,10.62-64.89,0A132.82,132.82,0,0,0,202.29,167Z"/><path class="cls-3" d="M184.92,177.27c-5.62,7.63-24.19,7.51-30.15,0C163.46,180.81,176.23,180.82,184.92,177.27Z"/><path class="cls-2" d="M215.82,33.79C204.51,70.82,111.91,116.14,78,99.07,75.35,11.51,185-2.84,215.82,33.79Z"/><path class="cls-10" d="M74.55,84.68S161.11,16,260,84.68c0,0-18.27-72-91.53-69.65S87.17,52.51,74.55,84.68Z"/><path class="cls-11" d="M85.06,58.87s79.6-27.9,163.46,0c0,0-19.38-38.51-69.94-43.9,0,0-10,8.91-18.43.49C160.15,15.46,103.24,14.69,85.06,58.87Z"/><ellipse class="cls-12" cx="133.51" cy="32.31" rx="27.85" ry="14.55" transform="translate(-3.5 22.47) rotate(-9.5)"/><ellipse class="cls-13" cx="133.28" cy="28.41" rx="27.85" ry="13.16" transform="translate(-2.86 22.38) rotate(-9.5)"/><ellipse class="cls-12" cx="201.87" cy="32.58" rx="14.55" ry="27.85" transform="matrix(0.16, -0.99, 0.99, 0.16, 136.43, 226.31)"/><ellipse class="cls-13" cx="202.11" cy="28.61" rx="13.1" ry="27.85" transform="translate(140.55 223.23) rotate(-80.5)"/><path class="cls-10" d="M79,81.46S66.18,108.59,72.69,155s-10.2,56.65-10.2,56.65-7.16,1.08-4.34-3.69,10.9-21.27,10.12-29.3-.13-17.15-3-41.24,4.74-49.57,9.24-52.78Z"/><path class="cls-10" d="M254,78.74s12.86,27.13,6.35,73.58S270.58,209,270.58,209s7.16,1.08,4.34-3.69S264,184,264.81,176s.13-17.14,2.95-41.23S263,85.17,258.53,82Z"/><circle class="cls-14" cx="142.98" cy="119.56" r="17.94"/><circle class="cls-14" cx="196.71" cy="119.56" r="17.94"/><path class="cls-15" d="M160.92,119.56s9.8-9.91,17.85,0"/><path class="cls-16" d="M165.17,170.87v4.65a.8.8,0,0,0,.8.8h2.87a.87.87,0,0,0,.87-.87v-4.51Z"/><path class="cls-16" d="M171.07,170.87v4.57a.88.88,0,0,0,.88.88h2.83a.83.83,0,0,0,.83-.83v-4.55Z"/><path class="cls-3" d="M181.16,148.11c-4.34,11.07-18.29,10.87-22.63,0A16.13,16.13,0,0,0,181.16,148.11Z"/></g></g></svg>