<svg xmlns="http://www.w3.org/2000/svg" viewBox="0 0 104.88 75.52"><defs><style>.cls-1{fill:#855b36;}.cls-2{fill:none;stroke:#1f120c;stroke-linecap:round;stroke-miterlimit:10;stroke-width:2px;}.cls-3{fill:#1f120c;}</style></defs><title>kangaroo</title><g id="Layer_2" data-name="Layer 2"><g id="Layer_6" data-name="Layer 6"><path class="cls-1" d="M0,58.41S13.25,65.22,22.69,21.8c0,0,9.08-39.81,43.06-11.84,0,0,5.76,6.75,9.07,3.31,0,0,1.11-.86-.06-6.19S78.38,5.3,78.38,5.3a2,2,0,0,1,.49,1.53c0,1,3.68-5.46,3.93-5.21s-.68,3.74-.49,5.27a4.72,4.72,0,0,1-1,3.62c-.55.43,4.6.86,4.91,4.6,0,0,5,4,3.62,5.77s-3.86,1.35-4.23.8-2.58-.5-4.48.06a2.2,2.2,0,0,1-2.64-.68s-5.7,12.76-21.59,7.36S35.82,27.5,31,21.8,32.81,35.54,18.22,51C4.78,65.4,1.29,60,0,58.41Z"/><path class="cls-1" d="M47.29,16.46s-17-10.12-16.2,5.34a20.29,20.29,0,0,0,7.79,5.76c4.54,1.66-.3,24-.3,24s9,10.06,15.27,15.21,6.87,2.76,6.87,2.76-13.62-16-15.4-16.31S46,34.06,47.84,32,53.85,21.55,47.29,16.46Z"/><path class="cls-1" d="M52,25.85S45,46.27,47.59,52.1c0,0,12,8.34,14.35,13.12s-18.52-12-18.52-12l1.35-27.6Z"/><path class="cls-1" d="M64,22.1s-7.06.19-5.34,5.28,4.3,13.8,2.39,16.07.62,3.25,2.89-1.47c0,0-2.15-9.45-1.41-11.29S70.59,23.82,64,22.1Z"/><path class="cls-1" d="M67.16,29.53S66.54,43.08,62.56,46s1.29-4.6,1.16-8,.86-7.36-.37-10.43S67.34,26.7,67.16,29.53Z"/><path class="cls-2" d="M83.53,15a2.36,2.36,0,0,0-2.94-1.59h-.06"/><path class="cls-3" d="M82.8,14.32a.79.79,0,0,0-.92-.68h0a.93.93,0,0,0-.68,1,.86.86,0,0,0,.86.74h0A.9.9,0,0,0,82.8,14.32Z"/><path class="cls-1" d="M104.88,70.62s-4.3,2.94-7.43-15.7c0,0-2.94-17.05-14-5.09,0,0-1.9,2.88-2.94,1.41,0,0-.37-.37,0-2.7s-1.17-.8-1.17-.8a1.25,1.25,0,0,0-.18.68c0,.49-1.23-2.34-1.29-2.21s.24,1.59.18,2.27A2.54,2.54,0,0,0,78.32,50c.18.18-1.53.37-1.6,2,0,0-1.65,1.72-1.16,2.46s1.29.61,1.35.3.86-.24,1.47,0a.6.6,0,0,0,.86-.3s1.84,5.45,7.05,3.18,6.87-.36,8.47-2.82-.62,5.89,4.17,12.52C103.34,73.56,104.45,71.23,104.88,70.62Z"/><path class="cls-1" d="M89.42,52.59s5.58-4.36,5.27,2.27a7.44,7.44,0,0,1-2.51,2.45c-1.47.73.12,10.3.12,10.3a63.75,63.75,0,0,1-5,6.5c-2.08,2.21-2.26,1.17-2.26,1.17s4.47-6.87,5-7-.24-8.22-.85-9.08S87.27,54.79,89.42,52.59Z"/><path class="cls-1" d="M87.89,56.63s2.27,8.77,1.41,11.29c0,0-3.93,3.62-4.66,5.64s6.07-5.15,6.07-5.15l-.43-11.84Z"/><path class="cls-1" d="M84,55s2.33.06,1.72,2.27-1.41,5.95-.8,6.93-.18,1.41-.92-.61a29,29,0,0,0,.49-4.85C84.27,58,81.82,55.78,84,55Z"/><path class="cls-1" d="M83,58.17s.18,5.82,1.47,7-.43-2-.37-3.43-.3-3.13.13-4.48S82.86,57,83,58.17Z"/><path class="cls-2" d="M77.58,52s.19-.92,1-.67"/><path class="cls-3" d="M77.83,51.67a.32.32,0,0,1,.31-.31.41.41,0,0,1,.24.43.33.33,0,0,1-.31.31A.42.42,0,0,1,77.83,51.67Z"/></g></g></svg>