<svg xmlns="http://www.w3.org/2000/svg" viewBox="0 0 183.99 77.43"><defs><style>.cls-1{fill:#492109;}.cls-2{fill:#b75c2e;}.cls-3{fill:#d87a34;}.cls-4{fill:#874421;}.cls-5{fill:#874321;}.cls-6{fill:#7d3c1e;}.cls-7{fill:#682b09;opacity:0.65;}.cls-8{fill:#633112;}.cls-9{fill:#fff;}.cls-10{fill:#221c16;}</style></defs><title>kina_mur</title><g id="Layer_2" data-name="Layer 2"><g id="kineske_mur" data-name="kineske mur"><polygon class="cls-1" points="170.22 24.21 170.81 24.24 171.14 17.44 170.55 17.41 170.22 24.21"/><polygon class="cls-1" points="158.51 20.91 159.11 20.94 159.44 14.14 158.84 14.11 158.51 20.91"/><polygon class="cls-2" points="170.22 24.21 159.11 20.94 159.38 15.26 170.5 18.35 170.22 24.21"/><polygon class="cls-1" points="170.33 17.18 170.28 18.29 168.91 17.91 168.93 16.83 170.33 17.18"/><polygon class="cls-1" points="168.64 16.74 168.59 17.82 167.15 17.42 167.24 16.39 168.64 16.74"/><polygon class="cls-1" points="166.87 16.3 166.82 17.38 165.38 16.98 165.47 15.94 166.87 16.3"/><polygon class="cls-1" points="165.1 15.78 165.05 16.86 163.62 16.46 163.7 15.42 165.1 15.78"/><polygon class="cls-1" points="163.34 15.26 163.28 16.34 161.85 15.95 161.94 14.91 163.34 15.26"/><polygon class="cls-1" points="161.35 14.74 161.29 15.81 159.86 15.42 159.95 14.38 161.35 14.74"/><polygon class="cls-1" points="158.34 20.59 158.87 20.62 159.15 14.69 158.63 14.66 158.34 20.59"/><polygon class="cls-1" points="148.13 17.72 148.65 17.75 148.93 11.81 148.41 11.78 148.13 17.72"/><polygon class="cls-2" points="158.34 20.59 148.65 17.75 148.88 12.79 158.59 15.48 158.34 20.59"/><polygon class="cls-1" points="158.44 14.46 158.4 15.43 157.2 15.1 157.22 14.15 158.44 14.46"/><polygon class="cls-1" points="156.96 14.08 156.92 15.02 155.67 14.67 155.74 13.77 156.96 14.08"/><polygon class="cls-1" points="155.42 13.69 155.37 14.63 154.12 14.28 154.2 13.38 155.42 13.69"/><polygon class="cls-1" points="153.88 13.24 153.83 14.18 152.58 13.83 152.65 12.93 153.88 13.24"/><polygon class="cls-1" points="152.34 12.79 152.29 13.73 151.04 13.38 151.11 12.48 152.34 12.79"/><polygon class="cls-1" points="150.6 12.33 150.55 13.27 149.3 12.92 149.38 12.02 150.6 12.33"/><polygon class="cls-1" points="147.87 17.83 148.39 17.86 148.68 11.92 148.16 11.89 147.87 17.83"/><polygon class="cls-1" points="137.66 14.95 138.18 14.98 138.46 9.04 137.94 9.02 137.66 14.95"/><polygon class="cls-2" points="147.87 17.83 138.18 14.98 138.41 10.02 148.12 12.72 147.87 17.83"/><polygon class="cls-1" points="147.97 11.7 147.93 12.67 146.73 12.33 146.75 11.39 147.97 11.7"/><polygon class="cls-1" points="146.49 11.31 146.45 12.26 145.2 11.91 145.27 11 146.49 11.31"/><polygon class="cls-1" points="144.95 10.92 144.9 11.87 143.65 11.52 143.72 10.61 144.95 10.92"/><polygon class="cls-1" points="143.41 10.47 143.36 11.41 142.11 11.07 142.18 10.16 143.41 10.47"/><polygon class="cls-1" points="141.86 10.02 141.82 10.96 140.57 10.62 140.64 9.71 141.86 10.02"/><polygon class="cls-1" points="140.13 9.56 140.08 10.5 138.83 10.16 138.91 9.25 140.13 9.56"/><polygon class="cls-1" points="174.52 32.99 175.14 33.21 177.4 26.11 176.78 25.89 174.52 32.99"/><polygon class="cls-1" points="163.05 25.82 163.67 26.05 165.93 18.95 165.31 18.72 163.05 25.82"/><polygon class="cls-2" points="174.52 32.99 163.67 26.05 165.56 20.12 176.47 26.88 174.52 32.99"/><polygon class="cls-1" points="176.62 25.59 176.25 26.75 174.9 25.91 175.24 24.77 176.62 25.59"/><polygon class="cls-1" points="174.95 24.59 174.59 25.72 173.19 24.84 173.56 23.77 174.95 24.59"/><polygon class="cls-1" points="173.2 23.56 172.84 24.69 171.44 23.82 171.81 22.75 173.2 23.56"/><polygon class="cls-1" points="171.47 22.46 171.12 23.59 169.71 22.72 170.09 21.64 171.47 22.46"/><polygon class="cls-1" points="169.75 21.36 169.39 22.48 167.99 21.61 168.36 20.54 169.75 21.36"/><polygon class="cls-1" points="167.79 20.18 167.43 21.3 166.03 20.43 166.41 19.36 167.79 20.18"/><polygon class="cls-1" points="166.62 28.15 167.28 28.18 167.64 20.7 166.98 20.67 166.62 28.15"/><polygon class="cls-1" points="153.75 24.52 154.4 24.55 154.76 17.07 154.1 17.04 153.75 24.52"/><polygon class="cls-2" points="166.62 28.15 154.4 24.55 154.7 18.31 166.93 21.71 166.62 28.15"/><polygon class="cls-1" points="166.75 20.42 166.69 21.64 165.18 21.22 165.21 20.03 166.75 20.42"/><polygon class="cls-1" points="164.88 19.93 164.83 21.12 163.25 20.68 163.34 19.54 164.88 19.93"/><polygon class="cls-1" points="162.94 19.45 162.88 20.63 161.3 20.19 161.4 19.05 162.94 19.45"/><polygon class="cls-1" points="160.99 18.88 160.94 20.06 159.36 19.63 159.45 18.48 160.99 18.88"/><polygon class="cls-1" points="159.05 18.31 158.99 19.5 157.42 19.06 157.51 17.92 159.05 18.31"/><polygon class="cls-1" points="156.86 17.73 156.81 18.91 155.23 18.48 155.32 17.34 156.86 17.73"/><polygon class="cls-1" points="153.51 24.32 154.02 24.35 154.3 18.49 153.79 18.46 153.51 24.32"/><polygon class="cls-1" points="143.41 21.48 143.93 21.51 144.21 15.65 143.69 15.62 143.41 21.48"/><polygon class="cls-2" points="153.51 24.32 143.93 21.51 144.16 16.61 153.75 19.28 153.51 24.32"/><polygon class="cls-1" points="153.6 18.27 153.56 19.22 152.37 18.89 152.4 17.96 153.6 18.27"/><polygon class="cls-1" points="152.14 17.89 152.1 18.82 150.86 18.47 150.93 17.58 152.14 17.89"/><polygon class="cls-1" points="150.62 17.5 150.57 18.43 149.34 18.09 149.41 17.2 150.62 17.5"/><polygon class="cls-1" points="149.09 17.06 149.05 17.99 147.81 17.64 147.89 16.75 149.09 17.06"/><polygon class="cls-1" points="147.57 16.61 147.53 17.54 146.29 17.2 146.36 16.31 147.57 16.61"/><polygon class="cls-1" points="145.86 16.16 145.81 17.09 144.58 16.75 144.65 15.85 145.86 16.16"/><polygon class="cls-1" points="143.6 21.56 144.11 21.58 144.39 15.72 143.88 15.69 143.6 21.56"/><polygon class="cls-1" points="133.5 18.71 134.02 18.74 134.3 12.88 133.78 12.85 133.5 18.71"/><polygon class="cls-2" points="143.6 21.56 134.02 18.74 134.25 13.85 143.84 16.51 143.6 21.56"/><polygon class="cls-1" points="143.69 15.5 143.65 16.46 142.46 16.13 142.49 15.2 143.69 15.5"/><polygon class="cls-1" points="142.23 15.12 142.19 16.05 140.95 15.71 141.02 14.81 142.23 15.12"/><polygon class="cls-1" points="140.71 14.74 140.66 15.67 139.43 15.32 139.5 14.43 140.71 14.74"/><polygon class="cls-1" points="139.18 14.29 139.14 15.22 137.91 14.88 137.98 13.98 139.18 14.29"/><polygon class="cls-1" points="137.66 13.85 137.62 14.78 136.38 14.43 136.45 13.54 137.66 13.85"/><polygon class="cls-1" points="135.95 13.39 135.9 14.32 134.67 13.98 134.74 13.09 135.95 13.39"/><rect class="cls-1" x="73.86" y="41.02" width="1.5" height="16.46"/><rect class="cls-1" x="103.59" y="34.57" width="1.5" height="16.46"/><polygon class="cls-2" points="75.35 57.48 103.59 51.03 103.59 37.28 75.35 43.31 75.35 57.48"/><polygon class="cls-1" points="75.92 40.51 75.92 43.19 79.4 42.45 79.47 39.83 75.92 40.51"/><polygon class="cls-1" points="80.22 39.66 80.22 42.27 83.85 41.5 83.77 38.98 80.22 39.66"/><polygon class="cls-1" points="84.7 38.81 84.7 41.42 88.34 40.65 88.26 38.13 84.7 38.81"/><polygon class="cls-1" points="89.19 37.79 89.19 40.41 92.83 39.63 92.74 37.12 89.19 37.79"/><polygon class="cls-1" points="93.68 36.78 93.68 39.39 97.31 38.61 97.23 36.1 93.68 36.78"/><polygon class="cls-1" points="98.73 35.76 98.73 38.37 102.36 37.59 102.28 35.08 98.73 35.76"/><rect class="cls-1" x="43.75" y="47.39" width="1.5" height="17.6"/><rect class="cls-1" x="73.48" y="40.5" width="1.5" height="17.6"/><polygon class="cls-2" points="45.25 64.99 73.48 58.09 73.48 43.4 45.25 49.84 45.25 64.99"/><polygon class="cls-1" points="45.81 46.85 45.81 49.71 49.3 48.92 49.36 46.12 45.81 46.85"/><polygon class="cls-1" points="50.11 45.94 50.11 48.73 53.75 47.9 53.66 45.21 50.11 45.94"/><polygon class="cls-1" points="54.6 45.03 54.6 47.82 58.23 46.99 58.15 44.31 54.6 45.03"/><polygon class="cls-1" points="59.09 43.94 59.09 46.73 62.72 45.91 62.64 43.22 59.09 43.94"/><polygon class="cls-1" points="63.57 42.85 63.57 45.65 67.21 44.82 67.13 42.13 63.57 42.85"/><polygon class="cls-1" points="68.62 41.77 68.62 44.56 72.26 43.73 72.17 41.04 68.62 41.77"/><rect class="cls-1" x="13.65" y="53.45" width="1.5" height="19.45"/><rect class="cls-1" x="43.38" y="45.83" width="1.5" height="19.45"/><polygon class="cls-2" points="15.15 63.02 43.38 58.55 43.38 49.04 15.15 53.21 15.15 63.02"/><polygon class="cls-1" points="15.71 52.84 15.71 56.01 19.19 55.13 19.26 52.04 15.71 52.84"/><polygon class="cls-1" points="20.01 51.84 20.01 54.93 23.64 54.01 23.56 51.04 20.01 51.84"/><polygon class="cls-1" points="24.5 50.84 24.5 53.92 28.13 53.01 28.05 50.04 24.5 50.84"/><polygon class="cls-1" points="28.98 49.64 28.98 52.72 32.62 51.81 32.53 48.84 28.98 49.64"/><polygon class="cls-1" points="33.47 48.44 33.47 51.52 37.1 50.6 37.02 47.63 33.47 48.44"/><polygon class="cls-1" points="38.52 47.23 38.52 50.32 42.15 49.4 42.07 46.43 38.52 47.23"/><rect class="cls-2" x="1.31" y="63.01" width="24.31" height="14.42"/><rect class="cls-3" x="2.24" y="68.15" width="4.86" height="1.58"/><rect class="cls-3" x="5.98" y="70.13" width="4.86" height="1.58"/><rect class="cls-4" x="10.28" y="72.1" width="4.86" height="1.58"/><rect class="cls-3" x="13.09" y="70.13" width="4.86" height="1.58"/><rect class="cls-5" x="21.13" y="64.99" width="4.86" height="1.58"/><rect class="cls-3" x="18.32" y="66.97" width="4.86" height="1.58"/><rect class="cls-3" x="15.52" y="72.3" width="4.86" height="1.58"/><polygon class="cls-3" points="33.39 73.96 28.7 75.32 28.31 73.8 33 72.44 33.39 73.96"/><rect class="cls-3" x="17.2" y="50.96" width="3.18" height="0.99"/><rect class="cls-3" x="21.69" y="50.96" width="3.18" height="0.99"/><rect class="cls-3" x="19.45" y="49.19" width="3.18" height="0.99"/><rect class="cls-3" x="13.46" y="74.67" width="4.86" height="1.58"/><polygon class="cls-3" points="33.77 70.39 29.2 72.14 28.69 70.65 33.26 68.9 33.77 70.39"/><rect class="cls-6" x="8.23" y="74.47" width="4.86" height="1.58"/><rect class="cls-6" x="1.31" y="62.22" width="24.68" height="0.99"/><rect class="cls-2" y="60.84" width="27.11" height="1.38"/><rect class="cls-2" x="1.31" y="54.52" width="24.68" height="5.73"/><rect class="cls-3" x="16.64" y="50.17" width="4.86" height="1.58"/><rect class="cls-7" x="4.11" y="56.5" width="2.8" height="2.96"/><rect class="cls-7" x="12.34" y="56.5" width="2.8" height="2.96"/><rect class="cls-8" x="20.19" y="56.5" width="2.8" height="2.96"/><rect class="cls-6" y="52.55" width="27.11" height="1.98"/><rect class="cls-2" x="1.31" y="48.59" width="24.68" height="3.95"/><rect class="cls-8" x="4.67" y="43.85" width="17.76" height="5.14"/><rect class="cls-3" x="12.34" y="49.58" width="4.3" height="1.38"/><rect class="cls-3" x="14.02" y="50.77" width="4.3" height="1.38"/><rect class="cls-3" x="18.51" y="50.77" width="4.3" height="1.38"/><rect class="cls-3" x="20.57" y="48.99" width="4.3" height="1.38"/><rect class="cls-2" x="1.87" y="46.42" width="4.11" height="2.57"/><rect class="cls-2" x="8.23" y="46.42" width="4.11" height="2.57"/><rect class="cls-2" x="14.58" y="46.42" width="4.11" height="2.57"/><rect class="cls-2" x="21.32" y="46.42" width="4.11" height="2.57"/><rect class="cls-9" x="8.41" y="44.45" width="3.18" height="1.98"/><rect class="cls-9" x="15.33" y="44.45" width="3.18" height="1.98"/><path class="cls-8" d="M3.55,43.85H23.37s-9.91-6.71-9.91-8.29C13.46,35.56,4.86,44.64,3.55,43.85Z"/><path class="cls-7" d="M3.74,42.67H23.56s-9.91-6.72-9.91-8.3C13.65,34.37,5.05,43.46,3.74,42.67Z"/><rect class="cls-8" x="1.12" y="60.05" width="24.87" height="0.79"/><rect class="cls-2" x="104.15" y="37.66" width="17.43" height="10.34"/><rect class="cls-3" x="104.82" y="41.34" width="3.49" height="1.13"/><rect class="cls-3" x="107.51" y="42.76" width="3.49" height="1.13"/><rect class="cls-4" x="110.59" y="44.18" width="3.49" height="1.13"/><rect class="cls-3" x="112.6" y="42.76" width="3.49" height="1.13"/><rect class="cls-5" x="118.37" y="39.08" width="3.49" height="1.13"/><rect class="cls-3" x="116.36" y="40.49" width="3.49" height="1.13"/><rect class="cls-3" x="114.35" y="44.32" width="3.49" height="1.13"/><rect class="cls-3" x="115.55" y="29.02" width="2.28" height="0.71"/><rect class="cls-3" x="118.77" y="29.02" width="2.28" height="0.71"/><rect class="cls-3" x="117.16" y="27.74" width="2.28" height="0.71"/><rect class="cls-3" x="112.87" y="46.02" width="3.49" height="1.13"/><rect class="cls-6" x="109.11" y="45.88" width="3.49" height="1.13"/><rect class="cls-6" x="104.15" y="37.09" width="17.7" height="0.71"/><rect class="cls-2" x="103.21" y="36.1" width="19.45" height="0.99"/><rect class="cls-2" x="104.15" y="31.57" width="17.7" height="4.11"/><rect class="cls-3" x="115.15" y="28.45" width="3.49" height="1.13"/><rect class="cls-10" x="106.16" y="32.98" width="2.01" height="2.13"/><rect class="cls-10" x="112.07" y="32.98" width="2.01" height="2.13"/><rect class="cls-10" x="117.7" y="32.98" width="2.01" height="2.13"/><rect class="cls-6" x="103.21" y="30.15" width="19.45" height="1.42"/><rect class="cls-2" x="104.15" y="27.32" width="17.7" height="2.83"/><rect class="cls-8" x="106.57" y="23.92" width="12.74" height="3.68"/><rect class="cls-3" x="112.07" y="28.02" width="3.08" height="0.99"/><rect class="cls-3" x="113.27" y="28.87" width="3.08" height="0.99"/><rect class="cls-3" x="116.49" y="28.87" width="3.08" height="0.99"/><rect class="cls-3" x="117.97" y="27.6" width="3.08" height="0.99"/><rect class="cls-2" x="104.56" y="25.76" width="2.95" height="1.84"/><rect class="cls-2" x="109.11" y="25.76" width="2.95" height="1.84"/><rect class="cls-2" x="113.67" y="25.76" width="2.95" height="1.84"/><rect class="cls-2" x="118.5" y="25.76" width="2.95" height="1.84"/><rect class="cls-9" x="109.25" y="24.34" width="2.28" height="1.42"/><rect class="cls-9" x="114.21" y="24.34" width="2.28" height="1.42"/><path class="cls-8" d="M105.76,23.92H120s-7.11-4.82-7.11-6C112.87,18,106.7,24.48,105.76,23.92Z"/><path class="cls-7" d="M105.9,23.07h14.21s-7.11-4.82-7.11-6C113,17.11,106.84,23.63,105.9,23.07Z"/><rect class="cls-8" x="104.02" y="35.53" width="17.84" height="0.57"/><rect class="cls-2" x="133.35" y="9.72" width="8.25" height="4.89"/><rect class="cls-3" x="133.66" y="11.47" width="1.65" height="0.54"/><rect class="cls-3" x="134.93" y="12.14" width="1.65" height="0.54"/><rect class="cls-4" x="136.39" y="12.81" width="1.65" height="0.54"/><rect class="cls-3" x="137.35" y="12.14" width="1.65" height="0.54"/><rect class="cls-5" x="140.08" y="10.39" width="1.65" height="0.54"/><rect class="cls-3" x="139.12" y="11.06" width="1.65" height="0.54"/><rect class="cls-3" x="138.17" y="12.87" width="1.65" height="0.54"/><rect class="cls-3" x="138.74" y="5.63" width="1.08" height="0.34"/><rect class="cls-3" x="140.27" y="5.63" width="1.08" height="0.34"/><rect class="cls-3" x="139.5" y="5.03" width="1.08" height="0.34"/><rect class="cls-3" x="137.47" y="13.68" width="1.65" height="0.54"/><rect class="cls-6" x="135.7" y="13.61" width="1.65" height="0.54"/><rect class="cls-6" x="133.35" y="9.45" width="8.38" height="0.34"/><rect class="cls-2" x="132.9" y="8.99" width="9.2" height="0.47"/><rect class="cls-2" x="133.35" y="6.84" width="8.38" height="1.94"/><rect class="cls-3" x="138.55" y="5.36" width="1.65" height="0.54"/><rect class="cls-10" x="134.3" y="7.51" width="0.95" height="1.01"/><rect class="cls-10" x="137.09" y="7.51" width="0.95" height="1.01"/><rect class="cls-10" x="139.76" y="7.51" width="0.95" height="1.01"/><rect class="cls-6" x="132.9" y="6.17" width="9.2" height="0.67"/><rect class="cls-2" x="133.35" y="4.83" width="8.38" height="1.34"/><rect class="cls-8" x="134.49" y="3.22" width="6.03" height="1.74"/><rect class="cls-3" x="137.09" y="5.16" width="1.46" height="0.47"/><rect class="cls-3" x="137.66" y="5.57" width="1.46" height="0.47"/><rect class="cls-3" x="139.19" y="5.57" width="1.46" height="0.47"/><rect class="cls-3" x="139.88" y="4.96" width="1.46" height="0.47"/><rect class="cls-2" x="133.54" y="4.09" width="1.4" height="0.87"/><rect class="cls-2" x="135.7" y="4.09" width="1.4" height="0.87"/><rect class="cls-2" x="137.85" y="4.09" width="1.4" height="0.87"/><rect class="cls-2" x="140.14" y="4.09" width="1.4" height="0.87"/><rect class="cls-9" x="135.76" y="3.42" width="1.08" height="0.67"/><rect class="cls-9" x="138.11" y="3.42" width="1.08" height="0.67"/><path class="cls-8" d="M134.11,3.22h6.73S137.47.94,137.47.4C137.47.4,134.55,3.49,134.11,3.22Z"/><path class="cls-7" d="M134.17,2.82h6.73S137.54.54,137.54,0C137.54,0,134.62,3.08,134.17,2.82Z"/><rect class="cls-8" x="133.28" y="8.72" width="8.44" height="0.27"/><rect class="cls-2" x="165.48" y="29.36" width="17.43" height="10.34"/><rect class="cls-3" x="166.15" y="33.05" width="3.49" height="1.13"/><rect class="cls-3" x="168.84" y="34.46" width="3.49" height="1.13"/><rect class="cls-4" x="171.92" y="35.88" width="3.49" height="1.13"/><rect class="cls-3" x="173.93" y="34.46" width="3.49" height="1.13"/><rect class="cls-5" x="179.7" y="30.78" width="3.49" height="1.13"/><rect class="cls-3" x="177.69" y="32.2" width="3.49" height="1.13"/><rect class="cls-3" x="175.68" y="36.02" width="3.49" height="1.13"/><rect class="cls-3" x="176.88" y="20.72" width="2.28" height="0.71"/><rect class="cls-3" x="180.1" y="20.72" width="2.28" height="0.71"/><rect class="cls-3" x="178.49" y="19.44" width="2.28" height="0.71"/><rect class="cls-3" x="174.2" y="37.72" width="3.49" height="1.13"/><rect class="cls-6" x="170.45" y="37.58" width="3.49" height="1.13"/><rect class="cls-6" x="165.48" y="28.8" width="17.7" height="0.71"/><rect class="cls-2" x="164.54" y="27.8" width="19.45" height="0.99"/><rect class="cls-2" x="165.48" y="23.27" width="17.7" height="4.11"/><rect class="cls-3" x="176.48" y="20.15" width="3.49" height="1.13"/><rect class="cls-10" x="167.49" y="24.69" width="2.01" height="2.13"/><rect class="cls-10" x="173.4" y="24.69" width="2.01" height="2.13"/><rect class="cls-10" x="179.03" y="24.69" width="2.01" height="2.13"/><rect class="cls-6" x="164.54" y="21.85" width="19.45" height="1.42"/><rect class="cls-2" x="165.48" y="19.02" width="17.7" height="2.83"/><rect class="cls-8" x="167.9" y="15.62" width="12.74" height="3.68"/><rect class="cls-3" x="173.4" y="19.73" width="3.08" height="0.99"/><rect class="cls-3" x="174.6" y="20.58" width="3.08" height="0.99"/><rect class="cls-3" x="177.82" y="20.58" width="3.08" height="0.99"/><rect class="cls-3" x="179.3" y="19.3" width="3.08" height="0.99"/><rect class="cls-2" x="165.89" y="17.46" width="2.95" height="1.84"/><rect class="cls-2" x="170.45" y="17.46" width="2.95" height="1.84"/><rect class="cls-2" x="175" y="17.46" width="2.95" height="1.84"/><rect class="cls-2" x="179.83" y="17.46" width="2.95" height="1.84"/><rect class="cls-9" x="170.58" y="16.04" width="2.28" height="1.42"/><rect class="cls-9" x="175.54" y="16.04" width="2.28" height="1.42"/><path class="cls-8" d="M167.09,15.62h14.22s-7.11-4.82-7.11-5.95C174.2,9.67,168,16.19,167.09,15.62Z"/><path class="cls-7" d="M167.23,14.77h14.21s-7.11-4.82-7.11-5.95C174.33,8.82,168.17,15.34,167.23,14.77Z"/><rect class="cls-8" x="165.35" y="27.24" width="17.84" height="0.57"/><rect class="cls-1" x="25.62" y="58.27" width="1.5" height="19.16"/><rect class="cls-1" x="55.35" y="50.77" width="1.5" height="19.16"/><polygon class="cls-2" points="27.11 77.44 55.35 69.93 55.35 53.93 27.11 60.94 27.11 77.44"/><polygon class="cls-1" points="27.67 57.68 27.67 60.8 31.16 59.94 31.23 56.89 27.67 57.68"/><polygon class="cls-1" points="31.97 56.69 31.97 59.73 35.61 58.83 35.53 55.9 31.97 56.69"/><polygon class="cls-1" points="36.46 55.71 36.46 58.74 40.1 57.84 40.01 54.92 36.46 55.71"/><polygon class="cls-1" points="40.95 54.52 40.95 57.56 44.58 56.66 44.5 53.73 40.95 54.52"/><polygon class="cls-1" points="45.44 53.34 45.44 56.38 49.07 55.47 48.99 52.55 45.44 53.34"/><polygon class="cls-1" points="50.48 52.15 50.48 55.19 54.12 54.29 54.04 51.36 50.48 52.15"/><rect class="cls-1" x="55.35" y="51.71" width="1.5" height="18.03"/><rect class="cls-1" x="85.08" y="44.64" width="1.5" height="18.03"/><polygon class="cls-2" points="56.84 69.73 85.08 62.67 85.08 47.62 56.84 54.21 56.84 69.73"/><polygon class="cls-1" points="57.4 51.15 57.4 54.08 60.89 53.27 60.96 50.4 57.4 51.15"/><polygon class="cls-1" points="61.7 50.22 61.7 53.08 65.34 52.23 65.26 49.48 61.7 50.22"/><polygon class="cls-1" points="66.19 49.29 66.19 52.15 69.83 51.3 69.74 48.55 66.19 49.29"/><polygon class="cls-1" points="70.68 48.17 70.68 51.03 74.31 50.19 74.23 47.43 70.68 48.17"/><polygon class="cls-1" points="75.17 47.06 75.17 49.92 78.8 49.07 78.72 46.32 75.17 47.06"/><polygon class="cls-1" points="80.22 45.94 80.22 48.8 83.85 47.95 83.77 45.2 80.22 45.94"/><rect class="cls-1" x="85.08" y="47.04" width="1.5" height="15.19"/><rect class="cls-1" x="114.81" y="41.09" width="1.5" height="15.19"/><polygon class="cls-2" points="86.57 62.22 114.81 56.27 114.81 43.59 86.57 49.15 86.57 62.22"/><polygon class="cls-1" points="87.13 46.57 87.13 49.04 90.62 48.35 90.69 45.94 87.13 46.57"/><polygon class="cls-1" points="91.43 45.78 91.43 48.19 95.07 47.48 94.99 45.16 91.43 45.78"/><polygon class="cls-1" points="95.92 45 95.92 47.41 99.56 46.7 99.47 44.38 95.92 45"/><polygon class="cls-1" points="100.41 44.06 100.41 46.47 104.04 45.76 103.96 43.44 100.41 44.06"/><polygon class="cls-1" points="104.9 43.12 104.9 45.53 108.53 44.82 108.45 42.5 104.9 43.12"/><polygon class="cls-1" points="109.94 42.18 109.94 44.59 113.58 43.88 113.5 41.56 109.94 42.18"/><rect class="cls-1" x="120.71" y="35.36" width="0.89" height="9.08"/><rect class="cls-1" x="138.49" y="31.8" width="0.89" height="9.08"/><polygon class="cls-2" points="121.6 44.45 138.49 40.89 138.49 33.3 121.6 36.63 121.6 44.45"/><polygon class="cls-1" points="121.94 35.08 121.94 36.56 124.02 36.15 124.06 34.71 121.94 35.08"/><polygon class="cls-1" points="124.51 34.61 124.51 36.05 126.68 35.63 126.64 34.24 124.51 34.61"/><polygon class="cls-1" points="127.19 34.15 127.19 35.59 129.37 35.16 129.32 33.77 127.19 34.15"/><polygon class="cls-1" points="129.88 33.58 129.88 35.02 132.05 34.6 132 33.21 129.88 33.58"/><polygon class="cls-1" points="132.56 33.02 132.56 34.46 134.74 34.03 134.69 32.65 132.56 33.02"/><polygon class="cls-1" points="135.58 32.46 135.58 33.9 137.76 33.47 137.71 32.09 135.58 32.46"/><polygon class="cls-2" points="116.12 56.3 121.54 51.31 121.54 40.69 116.12 45.35 116.12 56.3"/><polygon class="cls-2" points="169.59 40.69 172.02 39.9 172.02 31.41 169.59 34.18 169.59 40.69"/><polygon class="cls-1" points="116.33 42.98 117.01 44.43 118.47 43.18 117.84 41.74 116.33 42.98"/><polygon class="cls-1" points="118.02 41.4 118.69 42.85 120.15 41.6 119.53 40.16 118.02 41.4"/><rect class="cls-1" x="121.46" y="41.68" width="0.89" height="9.08"/><rect class="cls-1" x="139.24" y="38.12" width="0.89" height="9.08"/><polygon class="cls-2" points="122.35 50.77 139.24 47.21 139.24 39.62 122.35 42.95 122.35 50.77"/><polygon class="cls-1" points="122.69 41.4 122.69 42.88 124.77 42.47 124.81 41.03 122.69 41.4"/><polygon class="cls-1" points="125.26 40.93 125.26 42.38 127.43 41.95 127.38 40.56 125.26 40.93"/><polygon class="cls-1" points="127.94 40.47 127.94 41.91 130.12 41.48 130.07 40.09 127.94 40.47"/><polygon class="cls-1" points="130.63 39.9 130.63 41.34 132.8 40.92 132.75 39.53 130.63 39.9"/><polygon class="cls-1" points="133.31 39.34 133.31 40.78 135.49 40.35 135.44 38.97 133.31 39.34"/><polygon class="cls-1" points="136.33 38.78 136.33 40.22 138.5 39.79 138.46 38.41 136.33 38.78"/><rect class="cls-1" x="139.04" y="33.28" width="0.77" height="7.81"/><rect class="cls-1" x="154.32" y="30.22" width="0.77" height="7.81"/><polygon class="cls-2" points="139.81 41.09 154.32 38.03 154.32 31.51 139.81 34.37 139.81 41.09"/><polygon class="cls-1" points="140.09 33.04 140.09 34.31 141.88 33.96 141.92 32.72 140.09 33.04"/><polygon class="cls-1" points="142.3 32.64 142.3 33.88 144.17 33.51 144.13 32.32 142.3 32.64"/><polygon class="cls-1" points="144.61 32.23 144.61 33.47 146.48 33.11 146.44 31.91 144.61 32.23"/><polygon class="cls-1" points="146.92 31.75 146.92 32.99 148.79 32.62 148.74 31.43 146.92 31.75"/><polygon class="cls-1" points="149.22 31.27 149.22 32.51 151.09 32.14 151.05 30.95 149.22 31.27"/><polygon class="cls-1" points="151.82 30.79 151.82 32.02 153.69 31.66 153.65 30.46 151.82 30.79"/><rect class="cls-1" x="139.22" y="39.41" width="0.77" height="7.81"/><rect class="cls-1" x="154.5" y="36.35" width="0.77" height="7.81"/><polygon class="cls-2" points="139.99 47.21 154.5 44.15 154.5 37.63 139.99 40.49 139.99 47.21"/><polygon class="cls-1" points="140.28 39.16 140.28 40.44 142.07 40.08 142.11 38.84 140.28 39.16"/><polygon class="cls-1" points="142.49 38.76 142.49 40 144.36 39.63 144.32 38.44 142.49 38.76"/><polygon class="cls-1" points="144.8 38.36 144.8 39.6 146.67 39.23 146.62 38.04 144.8 38.36"/><polygon class="cls-1" points="147.1 37.88 147.1 39.11 148.97 38.75 148.93 37.55 147.1 37.88"/><polygon class="cls-1" points="149.41 37.39 149.41 38.63 151.28 38.26 151.24 37.07 149.41 37.39"/><polygon class="cls-1" points="152.01 36.91 152.01 38.15 153.87 37.78 153.83 36.59 152.01 36.91"/><polygon class="cls-1" points="154.51 38.19 153.89 38.21 153.67 30.41 154.29 30.39 154.51 38.19"/><polygon class="cls-1" points="166.71 34.74 166.09 34.76 165.87 26.96 166.48 26.94 166.71 34.74"/><polygon class="cls-2" points="154.51 38.19 166.09 34.76 165.9 28.24 154.32 31.47 154.51 38.19"/><polygon class="cls-1" points="154.51 30.14 154.55 31.41 155.98 31.01 155.97 29.77 154.51 30.14"/><polygon class="cls-1" points="156.28 29.68 156.31 30.91 157.81 30.5 157.74 29.31 156.28 29.68"/><polygon class="cls-1" points="158.12 29.22 158.16 30.45 159.65 30.04 159.58 28.85 158.12 29.22"/><polygon class="cls-1" points="159.96 28.67 160 29.91 161.49 29.5 161.42 28.31 159.96 28.67"/><polygon class="cls-1" points="161.8 28.13 161.84 29.37 163.33 28.95 163.26 27.76 161.8 28.13"/><polygon class="cls-1" points="163.87 27.58 163.91 28.82 165.4 28.41 165.33 27.21 163.87 27.58"/><polygon class="cls-1" points="155.35 44.26 154.61 44.3 154.29 36.81 155.03 36.78 155.35 44.26"/><polygon class="cls-1" points="169.98 40.61 169.23 40.65 168.91 33.16 169.65 33.13 169.98 40.61"/><polygon class="cls-2" points="155.35 44.26 169.23 40.65 168.96 34.4 155.07 37.82 155.35 44.26"/><polygon class="cls-1" points="155.3 36.53 155.35 37.75 157.06 37.33 157.05 36.14 155.3 36.53"/><polygon class="cls-1" points="157.41 36.04 157.47 37.23 159.25 36.79 159.16 35.65 157.41 36.04"/><polygon class="cls-1" points="159.62 35.55 159.68 36.74 161.46 36.3 161.37 35.16 159.62 35.55"/><polygon class="cls-1" points="161.83 34.98 161.88 36.16 163.67 35.73 163.58 34.58 161.83 34.98"/><polygon class="cls-1" points="164.03 34.41 164.09 35.59 165.88 35.15 165.78 34.01 164.03 34.41"/><polygon class="cls-1" points="166.52 33.82 166.57 35.01 168.36 34.57 168.27 33.43 166.52 33.82"/><polygon class="cls-3" points="136.47 17.41 135.34 17.24 135.43 16.65 136.55 16.82 136.47 17.41"/><polygon class="cls-3" points="137.03 18.2 135.91 18.03 135.99 17.44 137.11 17.61 137.03 18.2"/><polygon class="cls-4" points="137.59 17.81 136.47 17.63 136.55 17.05 137.67 17.22 137.59 17.81"/><polygon class="cls-4" points="153.11 23.73 151.99 23.56 152.07 22.97 153.19 23.14 153.11 23.73"/><polygon class="cls-4" points="152.92 22.94 151.8 22.77 151.88 22.18 153 22.36 152.92 22.94"/><polygon class="cls-3" points="153.48 22.35 152.36 22.18 152.44 21.59 153.56 21.76 153.48 22.35"/><polygon class="cls-3" points="35.93 66.98 31.13 67.77 31.38 69.52 36.19 68.73 35.93 66.98"/><polygon class="cls-3" points="43.22 69.74 38.42 70.53 38.68 72.29 43.48 71.5 43.22 69.74"/><polygon class="cls-3" points="69.4 58.09 64.59 58.88 64.85 60.63 69.66 59.84 69.4 58.09"/><polygon class="cls-3" points="97.26 42.88 92.46 43.66 92.71 45.42 97.52 44.63 97.26 42.88"/><polygon class="cls-3" points="72.77 60.26 67.96 61.05 68.22 62.8 73.02 62.02 72.77 60.26"/><polygon class="cls-3" points="44.34 66.58 39.54 67.37 39.8 69.13 44.6 68.34 44.34 66.58"/><polygon class="cls-4" points="38.36 68.56 33.56 69.34 33.81 71.1 38.62 70.31 38.36 68.56"/><polygon class="cls-4" points="75.38 57.49 70.58 58.28 70.84 60.04 75.64 59.25 75.38 57.49"/><polygon class="cls-4" points="93.33 41.49 88.53 42.28 88.79 44.04 93.59 43.25 93.33 41.49"/><polygon class="cls-4" points="64.91 56.51 60.11 57.3 60.37 59.05 65.17 58.26 64.91 56.51"/><polygon class="cls-3" points="37.61 70.93 32.81 71.72 33.07 73.47 37.87 72.69 37.61 70.93"/></g></g></svg>