<svg xmlns="http://www.w3.org/2000/svg" viewBox="0 0 61.19 59.3"><defs><style>.cls-1,.cls-3{fill:#fcc1a8;}.cls-2,.cls-8{fill:#e8a993;}.cls-10,.cls-11,.cls-3,.cls-4,.cls-5,.cls-7,.cls-8,.cls-9{fill-rule:evenodd;}.cls-5{fill:#090b18;}.cls-10,.cls-6{fill:#fff;}.cls-7{fill:#150d0e;}.cls-9{fill:#eaea8f;}.cls-11{fill:#643;}</style></defs><title>kung_fu</title><g id="Layer_2" data-name="Layer 2"><g id="kungfu"><path class="cls-1" d="M15.34,18.88s-3.62-3.19-2-3.55-3.2-.2-3.2-.2L7.32,19.78Z"/><path class="cls-2" d="M13.42,15.53s-.61.35-.1,1.18L9.85,16.2l.2-.46A18.8,18.8,0,0,0,13.42,15.53Z"/><path class="cls-3" d="M4.7,28.38,3.2,23.9A1.52,1.52,0,0,0,1.27,23h0a1.5,1.5,0,0,0-.94,1.92l1.54,4.43Z"/><path class="cls-3" d="M16.49,21.68,22,25.37A1.58,1.58,0,0,0,24.11,25h0a1.49,1.49,0,0,0-.37-2.11l-5.46-3.69C16.7,18.11,15,20.66,16.49,21.68Z"/><path class="cls-4" d="M13.69,19.11l2.49,2.26,2.06-2.32-2.43-2.22C14.4,15.55,12.36,17.89,13.69,19.11Z"/><path class="cls-3" d="M.17,24.38l.17.47,2.8-1L3,23.37C2.2,21.33-.73,22,.17,24.38Z"/><path class="cls-5" d="M8.41,45.69c-.5,1.19-1.38,1.83-1.47,2.64-.14,1.4,1.39.94,2.13.53S10,48,10.4,47.79c1.07-.55,1-1.22.18-2.7S8.78,44.59,8.41,45.69Z"/><path class="cls-6" d="M7.34,47.45a.1.1,0,0,1-.14,0,.09.09,0,0,1,0-.13,1.29,1.29,0,0,1,.3-.21h0a.06.06,0,0,1-.07,0l0,0a.09.09,0,0,1,0-.13,1.5,1.5,0,0,1,.43-.29l0,0a.1.1,0,1,1,0-.19,1.11,1.11,0,0,1,.57,0h0a1.61,1.61,0,0,1,.89,0,.11.11,0,0,1,.07.12.09.09,0,0,1-.12.06,1.36,1.36,0,0,0-.57,0,2,2,0,0,1,.37.34.1.1,0,0,1,.05.11.09.09,0,0,1-.12.06,1.37,1.37,0,0,0-.54,0,2,2,0,0,1,.36.34.09.09,0,0,1-.14.12,1.89,1.89,0,0,0-.42-.36l-.1,0a1.49,1.49,0,0,0-.68.31Zm.45-.55a.86.86,0,0,1,.24,0,1.83,1.83,0,0,1,.57,0,1.66,1.66,0,0,0-.21-.16l-.12-.05A3,3,0,0,0,7.79,46.9Z"/><path class="cls-3" d="M8.39,35.33,8.28,45.84c.47-.37.9-.11,1.35.46A.86.86,0,0,0,11,46l.62-10.35C11.6,35.22,8.39,35.33,8.39,35.33Z"/><path class="cls-5" d="M31,27.06a10.57,10.57,0,0,1,2.25-1.72c1.32-.54,1.31,1,1.12,1.86s-.56,1.14-.65,1.57c-.22,1.17-.9,1.26-2.56.95S30.08,27.73,31,27.06Z"/><path class="cls-6" d="M32.36,26.31a1.51,1.51,0,0,0,0,.75l.08.07a1.75,1.75,0,0,0,.51.23.1.1,0,0,1,.06.12.09.09,0,0,1-.12.06,1.73,1.73,0,0,1-.46-.19,1.43,1.43,0,0,0,.26.47.09.09,0,0,1,0,.13.09.09,0,0,1-.12,0,2.07,2.07,0,0,1-.46-.21,1.18,1.18,0,0,0,.23.52.09.09,0,0,1,0,.13.1.1,0,0,1-.14,0,1.54,1.54,0,0,1-.32-.82v0a1,1,0,0,1-.22-.52.11.11,0,0,1,.09-.11.12.12,0,0,1,.11.09v0a1.72,1.72,0,0,1,.09-.5.1.1,0,0,1,.13-.05l0,0a.1.1,0,0,1,0,.07h0a1.09,1.09,0,0,1,.07-.36.08.08,0,0,1,.12,0,.09.09,0,0,1,0,.12ZM32,27.47l.09.08a1,1,0,0,0,.23.13,2,2,0,0,1-.19-.53A1,1,0,0,1,32,27,3.08,3.08,0,0,0,32,27.47Z"/><path class="cls-3" d="M21,27.4l10.17-.28c-.36.48-.09.9.5,1.32a.84.84,0,0,1-.23,1.32L21,30.68C20.56,30.72,21,27.4,21,27.4Z"/><path class="cls-4" d="M15.38,28.94,8.52,30.2l-.23,15,2.69.17c.08,0,.24-11.79,2.62-11.76.2,0,1.82-.65,4-1.23A20.84,20.84,0,0,0,22,30.55L20.87,27.4Z"/><path class="cls-3" d="M12,.93c10.39.63,7,15.43-.92,15S1.57.29,12,.93Z"/><path class="cls-7" d="M16.19,8.93c-.28,0-.48-.44-.45-.94s.28-.9.56-.88.47.44.44.94S16.46,9,16.19,8.93Z"/><path class="cls-8" d="M18.14,9.94a2.33,2.33,0,0,0-.07.25,1,1,0,0,1-.8-1A1.44,1.44,0,0,0,18.14,9.94Z"/><path class="cls-7" d="M16.74,6A1.42,1.42,0,0,0,15,6.25c-.22.21,0,.24.1.12a1.32,1.32,0,0,1,1.5-.11C16.87,6.39,17,6.22,16.74,6Z"/><path class="cls-8" d="M17.29,12v0a2,2,0,0,0-.13.25,4.55,4.55,0,0,1-1.8-1.65A10.38,10.38,0,0,0,17.29,12Z"/><path class="cls-8" d="M17,12.58h0l0,.05a1,1,0,0,0-.07.15,1.37,1.37,0,0,1-.66-.83A3.37,3.37,0,0,0,17,12.58Z"/><path class="cls-3" d="M24.51,18.65v.5l-3.1.05v-.5C21.46,16.5,24.57,16.1,24.51,18.65Z"/><path class="cls-3" d="M24.5,19.14v4.8a1.63,1.63,0,0,1-1.62,1.55h0A1.52,1.52,0,0,1,21.31,24l.07-4.77Z"/><path class="cls-9" d="M17.89,4.56l-1.11-.75.48,1-1-1-.06.93-.89-1,.49.83L14.88,4l.23.68-1-.86L14.42,5l-.65-.44-4.25,13-2.74,1L4.64,21.41h0L4.25,5.59s-.31-5.66,6-5.52C10.26.07,15.87-.9,17.89,4.56Z"/><path class="cls-9" d="M17.33,3.74l.21.93-.76-.85.49.83-1-.6.09.68L15.56,4l-.32.79-.63-.71.06,1.21a3.69,3.69,0,0,0-.36-.83l-.37-.56.6,1.24s-.71-1-1.12-1.16C13.42,4,16.83,3.06,17.33,3.74Z"/><path class="cls-4" d="M14.66,16.45,7.49,18a.26.26,0,0,0-.2.26L8.47,30.77a.24.24,0,0,0,.31.21l6.42-2a.26.26,0,0,0,.17-.24l-.43-12C14.93,16.6,14.81,16.42,14.66,16.45Z"/><path class="cls-3" d="M7.21,23.13l-2.63,6a1.53,1.53,0,0,1-2,.78h0a1.5,1.5,0,0,1-.78-2l2.63-6C5.19,20.18,7.94,21.48,7.21,23.13Z"/><path class="cls-4" d="M8.93,20.2,7.3,23l-2.66-1.6,1.59-2.74C7.18,17,9.83,18.65,8.93,20.2Z"/><polygon class="cls-4" points="30.35 27.04 30.69 29.78 22.03 30.55 20.87 27.4 30.35 27.04"/><path class="cls-10" d="M13.58,16.65l-4.39,1,.05.3a2.27,2.27,0,0,0,2.62,1.84h0a2.26,2.26,0,0,0,1.87-2.59Z"/><path class="cls-3" d="M13.41,16.69l-4,.86,0,.25a2.09,2.09,0,0,0,2.39,1.69h0a2.06,2.06,0,0,0,1.69-2.37Z"/><path class="cls-1" d="M45.85,28.9s3.62-3.19,2-3.54,3.19-.2,3.19-.2l2.8,4.64Z"/><path class="cls-2" d="M47.78,25.56s.61.35.09,1.17l3.48-.51-.21-.46A19.43,19.43,0,0,1,47.78,25.56Z"/><path class="cls-3" d="M56.5,38.41,58,33.93A1.53,1.53,0,0,1,59.93,33h0a1.52,1.52,0,0,1,.94,1.92l-1.54,4.43Z"/><path class="cls-3" d="M44.7,31.7l-5.46,3.7a1.59,1.59,0,0,1-2.16-.4h0a1.49,1.49,0,0,1,.37-2.1l5.46-3.7C44.5,28.13,46.21,30.69,44.7,31.7Z"/><path class="cls-4" d="M47.5,29.13,45,31.4,43,29.07l2.43-2.22C46.79,25.57,48.83,27.91,47.5,29.13Z"/><path class="cls-3" d="M61,34.41l-.18.46-2.8-1,.18-.46C59,31.35,61.92,32.05,61,34.41Z"/><path class="cls-5" d="M52.79,55.71c.5,1.2,1.38,1.83,1.46,2.64.15,1.4-1.38.95-2.12.53s-.94-.86-1.33-1.06c-1.07-.56-1-1.23-.19-2.71S52.42,54.61,52.79,55.71Z"/><path class="cls-6" d="M53.86,57.48a1.59,1.59,0,0,0-.68-.32l-.11.05a1.85,1.85,0,0,0-.41.36.1.1,0,0,1-.14,0,.09.09,0,0,1,0-.13,2.38,2.38,0,0,1,.36-.34,1.52,1.52,0,0,0-.53,0,.09.09,0,0,1-.12-.07.08.08,0,0,1,0-.11,1.8,1.8,0,0,1,.38-.33,1.09,1.09,0,0,0-.57,0,.1.1,0,0,1-.12-.07.09.09,0,0,1,.06-.12,1.7,1.7,0,0,1,.89,0h0a.93.93,0,0,1,.57,0,.09.09,0,0,1,.06.12.1.1,0,0,1-.12.06h0a1.67,1.67,0,0,1,.43.28.11.11,0,0,1,0,.14l0,0H53.7a.92.92,0,0,1,.3.2.1.1,0,0,1-.14.13Zm-.94-.76-.11.05a.8.8,0,0,0-.21.15,2.64,2.64,0,0,1,.56,0,1,1,0,0,1,.24,0A2.39,2.39,0,0,0,52.92,56.72Z"/><path class="cls-3" d="M52.81,45.35l.1,10.51c-.46-.37-.9-.11-1.34.46a.85.85,0,0,1-1.32-.27L49.63,45.7C49.6,45.24,52.81,45.35,52.81,45.35Z"/><path class="cls-5" d="M30.16,37.08a10.41,10.41,0,0,0-2.25-1.72c-1.31-.54-1.31,1-1.12,1.86s.57,1.14.65,1.57c.23,1.17.91,1.27,2.57,1S31.12,37.75,30.16,37.08Z"/><path class="cls-6" d="M28.83,36.33a.09.09,0,0,1,.05-.12.1.1,0,0,1,.13,0,.85.85,0,0,1,.06.35h0a.08.08,0,0,1,0-.07l0,0a.1.1,0,0,1,.13,0,1.51,1.51,0,0,1,.09.51v0a.09.09,0,0,1,.11-.08.08.08,0,0,1,.08.1,1,1,0,0,1-.22.52v0a1.54,1.54,0,0,1-.32.82.1.1,0,0,1-.14,0,.09.09,0,0,1,0-.13,1.27,1.27,0,0,0,.24-.51,1.78,1.78,0,0,1-.46.2.11.11,0,0,1-.13,0,.1.1,0,0,1,0-.14,1.36,1.36,0,0,0,.25-.46,3.15,3.15,0,0,1-.45.19.1.1,0,0,1-.12-.07.09.09,0,0,1,.06-.12,1.48,1.48,0,0,0,.5-.23l.09-.07a1.5,1.5,0,0,0,0-.75Zm.33.64a.6.6,0,0,1-.14.2,1.84,1.84,0,0,1-.18.53.89.89,0,0,0,.23-.13l.09-.08A2.26,2.26,0,0,0,29.16,37Z"/><path class="cls-3" d="M40.19,37.43,30,37.15c.36.47.09.89-.5,1.32a.84.84,0,0,0,.24,1.31l10.41.92C40.64,40.74,40.19,37.43,40.19,37.43Z"/><path class="cls-4" d="M45.82,39l6.85,1.26.23,15-2.69.17c-.08,0-.24-11.79-2.62-11.75-.2,0-1.81-.65-4-1.23a21.21,21.21,0,0,1-4.43-1.87l1.15-3.15Z"/><path class="cls-3" d="M49.24,11c-10.39.63-7,15.43.92,15S59.63,10.31,49.24,11Z"/><path class="cls-7" d="M45,19c.27,0,.47-.44.44-.94s-.28-.89-.55-.88-.48.44-.45.94S44.73,19,45,19Z"/><path class="cls-8" d="M43.06,20c0,.1,0,.15.07.26a1,1,0,0,0,.8-1A1.46,1.46,0,0,1,43.06,20Z"/><path class="cls-7" d="M44.46,16a1.4,1.4,0,0,1,1.71.24c.21.21,0,.23-.11.12a1.3,1.3,0,0,0-1.49-.12C44.33,16.42,44.2,16.24,44.46,16Z"/><path class="cls-8" d="M43.9,22l0,0,.12.25a4.71,4.71,0,0,0,1.81-1.64A11.25,11.25,0,0,1,43.9,22Z"/><path class="cls-8" d="M44.24,22.6v0l0,0a.8.8,0,0,1,.08.16A1.37,1.37,0,0,0,45,22,3.16,3.16,0,0,1,44.24,22.6Z"/><path class="cls-3" d="M36.68,28.67v.5l3.1,0v-.5C39.74,26.52,36.63,26.13,36.68,28.67Z"/><path class="cls-3" d="M36.7,29.16V34a1.61,1.61,0,0,0,1.61,1.55h0A1.52,1.52,0,0,0,39.89,34l-.08-4.77Z"/><path class="cls-11" d="M43.3,14.58l1.11-.75-.48,1,1-1,.06.93.88-1-.49.84.91-.6-.23.69,1-.87L46.78,15l.65-.44,4.25,13,2.74,1,2.14,2.83h0l.38-15.82s.32-5.65-6-5.52C50.93,10.09,45.32,9.12,43.3,14.58Z"/><path class="cls-11" d="M43.87,13.76l-.22.93.76-.85-.49.83,1-.59-.1.67.77-.72.32.79.63-.71-.06,1.21a3.94,3.94,0,0,1,.35-.83l.37-.55-.6,1.24s.71-1,1.13-1.16C47.78,14,44.37,13.08,43.87,13.76Z"/><path class="cls-4" d="M46.53,26.47,53.71,28a.24.24,0,0,1,.19.26L52.73,40.79a.25.25,0,0,1-.32.21L46,39a.25.25,0,0,1-.18-.24l.43-12C46.26,26.62,46.39,26.44,46.53,26.47Z"/><path class="cls-3" d="M54,33.15l2.64,6a1.52,1.52,0,0,0,2,.77h0a1.5,1.5,0,0,0,.79-2l-2.64-6C56,30.2,53.26,31.51,54,33.15Z"/><path class="cls-4" d="M52.27,30.23,53.89,33l2.67-1.6L55,28.69C54,27.05,51.37,28.67,52.27,30.23Z"/><polygon class="cls-4" points="30.85 37.07 30.51 39.8 39.17 40.58 40.32 37.43 30.85 37.07"/><path class="cls-10" d="M47.61,26.68l4.39.95,0,.29a2.29,2.29,0,0,1-2.62,1.85h0a2.27,2.27,0,0,1-1.86-2.6Z"/><path class="cls-3" d="M47.79,26.72l4,.85,0,.26a2.07,2.07,0,0,1-2.38,1.68h0a2.06,2.06,0,0,1-1.7-2.37Z"/></g></g></svg>