<svg xmlns="http://www.w3.org/2000/svg" viewBox="0 0 28.4 23.41"><defs><style>.cls-1{fill:#e2580c;}.cls-2{fill:#ed5b00;}.cls-3{fill:#d35618;}.cls-4{fill:#860600;}.cls-5{fill:#931818;}.cls-6{fill:#700404;}</style></defs><title>lego</title><g id="Layer_2" data-name="Layer 2"><g id="lego"><rect class="cls-1" x="7.82" y="8.96" width="10.95" height="7.82"/><polygon class="cls-2" points="18.77 8.96 10.95 2.18 0 2.18 7.82 8.96 18.77 8.96"/><polygon class="cls-1" points="0 10 7.82 16.78 7.82 8.96 0 2.18 0 10"/><ellipse class="cls-1" cx="9.39" cy="7.5" rx="1.83" ry="0.52"/><path class="cls-3" d="M11.21,7.5v.41s0,.46-1.82.52-1.83-.52-1.83-.52V7.5s.12.56,1.83.52S11.21,7.5,11.21,7.5Z"/><ellipse class="cls-1" cx="14.53" cy="7.27" rx="1.83" ry="0.52"/><path class="cls-3" d="M16.35,7.27v.4s0,.47-1.82.52-1.83-.52-1.83-.52v-.4s.12.55,1.83.52S16.35,7.27,16.35,7.27Z"/><ellipse class="cls-1" cx="11.91" cy="5" rx="1.83" ry="0.52"/><path class="cls-3" d="M13.73,5v.4s0,.47-1.82.53-1.83-.53-1.83-.53V5s.13.55,1.83.52S13.73,5,13.73,5Z"/><ellipse class="cls-1" cx="6.73" cy="5.06" rx="1.83" ry="0.52"/><path class="cls-3" d="M8.55,5.06v.4s0,.47-1.82.52S4.9,5.46,4.9,5.46v-.4s.13.55,1.83.52S8.55,5.06,8.55,5.06Z"/><ellipse class="cls-1" cx="4.5" cy="2.81" rx="1.83" ry="0.52"/><path class="cls-3" d="M6.32,2.81v.41s0,.47-1.82.52-1.83-.52-1.83-.52V2.81s.13.56,1.83.52S6.32,2.81,6.32,2.81Z"/><ellipse class="cls-1" cx="9.65" cy="2.81" rx="1.83" ry="0.52"/><path class="cls-3" d="M11.47,2.81v.41s0,.47-1.82.52-1.83-.52-1.83-.52V2.81s.12.56,1.83.52S11.47,2.81,11.47,2.81Z"/><rect class="cls-4" x="16.24" y="12.93" width="10.95" height="7.82" transform="translate(16.8 -10.2) rotate(41.91)"/><polygon class="cls-5" points="28.4 17.59 27.11 7.32 18.96 0 20.25 10.27 28.4 17.59"/><polygon class="cls-4" points="13.73 5.82 15.03 16.09 20.25 10.27 18.96 0 13.73 5.82"/><ellipse class="cls-4" cx="22.39" cy="10.23" rx="0.52" ry="1.83" transform="translate(-0.18 20.06) rotate(-48.09)"/><path class="cls-6" d="M23.75,11.45l-.28.3s-.3.35-1.7-.83-1-1.61-1-1.61L21,9s-.28.5,1,1.61S23.75,11.45,23.75,11.45Z"/><ellipse class="cls-4" cx="26.37" cy="13.49" rx="0.52" ry="1.83" transform="translate(-1.28 24.1) rotate(-48.09)"/><path class="cls-6" d="M27.73,14.71l-.27.3s-.31.35-1.71-.83-1-1.61-1-1.61l.27-.3s-.28.49,1,1.61S27.73,14.71,27.73,14.71Z"/><ellipse class="cls-4" cx="25.94" cy="10.05" rx="0.52" ry="1.83" transform="translate(1.13 22.64) rotate(-48.09)"/><path class="cls-6" d="M27.29,11.27l-.27.3s-.3.36-1.7-.83-1-1.6-1-1.6l.27-.31s-.28.5,1,1.61S27.29,11.27,27.29,11.27Z"/><ellipse class="cls-4" cx="22.04" cy="6.64" rx="0.52" ry="1.83" transform="translate(2.38 18.61) rotate(-48.09)"/><path class="cls-6" d="M23.4,7.85l-.27.31s-.3.35-1.7-.83-1-1.61-1-1.61l.27-.3s-.28.49,1,1.6S23.4,7.85,23.4,7.85Z"/><ellipse class="cls-4" cx="21.88" cy="3.48" rx="0.52" ry="1.83" transform="translate(4.68 17.44) rotate(-48.09)"/><path class="cls-6" d="M23.24,4.7,23,5s-.31.35-1.71-.83-1-1.61-1-1.61l.27-.3s-.27.49,1,1.6S23.24,4.7,23.24,4.7Z"/><ellipse class="cls-4" cx="25.71" cy="6.92" rx="0.52" ry="1.83" transform="translate(3.39 21.43) rotate(-48.09)"/><path class="cls-6" d="M27.07,8.14l-.27.3s-.31.35-1.71-.83-1-1.61-1-1.61l.27-.3s-.27.49,1,1.6S27.07,8.14,27.07,8.14Z"/></g></g></svg>