<svg xmlns="http://www.w3.org/2000/svg" viewBox="0 0 61.35 46.07"><defs><style>.cls-1{fill:#f7f7f7;stroke:#bfbfbf;stroke-miterlimit:22.93;stroke-width:0.5px;}.cls-2{fill:#9fc4c2;}</style></defs><title>maranhenses_1</title><g id="Layer_2" data-name="Layer 2"><g id="Maranhenses"><path class="cls-1" d="M56.62,19.6H28.28S30.14,8.15,33.55,7s5.61,3.49,8.43,3.16,3.68-8.82,8.71-8.37S56.62,19.6,56.62,19.6Z"/><path class="cls-1" d="M37.52,18.08H9.18S11,6.63,14.45,5.47,20.06,9,22.88,8.64,26.56-.19,31.59.27,37.52,18.08,37.52,18.08Z"/><ellipse class="cls-2" cx="30.76" cy="20.11" rx="18.53" ry="11"/><path class="cls-1" d="M56.62,26H28.28s1.86-11.45,5.27-12.6,5.61,3.49,8.43,3.16,3.68-8.82,8.71-8.37S56.62,26,56.62,26Z"/><path class="cls-1" d="M7.16,27l28-4.29S31.6,11.67,28.06,11s-5,4.3-7.86,4.41-5-8.17-9.88-7S7.16,27,7.16,27Z"/><ellipse class="cls-2" cx="25.97" cy="28.68" rx="18.53" ry="11"/><path class="cls-1" d="M60.93,34.73l-24,.14s1.85-11.44,5.26-12.6,5.61,3.49,8.44,3.17,1.64-9.15,6.67-8.69S60.93,34.73,60.93,34.73Z"/><path class="cls-1" d="M.25,36.44c2,6.22,10.09,8.79,21.56,9.37,0,0,3.06-10.05.4-12.48s-6.54.93-9-.5-3.6-11-8.39-12.62S.25,36.44.25,36.44Z"/><path class="cls-1" d="M60.93,34.73c-11,5.15-17.84,8.64-29.07,10.46,0,0,1.85-12.85,5.26-14s5.61,3.49,8.44,3.16,3.67-8.83,8.7-8.37S60.93,34.73,60.93,34.73Z"/><path class="cls-1" d="M4.52,41.7c7.5,5,22.81,5.12,34.57,2.09,0,0-3-9.62-6.39-10.77s-5.61,3.49-8.44,3.17-3.67-8.83-8.71-8.37S4.52,41.7,4.52,41.7Z"/></g></g></svg>