<svg xmlns="http://www.w3.org/2000/svg" viewBox="0 0 56.74 27.48"><defs><style>.cls-1{fill:#a7704c;}.cls-2{fill:#e56818;}.cls-3{fill:none;stroke:#fff;stroke-miterlimit:10;stroke-width:0.5px;}</style></defs><title>meat_pie</title><g id="Layer_2" data-name="Layer 2"><g id="Layer_3" data-name="Layer 3"><g id="Layer_8" data-name="Layer 8"><polygon class="cls-1" points="49.77 27.48 6.84 27.48 1.69 12.02 54.92 12.02 49.77 27.48"/><path class="cls-2" d="M54.8,7.61A1.71,1.71,0,0,0,55,6.87C55,3.07,43.45,0,29.22,0S3.46,3.07,3.46,6.87v.06a4.28,4.28,0,1,0,1.66,8.4,4.19,4.19,0,0,0,2.64-1.65,4.24,4.24,0,0,0,6,.92,3.66,3.66,0,0,0,.92-.92,4.24,4.24,0,0,0,5.95.92,3.66,3.66,0,0,0,.92-.92,4.29,4.29,0,0,0,5.95.92,3.46,3.46,0,0,0,.91-.92h0a4.24,4.24,0,0,0,6,.92,3.36,3.36,0,0,0,.92-.92,4.24,4.24,0,0,0,6,.92,3.36,3.36,0,0,0,.92-.92,4.24,4.24,0,0,0,5.95.92,3.36,3.36,0,0,0,.92-.92A4.3,4.3,0,0,0,55.9,8.59a7.46,7.46,0,0,0-1.1-1Z"/><line class="cls-3" x1="25.48" y1="2.94" x2="23.46" y2="4.91"/><line class="cls-3" x1="28.3" y1="2.64" x2="28.3" y2="5.46"/><line class="cls-3" x1="31.8" y1="2.82" x2="33.33" y2="5.21"/></g></g></g></svg>