<svg xmlns="http://www.w3.org/2000/svg" viewBox="0 0 46.81 40.76"><defs><style>.cls-1{fill:#efefef;}.cls-2{fill:#897064;}.cls-10,.cls-12,.cls-2,.cls-3,.cls-5,.cls-6,.cls-7,.cls-8,.cls-9{fill-rule:evenodd;}.cls-3{fill:#a18374;}.cls-4{fill:#289448;}.cls-11,.cls-5{fill:#fff;}.cls-6{fill:#f8dc1b;}.cls-7{fill:#8b7467;}.cls-8{fill:#2c2422;}.cls-9{fill:#1f2430;}.cls-10{fill:#383e49;}.cls-12{fill:#7c6559;}.cls-13{fill:#ccc;}.cls-14{fill:#272727;}</style></defs><title>mål_dreng</title><g id="Layer_2" data-name="Layer 2"><g id="Mål_dreng" data-name="Mål + dreng"><path class="cls-1" d="M44.82,6.59H0v31H1.33v0h0L5.49,36.5H41.33l4.15,1.11h1.33v-31Zm-24,29.21-2.17-1.46,2.17-1.46L23,34.34Zm-4.94,0-2.18-1.46,2.18-1.46,2.17,1.46Zm-5,0L8.77,34.34l2.17-1.46,2.18,1.46ZM3.26,9.5h0C3,9.23,2.71,9,2.43,8.74l0,0L3.52,8,5.7,9.42,4,10.55a3.24,3.24,0,0,0-.6-.89ZM8.47,8l2.17,1.46L8.47,10.88,6.29,9.42Zm4.94,0,2.18,1.46-2.18,1.46L11.24,9.42Zm4.95,0,2.17,1.46-2.17,1.46L16.18,9.42ZM23.3,8l2.18,1.46L23.3,10.88,21.13,9.42Zm4.95,0,2.18,1.46-2.18,1.46L26.08,9.42Zm5,0,2.17,1.46L33.2,10.88,31,9.42Zm4.94,0,2.18,1.46-2.18,1.46L36,9.42Zm-2.53,27.8-2.12-1.42,2.18-1.46,2.17,1.46-2.11,1.42Zm-30.17-7h0l0-2.16L6,26.23l2.18,1.46L6,29.15Zm.26.58-.25.16v-.33Zm-.44-8.3c0-.32,0-.64,0-.95L6,19.59l2.18,1.46L6,22.51,5.29,22l0-1Zm-.1-2,.54.37-.51.34,0-.7Zm-.08-1.25v-.05L5,16.92H5l1-.66,2.18,1.46L6,19.19l-.86-.58h0C5.11,18.32,5.1,18,5.08,17.77Zm-.56-5.08,0-.13c0-.24-.09-.48-.13-.71l1.33.89-1.06.71h0ZM6,12.94,8.17,14.4,6,15.86l-1.15-.77h0c0-.44-.09-.87-.15-1.27Zm36.12,1-.12,1-1.38.92L38.44,14.4l2.17-1.46Zm-1.2-1.21,1.58-1.06c-.12.58-.23,1.21-.33,1.9Zm-.3,16.41-2.17-1.46,2.17-1.46.8.53,0,1.88Zm.76-.1v.61l-.46-.3ZM28.25,24.17l-2.17-1.46,2.17-1.46,2.18,1.46Zm2.47-1.26,2.18,1.46-2.18,1.46-2.17-1.46Zm.3-.2,2.18-1.46,2.17,1.46L33.2,24.17Zm4.65.2,2.17,1.46-2.17,1.46-2.18-1.46Zm-2.18-1.86,2.18-1.46,2.17,1.46-2.17,1.46Zm-.29-.2L31,19.39l2.18-1.46,2.17,1.46Zm-.3.2-2.18,1.46-2.17-1.46,2.17-1.46Zm-4.65-.2-2.17-1.46,2.17-1.46,2.18,1.46Zm-.3.2-2.17,1.46L23.6,21.05l2.18-1.46Zm-4.65-.2-2.17-1.46,2.17-1.46,2.18,1.46Zm-.29.2-2.18,1.46-2.17-1.46,2.17-1.46Zm-4.65-.2-2.18-1.46,2.18-1.46,2.17,1.46Zm-.3.2-2.17,1.46-2.18-1.46,2.18-1.46Zm-4.65-.2-2.17-1.46,2.17-1.46,2.18,1.46Zm-.29.2-2.18,1.46L8.77,21.05l2.17-1.46Zm-1.88,1.66,2.17-1.46,2.18,1.46-2.18,1.46Zm1.88,1.66-2.18,1.46L8.77,24.37l2.17-1.46Zm2.77-1.46,2.17,1.46-2.17,1.46-2.18-1.46Zm.29-.2,2.18-1.46,2.17,1.46-2.17,1.46Zm4.65.2L23,24.37l-2.18,1.46-2.17-1.46Zm.3-.2,2.17-1.46,2.18,1.46L23.3,24.17Zm4.65.2L28,24.37l-2.17,1.46L23.6,24.37Zm2.47,1.66L30.43,26l-2.18,1.46L26.08,26Zm2.47,1.66,2.18,1.46-2.18,1.46-2.17-1.46ZM31,26l2.18-1.46L35.37,26,33.2,27.49Zm4.65.2,2.17,1.46-2.17,1.46-2.18-1.46ZM36,26l2.17-1.46L40.32,26l-2.18,1.46Zm0-3.32,2.17-1.46,2.18,1.46-2.18,1.46Zm0-3.32,2.17-1.46,2.18,1.46-2.18,1.46Zm1.87-1.67-2.17,1.47-2.18-1.47,2.18-1.46ZM36,16.06l2.17-1.46,2.18,1.46-2.18,1.46ZM33.2,17.52,31,16.06,33.2,14.6l2.17,1.46Zm-.3.2-2.18,1.47-2.17-1.47,2.17-1.46Zm-4.65-.2-2.17-1.46,2.17-1.46,2.18,1.46Zm-.3.2-2.17,1.47L23.6,17.72l2.18-1.46Zm-4.65-.2-2.17-1.46L23.3,14.6l2.18,1.46Zm-.29.2-2.18,1.47-2.17-1.47,2.17-1.46Zm-4.65-.2-2.18-1.46,2.18-1.46,2.17,1.46Zm-.3.2-2.17,1.47-2.18-1.47,2.18-1.46Zm-4.65-.2-2.17-1.46,2.17-1.46,2.18,1.46Zm-.29.2-2.18,1.47L8.77,17.72l2.17-1.46Zm-4.65-.2L6.29,16.06,8.47,14.6l2.17,1.46Zm2.17,1.87L8.47,20.85,6.29,19.39l2.18-1.46Zm0,3.32L8.47,24.17,6.29,22.71l2.18-1.46Zm0,3.32L8.47,27.49,6.29,26l2.18-1.46Zm.3.2,2.18,1.46-2.18,1.46L8.77,27.69Zm.3-.2,2.17-1.46L15.59,26l-2.18,1.46Zm4.65.2,2.17,1.46-2.17,1.46-2.18-1.46Zm.29-.2,2.18-1.46L20.53,26l-2.17,1.46Zm4.65.2L23,27.69l-2.18,1.46-2.17-1.46Zm.3-.2,2.17-1.46L25.48,26,23.3,27.49Zm4.65.2L28,27.69l-2.17,1.46L23.6,27.69Zm2.47,1.66,2.18,1.47-2.18,1.46-2.17-1.46Zm2.47,1.67L32.9,31l-2.18,1.46L28.55,31Zm.3-.2,2.18-1.47,2.17,1.47L33.2,30.82Zm4.65.2L37.84,31l-2.17,1.46L33.49,31Zm.3-.2,2.17-1.47,2.18,1.47-2.18,1.46ZM40.91,26l.52-.34c0,.22,0,.45,0,.68Zm-.3-.2-2.17-1.46,2.17-1.46.87.58c0,.59,0,1.19,0,1.79Zm.3-3.12.61-.41,0,.8Zm-.3-.2-2.17-1.46,2.17-1.46,1,.66c0,.54-.05,1.09-.07,1.64Zm.3-3.12.76-.51c0,.32,0,.65-.05,1Zm-.3-.2-2.17-1.47,2.17-1.46,1.19.8c0,.45-.07.92-.1,1.4Zm.3-3.13,1-.69c-.05.42-.09.86-.12,1.31ZM38.14,14.2,36,12.74l2.17-1.46,2.18,1.46Zm-.3.2-2.17,1.46L33.49,14.4l2.18-1.46Zm-4.64-.2L31,12.74l2.18-1.46,2.17,1.46Zm-.3.2-2.18,1.46L28.55,14.4l2.17-1.46Zm-4.65-.2-2.17-1.46,2.17-1.46,2.18,1.46Zm-.3.2-2.17,1.46L23.6,14.4l2.18-1.46Zm-4.65-.2-2.17-1.46,2.17-1.46,2.18,1.46Zm-.29.2-2.18,1.46L18.66,14.4l2.17-1.46Zm-4.65-.2-2.18-1.46,2.18-1.46,2.17,1.46Zm-.3.2-2.17,1.46L13.71,14.4l2.18-1.46Zm-4.65-.2-2.17-1.46,2.17-1.46,2.18,1.46Zm-.29.2-2.18,1.46L8.77,14.4l2.17-1.46Zm-4.65-.2L6.29,12.74l2.18-1.46,2.17,1.46ZM5.7,16.06,5,16.54l-.09-1Zm0,6.65L5.32,23v0c0-.16,0-.32,0-.48Zm.29.2,2.18,1.46L6,25.83l-.6-.41h0c0-.7,0-1.39,0-2.07ZM5.7,26l-.3.2v-.4Zm2.77,1.86,2.17,1.47L8.47,30.82,6.29,29.36Zm2.47,1.67L13.12,31l-2.18,1.46L8.77,31Zm.3-.2,2.17-1.47,2.18,1.47-2.18,1.46Zm4.65.2L18.06,31l-2.17,1.46L13.71,31Zm.29-.2,2.18-1.47,2.17,1.47-2.17,1.46Zm4.65.2L23,31l-2.18,1.46L18.66,31Zm.3-.2,2.17-1.47,2.18,1.47L23.3,30.82Zm4.65.2L28,31l-2.17,1.46L23.6,31Zm2.47,1.66,2.18,1.46-2.18,1.46-2.17-1.46Zm2.47,1.66,2.18,1.46-2.11,1.42-.07,0-.06,0-2.11-1.42Zm.3-.2,2.18-1.46,2.17,1.46L33.2,34.14Zm4.95,0,2.17-1.46,2.18,1.46-2.18,1.46ZM38.44,31l2.17-1.46.75.5c0,.64,0,1.28,0,1.93l-.73.49Zm2.9,1.37V33l-.43-.28ZM42.6,11.21l-2,1.33-2.17-1.46,2.17-1.46,2,1.37A1.42,1.42,0,0,0,42.6,11.21Zm-4.76-.13-2.17,1.46-2.18-1.46,2.18-1.46Zm-4.94,0-2.18,1.46-2.17-1.46,2.17-1.46Zm-4.95,0-2.17,1.46L23.6,11.08l2.18-1.46Zm-4.94,0-2.18,1.46-2.17-1.46,2.17-1.46Zm-5,0-2.17,1.46-2.18-1.46,2.18-1.46Zm-4.94,0-2.18,1.46L8.77,11.08l2.17-1.46Zm-4.95,0L6,12.54,4.26,11.38c0-.14-.06-.28-.1-.42a.32.32,0,0,0,0-.09L6,9.62ZM5.48,32.53l.22.15-.22.14Zm0-.4h0c0-.74,0-1.48,0-2.21h0L6,29.56,8.17,31,6,32.48Zm3-.91,2.17,1.46L8.47,34.14,6.29,32.68Zm2.77,1.46,2.17-1.46,2.18,1.46-2.18,1.46Zm4.94,0,2.18-1.46,2.17,1.46-2.17,1.46Zm4.95,0,2.17-1.46,2.18,1.46L23.3,34.14Zm4.65.2L28,34.34l-2.11,1.42-.06,0-.07,0L23.6,34.34Zm.66,2.88,1.81-1.22,1.81,1.22.12.08H26.32Zm4.94,0,1.82-1.22L35,35.76l.12.08H31.27Zm4.95,0,1.81-1.22L40,35.76l.12.08H36.21Zm4.22,0-2.11-1.42,2.17-1.46.72.48v.91l0,1.57h-.64Zm2.21-25.1L40.91,9.42,43.09,8l1.25.84a8.47,8.47,0,0,0-.7.63A3.48,3.48,0,0,0,42.76,10.66ZM45.2,8c-.18.19-.38.37-.6.56l-1-.65h1.65Zm-2.66-.09-1.93,1.3-1.93-1.3Zm-4.94,0-1.93,1.3-1.93-1.3Zm-5,0-1.93,1.3-1.93-1.3Zm-4.94,0-1.93,1.3-1.93-1.3Zm-4.95,0-1.93,1.3L18.9,7.92Zm-4.94,0-1.93,1.3L14,7.92Zm-5,0-1.93,1.3L9,7.92Zm-4.94,0L6,9.22,4.06,7.92ZM3,7.92l-.85.57a6.46,6.46,0,0,1-.59-.57Zm-1.65,29V8.67c.22.22.47.43.71.63s.49.41.7.62l0,0,.08.09a3,3,0,0,1,.55.76.84.84,0,0,1,.06.14,1.18,1.18,0,0,1,.07.2s0,.1,0,.15v0A25.09,25.09,0,0,1,4,13.86H4c0,.12,0,.25,0,.37s0,.25,0,.37,0,.29,0,.44h0c.07.61.13,1.26.18,1.93v.08c0,.1,0,.2,0,.3l.06.79v.1c0,.11,0,.21,0,.32,0,.52.06,1.05.09,1.6h0c0,.13,0,.26,0,.39h0c0,.34,0,.68,0,1,0,.13,0,.27,0,.41h0c0,.47,0,.93,0,1.41,0,.11,0,.23,0,.35v0l0,1.18c0,.14,0,.27,0,.41l0,1.29v.4c0,.42,0,.84,0,1.26v.42c0,.4,0,.81,0,1.21,0,.14,0,.27,0,.4,0,.44,0,.88,0,1.32v.4c0,.4,0,.79,0,1.19V36ZM5.5,35.84V33.22h0L6,32.88l2.18,1.46-2.23,1.5Zm1,0,1.93-1.3,1.93,1.3Zm4.94,0,1.93-1.3,1.93,1.3Zm4.95,0,1.93-1.3,1.93,1.3Zm4.94,0,1.93-1.3,1.82,1.22.11.08H21.37ZM42.06,36V33.46c0-.52,0-1.05,0-1.57v-.4c0-.32,0-.63,0-.94v-.39c0-.54,0-1.08,0-1.62,0-.13,0-.27,0-.4,0-.3,0-.59,0-.88,0-.13,0-.27,0-.4l0-1.68c0-.13,0-.27,0-.4s0-.54,0-.8,0-.26,0-.39q0-.91.06-1.8c0-.13,0-.27,0-.41l0-.65c0-.13,0-.26,0-.39,0-.68.06-1.34.1-2l0-.42,0-.41,0-.38c.06-.81.13-1.59.21-2.31,0-.15,0-.29,0-.44h0c0-.12,0-.25.05-.37a25.28,25.28,0,0,1,.45-2.62c0-.11.05-.21.08-.32h0v0a1.89,1.89,0,0,1,.21-.51,3.9,3.9,0,0,1,.52-.65c.21-.2.44-.39.67-.59s.48-.41.7-.63V36.93Z"/><path class="cls-2" d="M18.73,5.79c.44-.12,1,.49,1.2,1.35s0,1.65-.4,1.77-1-.5-1.2-1.36S18.29,5.9,18.73,5.79Z"/><path class="cls-2" d="M30.87,5.79c-.44-.12-1,.49-1.19,1.35s0,1.65.4,1.77,1-.5,1.19-1.36S31.31,5.9,30.87,5.79Z"/><path class="cls-3" d="M27.15,16.09l2.72,4.8a1.28,1.28,0,0,0,1.74.48h0a1.28,1.28,0,0,0,.48-1.74l-2.72-4.8C28.58,13.44,26.4,14.77,27.15,16.09Z"/><path class="cls-3" d="M31.44,19.28a1.27,1.27,0,0,0-1.67.69l-1.48,3.7-.16.39c-.81,2,1.62,2.64,2.32.94l.16-.39L32.13,21A1.28,1.28,0,0,0,31.44,19.28Z"/><path class="cls-3" d="M22.51,15.92l-2.72,4.79a1.28,1.28,0,0,1-1.74.49h0a1.29,1.29,0,0,1-.48-1.75l2.72-4.79C21.08,13.26,23.26,14.6,22.51,15.92Z"/><path class="cls-3" d="M19.59,19.19l-2.77-2.84-.29-.3c-1.28-1.33-3.29.2-1.81,1.73l.29.3L17.76,21a1.28,1.28,0,1,0,1.83-1.78Z"/><rect class="cls-4" x="21.37" y="13.88" width="6.87" height="10.82"/><path class="cls-5" d="M22.89,13.88h3.82v.24A1.92,1.92,0,0,1,24.8,16h0a1.92,1.92,0,0,1-1.91-1.91Z"/><path class="cls-6" d="M27,15.74l1.36,2.38,2.24-1.34-1.32-2.33C28.44,13.05,26.21,14.42,27,15.74Z"/><path class="cls-6" d="M22.6,15.74,21.21,18.2,19,16.85l1.37-2.41C21.12,13.05,23.35,14.42,22.6,15.74Z"/><path class="cls-3" d="M24.76,8.64h0a1.56,1.56,0,0,1,1.55,1.56v3.55a1.56,1.56,0,0,1-1.55,1.55h0a1.56,1.56,0,0,1-1.55-1.55V10.2A1.56,1.56,0,0,1,24.76,8.64Z"/><path class="cls-7" d="M26.31,12.59h0c0,1.33-3.1,1.33-3.1,0h0C23.21,11.26,26.31,11.26,26.31,12.59Z"/><path class="cls-3" d="M24.76.21c-8.74,0-6.63,12.68,0,12.68S33.49.21,24.76.21Z"/><path class="cls-8" d="M26.57,7.32c.23,0,.42-.34.42-.77s-.19-.77-.42-.77-.42.35-.42.77S26.34,7.32,26.57,7.32Z"/><path class="cls-8" d="M23,7.32c.23,0,.42-.34.42-.77s-.19-.77-.42-.77-.42.35-.42.77S22.71,7.32,23,7.32Z"/><path class="cls-7" d="M25.61,8.5a.89.89,0,0,1-1.7,0A1.2,1.2,0,0,0,25.61,8.5Z"/><path class="cls-8" d="M23.5,4.49a1.17,1.17,0,0,0-1.42.29c-.17.19,0,.21.1.1a1.07,1.07,0,0,1,1.24-.17C23.63,4.81,23.73,4.65,23.5,4.49Z"/><path class="cls-8" d="M26,4.49a1.17,1.17,0,0,1,1.42.29c.17.19,0,.21-.09.1a1.07,1.07,0,0,0-1.24-.17C25.9,4.81,25.81,4.65,26,4.49Z"/><path class="cls-9" d="M27.5,36.43c.61.91,1.44,1.3,1.64,2,.35,1.14-1,1-1.66.79s-.91-.56-1.27-.66c-1-.28-1-.85-.6-2.22S27,35.58,27.5,36.43Z"/><path class="cls-10" d="M29.05,38.17a1,1,0,0,1,.09.21c.33,1.06-.78,1-1.47.85s-1.07-.61-1.46-.72-.77-.38-.83-.78a7.86,7.86,0,0,0,2.27,1.07A2,2,0,0,1,29.05,38.17Z"/><path class="cls-11" d="M28.67,37.72a.08.08,0,0,0,.11,0,.09.09,0,0,0,0-.12,1.24,1.24,0,0,0-.28-.12h0s0,0,.06,0l0,0a.07.07,0,0,0,0-.11,1.28,1.28,0,0,0-.4-.17h0a.08.08,0,0,0,.09-.08.08.08,0,0,0-.07-.08.77.77,0,0,0-.47.08h0a1.29,1.29,0,0,0-.74.12.08.08,0,0,0,0,.11.09.09,0,0,0,.11,0,1,1,0,0,1,.47-.1,1.29,1.29,0,0,0-.25.34.08.08,0,0,0,0,.1.08.08,0,0,0,.11,0,1,1,0,0,1,.43-.12,1.61,1.61,0,0,0-.24.33.08.08,0,0,0,.14.08,1.5,1.5,0,0,1,.28-.37l.08-.05a1.16,1.16,0,0,1,.61.14Zm-.47-.39-.19.08a1.84,1.84,0,0,0-.47.06.75.75,0,0,1,.15-.16l.08-.06A2.36,2.36,0,0,1,28.2,37.33Z"/><path class="cls-9" d="M22.23,36.39c-.61.9-1.44,1.29-1.65,1.94-.35,1.14,1,1,1.66.8s.92-.56,1.28-.67c1-.28,1-.85.6-2.21S22.72,35.54,22.23,36.39Z"/><path class="cls-10" d="M20.67,38.12l-.09.21c-.32,1.07.79,1,1.48.85s1.06-.6,1.46-.72.77-.38.82-.78a7.74,7.74,0,0,1-2.27,1.07A2,2,0,0,0,20.67,38.12Z"/><path class="cls-11" d="M21.05,37.68a1.27,1.27,0,0,1,.62-.15l.07,0A1.29,1.29,0,0,1,22,38a.09.09,0,0,0,.12,0,.08.08,0,0,0,0-.11,1.53,1.53,0,0,0-.23-.33,1.06,1.06,0,0,1,.43.12.08.08,0,0,0,.11,0,.08.08,0,0,0,0-.1,1.48,1.48,0,0,0-.25-.34,1,1,0,0,1,.46.1.08.08,0,0,0,.08-.14A1.37,1.37,0,0,0,22,37h0a.86.86,0,0,0-.47-.08.08.08,0,0,0-.08.09.1.1,0,0,0,.09.07h0a1.18,1.18,0,0,0-.4.16.08.08,0,0,0,0,.11l0,0a.06.06,0,0,0,.06,0h0a1,1,0,0,0-.28.11.08.08,0,0,0,0,.12.09.09,0,0,0,.11,0Zm.9-.48.09.06.15.16a1.57,1.57,0,0,0-.48-.05.54.54,0,0,0-.19-.08A2.72,2.72,0,0,1,22,37.2Z"/><path class="cls-3" d="M28.11,27.77l-.45,8.89c-.37-.34-.75-.15-1.15.31a.71.71,0,0,1-1.09-.29V27.9C25.43,27.51,28.11,27.77,28.11,27.77Z"/><path class="cls-3" d="M21.56,27.77,22,36.66c.37-.34.75-.15,1.15.31a.71.71,0,0,0,1.09-.29l0-8.78C24.24,27.51,21.56,27.77,21.56,27.77Z"/><path class="cls-7" d="M27,9.75a4.8,4.8,0,0,1-4.38,0A9,9,0,0,0,27,9.75Z"/><path class="cls-7" d="M25.78,10.45a1.56,1.56,0,0,1-2,0A3,3,0,0,0,25.78,10.45Z"/><path class="cls-6" d="M21.37,24.65h6.86l.05,4.61H25.14s0-2.56-.43-2.55-.37,2.55-.37,2.55h-3Z"/><path class="cls-12" d="M19.05,4.81c.59-6.08,10.71-6.74,11.41,0Q24.76,0,19.05,4.81Z"/><circle class="cls-11" cx="20.52" cy="37.65" r="3.06"/><path class="cls-13" d="M20.52,40.76a3.12,3.12,0,1,1,3.12-3.11A3.12,3.12,0,0,1,20.52,40.76Zm0-6.12a3,3,0,1,0,3,3A3,3,0,0,0,20.52,34.64Z"/><path class="cls-11" d="M22.14,39.75l.67-.68a.1.1,0,0,1,.13,0l.24.11a3,3,0,0,0,.4-1.51A3,3,0,0,0,23,35.87l-.53.09a.11.11,0,0,1-.12-.06l-.44-.85a.1.1,0,0,1,0-.12,3,3,0,0,0-1.41-.34,3.08,3.08,0,0,0-1.69.51v0l-.14,1a.11.11,0,0,1-.09.09l-.83.14a3,3,0,0,0-.3,1.33,3.06,3.06,0,0,0,1,2.29l.18-.18a.1.1,0,0,1,.13,0l.86.43a.11.11,0,0,1,.06.11l-.05.31a3.34,3.34,0,0,0,.84.12,3,3,0,0,0,1.74-.55l-.14-.28A.11.11,0,0,1,22.14,39.75Zm-.88-1.48a.12.12,0,0,1-.09.1l-1,.16a.14.14,0,0,1-.12-.06l-.44-.86a.09.09,0,0,1,0-.12l.67-.69a.11.11,0,0,1,.13,0l.86.43a.09.09,0,0,1,.06.11Z"/><path class="cls-13" d="M20.52,40.76a3.12,3.12,0,0,1-.85-.12h-.05l.05-.36a.05.05,0,0,0,0-.05l-.86-.43s-.05,0-.06,0L18.5,40l0,0a3.1,3.1,0,0,1-1.05-2.33,3,3,0,0,1,.31-1.36v0l.86-.15a0,0,0,0,0,0,0l.15-.95s0,0,0,0v0l0,0A3.12,3.12,0,0,1,22,34.88l.06,0L22,35A.06.06,0,0,0,22,35l.44.85a0,0,0,0,0,.06,0l.57-.09,0,0a3.11,3.11,0,0,1,.17,3.35l0,.05-.29-.14a0,0,0,0,0-.06,0l-.67.68h0a.06.06,0,0,0,0,.07l.17.32,0,0A3.14,3.14,0,0,1,20.52,40.76Zm-.78-.21a3.47,3.47,0,0,0,.78.1,3,3,0,0,0,1.67-.51l-.12-.23a.17.17,0,0,1,0-.2h0l.67-.68a.18.18,0,0,1,.2,0l.19.1A3,3,0,0,0,23,35.93l-.5.08a.16.16,0,0,1-.18-.08l-.44-.86a.16.16,0,0,1,0-.12,3,3,0,0,0-1.33-.31,3,3,0,0,0-1.63.49h0l-.15,1a.17.17,0,0,1-.13.14l-.8.13a3,3,0,0,0-.29,1.28,3,3,0,0,0,1,2.21l.14-.14a.15.15,0,0,1,.19,0l.86.43a.15.15,0,0,1,.09.17Zm.46-2a.16.16,0,0,1-.15-.09l-.44-.85a.17.17,0,0,1,0-.19l.67-.69a.17.17,0,0,1,.2,0l.86.43a.17.17,0,0,1,.09.17l-.14,1a.18.18,0,0,1-.14.14l-.95.16Zm.23-1.76,0,0-.67.68a.06.06,0,0,0,0,.07l.44.85a.07.07,0,0,0,.06,0l.95-.16a0,0,0,0,0,0,0h0l.15-1a.05.05,0,0,0,0-.05l-.86-.43Z"/><path class="cls-14" d="M21.34,37.21l-.86-.43a.11.11,0,0,0-.13,0l-.67.69a.09.09,0,0,0,0,.12l.44.86a.14.14,0,0,0,.12.06l1-.16a.12.12,0,0,0,.09-.1l.14-1A.09.09,0,0,0,21.34,37.21Z"/><path class="cls-14" d="M19.67,40.17l-.86-.43a.1.1,0,0,0-.13,0l-.18.18a3.11,3.11,0,0,0,1.18.65l.05-.31A.11.11,0,0,0,19.67,40.17Z"/><path class="cls-14" d="M21.92,35.05l.44.85a.11.11,0,0,0,.12.06l.53-.09a3.06,3.06,0,0,0-1.08-.94A.1.1,0,0,0,21.92,35.05Z"/><path class="cls-14" d="M18.69,36.09l.14-1v0a3.06,3.06,0,0,0-1.06,1.22l.83-.14A.11.11,0,0,0,18.69,36.09Z"/><path class="cls-14" d="M23.18,39.16l-.24-.11a.1.1,0,0,0-.13,0l-.67.68a.11.11,0,0,0,0,.13l.14.28A3,3,0,0,0,23.18,39.16Z"/></g></g></svg>