<svg xmlns="http://www.w3.org/2000/svg" viewBox="0 0 88.32 45.38"><defs><style>.cls-1{fill:#b24a32;}.cls-2{fill:#f7f2f2;}.cls-3{fill:#724141;}.cls-4{fill:#fff;}.cls-5{fill:#9b9b9b;opacity:0.38;isolation:isolate;}.cls-6{fill:#331f1f;}.cls-7{fill:none;stroke:#fff;stroke-miterlimit:10;stroke-width:0.5px;}</style></defs><title>operahuset</title><g id="Layer_2" data-name="Layer 2"><g id="Layer_2-2" data-name="Layer 2"><path class="cls-1" d="M20.24,0S32.82,24.41,30.73,30.3l-.55,1L20.24,0h0"/><path class="cls-1" d="M0,10.12s12.21,16,11.47,21h0l-2.69.5L0,10.12"/><polyline class="cls-2" points="29.14 32.14 44.78 20.3 63.36 35.14 25.76 35.14 29.14 32.14"/><rect class="cls-3" x="18.4" y="31.09" width="45.75" height="10.12"/><polygon class="cls-3" points="45.82 41.21 0.01 41.21 8.59 31.09 45.82 31.09 45.82 41.21"/><polygon class="cls-3" points="84.52 41.21 38.7 41.21 38.7 31.09 75.99 31.09 84.52 41.21"/><path class="cls-4" d="M76,31.09l-18.89.13c-3.19-2.15,7.06-16.68,31.22-11.29Z"/><path class="cls-4" d="M30.18,31.34l14.54-11S37.78-4.11,17.12.92Z"/><path class="cls-4" d="M18.53,31.46l11.65-.12S25.09,4.91,9.94,8.59Z"/><path class="cls-4" d="M57.1,30.3,43.55,19.81s7.67-22.63,26-17.48Z"/><path class="cls-4" d="M8.84,31.59l11.28-.13s-5-25-20-21.34Z"/><path class="cls-5" d="M76,31.09,88.32,19.93S83.11,22.75,69.8,31.09Z"/><rect class="cls-6" y="39.25" width="84.45" height="6.13"/><polygon class="cls-6" points="22.88 39.25 24.54 35.14 28.59 35.14 28.65 39.25 22.88 39.25"/><polygon class="cls-6" points="33.74 39.25 35.33 35.14 39.38 35.14 39.44 39.25 33.74 39.25"/><polygon class="cls-6" points="43.55 39.25 45.21 35.14 49.19 35.14 49.25 39.25 43.55 39.25"/><polygon class="cls-6" points="55.2 39.25 56.86 35.14 60.91 35.14 60.91 39.25 55.2 39.25"/><line class="cls-7" x1="47.35" y1="35.14" x2="47.11" y2="39.25"/><line class="cls-7" x1="58.94" y1="35.14" x2="58.64" y2="39.25"/><line class="cls-7" x1="37.42" y1="35.14" x2="37.11" y2="39.25"/><line class="cls-7" x1="26.38" y1="35.14" x2="26.13" y2="39.25"/><line class="cls-7" x1="51.52" y1="36.55" x2="51.65" y2="36.55"/><path class="cls-2" d="M69.55,2.39S53,26.49,54.9,29.07l1.84,2Z"/><path class="cls-2" d="M17.18.92S32.51,25.15,31,30.3c-.37,1.29-.8,1-.8,1Z"/><path class="cls-2" d="M0,10.12s11.47,16.19,11.47,21v.5H8.71C8.78,31.59-.24,11,0,10.12Z"/><path class="cls-2" d="M10.12,8.77S21.9,24.9,21.9,29.75v1.59l-1.84.12C20.12,31.46,9.88,9.69,10.12,8.77Z"/></g></g></svg>