<svg xmlns="http://www.w3.org/2000/svg" viewBox="0 0 38.47 40.51"><defs><style>.cls-1{fill:#0f0a0c;}.cls-2{fill:#fff;}</style></defs><title>panda</title><g id="Layer_2" data-name="Layer 2"><g id="Layer_5" data-name="Layer 5"><path class="cls-1" d="M23.77,15.57a3.59,3.59,0,0,1-1.26,3,1.77,1.77,0,0,0-.57.62,1.39,1.39,0,0,0,.31,1.18C23,21.57,24,22.89,25.4,22.8A4,4,0,0,0,27,22.26c2.75-1.46,5.61-3.13,7.07-5.88A14.2,14.2,0,0,0,35.3,9.67a11.52,11.52,0,0,0-.52-4.06A4.59,4.59,0,0,0,32,2.74a2.9,2.9,0,0,0-3.48,1.4,4.78,4.78,0,0,0-.25,1.92l0,3.31a9,9,0,0,1-.76,4.55c-.76,1.36-2.56,2.27-3.92,1.52"/><path class="cls-1" d="M25.59,27.49a10.92,10.92,0,0,1,4.78,5,2.88,2.88,0,0,0,.51.86c.54.57,1.63.79,1.61,1.57a1.64,1.64,0,0,1-.22.63l-.85,1.56c-.56,1-1.26,2.16-2.4,2.39a4.12,4.12,0,0,1-2.53-.62,2.9,2.9,0,0,1-1.13-.81c-.53-.74-.26-1.79-.62-2.62a3.26,3.26,0,0,0-2.09-1.58A8.55,8.55,0,0,1,20,32.46a8.21,8.21,0,0,0,5.61-5.2"/><path class="cls-1" d="M10.35,3A5,5,0,0,0,6.88.06,1.79,1.79,0,0,0,6,.05a2,2,0,0,0-1.1,1.16A8.36,8.36,0,0,0,4,4.68,4.66,4.66,0,0,0,5.15,8a.43.43,0,0,0,.19.14c.24.06.4-.26.45-.51C6,6.53,7.25,6.09,7.93,5.18a4.2,4.2,0,0,1,2.76-2c0-.12-.76-.6-.76-.72"/><path class="cls-2" d="M23.13,5C25.64,7.6,26.08,14,24.21,17a9.28,9.28,0,0,1-2.43,2.49,12.29,12.29,0,0,1-3.39,1.85A10,10,0,0,1,11,20.7a13.71,13.71,0,0,1-5.48-5.15A8.36,8.36,0,0,1,4,9.76c.54-2.94,3.26-4.88,5.79-6.47a12.38,12.38,0,0,1,3.95-1.84A8.27,8.27,0,0,1,20,3.05a23.19,23.19,0,0,1,4.6,4.68l-.71-.29"/><path class="cls-1" d="M6.93,11.55a4.24,4.24,0,0,1,3.58-3.79A2,2,0,0,1,12,7.93a2.13,2.13,0,0,1,.42,2.46,6.64,6.64,0,0,1-2.66,3.38,2.13,2.13,0,0,1-2,.35,1.68,1.68,0,0,1-.81-1.25A5.33,5.33,0,0,1,7,11.33"/><path class="cls-2" d="M11.44,9.93c-.42.21-1.67.33-1.55.77a.93.93,0,0,0,1.08.64c.44-.12.65-1,.47-1.41"/><path class="cls-1" d="M11.68,11a.63.63,0,0,0-.75-.25.38.38,0,0,0-.08.65.77.77,0,0,0,.34.08"/><path class="cls-1" d="M19.08,8.15a4.23,4.23,0,0,1,2.83,4.38,2,2,0,0,1-.52,1.37c-.65.61-1.73.31-2.48-.18a6.69,6.69,0,0,1-2.65-3.39,2.11,2.11,0,0,1,.15-2.06,1.68,1.68,0,0,1,1.41-.49,5.2,5.2,0,0,1,1.47.45"/><path class="cls-2" d="M17.37,10.09c.36.29,1,1.36,1.36,1.06a.92.92,0,0,0,.1-1.24c-.29-.36-1.16-.17-1.46.18"/><path class="cls-1" d="M17.7,11.23a.63.63,0,0,0,.68-.39c.08-.28-.18-.59-.45-.49a.63.63,0,0,0-.28.21"/><path class="cls-1" d="M13.07,13.21s-.07.08-.13.08a.34.34,0,0,0-.34.3.71.71,0,0,0,.09.47,2.09,2.09,0,0,0,1.09,1.06,2.21,2.21,0,0,0,1.64,0A2.32,2.32,0,0,0,16.65,14a.44.44,0,0,0,.07-.21.41.41,0,0,0-.36-.36,3.59,3.59,0,0,0-1.12.11c-.76.06-1.51-.44-2.26-.28"/><path class="cls-1" d="M14.64,16.72c-.2-.28-.34.37-.45.47a1.08,1.08,0,0,1-.87.28,4.34,4.34,0,0,1-1.14-.13l-.66-.13a.49.49,0,0,0,.1.63,1.19,1.19,0,0,0,.62.29,7.57,7.57,0,0,0,1.34.18,9.81,9.81,0,0,0,3.49-.45.3.3,0,0,0,.17-.08c.14-.14,0-.4-.21-.43s-1.59.09-2.09.09a.65.65,0,0,1-.28-.63"/><path class="cls-2" d="M8.43,20.45a10.12,10.12,0,0,0,2.76,6c1.32,1.36,2.76,1.39,3.75,3s.44,3.61-.75,5.26c1.72-.75,4.46-1.5,6.17-2.24a11.1,11.1,0,0,0,3.29-1.9c2.1-2,2.35-5.15,2.46-8a1.38,1.38,0,0,0-.23-1,1.6,1.6,0,0,0-.8-.37c-1.7-.43-3.47-1.52-3.78-3.26-.82.39-1.22,1.3-1.81,2A5.79,5.79,0,0,1,14,21.47c-1.95-.35-4.14-1.78-5.86-2.78.1.33.15,1.43.25,1.76"/><path class="cls-1" d="M2.43,26.26A12.26,12.26,0,0,0,.78,36.2a1.37,1.37,0,0,1,.08.63c-.07.39-.44.65-.66,1-.59.9.21,2.18,1.23,2.53a7,7,0,0,0,3.21-.08,3.8,3.8,0,0,0,1.53-.43c1-.69,1-2.24.61-3.43s-1-2.43-.59-3.62a2,2,0,0,0,.11-.48c0-.44.23-1.08-.12-1.34-1.21-.89-2.71-1.9-3-3.37a2,2,0,0,0-.42-1.11"/><path class="cls-1" d="M7.48,17.82a3.77,3.77,0,0,1,.65.85,4.68,4.68,0,0,1,.33,1.48A10.59,10.59,0,0,0,14,28a3.7,3.7,0,0,1,1.55,1.1,2.73,2.73,0,0,1,.34,1.23c.19,2-.44,4.37-2.32,5s-3.73-.64-5.24-1.86a21.21,21.21,0,0,1-4.84-4.85,16.54,16.54,0,0,1-1.47-3A12.34,12.34,0,0,1,1,20.93a13.19,13.19,0,0,1,1.15-4.42,5.38,5.38,0,0,1,.94-1.71,1.92,1.92,0,0,1,1.75-.67c.64.14.84.4,1.13,1.31"/><path class="cls-1" d="M21.82.06a2,2,0,0,1,.92,0,2.07,2.07,0,0,1,1.18,1.16,7.75,7.75,0,0,1,1,3.47A4.44,4.44,0,0,1,23.67,8a.46.46,0,0,1-.2.14c-.26.06-.43-.26-.49-.51A7.64,7.64,0,0,0,21.6,4.5a4.83,4.83,0,0,0-2.77-1.17.51.51,0,0,1-.28-.85,0,0,0,0,0,0,0"/></g><g id="Layer_6" data-name="Layer 6"><path class="cls-1" d="M36.82,29.29A3.42,3.42,0,0,1,38,31.13a1.06,1.06,0,0,0,.1.3c.13.21.45.35.4.59a.67.67,0,0,1-.11.18l-.36.42c-.24.28-.53.59-.9.58a1.25,1.25,0,0,1-.73-.35.91.91,0,0,1-.3-.32c-.12-.26,0-.57,0-.85a1,1,0,0,0-.55-.62,2.71,2.71,0,0,1-.74-.6,2.58,2.58,0,0,0,2.06-1.24"/><path class="cls-1" d="M33.69,20.75a1.59,1.59,0,0,0-.88-1.12.76.76,0,0,0-.26-.06.69.69,0,0,0-.42.29,2.78,2.78,0,0,0-.52,1,1.46,1.46,0,0,0,.16,1.1.15.15,0,0,0,.05.06c.07,0,.14-.06.17-.13.15-.33.55-.38.82-.62a1.33,1.33,0,0,1,1-.44s-.2-.24-.19-.27"/><path class="cls-2" d="M37.5,22.19A3.77,3.77,0,0,1,37.07,26a3.21,3.21,0,0,1-.92.61,3.81,3.81,0,0,1-1.16.35,3.15,3.15,0,0,1-2.24-.68,4.37,4.37,0,0,1-1.36-1.94,2.66,2.66,0,0,1-.08-1.88,3.43,3.43,0,0,1,2.2-1.62,3.87,3.87,0,0,1,1.34-.32,2.6,2.6,0,0,1,1.8.89,7.6,7.6,0,0,1,1.12,1.74l-.2-.13"/><path class="cls-1" d="M32.09,23.18a1.34,1.34,0,0,1,1.35-.94.61.61,0,0,1,.43.15.65.65,0,0,1,0,.78,2,2,0,0,1-1,.87.68.68,0,0,1-.65,0,.52.52,0,0,1-.17-.44,1.91,1.91,0,0,1,.12-.47"/><path class="cls-2" d="M33.58,23c-.14,0-.53,0-.52.14a.28.28,0,0,0,.29.26c.14,0,.26-.26.23-.4"/><path class="cls-1" d="M33.59,23.31a.19.19,0,0,0-.21-.13c-.09,0-.14.14-.07.2l.1,0"/><path class="cls-1" d="M36.05,22.91a1.32,1.32,0,0,1,.59,1.53.64.64,0,0,1-.24.39c-.24.15-.56,0-.76-.21A2.17,2.17,0,0,1,35,23.4a.71.71,0,0,1,.18-.63.55.55,0,0,1,.47-.05,1.44,1.44,0,0,1,.42.23"/><path class="cls-2" d="M35.47,23.32c.05.14.06.53.2.5a.29.29,0,0,0,.23-.32c0-.14-.3-.23-.43-.18"/><path class="cls-1" d="M35.48,23.83c.11.06.24.05.27,0a.22.22,0,0,0-.17-.26.14.14,0,0,0-.12,0"/><path class="cls-1" d="M33.87,24.08s0,0,0,0a.11.11,0,0,0-.12.07.26.26,0,0,0,0,.15.67.67,0,0,0,.78.51.77.77,0,0,0,.45-.26s0,0,0-.06a.14.14,0,0,0-.09-.14,1,1,0,0,0-.35,0c-.24,0-.44-.24-.68-.23"/><path class="cls-1" d="M34.13,25.27c0-.1-.13.09-.16.11a.33.33,0,0,1-.29,0,1.35,1.35,0,0,1-.34-.11l-.2-.08a.16.16,0,0,0,0,.2.43.43,0,0,0,.17.13,3.17,3.17,0,0,0,.4.14,3.46,3.46,0,0,0,1.11.09l.06,0c.05,0,0-.12,0-.15s-.5-.07-.65-.1a.24.24,0,0,1,0-.22"/><path class="cls-2" d="M32,26a3.3,3.3,0,0,0,.46,2c.33.5.77.6,1,1.16a1.46,1.46,0,0,1-.57,1.57c.58-.11,1.47-.17,2-.29A3.41,3.41,0,0,0,36,30.12,3.53,3.53,0,0,0,37.3,27.8a.47.47,0,0,0,0-.33.52.52,0,0,0-.22-.17,1.49,1.49,0,0,1-1-1.24c-.27.06-.46.32-.68.49a1.81,1.81,0,0,1-1.79.14A6.37,6.37,0,0,1,32,25.46c0,.11-.05.45,0,.56"/><path class="cls-1" d="M36.19,26.14c0-.37.37-.37.74-.37s.24.58.29.67a2,2,0,0,1,.31,1.17,2.61,2.61,0,0,1-.1.57,7.75,7.75,0,0,1-.92,2.58,1.1,1.1,0,0,1-1,.44.76.76,0,0,1-.58-.21,1.68,1.68,0,0,1-.38-1,2,2,0,0,1,.24-1.27.32.32,0,0,1,.28-.09l.48,0a.67.67,0,0,0,.66-.26,2.17,2.17,0,0,0,.27-1.44"/><path class="cls-1" d="M29.76,27.42a3.89,3.89,0,0,0-1.15,3,.44.44,0,0,1,0,.2c-.05.12-.18.17-.27.26s-.08.68.22.86a2.18,2.18,0,0,0,1,.18,1.06,1.06,0,0,0,.5,0c.36-.14.45-.62.41-1a2,2,0,0,1,.05-1.16.59.59,0,0,0,.06-.14c0-.13.14-.31.05-.42-.31-.35-.71-.76-.7-1.23a.66.66,0,0,0-.06-.37"/><path class="cls-1" d="M31.83,25.26a1.2,1.2,0,0,1,.15.3A1.48,1.48,0,0,1,32,26a3.28,3.28,0,0,0,1.21,2.73,1.06,1.06,0,0,1,.41.43.85.85,0,0,1,0,.39c-.07.61-.41,1.29-1,1.37s-1.11-.43-1.5-.89a6.76,6.76,0,0,1-1.19-1.78,4.9,4.9,0,0,1-.26-1,3.62,3.62,0,0,1,0-1.5,4,4,0,0,1,.63-1.26,1.6,1.6,0,0,1,.4-.46.63.63,0,0,1,.58-.09c.19.09.23.18.26.47"/><path class="cls-1" d="M37.42,20.59a.55.55,0,0,1,.28.06.63.63,0,0,1,.29.43,2.46,2.46,0,0,1,.1,1.14,1.43,1.43,0,0,1-.61.94.11.11,0,0,1-.07,0c-.09,0-.12-.1-.12-.19A2.54,2.54,0,0,0,37.07,22a1.56,1.56,0,0,0-.78-.54.16.16,0,0,1,0-.28h0"/></g></g></svg>