<?xml version="1.0" encoding="utf-8"?>
<!-- Generator: Adobe Illustrator 22.1.0, SVG Export Plug-In . SVG Version: 6.00 Build 0)  -->
<svg version="1.1" id="Layer_1" xmlns="http://www.w3.org/2000/svg" xmlns:xlink="http://www.w3.org/1999/xlink" x="0px" y="0px"
	 viewBox="0 0 166.7 352.3" style="enable-background:new 0 0 166.7 352.3;" xml:space="preserve">
<style type="text/css">
	.st0{display:none;}
	.st1{display:inline;}
	.st2{fill:#866559;}
	.st3{fill:#E2B19F;}
	.st4{fill:#018B82;}
	.st5{fill:#CD9989;}
	.st6{fill:#FFFFFF;}
	.st7{fill:#333C48;}
	.st8{fill:#181F2D;}
	.st9{fill:#2D201E;}
	.st10{fill:#602E1B;}
	.st11{fill:#3F2A1F;}
	.st12{fill:#878787;}
	.st13{fill:#9D9D9C;}
	.st14{fill:none;stroke:#2D201E;stroke-width:2;stroke-miterlimit:10;}
	.st15{fill:#F2EBEB;}
	.st16{fill:#124486;}
	.st17{fill:#F4E600;}
	.st18{fill:#EAB31C;}
	.st19{fill:none;stroke:#EAB31C;stroke-miterlimit:10;}
	.st20{fill:#3C4649;}
	.st21{font-family:'DDCHardware-Regular';}
	.st22{font-size:21px;}
	.st23{font-size:12px;}
</style>
<title>0</title>
<g id="Layer_2_1_" class="st0">
	<g id="Layer_1-2" class="st1">
		<path class="st2" d="M79.8,1.9c0,0-66.1-16.2-60.6,163.5c0,0-0.7,18.7,62,16.5L79.8,1.9z"/>
		<path class="st2" d="M86,1.9c0,0,66.1-16.2,60.6,163.5c0,0,0.6,18.7-62,16.5L86,1.9z"/>
		<path class="st3" d="M105.8,146.9l24.1,42.4c3.1,5.4,10,7.3,15.4,4.3l0,0c5.4-3.1,7.3-10,4.2-15.4l-24.1-42.4
			C118.4,123.5,99.2,135.3,105.8,146.9z"/>
		<path class="st3" d="M159.6,136.2c5.8,2.4,8.5,9,6.1,14.7c0,0,0,0,0,0l-13.9,32.4l-1.4,3.4c-7.2,17.4-26.6,6.4-20.4-8.6l1.4-3.4
			l13.4-32.4C147.3,136.6,153.9,133.9,159.6,136.2z"/>
		<path class="st3" d="M62.3,148.6L38.2,191c-3.1,5.4-10,7.3-15.4,4.3l0,0c-5.4-3.1-7.3-10-4.3-15.4l24.1-42.4
			C49.7,125.1,68.9,136.9,62.3,148.6z"/>
		<path class="st3" d="M36.2,180.7l-1.4-3.4l-13.1-32.8c-2.5-5.7-9.2-8.3-14.9-5.8c-5.6,2.4-8.2,8.8-6,14.5l13.4,32.4l1.4,3.4
			C22,204.1,43.5,198.1,36.2,180.7z"/>
		<path class="st4" d="M103.8,143.8l12,21.1l19.8-11.9l-11.7-20.6C116.9,120.1,97.2,132.1,103.8,143.8z"/>
		<path class="st4" d="M65.6,143.8l-12.3,21.8l-19.9-11.9l12.1-21.3C52.5,120,72.3,132.1,65.6,143.8z"/>
		<path class="st2" d="M94.8,8.9c4,19.6,29.7,43.8,42,45.1C138.9,25.4,113,3.2,94.8,8.9z"/>
		<path class="st5" d="M92.2,79.9c-2.9,7.4-12.2,7.2-15,0C81.4,83.9,88,83.9,92.2,79.9z"/>
		<path class="st6" d="M122.6,342.2c-2.6-4.8-8.9-8.3-13.8-15.4c-4.3-7.5-13.2-13.3-16.7-1.2c-1.7,5.9-2.5,10.1-1.9,13.1
			c0.6,0.6,1,1.4,1.2,2.2c0.5,0.3,0.9,0.7,1.3,1.2c0.5,0.3,0.9,0.6,1.2,1.1c0.8,0.2,1.5,0.6,2,1.2c0.2,0,0.4,0,0.6,0
			c1.3,0,2.5,0.4,3.4,1.3c0.2,0,0.3,0,0.5,0c1.3,0,2.5,0.4,3.4,1.3c0.6,0.2,1.1,0.4,1.5,0.8c1.2,0.1,2.4,0.7,3.1,1.7
			c0.2,0,0.5,0,0.8,0c1.3,0,2.6,0.5,3.5,1.5c0.2,0,0.3,0,0.5,0c0.3,0,0.6,0,0.9,0.1c0.8-1.4,2.4-2.3,4-2.3c0.6-0.3,1.3-0.5,2-0.5
			c0,0,0,0,0,0C119.6,345.9,120.5,343.4,122.6,342.2z"/>
		<path class="st7" d="M122.6,342.1c0.3,0.6,0.6,1.2,0.8,1.9c2.9,9.4-6.9,8.9-13,7.5c-6.4-1.5-9.4-5.3-12.9-6.3
			c-4.6-1.3-6.7-3.4-7.3-6.9c4.9,3.8,12.2,6.9,20,9.5C113.4,344.3,117.9,342.2,122.6,342.1z"/>
		<path class="st8" d="M119.3,338.2c0.3,0.3,0.7,0.3,1,0s0.3-0.7,0-1c0,0-0.1-0.1-0.1-0.1c-0.8-0.5-1.6-0.9-2.5-1l0,0
			c0.2,0,0.4,0,0.5-0.2c0.1,0,0.1-0.1,0.2-0.2c0.2-0.3,0.2-0.8-0.2-1c-1.1-0.7-2.3-1.2-3.5-1.5h0.3c0.4,0,0.7-0.2,0.8-0.6
			c0,0,0,0,0,0c0-0.4-0.2-0.7-0.6-0.8c0,0,0,0,0,0c-1.4-0.2-2.9,0.1-4.2,0.8h-0.1c-2.2-0.3-4.5,0.1-6.6,1c-0.3,0.2-0.5,0.6-0.3,1
			s0.6,0.5,1,0.3c1.3-0.6,2.7-0.9,4.1-0.9c-0.9,0.9-1.6,1.9-2.2,3c-0.3,0.2-0.3,0.6-0.2,0.9c0.2,0.4,0.6,0.5,1,0.3c0,0,0,0,0,0
			c1.2-0.6,2.5-1,3.8-1.1c-0.8,0.9-1.5,1.9-2.1,3c-0.2,0.3-0.1,0.8,0.3,1c0.3,0.2,0.8,0.1,1-0.3c0.6-1.2,1.5-2.3,2.5-3.3
			c0.2-0.2,0.4-0.3,0.7-0.5C115.7,336.8,117.6,337.3,119.3,338.2L119.3,338.2z M115.1,334.8c-0.6,0.2-1.2,0.4-1.7,0.7
			c-1.4,0-2.8,0.1-4.2,0.5c0.4-0.5,0.8-1,1.3-1.4c0.2-0.2,0.5-0.4,0.7-0.5C112.6,334.1,113.9,334.4,115.1,334.8z"/>
		<path class="st6" d="M79,325.1c-3.5-12-12.4-6.3-16.7,1.2c-4.9,7.3-11.3,10.7-13.8,15.6l0.3,0.3c1.7,0.9,2.7,2.6,2.8,4.5v0.2
			c0.1,0.1,0.2,0.2,0.3,0.3c1.4,0.1,2.6,0.9,3.4,2.1c0.2,0,0.5-0.1,0.7-0.1c0.7,0,1.5,0.1,2.1,0.5c0.5-0.1,1-0.2,1.5-0.2
			c0.8,0,1.6,0.2,2.3,0.5c0.4-0.3,0.9-0.4,1.4-0.6c0.7-0.7,1.6-1.1,2.6-1.2c0.9-1,2.1-1.6,3.5-1.6c0.4-0.6,1-1.1,1.7-1.4
			c0.6-0.6,1.4-1.1,2.3-1.3c0.8-0.8,1.8-1.2,2.9-1.3c0.6-0.5,1.3-0.8,2.1-0.9c0.3-0.7,0.8-1.3,1.4-1.8c0.2-0.2,0.4-0.4,0.6-0.6
			c0.1-0.4,0.3-0.7,0.5-1.1C81.5,335.4,80.8,331.1,79,325.1z"/>
		<path class="st7" d="M48.6,341.7c-0.3,0.6-0.6,1.2-0.8,1.9c-2.9,9.4,6.9,8.9,13,7.5c6.4-1.5,9.4-5.3,12.9-6.3
			c4.6-1.3,6.7-3.4,7.2-6.9c-4.9,3.8-12.2,6.9-20,9.5C57.7,343.9,53.3,341.8,48.6,341.7z"/>
		<path class="st8" d="M51.9,337.8c1.7-0.9,3.5-1.3,5.4-1.3c0.2,0.2,0.5,0.3,0.7,0.5c1,0.9,1.9,2,2.5,3.3c0.2,0.3,0.6,0.5,1,0.3
			c0,0,0,0,0,0c0.3-0.2,0.5-0.7,0.3-1c0,0,0,0,0,0c-0.6-1.1-1.3-2.1-2.1-3c1.3,0.1,2.6,0.5,3.8,1.1c0.3,0.2,0.8,0.1,1-0.2
			c0,0,0,0,0,0c0.2-0.3,0.1-0.7-0.2-0.9c-0.6-1.1-1.3-2.1-2.2-3c1.4,0,2.8,0.3,4.1,0.9c0.3,0.2,0.8,0.1,1-0.2c0.2-0.3,0.1-0.8-0.2-1
			c0,0-0.1,0-0.1,0c-2-0.9-4.3-1.3-6.5-1h-0.1c-1.3-0.7-2.7-0.9-4.2-0.8c-0.4,0-0.7,0.4-0.7,0.7c0,0,0,0,0,0c0,0.4,0.4,0.7,0.8,0.7
			c0,0,0,0,0,0h0.3c-1.3,0.3-2.5,0.8-3.6,1.5c-0.3,0.2-0.4,0.7-0.2,1c0.1,0.1,0.1,0.1,0.2,0.2c0.1,0.1,0.3,0.2,0.5,0.2l0,0
			c-0.9,0.2-1.7,0.6-2.5,1c-0.3,0.3-0.4,0.7-0.1,1C51.2,337.9,51.6,338,51.9,337.8L51.9,337.8z M59.9,333.6c0.3,0.2,0.5,0.3,0.7,0.5
			c0.5,0.4,0.9,0.9,1.3,1.4c-1.4-0.3-2.8-0.5-4.2-0.5c-0.5-0.3-1.1-0.5-1.7-0.7C57.3,334,58.6,333.7,59.9,333.6z"/>
		<path class="st3" d="M114.4,250.3l-4,78.6c-3.3-3-6.6-1.3-10.2,2.8c-2.5,2.9-9.1,0.8-9.7-2.6l0.1-77.6
			C90.7,248,114.4,250.3,114.4,250.3z"/>
		<path class="st3" d="M56.4,250.2l4,78.6c3.3-3,6.6-1.3,10.2,2.8c2.5,2.9,9.1,0.8,9.7-2.6l-0.1-77.6
			C80.1,247.9,56.4,250.2,56.4,250.2z"/>
		<path class="st4" d="M115.8,263.3l-0.4-40.2v-95.7H54.7v135.9H81c0,0-0.1-22.2,3.2-22.3c4.2-0.1,3.9,22.3,3.9,22.3H115.8z"/>
		<path class="st6" d="M68.2,127.4h33.7v2.1c0,9.3-7.6,16.8-16.9,16.9l0,0c-9.3,0-16.8-7.6-16.9-16.9L68.2,127.4z"/>
		<path class="st3" d="M84.7,81.1L84.7,81.1c7.6,0,13.7,6.1,13.7,13.7v31.4c0,7.6-6.1,13.7-13.7,13.7l0,0c-7.6,0-13.7-6.2-13.7-13.7
			V94.8C71,87.2,77.1,81.1,84.7,81.1z"/>
		<path class="st3" d="M84.7,6.5c-70.9,0-61,94.3-13.7,109.9c0-0.2,0-0.3,0-0.5c0-11.8,27.4-11.8,27.4,0c0,0.2,0,0.3,0,0.5
			C145.7,100.9,155.5,6.5,84.7,6.5z"/>
		<path class="st9" d="M100.7,69.4c2.1,0,3.7-3.1,3.7-6.8s-1.7-6.8-3.7-6.8S97,58.8,97,62.6C97,66.3,98.7,69.4,100.7,69.4z"/>
		<path class="st9" d="M68.7,69.4c2,0,3.7-3.1,3.7-6.8s-1.7-6.8-3.7-6.8s-3.7,3.1-3.7,6.8S66.6,69.4,68.7,69.4z"/>
		<path class="st9" d="M73.6,44.4C70,41.8,64,43.6,61,46.9c-1.5,1.7-0.2,1.8,0.8,0.9c3-2.8,7.4-3.4,11-1.5
			C74.7,47.2,75.6,45.8,73.6,44.4z"/>
		<path class="st9" d="M96,44.4c3.6-2.5,9.6-0.8,12.6,2.6c1.5,1.7,0.2,1.8-0.8,0.9c-3-2.8-7.4-3.4-11-1.5C94.8,47.2,94,45.8,96,44.4
			z"/>
		<path class="st5" d="M71,116.5c0.7,11.1,26.6,11.1,27.3,0C89.5,119.4,79.9,119.4,71,116.5z"/>
		<path class="st5" d="M104,90.9c-9,6.1-28.4,6.3-38.7,0C78,94.1,91.3,94.1,104,90.9z"/>
		<path class="st5" d="M93.7,97c-3.3,4.6-14.4,4.5-18,0C81.5,99.1,87.9,99.1,93.7,97z"/>
		<path class="st2" d="M112.1,11.4c-6.7,22.1-62,49.1-82.2,38.9C28.3-1.9,93.7-10.4,112.1,11.4z"/>
		<path class="st10" d="M27.8,41.8c0,0,51.6-41,110.6,0c0,0-10.9-43-54.6-41.5S35.4,22.6,27.8,41.8z"/>
		<path class="st11" d="M34.1,26.4c0,0,47.5-16.6,97.5,0c0,0-11.6-23-41.7-26.2c0,0-6,5.3-11,0.3C78.9,0.5,45,0,34.1,26.4z"/>
		<ellipse transform="matrix(0.9863 -0.165 0.165 0.9863 -0.8764 10.5438)" class="st12" cx="63" cy="10.5" rx="16.6" ry="8.7"/>
		<ellipse transform="matrix(0.9863 -0.165 0.165 0.9863 -0.4929 10.4899)" class="st13" cx="62.9" cy="8.2" rx="16.6" ry="7.8"/>
		
			<ellipse transform="matrix(0.165 -0.9863 0.9863 0.165 76.0971 111.3114)" class="st12" cx="103.8" cy="10.7" rx="8.7" ry="16.6"/>
		<ellipse transform="matrix(0.165 -0.9863 0.9863 0.165 78.5567 109.4786)" class="st13" cx="103.9" cy="8.3" rx="7.8" ry="16.6"/>
		<path class="st10" d="M30.5,39.9c0,0-7.7,16.2-3.8,43.9s-6.1,33.8-6.1,33.8s-4.3,0.6-2.6-2.2s6.5-12.7,6-17.5S24,87.6,22.3,73.3
			s2.8-29.6,5.5-31.5L30.5,39.9z"/>
		<path class="st10" d="M134.9,38.2c0,0,7.7,16.2,3.8,43.9s6.1,33.8,6.1,33.8s4.3,0.7,2.6-2.2s-6.5-12.7-6-17.5s0.1-10.2,1.8-24.6
			s-2.8-29.6-5.5-31.5L134.9,38.2z"/>
		<circle class="st14" cx="68.7" cy="62.6" r="10.7"/>
		<circle class="st14" cx="100.7" cy="62.6" r="10.7"/>
		<path class="st14" d="M79.4,62.6c0,0,5.8-5.9,10.7,0"/>
		<path class="st15" d="M81.9,93.2V96c0,0.3,0.2,0.5,0.5,0.5h1.7c0.3,0,0.5-0.2,0.5-0.5v-2.7L81.9,93.2z"/>
		<path class="st15" d="M85.4,93.2v2.7c0,0.3,0.2,0.5,0.5,0.5h1.7c0.3,0,0.5-0.2,0.5-0.5v-2.7L85.4,93.2z"/>
		<path class="st5" d="M91.4,79.6c-2.6,6.6-10.9,6.5-13.5,0C81.7,83.3,87.7,83.3,91.4,79.6z"/>
		<polygon class="st16" points="98.4,120.6 86.2,142.9 85.8,149.6 101.5,127.4 		"/>
		<polygon class="st16" points="71,120.1 83.4,142.8 83.7,149.6 67.9,127.4 		"/>
		<ellipse class="st17" cx="84.6" cy="155.6" rx="12.9" ry="12.9"/>
		<ellipse class="st18" cx="84.7" cy="155.6" rx="9.6" ry="9.6"/>
		<ellipse class="st19" cx="84.7" cy="155.6" rx="11.2" ry="11.2"/>
		<text transform="matrix(1 0 0 1 78.32 162.09)" class="st20 st21 st22">0</text>
		<text transform="matrix(1 0 0 1 61.48 182.73)" class="st6 st21 st23">RI</text>
		<text transform="matrix(1 0 0 1 74.01 182.73)" class="st6 st21 st23">G</text>
		<text transform="matrix(1 0 0 1 82.34 182.73)" class="st6 st21 st23">TIGe</text>
	</g>
</g>
<g id="Layer_2_2_">
	<g id="Layer_1-2_1_">
		<path class="st2" d="M79.7,1.9c0,0-66.1-16.2-60.6,163.5c0,0-0.6,18.7,62,16.5L79.7,1.9z"/>
		<path class="st2" d="M85.9,1.9c0,0,66.1-16.2,60.6,163.5c0,0,0.6,18.7-62,16.5L85.9,1.9z"/>
		<path class="st3" d="M105.7,146.9l24.1,42.4c3.1,5.4,10,7.3,15.4,4.3l0,0c5.4-3.1,7.3-10,4.3-15.4l-24.1-42.4
			C118.4,123.5,99,135.2,105.7,146.9z"/>
		<path class="st3" d="M143.7,175.1c-5.7-2.4-12.3,0.3-14.7,6.1c0,0,0,0,0,0L115.8,214l-1.4,3.4c-7.2,17.4,14.3,23.4,20.5,8.3
			l1.4-3.4l13.4-32.4C152.2,184.1,149.5,177.5,143.7,175.1z"/>
		<path class="st3" d="M62.2,148.6L38.2,191c-3.1,5.4-10,7.3-15.4,4.3l0,0c-5.4-3.1-7.3-10-4.3-15.4l24.1-42.4
			C49.6,125.1,68.9,136.9,62.2,148.6z"/>
		<path class="st3" d="M53.5,219l-1.4-3.4l-13-32.8c-2.3-5.8-8.8-8.7-14.6-6.4c-5.8,2.3-8.7,8.8-6.4,14.6c0.1,0.1,0.1,0.3,0.2,0.4
			l13.5,32.4l1.4,3.4C39.2,242.4,60.7,236.4,53.5,219z"/>
		<path class="st4" d="M103.7,143.8l11.9,21.1l19.8-11.9l-11.7-20.6C116.8,120.1,97.1,132.1,103.7,143.8z"/>
		<path class="st4" d="M65.6,143.8l-12.3,21.8l-19.9-11.9l12.1-21.3C52.4,120,72.2,132.1,65.6,143.8z"/>
		<path class="st2" d="M94.7,8.9c4,19.6,29.7,43.8,42,45.1C138.8,25.4,112.9,3.2,94.7,8.9z"/>
		<path class="st5" d="M92.1,79.9c-2.9,7.4-12.2,7.2-15,0C81.3,83.9,88,83.9,92.1,79.9z"/>
		<path class="st6" d="M122.5,342.2c-2.6-4.8-8.9-8.3-13.8-15.4c-4.3-7.5-13.2-13.3-16.7-1.2c-1.7,5.9-2.5,10.1-1.9,13.1
			c0.6,0.6,1,1.4,1.2,2.2c0.5,0.3,0.9,0.7,1.3,1.2c0.5,0.3,0.9,0.6,1.2,1.1c0.8,0.2,1.5,0.6,2,1.2c0.2,0,0.4,0,0.6,0
			c1.3-0.1,2.5,0.4,3.5,1.3c0.2,0,0.3,0,0.5,0c1.3,0,2.5,0.4,3.4,1.3c0.6,0.2,1.1,0.4,1.5,0.8c1.2,0.1,2.4,0.7,3.1,1.7
			c0.2,0,0.5,0,0.8,0c1.3,0,2.6,0.5,3.5,1.5c0.2,0,0.3,0,0.5,0c0.3,0,0.6,0,0.9,0.1c0.8-1.4,2.4-2.3,4-2.3c0.6-0.3,1.3-0.5,2-0.5
			c0,0,0,0,0,0C119.5,345.9,120.5,343.4,122.5,342.2z"/>
		<path class="st7" d="M122.5,342.1c0.3,0.6,0.6,1.2,0.8,1.9c2.9,9.4-6.9,8.9-13,7.5c-6.4-1.5-9.4-5.3-12.9-6.3
			c-4.6-1.3-6.8-3.4-7.3-6.9c4.9,3.8,12.2,6.9,20,9.5C113.3,344.3,117.8,342.2,122.5,342.1z"/>
		<path class="st8" d="M119.2,338.2c0.3,0.2,0.8,0.2,1-0.1c0,0,0,0,0,0c0.2-0.3,0.2-0.8-0.2-1c-0.8-0.5-1.6-0.8-2.5-1l0,0
			c0.2,0,0.4,0,0.6-0.2c0.1,0,0.1-0.1,0.2-0.2c0.2-0.3,0.2-0.8-0.1-1c0,0,0,0,0,0c-1.1-0.7-2.3-1.2-3.5-1.5h0.3
			c0.4,0,0.7-0.2,0.8-0.6c0-0.4-0.3-0.7-0.7-0.8c-1.4-0.2-2.9,0.1-4.2,0.8h-0.1c-2.2-0.3-4.5,0.1-6.6,1c-0.3,0.2-0.5,0.6-0.3,1
			s0.6,0.5,1,0.3c1.3-0.6,2.7-0.9,4.1-0.9c-0.9,0.9-1.6,1.9-2.2,3c-0.3,0.2-0.3,0.6-0.2,0.9c0.2,0.3,0.6,0.5,1,0.3c0,0,0,0,0,0
			c1.2-0.6,2.5-1,3.8-1.1c-0.8,0.9-1.5,1.9-2.1,3c-0.2,0.3-0.1,0.8,0.2,1c0,0,0,0,0,0c0.3,0.2,0.8,0.1,1-0.3c0,0,0,0,0,0
			c0.6-1.2,1.5-2.3,2.5-3.3c0.2-0.2,0.4-0.3,0.7-0.5C115.7,336.9,117.6,337.3,119.2,338.2L119.2,338.2z M115,334.8
			c-0.6,0.2-1.2,0.4-1.7,0.7c-1.4,0-2.8,0.1-4.2,0.5c0.4-0.5,0.8-1,1.3-1.4c0.2-0.2,0.5-0.4,0.7-0.5
			C112.5,334.1,113.8,334.4,115,334.8z"/>
		<path class="st6" d="M78.9,325.1c-3.5-12-12.4-6.3-16.7,1.2c-4.9,7.3-11.3,10.7-13.9,15.6l0.3,0.3c1.7,0.9,2.7,2.6,2.8,4.5v0.2
			l0.3,0.3c1.4,0.1,2.6,0.9,3.4,2.1c0.2,0,0.5-0.1,0.7-0.1c0.7,0,1.5,0.1,2.1,0.5c0.5-0.1,1-0.2,1.5-0.2c0.8,0,1.6,0.2,2.3,0.5
			c0.5-0.3,0.9-0.4,1.4-0.6c0.7-0.7,1.6-1.1,2.6-1.2c0.9-1,2.1-1.6,3.5-1.6c0.4-0.6,1-1,1.7-1.3c0.6-0.6,1.4-1.1,2.3-1.3
			c0.8-0.8,1.8-1.2,2.9-1.3c0.6-0.5,1.3-0.8,2.1-0.9c0.3-0.7,0.8-1.3,1.4-1.8c0.2-0.2,0.4-0.4,0.6-0.6c0.1-0.4,0.3-0.7,0.5-1.1
			C81.4,335.4,80.7,331.1,78.9,325.1z"/>
		<path class="st7" d="M48.5,341.7c-0.3,0.6-0.6,1.2-0.8,1.9c-2.9,9.4,6.9,8.9,13,7.5c6.4-1.5,9.4-5.3,12.9-6.3
			c4.6-1.3,6.7-3.4,7.2-6.9c-4.9,3.8-12.2,6.9-20,9.5C57.7,343.8,53.2,341.8,48.5,341.7z"/>
		<path class="st8" d="M51.8,337.8c1.7-0.9,3.5-1.3,5.4-1.3c0.2,0.1,0.4,0.3,0.7,0.5c1,0.9,1.9,2,2.5,3.3c0.2,0.4,0.6,0.5,1,0.4
			c0.4-0.2,0.5-0.6,0.4-1c0,0,0-0.1-0.1-0.1c-0.6-1.1-1.3-2.1-2.1-3c1.3,0.1,2.6,0.5,3.8,1.1c0.4,0.2,0.8,0,1-0.3
			c0.1-0.3,0.1-0.6-0.2-0.8c-0.6-1.1-1.3-2.1-2.2-3c1.4,0,2.8,0.3,4.1,0.9c0.3,0.2,0.8,0.1,1-0.3c0,0,0,0,0,0c0.2-0.4,0.1-0.8-0.3-1
			c0,0,0,0,0,0c-2-0.9-4.3-1.3-6.6-1h-0.1c-1.3-0.7-2.7-0.9-4.2-0.8c-0.4,0-0.7,0.4-0.6,0.8c0,0.4,0.4,0.7,0.8,0.6h0.3
			c-1.3,0.3-2.4,0.8-3.5,1.5c-0.3,0.2-0.4,0.7-0.2,1c0,0,0,0,0,0c0.1,0.1,0.1,0.1,0.2,0.2c0.2,0.1,0.3,0.2,0.5,0.2l0,0
			c-0.9,0.2-1.7,0.6-2.5,1.1c-0.3,0.2-0.5,0.6-0.3,1C51,337.9,51.4,338.1,51.8,337.8C51.8,337.8,51.8,337.8,51.8,337.8L51.8,337.8z
			 M59.8,333.6c0.3,0.2,0.5,0.3,0.7,0.5c0.5,0.4,0.9,0.9,1.3,1.4c-1.4-0.3-2.8-0.5-4.2-0.5c-0.5-0.3-1.1-0.5-1.7-0.7
			C57.3,334,58.5,333.7,59.8,333.6L59.8,333.6z"/>
		<path class="st3" d="M114.4,250.3l-4,78.6c-3.3-3-6.6-1.3-10.2,2.8c-2.5,2.9-9.1,0.8-9.7-2.6l0.1-77.6
			C90.6,248,114.4,250.3,114.4,250.3z"/>
		<path class="st3" d="M56.3,250.2l4,78.6c3.3-3,6.6-1.3,10.2,2.8c2.5,2.9,9.1,0.8,9.6-2.6L80,251.3C80,247.9,56.3,250.2,56.3,250.2
			z"/>
		<path class="st4" d="M115.7,263.3l-0.4-40.2v-95.7H54.6v135.9h26.3c0,0-0.1-22.2,3.2-22.3c4.2-0.1,3.9,22.3,3.9,22.3H115.7z"/>
		<path class="st6" d="M68.1,127.4h33.7v2.1c0,9.3-7.6,16.8-16.9,16.9l0,0c-9.3,0-16.8-7.6-16.9-16.9V127.4z"/>
		<path class="st3" d="M84.6,81.1L84.6,81.1c7.6,0,13.7,6.2,13.7,13.7v31.4c0,7.6-6.1,13.7-13.7,13.7l0,0c-7.6,0-13.7-6.1-13.7-13.7
			V94.8C70.9,87.2,77,81.1,84.6,81.1z"/>
		<path class="st3" d="M84.6,6.5c-70.9,0-61,94.3-13.7,109.9c0-0.2,0-0.3,0-0.5c0-11.8,27.4-11.8,27.4,0c0,0.2,0,0.3,0,0.5
			C145.6,100.9,155.5,6.5,84.6,6.5z"/>
		<path class="st9" d="M100.6,69.4c2,0,3.7-3.1,3.7-6.8c0-3.8-1.7-6.8-3.7-6.8s-3.7,3.1-3.7,6.8C96.9,66.3,98.6,69.4,100.6,69.4z"/>
		<path class="st9" d="M68.6,69.4c2,0,3.7-3.1,3.7-6.8c0-3.8-1.7-6.8-3.7-6.8s-3.7,3.1-3.7,6.8C64.9,66.3,66.5,69.4,68.6,69.4z"/>
		<path class="st9" d="M73.5,44.4c-3.6-2.5-9.6-0.8-12.6,2.6c-1.5,1.7-0.2,1.8,0.8,0.9c3-2.8,7.4-3.4,11-1.5
			C74.6,47.1,75.5,45.8,73.5,44.4z"/>
		<path class="st9" d="M95.9,44.4c3.6-2.5,9.6-0.8,12.6,2.6c1.5,1.7,0.2,1.8-0.8,0.9c-3-2.8-7.4-3.4-11-1.5
			C94.7,47.1,93.9,45.8,95.9,44.4z"/>
		<path class="st5" d="M70.9,116.5c0.7,11.1,26.6,11.1,27.3,0C89.4,119.4,79.8,119.4,70.9,116.5z"/>
		<path class="st5" d="M104,90.9c-9,6.1-28.4,6.3-38.7,0C77.9,94.1,91.3,94.1,104,90.9z"/>
		<path class="st5" d="M93.6,97c-3.3,4.6-14.4,4.5-18,0C81.4,99.1,87.8,99.1,93.6,97z"/>
		<path class="st2" d="M112,11.4c-6.8,22.1-62,49.1-82.3,38.9C28.2-1.9,93.6-10.4,112,11.4z"/>
		<path class="st10" d="M27.8,41.8c0,0,51.6-41,110.6,0c0,0-10.9-43-54.6-41.5S35.3,22.6,27.8,41.8z"/>
		<path class="st11" d="M34,26.4c0,0,47.5-16.6,97.5,0c0,0-11.6-23-41.7-26.2c0,0-6,5.3-11,0.3C78.8,0.5,44.9,0,34,26.4z"/>
		<ellipse transform="matrix(0.9863 -0.165 0.165 0.9863 -0.8767 10.5305)" class="st12" cx="62.9" cy="10.5" rx="16.6" ry="8.7"/>
		<ellipse transform="matrix(0.9863 -0.165 0.165 0.9863 -0.4949 10.4751)" class="st13" cx="62.8" cy="8.2" rx="16.6" ry="7.8"/>
		<ellipse transform="matrix(0.165 -0.9863 0.9863 0.165 76.0368 111.226)" class="st12" cx="103.7" cy="10.7" rx="8.7" ry="16.6"/>
		<ellipse transform="matrix(0.165 -0.9863 0.9863 0.165 78.4952 109.3914)" class="st13" cx="103.9" cy="8.3" rx="7.8" ry="16.6"/>
		<path class="st10" d="M30.4,39.9c0,0-7.7,16.2-3.8,43.9s-6.1,33.8-6.1,33.8s-4.3,0.6-2.6-2.2c1.7-2.8,6.5-12.7,6-17.5
			s0-10.2-1.7-24.6s2.8-29.6,5.5-31.5L30.4,39.9z"/>
		<path class="st10" d="M134.8,38.2c0,0,7.7,16.2,3.8,43.9c-3.9,27.7,6.1,33.8,6.1,33.8s4.3,0.7,2.6-2.2s-6.5-12.7-6-17.5
			c0.5-4.8,0-10.2,1.8-24.6s-2.8-29.6-5.5-31.5L134.8,38.2z"/>
		<circle class="st14" cx="68.6" cy="62.6" r="10.7"/>
		<circle class="st14" cx="100.6" cy="62.6" r="10.7"/>
		<path class="st14" d="M79.3,62.6c0,0,5.8-5.9,10.6,0"/>
		<path class="st15" d="M81.8,93.2V96c0,0.3,0.2,0.5,0.5,0.5H84c0.3,0,0.5-0.2,0.5-0.5v-2.7L81.8,93.2z"/>
		<path class="st15" d="M85.3,93.2v2.7c0,0.3,0.2,0.5,0.5,0.5c0,0,0,0,0,0h1.7c0.3,0,0.5-0.2,0.5-0.4v-2.8L85.3,93.2z"/>
		<path class="st5" d="M91.3,79.6c-2.6,6.6-10.9,6.5-13.5,0C81.6,83.3,87.6,83.3,91.3,79.6z"/>
	</g>
</g>
</svg>
