<svg xmlns="http://www.w3.org/2000/svg" viewBox="0 0 166.66 352.3"><defs><style>.cls-1{fill:#866559;}.cls-1,.cls-16,.cls-17,.cls-18,.cls-2,.cls-3,.cls-4,.cls-5,.cls-6,.cls-9{fill-rule:evenodd;}.cls-2,.cls-8{fill:#e2b19f;}.cls-3{fill:#018b82;}.cls-10,.cls-4{fill:#cd9989;}.cls-23,.cls-5{fill:#fff;}.cls-6{fill:#333c48;}.cls-7{fill:#181f2d;}.cls-9{fill:#2d201e;}.cls-11{fill:#602e1b;}.cls-12{fill:#3f2a1f;}.cls-13{fill:#878787;}.cls-14{fill:#9d9d9c;}.cls-15,.cls-16,.cls-21{fill:none;stroke-miterlimit:10;}.cls-15,.cls-16{stroke:#2d201e;stroke-width:2px;}.cls-17{fill:#f2ebeb;}.cls-18{fill:#124486;}.cls-19{fill:#f4e600;}.cls-20{fill:#eab31c;}.cls-21{stroke:#eab31c;}.cls-22{fill:#3c4649;}</style></defs><title>rie2</title><g id="Layer_2" data-name="Layer 2"><g id="Layer_1-2" data-name="Layer 1"><path class="cls-1" d="M79.78,1.93S13.65-14.29,19.18,165.42c0,0-.66,18.73,62,16.46Z"/><path class="cls-1" d="M86,1.93s66.12-16.22,60.6,163.49c0,0,.65,18.73-62,16.46Z"/><path class="cls-2" d="M105.79,146.94l24.08,42.41a11.32,11.32,0,0,0,15.4,4.25h0a11.32,11.32,0,0,0,4.24-15.4l-24.07-42.41C118.45,123.46,99.16,135.25,105.79,146.94Z"/><path class="cls-2" d="M159.65,136.23A11.28,11.28,0,0,1,165.77,151l-13.92,32.43-1.41,3.41c-7.21,17.44-26.62,6.43-20.37-8.64l1.41-3.41,13.42-32.43A11.33,11.33,0,0,1,159.65,136.23Z"/><path class="cls-2" d="M62.31,148.56,38.24,191a11.32,11.32,0,0,1-15.4,4.25h0a11.32,11.32,0,0,1-4.25-15.4l24.07-42.41C49.66,125.08,68.94,136.87,62.31,148.56Z"/><path class="cls-2" d="M36.23,180.73l-1.42-3.41L21.73,144.53A11.3,11.3,0,0,0,.86,153.19L14.3,185.61l1.42,3.4C22,204.09,43.45,198.15,36.23,180.73Z"/><path class="cls-3" d="M103.8,143.8l12,21.06L135.59,153l-11.7-20.62C116.9,120.06,97.17,132.11,103.8,143.8Z"/><path class="cls-3" d="M65.63,143.8,53.28,165.56,33.4,153.68l12.1-21.33C52.49,120,72.26,132.11,65.63,143.8Z"/><path class="cls-1" d="M94.75,8.94c4,19.56,29.74,43.77,42,45.11C138.85,25.4,113,3.21,94.75,8.94Z"/><path class="cls-4" d="M92.21,79.86c-2.89,7.36-12.16,7.23-15,0A10.73,10.73,0,0,0,92.21,79.86Z"/><path class="cls-5" d="M122.63,342.21c-2.6-4.77-8.94-8.25-13.75-15.42-4.34-7.52-13.23-13.28-16.7-1.23-1.7,5.87-2.49,10.07-1.87,13.13a4.94,4.94,0,0,1,1.23,2.21,4.66,4.66,0,0,1,1.28,1.22,4.42,4.42,0,0,1,1.24,1.07,4.27,4.27,0,0,1,2,1.19c.2,0,.41,0,.62,0a4.66,4.66,0,0,1,3.42,1.34c.15,0,.3,0,.46,0a4.64,4.64,0,0,1,3.37,1.3,4.27,4.27,0,0,1,1.52.81,4.46,4.46,0,0,1,3.11,1.72,6,6,0,0,1,.75-.05,4.61,4.61,0,0,1,3.53,1.47c.18,0,.35,0,.53,0a6.13,6.13,0,0,1,.87.07,4.51,4.51,0,0,1,4-2.26,4.91,4.91,0,0,1,2-.55s0,0,0-.05A5.17,5.17,0,0,1,122.63,342.21Z"/><path class="cls-6" d="M122.6,342.15a10.07,10.07,0,0,1,.82,1.87c2.91,9.4-6.94,8.94-13,7.47C104,350,101,346.16,97.49,345.15c-4.6-1.32-6.74-3.4-7.26-6.9,4.88,3.8,12.22,6.91,20,9.49A17.28,17.28,0,0,1,122.6,342.15Z"/><path class="cls-7" d="M119.27,338.19a.72.72,0,1,0,.85-1.15,7.5,7.5,0,0,0-2.49-1.05h0a.67.67,0,0,0,.54-.19.57.57,0,0,0,.2-.18.72.72,0,0,0-.16-1,11.35,11.35,0,0,0-3.54-1.46l.35,0a.7.7,0,0,0,.77-.64.71.71,0,0,0-.65-.78,7.29,7.29,0,0,0-4.15.76h-.11a12,12,0,0,0-6.55,1,.71.71,0,0,0,.69,1.25,9.1,9.1,0,0,1,4.12-.9,14.58,14.58,0,0,0-2.22,3,.75.75,0,0,0-.17.9.72.72,0,0,0,1,.28,10.25,10.25,0,0,1,3.8-1.09,15,15,0,0,0-2.1,3,.71.71,0,1,0,1.23.72,12.44,12.44,0,0,1,2.5-3.28,8.16,8.16,0,0,1,.66-.5,11.12,11.12,0,0,1,5.43,1.3Zm-4.15-3.43a7,7,0,0,0-1.68.69,15.79,15.79,0,0,0-4.18.5,8.15,8.15,0,0,1,1.33-1.43,6.48,6.48,0,0,1,.73-.53A20.38,20.38,0,0,1,115.12,334.76Z"/><path class="cls-5" d="M79,325.13c-3.47-12.05-12.36-6.28-16.71,1.24C57.44,333.62,51,337.09,48.47,342l.29.33a5.18,5.18,0,0,1,2.75,4.46v.18c.12.09.22.19.33.28a4.41,4.41,0,0,1,3.36,2.1,5.83,5.83,0,0,1,.73-.06,5,5,0,0,1,2.13.45,5.46,5.46,0,0,1,1.45-.2,4.89,4.89,0,0,1,2.28.53,5.67,5.67,0,0,1,1.43-.56,4.6,4.6,0,0,1,2.61-1.16,4.55,4.55,0,0,1,3.49-1.63A4.47,4.47,0,0,1,71,345.34a4.35,4.35,0,0,1,2.27-1.27,4.48,4.48,0,0,1,2.89-1.27,4.45,4.45,0,0,1,2.08-.87,4.69,4.69,0,0,1,1.42-1.77,4.92,4.92,0,0,1,.58-.63,4.74,4.74,0,0,1,.54-1.08C81.5,335.37,80.75,331.14,79,325.13Z"/><path class="cls-6" d="M48.59,341.73a11.71,11.71,0,0,0-.82,1.86c-2.91,9.4,6.94,8.94,13,7.48,6.37-1.54,9.41-5.33,12.91-6.34,4.6-1.33,6.71-3.4,7.22-6.9-4.88,3.8-12.18,6.91-20,9.48A17.26,17.26,0,0,0,48.59,341.73Z"/><path class="cls-7" d="M51.92,337.77a11,11,0,0,1,5.43-1.3,6.36,6.36,0,0,1,.66.5,12.35,12.35,0,0,1,2.5,3.27.72.72,0,0,0,1,.26.73.73,0,0,0,.26-1,16.14,16.14,0,0,0-2.11-3,10.31,10.31,0,0,1,3.81,1.1.71.71,0,0,0,1-.29.71.71,0,0,0-.17-.89,14,14,0,0,0-2.22-3,9.1,9.1,0,0,1,4.12.9.72.72,0,1,0,.69-1.26,12,12,0,0,0-6.55-1h-.11a7.3,7.3,0,0,0-4.15-.75.7.7,0,0,0-.65.77.71.71,0,0,0,.78.65l.34,0A11.35,11.35,0,0,0,53,334.2a.72.72,0,0,0-.16,1,1.12,1.12,0,0,0,.2.18.71.71,0,0,0,.55.18h0a7.81,7.81,0,0,0-2.49,1.05.72.72,0,0,0,.85,1.16Zm7.95-4.21a8,8,0,0,1,.73.53,8.92,8.92,0,0,1,1.33,1.43,16.21,16.21,0,0,0-4.18-.49,7,7,0,0,0-1.68-.69A20.52,20.52,0,0,1,59.87,333.56Z"/><path class="cls-2" d="M114.44,250.32l-4,78.58c-3.28-3-6.61-1.26-10.16,2.81-2.51,2.88-9.12.77-9.65-2.64l.13-77.59C90.72,248,114.44,250.32,114.44,250.32Z"/><path class="cls-2" d="M56.41,250.18l4,78.58c3.28-3,6.62-1.26,10.16,2.81,2.52,2.88,9.13.77,9.65-2.64l-.12-77.59C80.12,247.9,56.41,250.18,56.41,250.18Z"/><path class="cls-3" d="M115.8,263.34l-.39-40.22V127.41H54.71V263.34H81s-.06-22.18,3.2-22.25c4.22-.11,3.86,22.25,3.86,22.25Z"/><path class="cls-5" d="M68.19,127.41h33.74v2.12A16.92,16.92,0,0,1,85.06,146.4h0a16.92,16.92,0,0,1-16.87-16.87Z"/><path class="cls-2" d="M84.68,81.09h0A13.75,13.75,0,0,1,98.39,94.8v31.41a13.75,13.75,0,0,1-13.71,13.71h0A13.75,13.75,0,0,1,71,126.21V94.8A13.75,13.75,0,0,1,84.68,81.09Z"/><path class="cls-8" d="M84.68,6.53c-70.86,0-61,94.35-13.67,109.93,0-.16,0-.31,0-.47,0-11.78,27.42-11.78,27.42,0a3.73,3.73,0,0,1,0,.47C145.73,100.88,155.54,6.53,84.68,6.53Z"/><path class="cls-9" d="M100.71,69.41c2.05,0,3.72-3.06,3.72-6.82s-1.67-6.82-3.72-6.82S97,58.84,97,62.59,98.66,69.41,100.71,69.41Z"/><path class="cls-9" d="M68.66,69.41c2,0,3.72-3.06,3.72-6.82s-1.67-6.82-3.72-6.82-3.72,3.07-3.72,6.82S66.61,69.41,68.66,69.41Z"/><path class="cls-9" d="M73.59,44.37C70,41.83,64,43.59,61,46.93c-1.51,1.68-.21,1.81.81.86a9.63,9.63,0,0,1,11-1.52C74.73,47.15,75.58,45.78,73.59,44.37Z"/><path class="cls-9" d="M96,44.37c3.58-2.54,9.55-.78,12.56,2.56,1.5,1.68.2,1.81-.82.86a9.62,9.62,0,0,0-11-1.52C94.81,47.15,94,45.78,96,44.37Z"/><path class="cls-10" d="M71,116.46c.73,11.13,26.61,11.13,27.34,0a43.76,43.76,0,0,1-27.34,0Z"/><path class="cls-4" d="M104,90.86c-9,6.12-28.36,6.34-38.7,0A79.2,79.2,0,0,0,104,90.86Z"/><path class="cls-4" d="M93.67,97c-3.35,4.55-14.43,4.48-18,0A26.33,26.33,0,0,0,93.67,97Z"/><path class="cls-1" d="M112.1,11.43c-6.74,22.09-62,49.12-82.23,38.94C28.32-1.86,93.7-10.42,112.1,11.43Z"/><path class="cls-11" d="M27.83,41.78s51.64-41,110.63,0c0,0-10.89-42.95-54.59-41.54S35.37,22.6,27.83,41.78Z"/><path class="cls-12" d="M34.11,26.39s47.48-16.64,97.5,0c0,0-11.56-23-41.72-26.19,0,0-6,5.31-11,.29C78.9.49,45,0,34.11,26.39Z"/><ellipse class="cls-13" cx="63.01" cy="10.55" rx="16.61" ry="8.68" transform="translate(-0.88 10.54) rotate(-9.5)"/><ellipse class="cls-14" cx="62.87" cy="8.22" rx="16.61" ry="7.85" transform="translate(-0.49 10.48) rotate(-9.5)"/><ellipse class="cls-13" cx="103.78" cy="10.71" rx="8.68" ry="16.61" transform="matrix(0.16, -0.99, 0.99, 0.16, 76.1, 111.3)"/><ellipse class="cls-14" cx="103.93" cy="8.34" rx="7.81" ry="16.61" transform="translate(78.56 109.47) rotate(-80.5)"/><path class="cls-11" d="M30.52,39.87s-7.67,16.18-3.79,43.89-6.08,33.79-6.08,33.79-4.28.64-2.59-2.2,6.5-12.69,6-17.48S24,87.64,22.33,73.27s2.82-29.57,5.5-31.49Z"/><path class="cls-11" d="M134.9,38.24s7.67,16.19,3.79,43.89,6.08,33.79,6.08,33.79,4.27.65,2.59-2.2-6.5-12.69-6-17.48.08-10.22,1.76-24.6-2.82-29.56-5.51-31.48Z"/><circle class="cls-15" cx="68.66" cy="62.59" r="10.7"/><circle class="cls-15" cx="100.71" cy="62.59" r="10.7"/><path class="cls-16" d="M79.36,62.59s5.84-5.91,10.65,0"/><path class="cls-17" d="M81.89,93.2V96a.49.49,0,0,0,.48.48h1.71a.52.52,0,0,0,.52-.52V93.24Z"/><path class="cls-17" d="M85.41,93.2v2.72a.53.53,0,0,0,.53.53h1.69a.49.49,0,0,0,.49-.49V93.24Z"/><path class="cls-4" d="M91.43,79.62c-2.59,6.6-10.91,6.49-13.5,0A9.61,9.61,0,0,0,91.43,79.62Z"/><polygon class="cls-18" points="98.39 120.64 86.19 142.85 85.76 149.6 101.51 127.41 98.39 120.64"/><polygon class="cls-18" points="70.97 120.05 83.4 142.79 83.68 149.6 67.93 127.41 70.97 120.05"/><ellipse class="cls-19" cx="84.64" cy="155.62" rx="12.88" ry="12.86"/><ellipse class="cls-20" cx="84.72" cy="155.62" rx="9.64" ry="9.63"/><ellipse class="cls-21" cx="84.72" cy="155.62" rx="11.17" ry="11.16"/><path class="cls-22" d="M88.34,156.12H83.87c-.16,0-.23.08-.23.24v2.52h6.15v3.21H80v-7.48a1,1,0,0,1,.49-.9,2,2,0,0,1,1.13-.32h4.47c.16,0,.23-.07.23-.23v-2c0-.16-.07-.23-.23-.23H80.3v-3h8A1.76,1.76,0,0,1,90,149.53v5a1.52,1.52,0,0,1-.51,1.09A1.5,1.5,0,0,1,88.34,156.12Z"/><path class="cls-23" d="M62.64,174.63h5.08a.9.9,0,0,1,.92.91v3.71a.92.92,0,0,1-.92.91h-.06l1,2.57h-2l-1-2.57h-.89v2.57H62.64Zm3.92,3.79v-1.93c0-.08,0-.12-.11-.12H64.72v2.16h1.73a.1.1,0,0,0,.07,0A.09.09,0,0,0,66.56,178.42Z"/><path class="cls-23" d="M72.86,174.63v8.1H70.78v-8.1Z"/><path class="cls-23" d="M78,179.47v-1.71h3.67v1.71H81v2.33a.87.87,0,0,1-.27.66.9.9,0,0,1-.66.27H76a.9.9,0,0,1-.67-.27.87.87,0,0,1-.27-.66v-6.26a.84.84,0,0,1,.28-.64.9.9,0,0,1,.66-.27h5v1.74H77.29c-.08,0-.12,0-.12.13v4.34a.11.11,0,0,0,.12.12H79c.09,0,.13,0,.13-.12v-1.37Z"/><path class="cls-23" d="M82.73,174.63h5.76v1.75H86.66v6.35H84.57v-6.35H82.73Z"/><path class="cls-23" d="M92.12,174.63v8.1H90v-8.1Z"/><path class="cls-23" d="M97.27,179.47v-1.71h3.67v1.71h-.67v2.33a.87.87,0,0,1-.27.66.9.9,0,0,1-.66.27h-4a.9.9,0,0,1-.67-.27.87.87,0,0,1-.27-.66v-6.26a.84.84,0,0,1,.28-.64.9.9,0,0,1,.66-.27h5v1.74H96.55c-.08,0-.12,0-.12.13v4.34a.11.11,0,0,0,.12.12h1.68c.08,0,.13,0,.13-.12v-1.37Z"/><path class="cls-23" d="M102.87,182.73v-8.1h5.29v1.74H105v1.41h2.78v1.73H105V181h3.21v1.76Z"/></g></g></svg>