<svg xmlns="http://www.w3.org/2000/svg" xmlns:xlink="http://www.w3.org/1999/xlink" viewBox="0 0 39.76 28.51"><defs><style>.cls-1{fill:url(#radial-gradient);}.cls-2{fill:url(#radial-gradient-2);}.cls-3{fill:url(#radial-gradient-3);}.cls-4{fill:#331209;}.cls-5{fill:url(#radial-gradient-4);}.cls-6{fill:url(#linear-gradient);}.cls-7{fill:#e8e8e8;}</style><radialGradient id="radial-gradient" cx="14.61" cy="-113.51" r="6.16" gradientTransform="matrix(1, 0, 0, -1.05, 0, -95.04)" gradientUnits="userSpaceOnUse"><stop offset="0" stop-color="#a08675"/><stop offset="0.99" stop-color="#7a6356"/></radialGradient><radialGradient id="radial-gradient-2" cx="-1.38" cy="-121.64" r="18.53" gradientTransform="matrix(1, 0, 0, -1, 0, -97.28)" xlink:href="#radial-gradient"/><radialGradient id="radial-gradient-3" cx="9.78" cy="-114.88" r="17.65" gradientTransform="matrix(1, 0, 0, -1.05, 0, -95.04)" gradientUnits="userSpaceOnUse"><stop offset="0.04" stop-color="#a08675"/><stop offset="1" stop-color="#cfb298"/></radialGradient><radialGradient id="radial-gradient-4" cx="-1.56" cy="-121.59" r="18.53" gradientTransform="matrix(1, 0, 0, -1, 0, -97.28)" xlink:href="#radial-gradient"/><linearGradient id="linear-gradient" x1="28.83" y1="-119.82" x2="1.62" y2="-110.91" gradientTransform="matrix(1, 0, 0, -1, 0, -97.28)" gradientUnits="userSpaceOnUse"><stop offset="0" stop-color="#a08675"/><stop offset="1" stop-color="#cfb298"/></linearGradient></defs><title>Asset 14</title><g id="Layer_2" data-name="Layer 2"><g id="Layer_2-2" data-name="Layer 2"><g id="Layer_2-3" data-name="Layer 2"><g id="ris"><path class="cls-1" d="M22.28,24.15c0,2.41-3.44,4.36-7.68,4.36s-7.67-2-7.67-4.36,3.43-4.35,7.67-4.35S22.28,21.75,22.28,24.15Z"/><path class="cls-2" d="M15,6.71c-8.28,0-15,2.87-15,6.41s6.72,6.4,15,6.4,15-2.87,15-6.4S23.28,6.71,15,6.71Zm.07,11.63c-7.41,0-13.43-2.48-13.43-5.55s6-5.55,13.43-5.55S28.5,9.72,28.5,12.79,22.49,18.34,15.07,18.34Z"/><path class="cls-3" d="M15.2,7.16c-7.46,0-13.5,2.51-13.5,5.61s6,5.62,13.5,5.62,13.5-2.52,13.5-5.62S22.65,7.16,15.2,7.16Z"/><path class="cls-4" d="M33.44.18l-13.82,9,.65,1L34.09.83S34.79-.47,33.44.18Z"/><path class="cls-4" d="M38.78,6.52l-19.86,3.7.36,1.42,20-4.08S40.63,6.42,38.78,6.52Z"/><path class="cls-5" d="M28.11,14.42c-1.45,2.42-6.91,3.86-13.21,3.86s-11.58-1.51-13-3.94l-.13-.27v2c2.57,2,7.28,3.46,13.08,3.4,6.24-.06,11.59-1.62,13.85-3.94V14.07Z"/><path class="cls-6" d="M15,19.46c-7.39,0-13.54-2.29-14.77-5.29h0C2.4,21.09,8.19,26,15,26s12.59-4.95,14.79-11.87h0C28.53,17.17,22.38,19.46,15,19.46Z"/></g></g><path class="cls-7" d="M18.22,18.74A6,6,0,0,0,20,19a6,6,0,0,0,1.51-.35l4.41-1.42a3.77,3.77,0,0,0,.52-.21,1.59,1.59,0,0,0,.73-1.23,1.08,1.08,0,0,0,1.09-.57,2.85,2.85,0,0,0,.3-1.26c0-.65.81-1.31.68-2S28.12,11,27.81,10.47a1.34,1.34,0,0,0-1.22-.73c-.35.06-.82.31-1,0a.77.77,0,0,1,0-.4A1.6,1.6,0,0,0,24,7.65a3.86,3.86,0,0,1-.82.08,1.85,1.85,0,0,1-.56-.19,8,8,0,0,0-1.28-.43,16.13,16.13,0,0,0-3.11-.38L13,6.43a.92.92,0,0,0-.73.18c-.08.1-.12.23-.23.3s-.51-.06-.77,0-.47.39-.76.4a1.72,1.72,0,0,1-.39-.1,1.25,1.25,0,0,0-.7.17,6.79,6.79,0,0,1-2.13.52,7.18,7.18,0,0,0-1.67.17A1.44,1.44,0,0,0,4.5,9.19a1.22,1.22,0,0,0-1.3,0,1.22,1.22,0,0,0-.53,1.18,1.55,1.55,0,0,0-1.13,1.29,5.16,5.16,0,0,0-.29,1.88c.14.62.71,1.16.85,1.78a1.34,1.34,0,0,0,.35.77,1.34,1.34,0,0,0,.91.2h.92a.52.52,0,0,1,.33.07c.23.18,0,.54,0,.83s.45.57.82.59a3.11,3.11,0,0,1,1.1.12c.16.07.3.2.47.26.49.2,1-.18,1.57-.12.74.1,1.26,1,2,.9.27-.05.49-.26.76-.29.43-.05.82.32,1.25.27.12,0,.23-.05.35-.07a1.87,1.87,0,0,1,.41,0,12.08,12.08,0,0,0,2.55,0,11.47,11.47,0,0,0,1.29-.19A2.11,2.11,0,0,1,18.22,18.74Z"/></g></g></svg>