<svg xmlns="http://www.w3.org/2000/svg" viewBox="0 0 33.32 46.14"><defs><style>.cls-1{fill:#ad4700;}.cls-2{fill:#7f3300;}.cls-3,.cls-5{fill:none;}.cls-4{fill:#fff;}.cls-5{stroke:#fff;stroke-miterlimit:10;}</style></defs><title>rugby</title><g id="Layer_2" data-name="Layer 2"><g id="Layer_5" data-name="Layer 5"><g id="Layer_4" data-name="Layer 4"><path class="cls-1" d="M26.8,45.89h0a5.93,5.93,0,0,0,.86-.31,7.05,7.05,0,0,0,1.47-1.1C31.77,24.67,24.23,9.76,6.75.07A7.06,7.06,0,0,0,5.27.5a7.37,7.37,0,0,0-1,.8C1.59,21.17,9.14,36.2,26.8,45.89Z"/><path class="cls-2" d="M26.8,45.89C9.2,36.2,1.59,21.23,4.29,1.36a2.33,2.33,0,0,0-.36.43c-1.23,9.81,0,18.46,3.68,25.76S17.66,41.16,26.43,46a.94.94,0,0,1,.37-.12Z"/><path class="cls-2" d="M29.07,44.48a3.29,3.29,0,0,0,.37-.43c1.23-9.76,0-18.4-3.68-25.7S15.82,4.86,7.24,0a1.69,1.69,0,0,0-.55.06C24.23,9.76,31.71,24.67,29.07,44.48Z"/><path class="cls-3" d="M25.82,18.35a39.14,39.14,0,0,0-8.16-10.8l-13.86,7a37.76,37.76,0,0,0,12,23.85l13.86-7A38.31,38.31,0,0,0,25.82,18.35Z"/><path class="cls-1" d="M25.82,18.35a39.18,39.18,0,0,1,3.8,13l3.68-1.84a30.4,30.4,0,0,0-3.37-13.12A34.4,34.4,0,0,0,21,5.84L17.66,7.55A39,39,0,0,1,25.82,18.35Z"/><path class="cls-1" d="M29.5,44.05c1.59-1.91,2.88-5.16,3.5-9l-3.07,1.53A60.68,60.68,0,0,1,29.5,44.05Z"/><path class="cls-1" d="M7.3,0a55.46,55.46,0,0,1,6.38,4.17l2.76-1.41C12.94.87,9.63-.11,7.3,0Z"/><path class="cls-1" d="M3.86,1.73A19.34,19.34,0,0,0,.37,10.8l3-1.53A63.62,63.62,0,0,1,3.86,1.73Z"/><path class="cls-1" d="M7.54,27.49a38.83,38.83,0,0,1-3.8-13L0,16.39A31.08,31.08,0,0,0,3.25,30.25a32.34,32.34,0,0,0,8.22,10.24l4.23-2.15A39.57,39.57,0,0,1,7.54,27.49Z"/><path class="cls-1" d="M26.37,46a53.57,53.57,0,0,1-6.62-4.29l-3.68,1.84C20,45.64,23.8,46.5,26.37,46Z"/><path class="cls-4" d="M17.6,7.49c-1.29-1.16-2.57-2.33-4-3.37L3.37,9.27a50.4,50.4,0,0,0,.31,5.21Z"/><path class="cls-4" d="M21,5.84a33.78,33.78,0,0,0-4.6-3.07L13.62,4.18a42.22,42.22,0,0,1,4,3.37Z"/><path class="cls-4" d="M3.43,9.27l-3,1.53A33.38,33.38,0,0,0,0,16.39l3.74-1.91A49.42,49.42,0,0,1,3.43,9.27Z"/><path class="cls-4" d="M15.76,38.34c1.29,1.17,2.58,2.33,4,3.38l10.18-5.16a48.06,48.06,0,0,0-.31-5.21Z"/><path class="cls-4" d="M29.93,36.56,33,35a34.06,34.06,0,0,0,.3-5.52l-3.68,1.84A48.06,48.06,0,0,1,29.93,36.56Z"/><path class="cls-4" d="M15.76,38.34l-4.23,2.15a28.27,28.27,0,0,0,4.54,3.07l3.68-1.84A43.88,43.88,0,0,1,15.76,38.34Z"/><path class="cls-5" d="M28.64,28.53v-.06A37.56,37.56,0,0,0,19.32,10a.3.3,0,0,1,0-.43.29.29,0,0,1,.43,0h0a37.86,37.86,0,0,1,9.44,18.83.37.37,0,0,1-.18.42.54.54,0,0,1-.37-.24Z"/><path class="cls-5" d="M19.69,11.42a4.64,4.64,0,0,0,1.41-1.23"/><path class="cls-5" d="M20.3,12.34A5.51,5.51,0,0,0,21.83,11"/><path class="cls-5" d="M20.91,13.26a6.21,6.21,0,0,0,1.66-1.47"/><path class="cls-5" d="M21.53,14.18a7.35,7.35,0,0,0,1.65-1.41"/><path class="cls-5" d="M22.2,15.16a7.18,7.18,0,0,0,1.66-1.41"/><path class="cls-5" d="M22.88,16.08a7.35,7.35,0,0,0,1.65-1.41"/><path class="cls-5" d="M23.43,17a6.51,6.51,0,0,0,1.72-1.35"/><path class="cls-5" d="M23.92,17.92a6.13,6.13,0,0,0,1.78-1.29"/><path class="cls-5" d="M27.72,27.43a4.62,4.62,0,0,1,1.84-.37"/><path class="cls-5" d="M27.35,26.38a5.85,5.85,0,0,1,2-.43"/><path class="cls-5" d="M27,25.34a5.09,5.09,0,0,1,2.14-.43"/><path class="cls-5" d="M26.56,24.24a6.3,6.3,0,0,1,2.14-.49"/><path class="cls-5" d="M26.25,23.13a6.54,6.54,0,0,1,2.15-.49"/><path class="cls-5" d="M25.88,22A6.35,6.35,0,0,1,28,21.54"/><path class="cls-5" d="M25.45,21.05a6.36,6.36,0,0,1,2.09-.56"/><path class="cls-5" d="M25.08,20.13a6.22,6.22,0,0,1,2.09-.62"/><line class="cls-5" x1="24.53" y1="18.96" x2="26.56" y2="17.98"/></g></g></g></svg>