<svg xmlns="http://www.w3.org/2000/svg" viewBox="0 0 52.27 42.84"><defs><style>.cls-1{fill:#9b6956;}.cls-1,.cls-5,.cls-6,.cls-7,.cls-8,.cls-9{fill-rule:evenodd;}.cls-2{fill:#008837;}.cls-3,.cls-4{fill:none;stroke:#000;stroke-miterlimit:10;}.cls-3{stroke-width:3px;}.cls-4{stroke-width:2px;}.cls-5{fill:#ffe60b;}.cls-6{fill:#150d0e;}.cls-7{fill:#107f82;}.cls-8{fill:#fff;}.cls-9{fill:#090b18;}</style></defs><title>tdf</title><g id="Layer_2" data-name="Layer 2"><g id="træ"><path class="cls-1" d="M35.53,7.78h0a1.45,1.45,0,0,1-.44,2l-2.8,1.78a1.45,1.45,0,0,1-2-.45h0a1.45,1.45,0,0,1,.45-2l2.79-1.79A1.46,1.46,0,0,1,35.53,7.78Z"/><rect class="cls-2" x="27.37" y="8.38" width="7.78" height="5.06" transform="translate(-1.51 15.62) rotate(-27.41)"/><circle class="cls-3" cx="10.88" cy="31.96" r="9.38"/><circle class="cls-3" cx="41.39" cy="31.96" r="9.38"/><circle cx="10.88" cy="31.96" r="0.68"/><circle cx="41.39" cy="31.96" r="0.68"/><line class="cls-3" x1="10.88" y1="31.96" x2="20.26" y2="19.01"/><line class="cls-3" x1="20.26" y1="19.01" x2="42.07" y2="19.01"/><line class="cls-3" x1="41.39" y1="31.96" x2="42.07" y2="19.01"/><line class="cls-3" x1="42.16" y1="15.56" x2="41.98" y2="19.01"/><line class="cls-4" x1="39.76" y1="15.39" x2="42.86" y2="15.11"/><line class="cls-3" x1="20.26" y1="19.01" x2="20.26" y2="16.73"/><line class="cls-3" x1="17.89" y1="16.34" x2="23.28" y2="16.24"/><line class="cls-3" x1="22.12" y1="31.96" x2="10.88" y2="31.96"/><line class="cls-3" x1="37.24" y1="19.01" x2="21.71" y2="32.09"/><line class="cls-3" x1="20.26" y1="19.01" x2="22.12" y2="31.96"/><path class="cls-1" d="M41.54,15l-2.9-2.86-.31-.3c-1.35-1.33-3.46.2-1.9,1.74l.31.3,2.88,2.9a1.38,1.38,0,0,0,1.9,0A1.24,1.24,0,0,0,41.54,15Z"/><path class="cls-5" d="M36.1,9.43l1.69,2L35.88,13l-1.66-2C33.26,9.85,35.19,8.34,36.1,9.43Z"/><path class="cls-1" d="M39.55,1.64c-4.38-2.52-7.4,5.16-4.08,7.07S43.92,4.16,39.55,1.64Z"/><path class="cls-6" d="M40,5.82c.22,0,.4-.32.4-.72s-.18-.72-.4-.72-.39.32-.39.72S39.82,5.82,40,5.82Z"/><path class="cls-6" d="M41.07,3.24a1.11,1.11,0,0,0-1.33.27c-.16.18,0,.19.09.09A1,1,0,0,1,41,3.44C41.19,3.53,41.28,3.39,41.07,3.24Z"/><path class="cls-1" d="M27.16,25.69,22.1,31.78c.46,0,.6.38.6.94a.69.69,0,0,0,.93.5l5.29-5.74C29.15,27.23,27.16,25.69,27.16,25.69Z"/><path class="cls-1" d="M21.1,18.77l6,9.36c.08-.54.51-.51,1.12-.21.44.22.89-.39.69-.84l-5.59-9.45C23.09,17.21,21.1,18.77,21.1,18.77Z"/><path class="cls-5" d="M28.81,14.25a.89.89,0,0,1-.47,1.16l-6.8,3.4h0a.89.89,0,0,1-1.21-.32l-1.56-3.11a.89.89,0,0,1,.47-1.16l6.8-3.4a.89.89,0,0,1,1.21.32Z"/><polygon class="cls-5" points="22.95 21.68 25.11 20.29 23.29 17.45 20.92 18.77 22.95 21.68"/><path class="cls-7" d="M34,4.38s1-3.84,3-4.37c0,0,3.34-.25,4.29,2.18C41.23,2.19,34.82,5.24,34,4.38Z"/><path class="cls-8" d="M34,4.38V5.1s7.44-1.81,7.27-2.91Z"/><polygon class="cls-8" points="34.58 4.95 35.88 5.82 36.08 4.53 36.54 4.37 36.16 6.51 34.2 5.04 34.58 4.95"/><polygon class="cls-8" points="35.88 6.3 37.65 8.94 38.13 8.77 36.23 6.09 35.88 6.3"/><path class="cls-9" d="M23.71,32.16c.86.68,1.83.81,2.2,1.36.64,1-.8,1.21-1.57,1.19s-1.1-.28-1.5-.28c-1.09,0-1.26-.52-1.16-1.9S23,31.5,23.71,32.16Z"/></g></g></svg>