<svg xmlns="http://www.w3.org/2000/svg" viewBox="0 0 66.04 49.2"><defs><style>.cls-1{fill:#2d2826;}.cls-2{fill:#872507;}.cls-3{fill:#b09483;}.cls-4{fill:#7f6d62;}.cls-5{fill:#685950;}.cls-6{fill:#f45c0f;stroke:#b2511b;stroke-miterlimit:10;stroke-width:8px;}.cls-7{fill:#b2511b;}.cls-8{fill:#682e14;}.cls-9{fill:#a83204;}</style></defs><title>tempel</title><g id="Layer_2" data-name="Layer 2"><g id="templer"><path class="cls-1" d="M28.68,41.31l0-8.1s3.44-4.64,6.29,0l0,8.1Z"/><rect class="cls-2" x="6.37" y="25.56" width="2.65" height="15.69"/><rect class="cls-2" x="54.58" y="25.56" width="2.65" height="15.69"/><path class="cls-2" d="M6.37,25.56A6.31,6.31,0,0,1,7.7,22.7s.68-.15,1.33,2.86Z"/><path class="cls-2" d="M54.58,25.85A6.33,6.33,0,0,1,55.91,23s.68-.14,1.32,2.87Z"/><rect class="cls-2" x="6.37" y="41.25" width="50.86" height="1.79"/><rect class="cls-3" y="42.11" width="64.32" height="7.09"/><rect class="cls-4" x="21.78" y="46.62" width="22.21" height="2.58"/><rect class="cls-4" x="21.78" y="44.4" width="22.21" height="2.58"/><rect class="cls-4" x="21.78" y="42.11" width="22.21" height="1.65"/><rect class="cls-5" x="21.78" y="46.62" width="22.21" height="1.29"/><rect class="cls-5" x="21.78" y="43.75" width="22.21" height="1.65"/><path class="cls-6" d="M14.82,7.87S18.25,5.76,18.69,4H44.83s.44,2.2,3.87,3.87Z"/><path class="cls-7" d="M17.29,8A25.53,25.53,0,0,1,9,12.52H54.51S46.76,10.15,46.76,8Z"/><path class="cls-7" d="M15.62,14.27A28,28,0,0,1,6.37,21H57.23s-8.66-3.55-8.66-6.71Z"/><rect class="cls-8" x="9.03" y="12.52" width="45.48" height="1.72"/><rect class="cls-8" x="6.37" y="20.98" width="50.86" height="1.72"/><rect class="cls-9" x="6.37" y="22.7" width="50.86" height="18.55"/><rect class="cls-7" x="6.37" y="22.7" width="5.44" height="2.15"/><rect class="cls-7" x="17.69" y="22.7" width="5.44" height="2.15"/><rect class="cls-7" x="29.01" y="22.7" width="5.44" height="2.15"/><rect class="cls-7" x="40.54" y="22.7" width="5.44" height="2.15"/><rect class="cls-7" x="51.79" y="22.7" width="5.44" height="2.15"/><rect class="cls-7" x="6.37" y="24.84" width="50.86" height="3.72"/><rect class="cls-3" x="11.66" y="42.2" width="14.64" height="7"/><rect class="cls-3" x="37.12" y="42.2" width="14.64" height="7"/></g></g></svg>