<svg xmlns="http://www.w3.org/2000/svg" viewBox="0 0 188 188"><defs><style>.cls-1{fill:#3c4649;}.cls-2{fill:#ae904b;}.cls-3{fill:#876734;}.cls-4{fill:#685646;}.cls-5{fill:#b1a260;}.cls-6{fill:#d7eef9;}.cls-7,.cls-8{fill:#fff;}.cls-7{opacity:0.39;}.cls-8{opacity:0.3;}.cls-9{fill:#d05b00;}.cls-10{fill:#332b27;}.cls-11{fill:none;stroke:#730f00;stroke-miterlimit:10;stroke-width:2px;}</style></defs><title>tilbage</title><g id="Layer_2" data-name="Layer 2"><g id="Layer_2-2" data-name="Layer 2"><circle class="cls-1" cx="94" cy="94" r="94"/></g><g id="Layer_1-2" data-name="Layer 1"><polygon class="cls-2" points="32.35 98.62 32.35 118.03 62.41 118.03 62.41 108.33 76.38 108.33 76.38 96.49 32.35 95.31 32.35 98.62"/><rect class="cls-3" x="32.35" y="118.03" width="44.02" height="17.99"/><path class="cls-4" d="M13.89,73.86v3.48A1.9,1.9,0,0,0,16.63,79l77-38.17V34.24L15.69,71A3.13,3.13,0,0,0,13.89,73.86Z"/><path class="cls-4" d="M173.42,73.86v3.48a1.9,1.9,0,0,1-2.74,1.7l-77-38.17V34.24l78,36.79A3.13,3.13,0,0,1,173.42,73.86Z"/><polygon class="cls-5" points="32.35 95.54 32.35 79.21 100.52 74.95 100.52 96.96 32.35 95.54"/><polygon class="cls-2" points="32.35 71.25 32.35 79.21 55.79 77.75 55.79 59.64 32.35 71.25"/><polygon class="cls-3" points="93.66 40.87 82.21 76.1 55.79 77.79 55.79 59.57 93.66 40.87"/><polygon class="cls-2" points="100.52 74.95 137.46 62.58 93.66 40.87 82.3 76.14 100.52 74.95"/><polygon class="cls-3" points="100.52 98.62 100.52 118.03 76.38 118.03 62.41 118.03 62.41 108.33 76.38 108.33 76.38 96.49 100.52 96.96 100.52 98.62"/><polygon class="cls-5" points="100.52 74.95 152.59 74.01 152.59 70.08 137.44 62.65 100.52 74.95"/><polygon class="cls-3" points="100.52 96.96 125.37 96.96 125.37 85.13 152.59 84.18 152.59 74.01 100.52 74.95 100.52 96.96"/><polygon class="cls-2" points="152.59 84.18 152.59 96.96 125.37 96.96 125.37 85.13 152.59 84.18"/><polygon class="cls-5" points="152.59 96.96 152.59 107.14 100.52 106.67 100.52 96.96 152.59 96.96"/><polygon class="cls-2" points="100.52 118.03 152.59 118.03 152.59 107.14 100.52 106.67 100.52 118.03"/><rect class="cls-2" x="76.38" y="118.03" width="35.03" height="17.99"/><rect class="cls-5" x="111.41" y="118.03" width="41.18" height="17.99"/><path class="cls-4" d="M42.53,79.78v3.93H66.44v-4A1.25,1.25,0,0,0,65.2,78.5H43.81A1.28,1.28,0,0,0,42.53,79.78Z"/><path class="cls-4" d="M86.08,75.06v5.25H132V75.09a3.22,3.22,0,0,0-3.22-3.22H89.28A3.19,3.19,0,0,0,86.08,75.06Z"/><rect class="cls-4" x="65.89" y="103.37" width="56.86" height="8.44" transform="translate(-14.01 201.07) rotate(-89.55)"/><rect class="cls-4" x="95.01" y="103.37" width="56.86" height="8.44" transform="translate(14.87 230.18) rotate(-89.55)"/><path class="cls-4" d="M42.53,112.11v4a1.25,1.25,0,0,0,1.25,1.25H65.23a1.21,1.21,0,0,0,1.21-1.21v-4Z"/><rect class="cls-6" x="45.16" y="83.71" width="18.42" height="28.4"/><polygon class="cls-7" points="45.16 90.27 45.16 97.04 63.6 83.71 55.59 83.71 45.16 90.27"/><polygon class="cls-8" points="45.16 97.91 45.16 98.86 63.58 85.56 63.58 84.81 45.16 97.91"/><polygon class="cls-5" points="53.89 17.44 53.89 53 55.79 52.11 55.79 17.44 53.89 17.44"/><polygon class="cls-9" points="32.35 29.06 55.79 15.78 55.79 28.28 32.35 29.06"/><polygon class="cls-10" points="98.76 80.31 98.39 136.02 118.98 136.02 119.43 80.31 98.76 80.31"/><path class="cls-9" d="M98.86,80.4h20.59s-5.2,31.71-21.06,31.95Z"/><path class="cls-9" d="M98.39,136l8.5,0s-2.58-23.7-8.5-23.7Z"/><polygon class="cls-3" points="99.1 59.33 98.86 76.14 114.48 76.14 115.19 74.01 116.14 76.14 118.98 76.14 119.45 63.35 117.09 62.88 119.45 61.22 119.45 57.67 104.31 58.86 102.89 62.65 100.76 59.33 99.1 59.33"/><circle class="cls-11" cx="109.51" cy="67.85" r="5.68"/><line class="cls-11" x1="105.25" y1="71.64" x2="114.01" y2="64.3"/></g></g></svg>