<svg xmlns="http://www.w3.org/2000/svg" viewBox="0 0 44.63 42.93"><defs><style>.cls-1{fill:#3c4649;}.cls-2{fill:#d7eef9;}.cls-3{fill:#5d9cb5;}.cls-4{fill:none;}.cls-5{fill:#298e65;}</style></defs><title>triumfbuen_1</title><g id="Layer_2" data-name="Layer 2"><g id="triumfbuen"><rect class="cls-1" x="1.07" y="41.14" width="16.96" height="1.79"/><rect class="cls-1" x="26.6" y="41.14" width="16.96" height="1.79"/><rect class="cls-2" x="1.79" y="39.98" width="16.24" height="1.16"/><rect class="cls-2" x="26.6" y="39.98" width="16.24" height="1.16"/><rect class="cls-3" x="2.41" y="12.5" width="39.98" height="27.49"/><path class="cls-4" d="M17.49,39.72V19.81s4.38-9.81,9.11,0L27,40Z"/><rect class="cls-2" x="5.21" y="35.43" width="7.91" height="4.55"/><rect class="cls-2" x="31.54" y="35.43" width="7.91" height="4.55"/><path class="cls-2" d="M16.07,40V19C15.71,17.58,23,7.33,28.92,19l-.36,21-1.6.08L26.6,20s-3.75-10-9.11-.17V40Z"/><path class="cls-5" d="M17.19,40.34l.3-20.53s4.47-9.55,9.11,0L27,40Z"/><polygon class="cls-2" points="1.43 11.16 1.43 12.49 42.84 12.49 43.11 11.16 1.43 11.16"/><rect class="cls-3" x="2.41" y="8.48" width="39.98" height="2.68"/><rect class="cls-3" x="0.8" y="7.23" width="43.29" height="1.25"/><rect class="cls-2" y="5.53" width="44.63" height="1.7"/><polygon class="cls-2" points="0.8 0 0.8 1.25 1.7 1.25 1.7 1.96 43.11 1.96 43.11 0.98 44.09 0.98 44.09 0 0.8 0"/><rect class="cls-3" x="1.53" y="1.96" width="0.38" height="3.57"/><rect class="cls-3" x="42.95" y="1.96" width="0.38" height="3.57"/><rect class="cls-2" x="1.87" y="1.96" width="1.72" height="3.57"/><rect class="cls-2" x="5.44" y="1.96" width="1.72" height="3.57"/><rect class="cls-2" x="8.93" y="1.96" width="1.72" height="3.57"/><rect class="cls-2" x="12.58" y="1.96" width="1.72" height="3.57"/><rect class="cls-2" x="16.15" y="1.96" width="1.72" height="3.57"/><rect class="cls-2" x="19.81" y="1.96" width="1.72" height="3.57"/><rect class="cls-2" x="23.21" y="1.96" width="1.72" height="3.57"/><rect class="cls-2" x="26.95" y="1.96" width="1.72" height="3.57"/><rect class="cls-2" x="30.61" y="1.96" width="1.72" height="3.57"/><rect class="cls-2" x="34.18" y="1.96" width="1.72" height="3.57"/><rect class="cls-2" x="41.23" y="1.96" width="1.72" height="3.57"/><rect class="cls-2" x="37.93" y="1.96" width="1.72" height="3.57"/><rect class="cls-3" x="3.57" y="1.96" width="1.87" height="3.57"/><rect class="cls-3" x="7.14" y="1.96" width="1.87" height="3.57"/><rect class="cls-3" x="10.62" y="1.96" width="1.87" height="3.57"/><rect class="cls-3" x="14.28" y="1.96" width="1.87" height="3.57"/><rect class="cls-3" x="17.94" y="1.96" width="1.87" height="3.57"/><rect class="cls-3" x="21.51" y="1.96" width="1.87" height="3.57"/><rect class="cls-3" x="24.99" y="1.96" width="1.87" height="3.57"/><rect class="cls-3" x="28.74" y="1.96" width="1.87" height="3.57"/><rect class="cls-3" x="32.4" y="1.96" width="1.87" height="3.57"/><rect class="cls-3" x="35.97" y="1.96" width="1.87" height="3.57"/><rect class="cls-3" x="39.63" y="1.96" width="1.87" height="3.57"/></g></g></svg>