<svg xmlns="http://www.w3.org/2000/svg" viewBox="0 0 24.39 24.39"><defs><style>.cls-1{fill:#f7f7f7;}</style></defs><title>ur</title><g id="Layer_2" data-name="Layer 2"><g id="Ur"><path class="cls-1" d="M12.19,23.9A11.71,11.71,0,1,1,23.9,12.19,11.73,11.73,0,0,1,12.19,23.9Z"/><path d="M12.19,1A11.23,11.23,0,1,1,1,12.19,11.24,11.24,0,0,1,12.19,1m0-1a12.2,12.2,0,1,0,12.2,12.19A12.19,12.19,0,0,0,12.19,0Z"/><path d="M12.19,11.49a.7.7,0,1,1-.7.7.7.7,0,0,1,.7-.7m0-.82a1.52,1.52,0,1,0,1.52,1.52,1.52,1.52,0,0,0-1.52-1.52Z"/><rect x="11.78" y="4.52" width="0.82" height="6.25"/><rect x="12.89" y="11.78" width="5.24" height="0.82"/><rect x="11.78" y="1.8" width="0.82" height="1.64"/><rect x="11.78" y="20.95" width="0.82" height="1.64"/><rect x="21.36" y="11.37" width="0.82" height="1.64" transform="translate(33.96 -9.57) rotate(90)"/><rect x="2.21" y="11.37" width="0.82" height="1.64" transform="translate(14.81 9.57) rotate(90)"/><rect x="18.55" y="18.14" width="0.82" height="1.64" transform="translate(45.78 18.96) rotate(135)"/><rect x="5.02" y="4.61" width="0.82" height="1.64" transform="translate(13.1 5.42) rotate(135)"/><rect x="18.55" y="4.61" width="0.82" height="1.64" transform="translate(9.39 -11.82) rotate(45)"/><rect x="5.02" y="18.14" width="0.82" height="1.64" transform="translate(15 1.72) rotate(45)"/></g></g></svg>